<svg width="1920" height="1024" viewBox="0 0 1920 1024" fill="none" xmlns="http://www.w3.org/2000/svg">
<g clip-path="url(#clip0_335_860)">
<rect width="1920" height="1024" fill="#"/>
<path d="M928 156.5C786.8 108.9 741.833 33.3333 737 1.5V-59L1957 -33L1965.5 48V1060C1711.33 1061.5 1204.3 1060.7 1209.5 1045.5C1216 1026.5 1231 998 1300.5 923C1370 848 1534 808 1604.5 751C1675 694 1692.5 609 1644 544.5C1595.5 480 1452 509.5 1396 503C1340 496.5 1292.5 442 1257.5 380C1169.5 205.5 1104.5 216 928 156.5Z" fill="#82CFD9"/>
</g>
<defs>
<clipPath id="clip0_335_860">
<rect width="1920" height="1024" fill="white"/>
</clipPath>
</defs>
</svg>
