<svg width="347" height="196" viewBox="0 0 347 196" fill="none" xmlns="http://www.w3.org/2000/svg">
<path fill-rule="evenodd" clip-rule="evenodd" d="M44.4393 47.4574L23.9984 25.3299L27.5674 22.033L48.0083 44.1605L44.4393 47.4574Z" fill="#19405C"/>
<path fill-rule="evenodd" clip-rule="evenodd" d="M44.1996 63.9542L14.0991 62.7615L14.2915 57.9066L44.3919 59.0993L44.1996 63.9542Z" fill="#19405C"/>
<path fill-rule="evenodd" clip-rule="evenodd" d="M64.3249 45.363L65.5175 15.2626L60.6626 15.0702L59.47 45.1706L64.3249 45.363Z" fill="#19405C"/>
<path fill-rule="evenodd" clip-rule="evenodd" d="M303.752 148.928L329.84 163.99L327.411 168.198L301.323 153.136L303.752 148.928Z" fill="#19405C"/>
<path fill-rule="evenodd" clip-rule="evenodd" d="M299.349 132.447L328.447 124.651L329.705 129.344L300.607 137.14L299.349 132.447Z" fill="#19405C"/>
<path fill-rule="evenodd" clip-rule="evenodd" d="M285.651 156.175L293.447 185.272L298.141 184.015L290.344 154.917L285.651 156.175Z" fill="#19405C"/>
</svg>
