<svg width="1920" height="1024" viewBox="0 0 1920 1024" fill="none" xmlns="http://www.w3.org/2000/svg">
<g clip-path="url(#clip0_335_860)">
<rect width="1920" height="1024" fill=""/>
<path d="M1080 1112.5L1080 927.999C1080 903.146 1100.15 882.999 1125 882.999L1402 882.999C1426.85 882.999 1447 862.851 1447 837.999L1447 739.999" stroke="#1E4B6C" stroke-width="15"/>
<path d="M1470 727.999C1470 736.283 1463.28 742.999 1455 742.999L1436 742.999C1427.72 742.999 1421 736.283 1421 727.999L1421 706.999L1470 706.999L1470 727.999Z" fill="#19405C"/>
<path d="M1493 691.999C1493 700.283 1486.28 706.999 1478 706.999L1413 706.999C1404.72 706.999 1398 700.283 1398 691.999L1398 634.999L1493 634.999L1493 691.999Z" fill="#507F94"/>
<path d="M1501 634.999L1391 634.999L1391 622.999L1501 622.999L1501 634.999Z" fill="#19405C"/>
<path d="M1418 622.999L1418 584.999C1418 582.238 1420.24 579.999 1423 579.999L1425 579.999C1427.76 579.999 1430 582.238 1430 584.999L1430 622.999L1418 622.999Z" fill="#19405C"/>
<path d="M1462 622.999L1462 584.999C1462 582.238 1464.24 579.999 1467 579.999L1469 579.999C1471.76 579.999 1474 582.238 1474 584.999L1474 622.999L1462 622.999Z" fill="#19405C"/>
</g>
<defs>
<clipPath id="clip0_335_860">
<rect width="1920" height="1024" fill="white"/>
</clipPath>
</defs>
</svg>
