<?xml version="1.0" standalone="no"?>
<!DOCTYPE svg PUBLIC "-//W3C//DTD SVG 1.1//EN" "http://www.w3.org/Graphics/SVG/1.1/DTD/svg11.dtd" >
<svg xmlns="http://www.w3.org/2000/svg">
<metadata>Generated by IcoMoon</metadata>
<defs>
<font id="icomoon" horiz-adv-x="1024">
<font-face units-per-em="1024" ascent="960" descent="-64" />
<missing-glyph horiz-adv-x="1024" />
<glyph unicode="&#x20;" horiz-adv-x="512" d="" />
<glyph unicode="&#xe900;" glyph-name="at" d="M962 502.4c0 240-182 407-443.2 407-271 0.2-456.8-187.4-456.8-461.2 0-282.4 180.8-461.8 466-461.8 69.6 0 136.6 9.8 186.2 27.2v69.6c-34.8-16-109.4-26.6-185.2-26.6-236.6 0.2-389 152.4-389 388.2 0 230 155.2 394.8 371.6 394.8 221.2 0 372.8-136.6 372.8-336.2 0-136-44.8-224-114.4-224-39.8 0-62.4 22.6-62.4 61.4v324.6h-83.6v-67.4h-8.8c-21.6 48.2-71.2 78-129.4 78-113.2 0-192.2-94-192.2-228.2 0-140.4 77.2-235 192.4-235 64.8 0 114.4 31.4 138.2 87.8h8.8c6.4-54.2 56.8-92.8 121.4-92.8 127 0 207.6 114.4 207.6 294.6v0zM381.4 445.6c0 96.8 43.6 154.4 117.8 154.4 75.2 0 123.4-59.8 123.4-154.4s-48.8-154.8-124.4-154.8c-72.4 0-116.8 58.6-116.8 154.8z" />
<glyph unicode="&#xe901;" glyph-name="cloud" d="M62 379.4c2.4 11.4 4.2 23 7.2 34.2 25.6 93.2 117.6 153.2 212.6 138.8 5.8-0.8 8 0.8 10.4 6 33.8 71.4 113.2 104.6 187.4 78.4 5.6-2 8.2-1.4 11.8 3.8 47.2 67 112.2 96.8 192.4 82.8 81.8-14.4 133-65.8 154-146.6 6.6-25.2 6.2-51.2 1.4-76.8-0.4-2-0.6-4-0.8-6.8 4.2-1.4 8.2-2.8 12.2-4.2 70.6-24.2 117-94.6 110.6-167.8-6.8-77.2-63.4-138.4-139-149.8-9.2-1.4-18.6-1.8-28-1.8-179-0.2-357.8-0.2-536.8 0-98.2 0-175.8 65.4-193.2 162-0.8 4.8-1.6 9.6-2.6 14.6 0.4 10.8 0.4 22 0.4 33.2zM525 204.6c89.6 0 179.2-0.2 268.8 0.2 10.8 0 21.8 0.8 32.2 3 61.2 14 102.2 68 100.4 131.2-1.8 60-46.8 111-107.4 121.8-18.8 3.4-23.4 11-18 29.6 7.2 25 8.6 50.2 3.2 75.6-14.2 67-66 115-133.6 124.6-63.8 9-127.2-24.8-158.8-84.4-7-13.4-15.4-16-28.8-9.2-66.4 33.4-141.2 2.2-164.8-68.4-4.4-13.2-11.6-17.2-25.6-14-22.2 5.2-44.6 6-67 2.2-81.6-13.6-140.4-95.2-127.4-176.8 13-80.6 76.6-135.2 158-135.4 89.6 0 179.2 0 268.8 0z" />
<glyph unicode="&#xe902;" glyph-name="cloud-filled" d="M292 534.2c22.8 78.2 113.8 129 201.8 84.2 49.2 97.4 159.6 118.6 234.4 86.8 64.6-27.4 134.4-110.6 101.4-224.4 4.4-1 8.8-1.8 13.2-2.8 73.4-16.8 122.8-81.8 119.2-157.2-3.4-72.8-60.8-134-134.4-142.8-6.4-0.8-12.8-0.8-19.2-0.8-187.4 0-374.8-0.2-562.2 0-91.4 0.2-164.4 61.2-181.2 150.8-18.2 96.4 51 194.4 147.8 209.8 26.4 4.2 52.6 3.2 79.2-3.6z" />
<glyph unicode="&#xe903;" glyph-name="hard-drive" d="M751 251.2c11.2 0 22 4.4 29.8 12.4 8 8 12.4 18.6 12.4 29.8s-4.4 22-12.4 29.8c-8 8-18.6 12.4-29.8 12.4s-22-4.4-29.8-12.4-12.4-18.6-12.4-29.8c0-11.2 4.4-22 12.4-29.8 8-8 18.6-12.4 29.8-12.4zM75.4 400.6c-8.8-20.6-13.4-42.8-13.4-65v-112.4c0-29.8 11.8-58.4 33-79.6 21-21 49.8-33 79.6-33h675c29.8 0 58.4 11.8 79.6 33 21 21 33 49.8 33 79.6v112.4c0 21.6-3.4 43.4-10.6 64-46.2 132.2-106 259.4-138 324.8-9.2 18.4-23.2 34-40.8 44.8s-37.8 16.6-58.4 16.4h-399.8c-22 0-43.6-6.4-62-18.6s-32.8-29.4-41.4-49.6l-135.8-316.8zM314.6 729.2h399.6c21 0 39.8-11.6 48.8-29.8 26.4-53.8 71.4-149.4 111.8-254.4-8.2 1.8-16.8 2.8-25.2 2.8h-675.2c-6.2 0-12.4-0.6-18.2-1.4l106.6 248.6c4.4 10.2 11.6 18.8 20.8 24.8 9.2 6.2 20 9.4 31 9.4zM905.8 223c0-15-6-29.2-16.4-39.8-10.6-10.6-24.8-16.4-39.8-16.4h-675.2c-15 0-29.2 6-39.8 16.4s-16.4 24.8-16.4 39.8v112.4c0 15 6 29.2 16.4 39.8s24.8 16.4 39.8 16.4h675c15 0 29.2-6 39.8-16.4 10.6-10.6 16.4-24.8 16.4-39.8v-112.4z" />
<glyph unicode="&#xe904;" glyph-name="home" d="M962 429.6c-5.2-15.4-12.2-29.8-24.4-41-15.8-14.4-34.4-22.2-55.8-22.4-4.4 0-8.8 0-14.8 0 0-3.8 0-7 0-10.4 0-86.2 0.2-172.6 0-258.8-0.2-47.2-30-85.2-75.2-96-8-1.8-16.2-2.6-24.4-2.6-45.8-0.2-91.6-0.2-137.4-0.2-20 0-30.4 10.4-30.6 30.4 0 67.4-0.8 135 0.4 202.4 0.4 29.4-19.6 51.6-51 50.4-24.6-1-49.2-0.2-74-0.2-30.6 0-48.6-18-48.6-48.8 0-67.2 0-134.4 0-201.6 0-23-9.8-32.6-32.6-32.6-44.6 0-89.2 0-133.8 0-59.2 0-101 41.6-101 100.8-0.2 85 0 170.2 0 255.2 0 3.4 0 7 0 11-10 0.8-19.8 0.8-29 2.6-31.4 6.2-53 24.8-63 54.8-10 29.8-4 57.2 16.4 81.4 2.6 3.2 5.6 6 8.6 8.8 114.8 114.8 229.6 229.4 344.2 344.2 16.6 16.6 32.6 33.6 56 40.8 14 0 28.2 0 42.2 0 22.2-7.2 38.2-23 54.2-39 112.8-113.2 225.8-226 339-338.8 15.2-15.2 28.8-30.8 34.8-51.8-0.2-12.8-0.2-25.8-0.2-38.6zM652.4 51c4 0 7.2 0 10.2 0 33.8 0 67.4 0 101.2 0 33 0 50.4 17.4 50.4 50.6 0 95.6 0 191.2 0 287 0 19.8 10.6 30.2 30.6 30.4 12.4 0 24.6-0.2 37 0.2 13.4 0.4 24 8.8 27.8 21.6 4.4 14.8-2.8 25.2-12.6 35-119.2 119-238.2 238.2-357.4 357.2-19.2 19.2-34 19-53.4-0.4-106-106-212-212-318-318-14.8-14.8-29.6-29.4-44.2-44.2-9.2-9.6-11.6-21-6.2-33.2 5.2-11.8 14.8-18 27.8-18 10.8-0.2 21.8 0 32.6 0 24.2 0 33.8-9.4 33.8-33.4 0-95.6 0-191.2 0-287 0-29 18.4-47.4 47.2-47.4 35.2 0 70.4 0 105.6 0 2.8 0 5.6 0.2 9 0.4 0 4.2 0 7.8 0 11.2 0 59.6-0.4 119.2 0.4 178.6 0.8 46.8 38.4 88 85.2 91.2 35.8 2.4 72 0.4 108.2 0.4 2.6 0 5.2-0.6 7.8-1.2 46.2-10.2 77-48 77.2-96 0.4-57.8 0-115.6 0-173.4-0.2-3.8-0.2-7.2-0.2-11.6z" />
<glyph unicode="&#xe905;" glyph-name="home-filled" d="M62 435.8c0 8.2 0 16.4 0 24.6 5.4 26.2 22.2 44.6 40.6 62.8 111.4 111 222.8 222.2 333.6 333.6 18.4 18.4 36.8 35.8 63.4 41.2 8.2 0 16.4 0 24.6 0 26.6-5.2 45-22.8 63.4-41.2 114.4-114.8 229.2-229.2 343.6-343.6 3.8-3.8 7.6-7.4 11-11.4 41.2-48.4 14.8-123.2-47.6-134.8-9.4-1.8-19-1.6-29-2.6 0-3.8 0-7.4 0-10.8 0-85 0-169.8 0-254.8 0-59-41.8-100.6-100.6-100.8-44.8 0-89.6 0-134.4 0-22.2 0-32 10-32 32.4 0 67.4 0 134.8 0 202.2 0 30-18.2 48-48.2 48.2-24.8 0-49.8-0.6-74.6 0.2-30.6 1-50.8-20.8-50.4-50 1-67 0.4-134.2 0.4-201.2 0-21.6-10.2-31.6-31.8-31.6-44.2 0-88.4 0-132.6 0-61.4 0-102.4 41.2-102.4 102.4 0 84.6 0 169.4 0 254 0 3.4 0 6.8 0 9.8-1.8 0.6-2.2 1-2.8 1-4.4 0.2-8.8 0-13.2 0.2-32.2 1.6-56.2 16.8-71.4 45.2-4.6 7.4-6.6 16.4-9.6 25z" />
<glyph unicode="&#xe906;" glyph-name="lock" d="M910.4-3h-799v563.4h134.6c0.4 90.6 3 169 32.4 227.8 37.2 74.2 111 108.6 232.2 108.6s195.4-34.6 232.2-108.6c29.4-58.8 32.2-137.2 32.4-227.8h135v-563.4zM169.8 55.4h682.2v446.6h-682.2v-446.6zM304.6 560.4h412.6c-0.6 185.2-10.2 278.2-206.4 278.2s-205.6-93-206.2-278.2zM511 232.4c-16.2 0-29.4 13.2-29.4 29.4v101.2c0 16.2 13.2 29.4 29.4 29.4s29.4-13.2 29.4-29.4v-101.2c-0.2-16.2-13.2-29.4-29.4-29.4zM511 233.6c18.6 0 33.6-15 33.6-33.6s-15-33.6-33.6-33.6-33.6 15-33.6 33.6c0 18.6 15 33.6 33.6 33.6zM511 292.4c-50.8 0-92.2-41.4-92.2-92.2s41.4-92.2 92.2-92.2 92.2 41.4 92.2 92.2-41.4 92.2-92.2 92.2v0z" />
<glyph unicode="&#xe907;" glyph-name="qr-code" d="M769.2 62.2v64.2h64.2v-64.2h-64.2zM576.2 190.8v64.2h64.2v-64.2h-64.2zM576.2-2h128.8v64.2h-64.2v64.2h-64.2v-128.4h-0.4zM833.4 126.6v128.8h64.2v-128.8h-64.2zM897.8 126.6h64.2v-128.6h-128.6v64.2h64.2l0.2 64.4zM833.4 319.4v64.2h128.6v-128.6h-64.2v64.2h-64.4v0.2zM769.2 319.4h-64.2v-128.8h-64.2v-64.2h128.6v193h-0.2zM576.2 319.4v64.2h128.8v-64.2h-128.8zM190.6 255.2h128.6v-128.8h-128.6v128.8zM447.8-2h-385.8v385.8h385.8v-385.8zM126.2 62.2h257.2v257h-257.2v-257zM704.8 769.4h128.8v-128.6h-128.8v128.6zM962 512.2h-385.8v385.8h385.8v-385.8zM640.6 576.6h257v257.2h-257v-257.2zM190.6 769.4h128.6v-128.6h-128.6v128.6zM447.8 512.2h-385.8v385.8h385.8v-385.8zM126.2 576.6h257.2v257.2h-257.2v-257.2z" />
<glyph unicode="&#xe908;" glyph-name="shared-by-me" d="M315 257c-9 0-18 1.8-26.8 5.8-25.6 11.2-41 33.4-41.2 59.6-1.2 58-2.6 117.8 17.6 177.8 50.2 149.6 153.6 243.4 307.4 278.4 17 4 33.2 5.2 49.2 6.4 0 1.4 0 3 0 4.4 0.2 22.4 0.2 45.6-0.2 68-1.6 48.6 27.2 68.6 44.4 76.2l7.8 3.4h36l10.8-8.2c1.4-1 3.2-2.2 5-3.6 5.8-4 12.8-8.8 19.6-16 54.2-55.6 108.8-112.6 161.8-167.6 17.8-18.6 35.6-37 53.4-55.6 9-9.2 16.6-18.8 24.2-28 2.6-3.2 5.2-6.6 8-9.8l9.2-11.2v-43.4l-9.6-11.2c-3.4-4-6.6-8-10.2-12.4-5.8-7.2-11.8-14.6-18.6-22l-0.6-0.6c-71.6-74.4-145.8-151.4-220.4-229.2-23.6-24.8-54.8-31-83.2-16.6l-0.6 0.4c-23.4 12.4-37 35.6-37 63.8v78.6c-65.6-1.2-120.2-19.2-166.2-54.2-32.4-24.4-58.4-55.6-77.4-92.6-13.4-26-37.2-40.6-62.4-40.6zM327 322.8v0c0 0 0 0 0 0zM701 365v0 0zM657 707.4l-1-0.2c-8.8-1-17.6-1.6-26-2.2-14.4-1-28-1.8-39.6-4.6h-0.4c-126.6-28.8-208.2-102.8-249.6-225.8-11.2-33.6-14-68.8-14.2-105.8 21.8 33 48.6 61.6 80 85.4 70 53.2 153.6 76 255.2 69.4v0c6.4-0.4 16.4-2.6 25.6-11.4l13.6-11.4v-109c69.2 71.4 137.4 142.2 203.4 210.8 3.6 4 7.4 8.4 11 13-4.4 5.4-8.8 10.4-13.2 15-17.8 18.6-35.6 37-53.4 55.6-48.2 50.2-98 101.8-147.2 152.6 0.2-16.8 0-33.8 0-50.2 0-9.8-0.2-19.6-0.2-29.6v-49.6l-38-2c-1.2 0-2.4-0.2-3.6-0.2-0.6 0.2-1.6 0.2-2.4 0.2zM682.4 372.4v0 0zM656 443.6c0.4 0 0.6 0 1 0h-0.4c-0.2-0.2-0.4 0-0.6 0zM61.4 652.4c1.2 2.6 2.4 5 3 7.8 12.6 50.4 55.4 85.4 107.4 86.6 37.8 1 75.6 0.4 113.4 0.4 22.8-0.4 38.6-16.2 38.4-38-0.4-21.4-16.4-36.8-39.6-37.2-35.6 0-71.4 0-107 0-24.8 0-40.2-15-40.2-39.6 0-173.4 0-346.8 0-520.2 0-24.8 15-39.6 40.2-39.6 222.8 0 445.8 0 668.6 0 25.8 0 40.4 15 40.4 41.2 0 97.4 0 195 0 292.4 0 25.8 18.2 43.4 41.6 40.8 17.8-2 27.6-13.8 33.4-29.6 0-108.2 0-216.6 0-325.2-1.2-2.6-2.4-5.2-3-7.8-12-45-40.8-72.8-85.8-84.6-2.6-0.6-5.4-1.6-7.8-2.4-236 0-472.2 0-708.2 0-2 0.8-4 1.8-6.4 2.4-45.6 12-74.4 40.4-86.4 86.4-0.6 2.2-1.6 3.8-2.4 6.2 0.4 186.2 0.4 373.4 0.4 560z" />
<glyph unicode="&#xe909;" glyph-name="shared-by-me-filled" d="M961 608.6c-9.4-11-18-22.8-27.8-33.4-73.6-76.4-147-152.6-220.4-229.2-11.6-12.2-23.6-15-36.2-8.6-11.4 6-15.6 16.2-15.6 28.4 0 35.6 0 71.4 0 107 0 3.4 0 6.4 0 9-1.2 1-1.6 1.6-1.8 1.6-83.2 5.4-160.8-9.8-228.6-61.4-37.6-28.4-67.2-64.2-88.8-106.2-8.4-16.2-23.2-22.8-37.6-16.4-10.2 4.4-17.2 12-17.2 23.4-1.2 55.6-2.4 111 15.6 164.4 45.6 136.2 138.8 220.4 278.6 252.2 22.8 5.4 47.2 5 70.4 7.6 2.8 0.4 5.8 0.4 9.6 0.6 0 4.2 0 7.8 0 11.6 0 33 0.6 66.2-0.2 99.2-0.6 17.4 3.8 31 20.6 38.4 4.8 0 9.2 0 14.2 0 6.6-5 14.2-9.2 19.8-15.2 72-74 143.6-148.8 215.2-223.2 10.8-11.2 20.2-23.6 30.2-35.6 0-4.8 0-9.4 0-14.2zM61.4 652.4c1.2 2.6 2.4 5 3 7.8 12.6 50.4 55.4 85.4 107.4 86.6 37.8 1 75.6 0.4 113.4 0.4 22.8-0.4 38.6-16.2 38.4-38-0.4-21.4-16.4-36.8-39.6-37.2-35.6 0-71.4 0-107 0-24.8 0-40.2-15-40.2-39.6 0-173.4 0-346.8 0-520.2 0-24.8 15-39.6 40.2-39.6 222.8 0 445.8 0 668.6 0 25.8 0 40.4 15 40.4 41.2 0 97.4 0 195 0 292.4 0 25.8 18.2 43.4 41.6 40.8 17.8-2 27.6-13.8 33.4-29.6 0-108.2 0-216.6 0-325.2-1.2-2.6-2.4-5.2-3-7.8-12-45-40.8-72.8-85.8-84.6-2.6-0.6-5.4-1.6-7.8-2.4-236 0-472.2 0-708.2 0-2 0.8-4 1.8-6.4 2.4-45.6 12-74.4 40.4-86.4 86.4-0.6 2.2-1.6 3.8-2.4 6.2 0.4 186.2 0.4 373.4 0.4 560z" />
<glyph unicode="&#xe90a;" glyph-name="shared-with-me" d="M756.6 852.8c-14.2-13.6-27.2-28.2-39.2-43.8-56.2-74-80.2-161.6-73.6-268 0.6-13.6 5.8-26.2 15.2-37.4v0c11.4-13.6 28.2-21.6 46-21.6h41c-20.4-19.6-40.8-39.2-60.8-58.6-37.2-35.8-75.6-72.8-113.4-109.2-0.4 0.4-0.8 0.8-1.4 1.2-66.8 64.2-122.2 117.4-172.6 166.2 0.4 0 0.6 0 1 0 9.6 0 19.8 0 29.4 0h11.6c32 0 58.4 25.2 60 57.2 0 1.4 0.2 2.6 0.2 3.6 0 0.6 0 1.2 0 1.8 0 0.4 0 0.6 0 1 0.8 8.4 1.4 16.4 1.8 24.2 1 14.4 1.8 27.8 4.4 38.8 0 0 0 0.2 0 0.2 27.2 119.4 96.8 196.2 212.8 235.2 12.6 4.6 25 7.4 37.6 9.2zM500.2 545v0 0zM824.2 917c-41.8 0-83.6-2.6-124-16.2-136.2-45.6-220.4-138.8-252.2-278.8-5.2-22.8-5-47.2-7.4-70.6-0.4-2.8-0.4-5.6-0.6-9.4-4.2 0-8 0-11.6 0-19.8 0-39.8-0.2-59.6-0.2-13.2 0-26.4 0-39.6 0.4-0.8 0-1.8 0-2.6 0-16.2 0-28.8-5-36-20.8 0-4.8 0-9.4 0-14 5-6.6 9.4-14 15.2-19.8 74.2-71.8 148.8-143.6 223.2-215.2 11.2-10.8 23.8-20.2 35.6-30.4 4.8 0 9.4 0 14 0 11 9.4 22.8 18 33.2 28 76.4 73.4 152.8 147.2 229.2 220.6 12.4 11.8 15 23.8 8.6 36.2-6 11.4-16.2 15.4-28.4 15.4-35.6 0-71.6 0-107.2 0-3.2 0-6.4 0-9.2 0-0.8 1-1.4 1.6-1.4 2-5.2 83.2 10 160.8 61.6 228.6 28.6 37.6 64.2 67.2 106.2 89 16.4 8.4 22.6 23 16.6 37.6-4.4 10.2-12.2 17-23.4 17.2-13.2 0.2-26.8 0.4-40.2 0.4v0zM63.2 635c1 2.6 2.4 5 3 7.8 12.6 50.4 55.6 85.4 107.4 86.6 37.8 0.8 75.6 0.4 113.4 0.2 22.6-0.2 38.6-16.4 38.4-38.2-0.2-21.4-16.6-37-39.6-37-35.6 0-71.6 0-107.2 0-24.8 0-40.2-15.2-40.2-39.8 0-173.4 0-346.8 0-520.4 0-24.8 15.2-39.8 40-39.8 222.8 0 445.8 0 668.8 0 25.8 0 40.6 15 40.6 41.2 0 97.6 0 195.2 0 292.6 0 25.6 18.2 43.6 41.8 40.8 17.8-2.2 27.6-13.8 33.2-29.8 0-108.4 0-216.8 0-325.2-1-2.6-2.2-5-3-8-12-45-40.8-73-85.8-84.6-2.6-0.8-5.2-1.6-8-2.4-236 0-472.4 0-708.4 0-2.2 0.8-4 2-6.2 2.4-45.8 12-74.4 40.6-86.4 86.4-0.6 2.2-1.6 4-2.4 6.2 0.6 187 0.6 374 0.6 561z" />
<glyph unicode="&#xe90b;" glyph-name="shared-with-me-filled" d="M579 241.8c11 9.4 22.8 18 33.2 28 76.4 73.4 152.8 147.2 229.2 220.6 12.4 11.8 15 23.8 8.6 36.2-6 11.4-16.2 15.4-28.4 15.4-35.6 0-71.6 0-107.2 0-3.2 0-6.4 0-9.2 0-0.8 1-1.4 1.6-1.4 2-5.2 83.2 10 160.8 61.6 228.6 28.6 37.6 64.2 67.2 106.2 89 16.4 8.4 22.6 23 16.6 37.6-4.4 10.2-12.2 17-23.4 17.2-55.4 1-111 2.2-164.4-15.6-136.4-45.6-220.6-138.8-252.4-278.8-5.2-22.8-5-47.2-7.4-70.6-0.4-2.8-0.4-5.6-0.6-9.4-4.2 0-8 0-11.6 0-33 0-66.2-0.6-99.4 0.2-17.4 0.6-31-4-38.4-20.8 0-4.8 0-9.4 0-14 5-6.6 9.4-14 15.2-19.8 74.2-71.8 148.8-143.6 223.2-215.2 11.2-10.8 23.8-20.2 35.6-30.4 5-0.2 9.6-0.2 14.4-0.2zM63.2 635c1 2.6 2.4 5 3 7.8 12.6 50.4 55.6 85.4 107.4 86.6 37.8 0.8 75.6 0.4 113.4 0.2 22.6-0.2 38.6-16.4 38.4-38.2-0.2-21.4-16.6-37-39.6-37-35.6 0-71.6 0-107.2 0-24.8 0-40.2-15.2-40.2-39.8 0-173.4 0-346.8 0-520.4 0-24.8 15.2-39.8 40-39.8 222.8 0 445.8 0 668.8 0 25.8 0 40.6 15 40.6 41.2 0 97.6 0 195.2 0 292.6 0 25.6 18.2 43.6 41.8 40.8 17.8-2.2 27.6-13.8 33.2-29.8 0-108.4 0-216.8 0-325.2-1-2.6-2.2-5-3-8-12-45-40.8-73-85.8-84.6-2.6-0.8-5.2-1.6-8-2.4-236 0-472.4 0-708.4 0-2.2 0.8-4 2-6.2 2.4-45.8 12-74.4 40.6-86.4 86.4-0.6 2.2-1.6 4-2.4 6.2 0.6 187 0.6 374 0.6 561z" />
<glyph unicode="&#xe90c;" glyph-name="star" d="M962 529.6c-4.8-15.8-15.6-26.6-27.8-37.2-59.4-51.6-118.6-103.8-178-155.6-5.2-4.6-6.8-8.6-5.2-15.6 18.6-80.6 36.8-161.4 55.2-242 4.8-21 0.4-39.4-17.2-52.4-18-13.4-37-12.6-55.8-1.2-70.8 42.4-141.6 84.6-212.4 127.2-6.4 3.8-10.8 4-17.2 0.2-70.6-42.6-141.6-85-212.4-127.2-24-14.2-49.8-10.2-65.4 9.8-9.8 12.6-12 27-8.6 42.4 18.2 80.4 36.4 160.8 55 241.2 2 8.6 0.4 13.4-6.2 19.2-62.2 54-123.8 108.4-185.8 162.6-16 14-22.6 31.4-16 52 6.4 20 21 31.2 42 33.4 16.4 1.6 32.6 3.2 49 4.6 67.4 6 134.6 12.2 202 18 6 0.6 9 3.2 11.2 8.6 32.4 76.2 65 152.2 97.4 228.4 8.8 20.6 23.4 33.2 46 33 22.8 0 37.2-12.8 45.8-33.4 32.2-76 64.8-151.6 97-227.6 2.6-6.4 6.2-8.8 12.8-9.4 80.4-7 161-14.8 241.4-21.4 27-2.2 45-14 52.8-40.4 0.4-5.6 0.4-11.4 0.4-17.2zM276.2 82.6c3.8 2.2 6.2 3.4 8.8 5 65.6 39.2 131.2 78.2 196.6 117.8 20.8 12.6 40 12.8 60.8 0.2 65-39.4 130.4-78.2 195.8-117.2 2.8-1.6 5.6-3.2 9.4-5.4-0.6 2.8-0.6 4-1 5-17.4 77-34.8 154-52.4 231-5 21.6 0.6 39 17.4 53.4 57.4 50 114.6 100.4 171.8 150.6 3 2.6 5.8 5.2 9.8 9-3.8 0.6-5.4 1-7.2 1.2-77.2 7-154.4 14.4-231.8 20.8-23.6 2-38.8 13.2-47.8 35-29.4 70-59.6 139.8-89.4 209.8-1.4 3.2-2.8 6.2-5 10.8-2.8-6.2-5-10.8-7-15.4-29.4-68.8-58.8-137.6-88.2-206.6-8.2-19.2-21.6-31-42.8-33-72.6-6.6-145.2-13.2-217.8-19.8-8-0.8-15.8-1.6-26.2-2.8 4-3.4 6.2-5.2 8.4-7.2 58.2-51 116.2-102 174.4-152.8 16.2-14 21.6-31.2 16.8-52-12.4-54.4-24.8-109-37.2-163.4-5-24.4-10.4-48.6-16.2-74z" />
<glyph unicode="&#xe90d;" glyph-name="star-filled" d="M62 547c5.2 16.6 14 31.2 31.4 36 13.6 3.8 28.2 4.6 42.4 6 73.8 6.8 147.6 13.4 221.4 19.8 6 0.6 9 2.8 11.4 8.4 32.4 76.2 65 152.2 97.4 228.4 6.6 15.4 16.4 27 32.8 31.6 24 6.8 47.4-4.8 57.8-29 22-51.2 44-102.6 65.8-154 11-25.8 22.2-51.6 33-77.4 2-5 4.6-7.2 10-7.8 54.2-4.8 108.4-9.6 162.8-14.6 29.8-2.6 59.4-5.4 89.2-8.4 20.8-2 35.2-13 41.6-32.6 6.8-20.4 1-38.2-15-52.2-62.2-54.8-124.6-109.4-187-163.8-5.6-5-7.8-9-6-17 18.8-80.6 37-161.4 55.2-242 4.8-21-0.2-39.4-17.8-52.2-17.8-12.8-36.6-12.2-55.2-1.2-71 42.6-142.2 85-213 127.6-6 3.6-10.4 3.8-16.4 0-70.6-42.6-141.6-84.8-212.4-127.2-24-14.4-49.8-10.6-65.4 9.4-9.8 12.6-12.4 27-8.8 42.4 18.4 80.8 36.6 161.4 55.2 242 2 8.2 0.4 13-6 18.6-62.2 54-123.8 108.4-185.8 162.4-9.2 8-14.6 18-18.6 29 0 6.2 0 12 0 17.8z" />
<glyph unicode="&#xe90e;" glyph-name="trash" d="M443.4 898c45.6 0 91.2 0 136.8 0 0.8-0.4 1.4-1.2 2.2-1.4 44.2-9.8 69.6-41.8 69.8-87.2 0-7.8 0-15.6 0-24 4.2 0 7.4 0 10.6 0 48 0 96 0.2 143.8 0 38-0.2 69-29.8 69.8-67 0.8-34 0.4-68 0.2-102-0.2-15.8-12.2-27.2-28.2-27.8-4.8-0.2-9.8 0-15.2 0-1-21.2-1.8-41.4-2.8-61.4-4.4-94-9-187.8-13.4-281.8-2.8-57-4.8-114.2-8.8-171.2-2.4-34.6-22.2-58.2-54.4-71-5.6-2.2-11.6-3.6-17.4-5.2-149.8 0-299.4 0-449.2 0-2 0.6-3.8 1.4-5.8 1.8-34 7.4-59.8 33.4-65.4 67.6-2.4 14-2.2 28.6-2.8 43-7 146.8-14 293.8-21 440.6-0.6 12.4-1.4 25-2.2 37.8-4.2 0-7.4 0-10.6 0-22 0-32.6 10.8-32.6 33 0 29.6 0 59.2 0 88.8 0 45.2 29.6 75 74.6 75 46.8 0 93.6 0 140.4 0 3 0 6.2 0 9.8 0 0 10.6-0.2 20 0 29.2 1.2 31 14.6 55.2 41.4 71 9.2 5.4 20.2 8.2 30.4 12.2zM774.8 588c-175.2 0-351.2 0-528 0 1.4-32.4 2.8-64.2 4.4-96 4.4-94.4 9-189 13.6-283.4 2-41.6 3.8-83 6-124.6 1.2-19.8 12.2-29.6 31.6-29.6 139.8 0 279.4 0 419.2 0 3.4 0 7 0.2 10.4 1 14.6 3.8 20.8 13.8 21.8 34.8 7 148 14.2 296 21 444 0.6 17.6 0 35.4 0 53.8zM203.2 645.4c206.4 0 411.6 0 617.4 0 0 21.4 0 42 0 62.8 0 17.2-3.8 21-21.2 21-191.8 0-383.4 0-575.2 0-2.4 0-4.6 0.2-7 0-8.4-0.6-14-5.6-14-13.8-0.2-23.2 0-46.2 0-70zM596 785.8c0 10.2 0.4 19.6 0 29-0.6 14.8-12.2 26.8-27.2 26.8-38 0.4-76 0.2-114 0-13.2 0-24.8-9.8-26.4-22.6-1.4-10.8-0.2-22-0.2-33.2 56 0 111.4 0 167.8 0zM399.6 321.8c0-60.4 0-120.6 0-181 0-21.6-19-35.6-37.8-28.4-11.4 4.4-18.2 14.4-18.2 27.4-0.2 28.2 0 56.2 0 84.4 0 92.6 0 185.2 0 277.6 0 22.2 19 36.2 38.2 28.6 11.2-4.4 17.8-14.6 17.8-28.6 0-58.2 0-116.6 0-174.8 0-1.8 0-3.6 0-5.2zM483.8 322c0 60.4 0 120.6 0 181 0 21 18.8 34.6 37.6 27.6 11-4 18.2-14.2 18.4-26.4 0.2-14 0-28.2 0-42.2 0-105.8 0-211.4 0-317.2 0-4 0.2-8.2-0.8-12.2-3.2-14.2-16.6-23.6-30.6-21.8-14.4 1.8-24.6 13.8-24.8 29.4 0 56.2 0 112.4 0 168.8 0.2 4.2 0.2 8.6 0.2 13zM680.4 321.4c0-60.4 0-120.6 0-181 0-21.8-20-36-38.8-27.6-11.8 5.4-17.4 15-17.2 28 0.2 46.6 0 93.2 0 139.8 0 73.8 0 147.6 0 221.4 0 22 19.4 36 38.4 28.4 11.2-4.6 17.6-14.8 17.6-28.8 0-60 0-120 0-180.2z" />
<glyph unicode="&#xe90f;" glyph-name="trash-filled" d="M580.8 898c5.6-1.8 11-3.2 16.6-5.2 32.8-11.8 54.8-42.4 55.6-77 0.2-9.6 0-19.2 0-30.2 3.6 0 6.6 0 9.8 0 47.2 0 94.4 0 141.8 0 44 0 73.8-30 74-74 0-17 0.2-34 0-51-0.2-18-11.8-29.6-30-29.6-224.2 0-448.4 0-672.6 0-18 0-30 11.8-30 29.6 0 22.2-1.4 44.8 1.6 66.6 4.6 34.4 33.8 58.2 68.8 58.4 48.2 0.2 96.2 0 144.4 0 3.2 0 6.4 0 10.6 0 0 8.8 0 16.8 0 25 0.2 44.2 25.8 76.2 69.2 86 1 0.2 2 1 3 1.4 45.6 0 91.4 0 137.2 0zM427.6 786.2c56.8 0 112.8 0 169 0 0 10 0.4 19.4 0 28.6-0.6 14.8-12.2 26.8-27.2 26.8-38.2 0.4-76.2 0.4-114.4 0-14.6-0.2-26.4-11.8-27.2-26-0.6-9.6-0.2-19.2-0.2-29.4zM512 574.6c102.2 0 204.2 0 306.4 0 13.6 0 15.6-2.2 14.8-16-3.2-67-6.4-134-9.6-201-4.6-94.2-8.6-188.4-14-282.6-2.4-43.4-38.6-76.4-82.4-76.8-34.6-0.4-69.2-0.2-103.8-0.2-107.8 0-215.4 0-323.2 0-43.2 0-78.2 27.8-85 69.2-3 18-2.8 36.8-3.8 55.2-3.8 79.6-7.4 159.2-11.2 238.6-3.2 66.2-6.2 132.2-9.6 198.4-0.6 12.4 1.6 15.2 14 15.2 102.6 0 205 0 307.4 0zM343 321.4c0-24.8 0-49.8 0-74.6 0-36-0.2-72 0-108 0-14.8 11.2-26.6 25.2-28 14.2-1.4 27.4 8.2 30.4 22.4 0.8 3.6 0.6 7.6 0.6 11.4 0 118 0 236 0 354.2 0 2.6 0.2 5.2-0.2 8-1.4 11.4-7.2 19.8-18 24-19 7.6-38.2-6.4-38.2-28 0.2-60.6 0.2-121 0.2-181.4zM540.2 321.6c0 60 0 120 0 180.2 0 14-6.4 24.2-17.6 28.8-19.2 7.8-38.6-6.4-38.6-28.4 0-74.2 0-148.2 0-222.4 0-46.2 0-92.6 0-138.8 0-13 5.4-22.8 17.4-28 18.8-8.4 39 5.8 39 27.6 0 60.2-0.2 120.6-0.2 181zM681.2 320.6c0 60.4 0 120.6 0 181 0 14-6.4 24.2-17.6 28.8-19.2 7.8-38.6-6.2-38.6-28.2 0-71.2 0-142.4 0-213.6 0-49 0-97.8 0-146.8 0-9.2 2.2-17.4 9.2-23.8 9-7.8 19.2-10 30.2-5 11.6 5.2 17 14.6 17 27.4-0.2 60.2-0.2 120.2-0.2 180.2z" />
<glyph unicode="&#xe910;" glyph-name="search" d="M909-2c-13.6 0-27.2 5.2-37.4 15.6l-152.4 152.8c-28.4-21.8-59.4-39.8-92.8-53.6-49.8-20.6-102.4-31-156.2-31s-106.4 10.4-156.2 31c-49.8 20.6-94.4 50.4-132.4 88.4s-67.8 82.6-88.4 132.4c-20.8 49.8-31.2 102.4-31.2 156.2s10.4 106.4 31 156.2c20.6 49.8 50.4 94.4 88.4 132.4s82.6 67.8 132.4 88.4c50 20.8 102.6 31.2 156.4 31.2s106.4-10.4 156.2-31c49.8-20.6 94.4-50.4 132.4-88.4s67.8-82.6 88.4-132.4c20.6-49.8 31-102.4 31-156.2s-10.4-106.4-31-156.2c-13.8-33.2-31.6-64.2-53.4-92.4l152.6-152.8c20.6-20.6 20.6-54.2 0-74.8-10.2-10.6-23.8-15.8-37.4-15.8zM470.2 792.2c-80.8 0-156.6-31.4-213.8-88.6s-88.6-133-88.6-213.8c0-80.8 31.4-156.6 88.6-213.8 57-57.2 133-88.6 213.8-88.6 80.4 0 156 31.2 213 87.6 0.4 0.4 0.6 0.8 1 1 0.4 0.4 0.6 0.6 1 1 56.4 57 87.4 132.4 87.4 212.6 0 80.8-31.4 156.6-88.6 213.8s-133 88.8-213.8 88.8z" />
<glyph unicode="&#xe911;" glyph-name="cog" d="M512 268c99.2 0 180 80.8 180 180s-80.8 180-180 180-180-80.8-180-180 80.8-180 180-180zM512 538c48.8 0 90-41.2 90-90s-41.2-90-90-90-90 41.2-90 90 41.2 90 90 90zM100 261.8l45-77.8c23.8-41.2 81.4-56.8 122.8-32.8l23.8 13.8c26-20.4 54.8-37.4 85.4-50v-27c0-49.6 40.4-90 90-90h90c49.6 0 90 40.4 90 90v27c30.6 12.8 59.2 29.6 85.4 50l23.8-13.8c41.6-23.8 99-8.4 122.8 32.8l45 77.8c12 20.6 15.2 45.2 9 68.2s-21.2 42.8-41.8 54.6l-22.8 13.2c4.8 33.2 4.8 66.8 0 100l22.8 13.2c20.6 12 35.8 31.6 41.8 54.6 6.2 23 3 47.6-9 68.2l-45 77.8c-23.8 41.4-81.4 57-122.8 33l-23.8-13.8c-26 20.4-54.8 37.4-85.4 50v27.2c0 49.6-40.4 90-90 90h-90c-49.6 0-90-40.4-90-90v-27c-30.6-12.8-59.2-29.6-85.4-50l-23.8 13.8c-41.6 23.8-99 8.4-122.8-33l-45-77.6c-12-20.6-15.2-45.2-9-68.2s21.2-42.8 41.8-54.6l22.8-13.2c-4.8-33.2-4.8-66.8 0-100l-22.8-13.2c-20.6-12-35.8-31.6-41.8-54.6-6.2-23.2-2.8-47.8 9-68.6zM249.6 386c-5 20.2-7.6 41.2-7.6 62s2.6 41.6 7.6 62c2.4 9.4 1.6 19.4-2.2 28.4s-10.4 16.6-19 21.4l-50.4 29.4 45 77.8 51.6-29.8c8.4-4.8 18.2-6.8 27.8-5.8 9.6 1.2 18.6 5.4 25.6 12.2 30.4 29 67.2 50.4 107.2 63 9.2 2.8 17.2 8.6 23 16.2 5.8 7.8 8.8 17.2 8.8 26.8v58.4h90v-58.4c0-9.6 3.2-19 8.8-26.8 5.8-7.8 13.8-13.4 23-16.2 40.2-12.4 76.8-34 107.2-63 7-6.6 16-11 25.6-12 9.6-1.2 19.4 0.8 27.8 5.6l51.4 29.8 45-77.8-50.6-29.2c-8.4-4.8-15.2-12.4-19-21.4s-4.6-19-2.2-28.4c5-20.4 7.6-41.2 7.6-62s-2.6-41.6-7.6-62c-2.4-9.4-1.6-19.4 2.2-28.4s10.4-16.6 19-21.4l50.6-29.2-45-77.8-51.6 29.8c-8.4 4.8-18.2 6.8-27.8 5.8-9.6-1.2-18.6-5.4-25.6-12.2-30.4-29-67.2-50.4-107.2-63-9.2-2.8-17.2-8.6-23-16.2-5.8-7.8-8.8-17.2-8.8-26.8v-58.4h-90v58.4c0 9.6-3.2 19-8.8 26.8-5.8 7.8-13.8 13.4-23 16.2-40.2 12.4-76.8 34-107.2 63-7 6.8-16 11-25.6 12.2s-19.4-0.8-27.8-5.8l-51.4-29.8-45 77.4 50.6 29.2c8.4 4.8 15.2 12.4 19 21.4 3.6 9.2 4.4 19.2 2 28.6z" />
<glyph unicode="&#xe912;" glyph-name="bell-filled" d="M858.8 282.4c-16.2 49.4-24.6 101-24.6 153v128.6c1.2 81.4-27.8 160.4-81.6 221.6-53.4 61.4-127.6 100.8-208.4 110.8-44.6 4.6-90 0-133-14.6-43-13.8-82.2-37-115.4-67.6-33.2-30-59.6-66.8-77.6-107.6-18-41-27.6-85.2-27.8-130v-141.4c0-51.8-8.4-103.2-24.6-152.4l-38.4-113.8 30.8-42.4h225.4c0-33.8 13.8-66.8 37.6-90.8 23.8-23.8 56.8-37.6 90.8-37.6 33.8 0 66.8 13.8 90.8 37.6 23.8 23.8 37.8 57 37.8 90.8h225.4l30.8 42.4-38 113.4z" />
<glyph unicode="&#xe913;" glyph-name="bell" d="M858.8 282.4c-16.2 49.4-24.6 101-24.6 153v128.6c1.2 81.4-27.8 160.4-81.6 221.6-53.4 61.4-127.6 100.8-208.4 110.8-44.6 4.6-90 0-133-14.6-43-13.8-82.2-37-115.4-67.6-33.2-30-59.6-66.8-77.6-107.6-18-41-27.6-85.2-27.8-130v-141.4c0-51.8-8.4-103.2-24.6-152.4l-38.4-113.8 30.8-42.4h225.4c0-33.8 13.8-66.8 37.6-90.8 23.8-23.8 56.8-37.6 90.8-37.6 33.8 0 66.8 13.8 90.8 37.6 23.8 23.8 37.8 57 37.8 90.8h225.4l30.8 42.4-38 113.4zM557.4 80.2c-6-6-13-10.8-20.8-14.2s-16.2-5-24.6-5c-8.4 0-16.8 1.8-24.6 5.2s-14.8 8.2-20.8 14.2c-6 6-10.8 13-14.2 20.8s-5 16.2-5.2 24.6h128.6c0.2-8.4-1.2-16.8-4.4-24.6-3.2-8.2-8-15.2-14-21v0zM202.8 190l23.8 71.6c18.6 55.8 28.2 114.2 28.4 173v141.6c0 36.2 7.8 71.6 22.4 103.8 14.6 33 35.4 62.2 62.2 86.2 27 24.6 58.6 43.2 92.4 53.8 34.6 11.6 70.8 15.4 106 11.6 64.8-8.6 124.2-40.6 167-90 42.8-49.6 65.8-113 64.6-178.4v-129.2c0-58.4 9.2-116.8 28.4-173l23.8-71.6-619 0.6z" />
<glyph unicode="&#xe914;" glyph-name="arrow-right" d="M332-2c-23 0-46 8.8-63.6 26.4-35.2 35.2-35.2 92.2 0 127.2l296.4 296.4-296.4 296.4c-35.2 35.2-35.2 92.2 0 127.2s92.2 35.2 127.2 0l360-360c35.2-35.2 35.2-92.2 0-127.2l-360-360c-17.6-17.6-40.6-26.4-63.6-26.4z" />
<glyph unicode="&#xe915;" glyph-name="display-listing" d="M962 481.8h-900v-90h900v90zM962 808v90h-900v-90h900zM62-2v90h900v-90h-900z" />
<glyph unicode="&#xe916;" glyph-name="display-grid" d="M373.6 505.8h-230.8c-44.6 0-80.8 36.2-80.8 80.6v230.8c0 44.6 36.2 80.8 80.8 80.8h230.8c44.6 0 80.8-36.2 80.8-80.8v-230.8c0-44.4-36.4-80.6-80.8-80.6zM142.8 828.8c-6.4 0-11.6-5.2-11.6-11.6v-230.8c0-6.4 5.2-11.6 11.6-11.6h230.8c6.4 0 11.6 5.2 11.6 11.6v230.8c0 6.4-5.2 11.6-11.6 11.6h-230.8zM373.6-2h-230.8c-44.6 0-80.8 36.2-80.8 80.8v230.8c0 44.6 36.2 80.8 80.8 80.8h230.8c44.6 0 80.8-36.2 80.8-80.8v-230.8c0-44.6-36.4-80.8-80.8-80.8zM142.8 321c-6.4 0-11.6-5.2-11.6-11.6v-230.8c0-6.4 5.2-11.6 11.6-11.6h230.8c6.4 0 11.6 5.2 11.6 11.6v231c0 6.4-5.2 11.6-11.6 11.6h-230.8zM881.2 505.8h-230.8c-44.4 0-80.8 36.2-80.8 80.8v230.6c0 44.6 36.2 80.8 80.8 80.8h230.8c44.4 0 80.8-36.2 80.8-80.8v-230.8c0-44.4-36.2-80.6-80.8-80.6zM650.4 828.8c-6.4 0-11.4-5.2-11.4-11.6v-230.8c0-6.4 5.2-11.6 11.4-11.6h230.8c6.4 0 11.4 5.2 11.4 11.6v230.8c0 6.4-5.2 11.6-11.4 11.6h-230.8zM881.2-2h-230.8c-44.4 0-80.8 36.2-80.8 80.8v230.8c0 44.6 36.2 80.8 80.8 80.8h230.8c44.4 0 80.8-36.2 80.8-80.8v-230.8c0-44.6-36.2-80.8-80.8-80.8zM650.4 321c-6.4 0-11.4-5.2-11.4-11.6v-230.8c0-6.4 5.2-11.6 11.4-11.6h230.8c6.4 0 11.4 5.2 11.4 11.6v231c0 6.4-5.2 11.6-11.4 11.6h-230.8z" />
<glyph unicode="&#xe917;" glyph-name="comments" d="M61.8 547.2c3.2 17.8 5 35.8 9.6 53.2 22 82.6 71.6 145.2 144 189.2 130.8 79.6 296 68.4 415.6-26.8 8.8-7 16.6-15.6 25.6-22.8 3.8-3 8.8-5.8 13.6-6.6 117.4-19.2 208.8-77 261.2-185.6 48.2-100 38.2-198.6-21.2-292-3.8-6-4.8-10.6-2.6-17.6 16.2-49.4 31.8-99 47.4-148.6 5.6-17.6-1.8-33.4-18-36.4-6.8-1.2-15.2 0.6-21.6 3.8-48.2 23.8-96 48.2-143.8 73-6.4 3.4-11.4 3-18 0.8-130.4-47.2-251.4-31.4-362.2 53.6-6.8 5.2-13.6 10.6-19 17-7.6 8.8-17 11.6-27.8 14.2-26 6-51.8 13.6-77.6 21.4-5.4 1.6-9.6 2-14.8-0.6-48.4-24.8-96.8-49.6-145.4-73.8-6.2-3-14.2-5-20.8-4-16.4 2.6-24.4 18.6-18.8 35.8 15.8 50.2 31.8 100.2 48 150.2 1.8 5.8 1.4 10-2 15.2-28 41.4-45 87-50 136.8-0.2 2.2-1 4.6-1.6 6.8 0.2 14.6 0.2 29.2 0.2 43.8zM886 131c-1 4-1.6 6.4-2.4 8.8-10.2 32.2-20 64.8-31 96.8-5 14.6-2.8 26 6.4 38.2 66.2 88.8 65.6 207.6-2.2 295.2-53.8 69.6-126.4 106.2-213.4 112.8-91.6 7-172.6-19.6-238.4-84.8-60.4-59.6-86.6-132.6-72.4-217.2 13.4-80.6 59.2-140.6 129.2-180.8 91.6-52.8 187.4-56.2 284.6-15.2 12.6 5.4 23.6 5.8 35.8-0.8 23.4-12.6 47.2-24.2 71-36.4 10.2-5.4 20.8-10.6 32.8-16.6zM311.2 276c0.4 0.6 0.8 1.2 1.4 1.8-1.2 2.6-2.6 5.2-3.8 7.8-44.2 90.6-45.4 182 1 271.4 50 96 132.2 150.2 236.8 172.8 10.4 2.2 21 3.6 33.2 5.6-5 3.4-8.6 6-12.2 8.2-41.8 25.6-87.2 40.8-136 44.6-82.6 6.6-157.4-14.2-221.6-67.2-63.2-52-96.8-119.2-95.2-202 1-52.2 18.4-99 50-140.6 8.2-10.8 10.2-21.4 5.8-34.4-10.6-32.2-20.8-64.4-31-96.8-1-3.2-1.8-6.6-2.8-11 4.8 2.4 8.6 4.2 12.2 6 31.6 16 63 32 94.4 48.2 10.2 5.2 19.8 5.6 30.2 0.8 12-5.4 25-10 37.6-15.2zM511.4 394.6c-14.2-0.2-26.4 11.6-26.6 25.8-0.4 14.6 11.8 27 26.4 26.8 14.2 0 26.2-12 26.2-26.2 0.2-14.2-11.6-26.2-26-26.4zM748.2 421c0-14.2-11.8-26.2-26-26.4-14.6-0.2-26.8 12-26.6 26.6 0.2 14.2 12.2 26 26.4 26 14.2-0.2 26.2-12 26.2-26.2zM642.8 420.8c0-14.2-12-26.2-26.2-26.2-14.6 0-26.6 12.4-26.4 26.8 0.2 14.2 12.4 26 26.6 25.8s26-12.2 26-26.4z" />
<glyph unicode="&#xe918;" glyph-name="properties" d="M672 415.2c-11.4 0-21.4-0.2-31.6 0-18.8 0.4-32.8 14.4-32.8 32.2 0 18 14.2 31.6 33 32 10 0.2 20 0 31.2 0 0 4.6 0 8.4 0 12.4 0 101 0 202.2 0 303.2 0 26 12 37.8 38.2 37.8 17.8 0 35.6 0.4 53.2-0.2 7.6-0.2 11.6 1.8 15 9 19.4 41.6 64.2 63.2 108.2 52.8 44.2-10.2 75.4-50.4 74.6-96-0.8-43.6-32.2-82-74.8-91.8-43.8-10-88.4 11.4-107.6 52.2-3.6 7.6-7.6 10.4-15.6 9.8-8.6-0.6-17.2-0.2-26.4-0.2 0-96.6 0-192.2 0-289.2 11.4 0 23-0.4 34.6 0.4 2.2 0.2 4.8 4.8 6.2 7.8 26.2 55 93.4 73.2 142.6 38.4 32.8-23.2 48-64 37.8-102.6-10.4-39.6-43.6-68.2-84.4-72.2-39.2-3.8-77.8 17.8-94.8 54.4-3.6 7.6-7.6 10.4-15.6 9.8-8.6-0.6-17.2-0.2-26.4-0.2 0-96.6 0-192.2 0-289.2 11.4 0 23-0.6 34.6 0.4 2.4 0.2 5.2 5.2 6.8 8.6 26.2 54.4 93.2 72.2 142.2 37.6 32.8-23.2 48-64 37.8-102.6-10.4-39.6-43.6-68.2-84.4-72.2-39.2-4-77.8 17.8-94.8 54.2-3.6 7.6-7.4 10-15.6 9.8-18.8-0.6-37.4-0.2-56.2-0.2-21.8 0.2-35 13.2-35 35.2 0 102 0 204.2 0 306.2 0 4 0 7.6 0 12.4zM897 800.8c0 17.4-14.4 32-31.8 32-17.4 0.2-32-14.2-32.4-31.6-0.2-17.8 14.6-32.8 32.4-32.6 17.4 0.2 31.8 14.8 31.8 32.2zM865.2 479.4c-17.4 0.2-32.2-14.2-32.4-31.6s13.8-32.2 31.2-32.6c17.8-0.4 32.8 14.2 33 32 0 17.4-14.4 32-31.8 32.2zM865.4 126c-17.4 0.2-32.2-14-32.6-31.4s13.8-32.2 31.2-32.8c17.8-0.6 33 14.2 33 32 0.2 17.2-14.2 32-31.6 32.2zM61.4 447.2c0 41.4 0.2 83 0 124.4-0.2 17 7 28.4 23 35 73.2 31.2 146.2 62.6 219.2 94 10.2 4.4 19.8 4.4 30 0 73.4-31.6 146.8-63 220.2-94.4 15-6.4 22-17.4 22-33.6 0-83.6 0-167.4 0-251 0-16.2-7-27.4-22-33.8-73.4-31.4-146.8-62.8-220.2-94.4-10.6-4.6-20.4-4.2-31 0.4-72.8 31.4-145.4 62.6-218.4 93.6-15.8 6.8-23.2 18-23 35 0.4 41.8 0.2 83.4 0.2 124.8zM126.6 526.8c-0.6-2-0.8-2.6-0.8-3.2 0-59.2-0.2-118.4 0.2-177.6 0-3 3.8-7.4 6.8-8.8 37-16.2 74.2-32.2 111.4-48 13.8-5.8 27.4-11.6 41.4-17.4 0.4 1.6 0.8 2.4 0.8 3 0 59.2 0.2 118.4-0.2 177.6 0 3-3.8 7.4-6.8 8.8-17.2 8-35 15.2-52.4 22.6-33.2 14.2-66.4 28.4-100.4 43zM350.6 272.2c2.4 0.6 4 0.6 5.4 1.4 49.8 21.2 99.4 42.6 149.2 63.8 5.6 2.4 6 6 6 10.8-0.2 41.8 0 83.6 0 125.4 0 17.4 0 34.6 0 52.8-2.4-0.6-4-0.8-5.4-1.4-49.8-21.2-99.4-42.6-149.2-63.6-5.6-2.4-6-5.8-6-10.8 0.2-40.4 0-81 0-121.4 0-19.2 0-37.8 0-57zM461.8 575.8c-48.2 20.6-93.4 40.2-139 59.4-3.4 1.4-8.6 0-12.2-1.6-41.2-17.4-82.2-35-123.4-52.8-3.2-1.4-6.2-3.2-10.6-5.2 2.8-1.4 4-2.2 5.6-2.8 43.6-18.6 87-37.4 130.8-55.8 3.8-1.6 9.8-0.8 14 1 33.8 14.2 67.6 28.8 101.2 43.4 10.4 4.6 20.8 9 33.6 14.4z" />
<glyph unicode="&#xe919;" glyph-name="share" d="M751.6 898.6c17-5.2 34.6-8.6 50.6-16.2 60.4-28.4 93.8-96.8 80.6-163-13-65.6-69.4-115.8-135.8-120-48.4-3.2-88.8 13.8-121.6 49-1.2 1.2-2.4 2.6-3.6 3.8-0.4 0.4-1 0.6-2 1.4-12.6-5.8-25.6-11.8-38.6-17.8-47.8-22-95.4-44.2-143.2-66-4.8-2.2-7.4-4.4-6-10.4 7-32 4.4-63.4-5.6-94.2-0.8-2.2 0.8-7 2.8-8.2 45.2-28.2 90.6-56 135.8-83.8 0.4-0.2 1-0.4 0.2 0 17.4 13.8 33 28.6 50.8 40 46.8 30.2 98.4 41.4 153.4 32.6 79.4-12.8 137.6-56.2 170.8-129.2 34.8-76.8 27-152-20.4-221.6-33.4-49-80.6-78.8-138.6-91.2-106-22.8-217.4 38.6-255 140.4-19.2 52-19.8 104-0.8 156.2 2.2 6.2 1 9-4.4 12.4-45 27.4-89.8 55-134 82.4-13.2-10.2-25.6-21-39-29.8-78.4-51.4-189-31.8-245.8 43-20.8 27.4-34 57.8-38.4 92-0.2 2.2-1 4.4-1.6 6.8 0 11.2 0 22.2 0 33.4 0.6 2.2 1.4 4.4 1.6 6.6 6 47.2 27.4 86.4 62.8 118.2 63.2 57 165.6 61.6 232.6 9.6 15-11.6 28-25.4 42.8-39-0.8-0.2 0-0.2 0.8 0.2 60.6 27.8 121 55.8 181.6 83.6 5 2.2 5 5.2 4.4 9.6-9.6 61.4 24.2 126.4 80.8 153 16.2 7.6 34.2 11 51.4 16.4 9.4-0.2 20-0.2 30.6-0.2zM735.2 74.4c82.4-0.4 149.4 66 150.2 149 0.6 82.4-65.8 149.4-148.8 150.4-82.6 0.8-150.4-66.4-150.6-149.4-0.2-82.6 66.4-149.6 149.2-150zM248.8 411.6c62 0.2 112.2 50.4 112.2 112.2 0 61.6-50.4 112.2-112.2 112.6s-112.8-50.6-112.4-112.8c0.4-62.2 50.6-112.2 112.4-112zM735.4 823.4c-41.2-0.4-75.2-34.6-74.4-75.2 0.6-41.2 34.6-74.8 75.4-74.4 41 0.4 75.2 35 74.4 75.2-0.8 41.4-34.4 74.6-75.4 74.4z" />
<glyph unicode="&#xe91a;" glyph-name="upload" d="M377.4 681.8h89v-407c0-5.2 4.4-9.6 9.6-9.6h72.2c5.2 0 9.6 4.4 9.6 9.6v407h89.2c8 0 12.6 9.2 7.6 15.6l-134.8 170.6c-1 1.2-2 2-3.4 2.8-1.4 0.6-2.8 1-4.2 1s-3-0.4-4.2-1c-1.4-0.6-2.4-1.6-3.4-2.8l-134.8-170.4c-4.8-6.6-0.4-15.8 7.6-15.8zM952.6 310.8h-72.2c-5.2 0-9.6-4.4-9.6-9.6v-185.2h-717.2v185.2c0 5.2-4.4 9.6-9.6 9.6h-72.2c-5.2 0-9.6-4.4-9.6-9.6v-238.2c0-21.2 17.2-38.6 38.6-38.6h823c21.2 0 38.6 17.2 38.6 38.6v238.2c-0.2 5.2-4.6 9.6-9.8 9.6z" />
<glyph unicode="&#xe91b;" glyph-name="plus" d="M563-2h-100v400h-400v100h400v400h100v-400h400v-100h-400z" />
<glyph unicode="&#xe91c;" glyph-name="manage" d="M447.6 833.8c-102.2 0-200.4-40.6-272.8-113s-112.8-170.6-112.8-272.8 40.6-200.4 113-272.8c72.4-72.4 170.4-113 272.8-113 85.8 0 168 28.2 235.8 79.8l-61.8 61.8c-44.8-32-97.6-51-152.6-55s-110 7.2-159 32.6c-49 25.2-90 63.4-118.8 110.6-28.6 47-43.8 101.2-43.8 156.2 0 165.8 134.2 300 300 300s300-134.2 300-300h-128.6l171.4-171.4 171.6 171.2h-128.6c0 102.2-40.6 200.4-113 272.8-72.4 72.2-170.4 113-272.8 113zM263.8 398.2c-3.8-3-5.2-8.2-3-12.4l38.6-66.4c2.6-5.2 7.8-5.2 12-5.2l48.4 19.2c10.2-6.8 21-12.8 32.2-18l7.8-51c0.8-4.8 5.2-8.2 9.4-8.2h77.2c4.2-1.2 9 2.6 9.8 7.2l7.8 50.6c11.6 5.2 22.8 11.6 32.6 19.2l48-19.2c4.8-1.8 9.8 0.4 12 5.2l38.6 64.2c2.2 5.2 0.8 10.2-2.6 13.2l-42.8 31.8c1.2 12.8 1.2 25.8 0 38.6l42.8 32.6c3.8 3 4.8 7.8 2.6 12.4l-38.6 66.4c-1.2 2-3 3.6-5.2 4.4s-4.6 0.8-6.8-0.2l-48-19.2c-10.2 7.2-21.4 12.8-33 18l-7.2 51c-0.6 2.2-1.8 4.2-3.6 5.8-1.8 1.4-4 2.4-6.4 2.4h-75.4c-4.2 0-8.2-3-9-7.2l-7.2-50.6c-11.2-5.2-22.8-11.6-32.6-19.2l-49.2 18c-2.4 0.8-5 0.8-7.2-0.2s-4.2-2.8-5.2-5l-39-64.2c-2.2-5.2-0.8-10.2 2.6-13.2l42.8-31.8c-0.8-6.4-0.8-12.8 0-19.2-0.4-6.4-0.4-12.8 0-19.2l-42.8-31.8zM447.6 383.8c-36 0-64.2 29.2-64.2 64.2 0 35.6 28.8 64.2 64.2 64.2s64.4-28.6 64.4-64.2-28.8-64.2-64.4-64.2z" />
<glyph unicode="&#xe91d;" glyph-name="arrow-down" d="M62 628c0 23 8.8 46 26.4 63.6 35.2 35.2 92.2 35.2 127.2 0l296.4-296.4 296.4 296.4c35.2 35.2 92.2 35.2 127.2 0s35.2-92.2 0-127.2l-360-360c-35.2-35.2-92.2-35.2-127.2 0l-360 360c-17.6 17.6-26.4 40.6-26.4 63.6z" />
<glyph unicode="&#xe91e;" glyph-name="arrow-left" d="M692 898c23 0 46-8.8 63.6-26.4 35.2-35.2 35.2-92.2 0-127.2l-296.4-296.4 296.4-296.4c35.2-35.2 35.2-92.2 0-127.2s-92.2-35.2-127.2 0l-360 360c-35.2 35.2-35.2 92.2 0 127.2l360 360c17.6 17.6 40.6 26.4 63.6 26.4z" />
<glyph unicode="&#xe91f;" glyph-name="logout" d="M131.2 820c0-248.8 0-496.6 0-745.6 149.8 30 299 59.8 449.4 89.8 0 4 0 7.8 0 11.4 0 33.2-0.2 66.2 0.2 99.4 0.2 17 11 29.4 27 33 14.4 3.4 30.2-3.2 37-16.6 2.8-5.6 4.6-12.6 4.6-19 0.4-44.8 0.2-89.6 0.2-134.4 0-20.2-10.6-33-30.8-37-57.2-11.4-114.2-22.8-171.4-34.2-112-22.4-224.2-44.8-336.2-67.2-11.8-2.4-23-3.6-33.8 3.4-9.8 6.6-15 16-16 27.6-0.2 2.6-0.2 5-0.2 7.6 0 272.8 0 545.4 0 818.2 0 23.8 12.6 39.8 33.2 40.4 8 0.2 16.2-2 24.2-3.6 166.6-33.2 333-66.4 499.4-99.8 21.2-4.2 31.6-16.6 31.6-38.2 0-44.2 0-88.2 0-132.4 0-21.8-14.4-37.2-34.4-37.2-19.8-0.2-34.4 15.2-34.6 37-0.2 32.4-0.4 65 0.2 97.4 0.2 7.6-1.8 11-9.6 12.4-99.2 19.6-198.4 39.4-297.4 59.2-45.8 9.2-91.4 18.4-137.2 27.6-1.6 0.2-3 0.4-5.4 0.8zM840.4 412.8c-3.4 0-6.8 0-10.2 0-139.6 0-279.4 0-419 0-23.8 0-39.2 15.2-38 37 1 16.4 14.6 30.2 31 31.6 3.8 0.2 7.6 0.2 11.4 0.2 138.2 0 276.2 0 414.4 0 3.4 0 6.8 0 12.6 0-3.4 3.8-5.4 6.2-7.8 8.4-34.6 34.6-69.2 69-103.6 103.8-14.2 14.2-15.6 33.6-4 47.8 12.8 15.6 35.2 17.2 50.4 3.4 9.4-8.4 18-17.8 26.8-26.6 47.4-47.4 95-95 142.4-142.4 19.2-19.2 19.2-38-0.2-57.4-55.2-55.2-110.6-110.6-165.8-166-9.4-9.4-20.2-15.4-33.8-12.8-13.4 2.6-23 10.6-27 23.8-4 13.4-0.8 25.6 9.2 35.6 25.6 25.6 51.2 51.2 77 77 11.6 11.6 23.2 23 34.8 34.6 0 0.6-0.4 1.4-0.6 2z" />
<glyph unicode="&#xe920;" glyph-name="permission" d="M490.6 897.2c127.2-0.2 230.4-103.6 230-230.4-0.4-127.2-103.8-230-230.8-229.8-127.4 0.4-230 103.4-229.8 230.4 0.2 127.2 103.6 230 230.6 229.8zM490.8 499.8c92.4 0.2 167.2 75 167.2 167.2 0 92.4-75.4 167.6-168 167.4-92.8-0.2-167.4-75.2-167-168.2 0.2-92 75.4-166.6 167.8-166.4zM961.2 269c0-100.2-85.8-176.6-186.6-166.4-3.4 0.4-8-2-10.6-4.4-29.4-29-58.6-58-87.4-87.4-9.4-9.6-19.6-14-33-13.8-28.4 0.6-56.8 0.2-85.4 0.2-24.6 0-36.4 12-36.4 37 0 27.8 0.4 55.6-0.2 83.4-0.2 13.6 4 24.4 14 34 29 28.4 57.4 57.2 86.2 85.8 4.6 4.6 6.2 9 5.6 15.4-8.2 93.2 55.4 161.8 126.6 179 105.8 25.8 207.2-53.6 207.2-162.8zM584.4 60.2c15.2 0 29 0.4 42.6-0.2 6.8-0.2 11.6 1.8 16.4 6.6 29.4 29.8 59.4 59 88.6 89 11.2 11.4 23 15 38.8 11.6 74.2-16.2 140.2 47.8 126 121-11.4 57.8-66.2 95.4-123 83.8-57.8-11.8-94.4-66.8-81.8-125 3.6-16.6-0.4-29-12.2-40.6-30-29.2-59.4-59-88.8-88.8-2.6-2.6-6-6.2-6-9.4-1-15.4-0.6-31-0.6-48zM287.6 38.8c-50 0-100 0-150 0-46.8 0-76.2 29.2-76 75.6 0 25.2-1.4 50.6 1.6 75.4 5.6 44.2 31.2 77.6 64.4 105.4 46.2 38.8 100.4 61.6 157.8 78 88.4 25.2 178.6 31.6 270 24.8 17.8-1.4 29.8-15.6 29-33.2-0.8-16.6-14.6-29.6-31.8-29.4-27.4 0.4-55 2.4-82.4 1.8-87.4-2.2-172.2-16.8-251.2-56.8-24.6-12.4-47.4-27.6-66.6-47.8-18.8-19.8-29.8-42.6-28.4-70.6 0.8-15.6 0-31.4 0.2-47 0-12.2 1.4-13.6 13.6-13.6 100.8 0 201.4 0 302.2 0 4.2 0 8.6 0.2 12.8-0.6 16.6-2.6 28.2-16.8 27.2-33s-14.4-29-31.2-29c-53.8-0.2-107.6 0-161.2 0zM748.6 269.4c0 25.2 20.2 45.2 45.6 45s45.2-20.4 44.8-45.8c-0.2-24.6-20.6-44.8-45.2-44.8-24.8 0-45.2 20.4-45.2 45.6z" />
<glyph unicode="&#xe921;" glyph-name="users" d="M61.6 70.4c0 42.8 0 85.6 0 128.4 0.8 5.8 1.6 11.4 2.4 17.2 12.6 88.8 54 161.2 125.6 215.6 13 9.8 27 18.2 40.8 27.2-0.2 0.4 0 1.2-0.4 1.4-1.4 1.6-2.8 3-4.2 4.4-42.4 42-65.8 92.8-67.6 152.6-2.4 77.8 27.8 141.6 89.8 188 77.6 58.2 174.6 60.2 256.6 8.4 5.6-3.6 9.4-3.2 14.8 0.2 76.8 46.8 155.6 49.6 234 5.8 119.8-67 149.2-230.4 61.4-336-7-8.4-14.8-16.4-22.6-25.2 3.6-2.2 6.8-4.2 10-6 88-52.8 142-129.6 155.4-231.2 6.4-47.8 3.4-97 3.8-145.6 0-12.6-7.8-22.2-19.8-26.6-6.4-2.2-13.8-2.8-20.6-2.8-272.2-0.2-544.2 0-816.4-0.4-20.2 0.2-35 5.6-43 24.6zM640 111.2c0 22.6 0.6 44.6-0.2 66.4-0.6 16-2 32.2-5.4 47.8-19.4 90.8-73.6 152.8-158.4 188.8-3.6 1.6-8.8 2-12.4 0.6-53.8-19.8-107.6-19.8-161.4 0-3 1-7 1.2-10 0.2-31.6-11.4-59.6-28.4-84-51.4-55-51.8-82.2-116-82.2-191.6 0-20.2 0-40.2 0-60.8 171.6 0 342.2 0 514 0zM222.4 623.6c2-96 81.4-162.2 166.2-159 91.2 3.4 161 81.6 154.4 172-6 83.6-77.4 151.8-165.6 148.8-90.4-3-156-77.6-155-161.8zM560 763.4c31.4-40.8 47.8-87 47.8-138.4 0-51.2-16.4-97.6-47.8-138.4 68.4-39 148.2-25.6 201 33.4 52.2 58.2 52.2 150.4 1.8 208.8-54.6 63.6-141.6 71.4-202.8 34.6zM704.6 111.2c64.8 0 128.2 0 193.8 0-1.4 35 0.8 69.8-4.8 103.6-15.8 95.4-70 162-159.6 199-4.8 2-11.6 2-16.4 0.2-32-11.4-64.6-15.6-98.4-12.8-2 0.2-4.2 0-7.8 0 4-4.4 6.6-7.4 9.4-10.4 29.2-32 50.8-68.4 65.2-109.2 12.8-36.6 18-74.4 18.6-112.8 0.2-19 0-38 0-57.6z" />
<glyph unicode="&#xe922;" glyph-name="role" d="M61.4 245.2c3.2 16.6 5.2 33.6 9.8 49.8 23.2 80.6 73.2 138.6 149 174.2 1.4 0.6 2.6 1.2 4 1.8 0.4 0.2 0.8 0.8 1.6 1.6-48.4 45-72 100.6-67.2 166.8 3.8 53.4 26.6 98.4 66.4 134.2 78.6 70.6 198.2 67.6 273.8-6.2 79.4-77.4 83.6-213.4-7.4-295 17.2-9.8 34.4-19.6 50.8-28.8 9.8 11.4 19 23.8 30 34.4 7.6 7.4 17.8 12.2 26.4 18.8 2.6 2 5.4 6 5.6 9.2 1 22.2-0.2 44.6 2 66.6 7.4 71.4 76.2 127.2 147.8 121.2 76.8-6.4 131.2-65 132-142.2 0.2-15.2-0.2-30.4 0.2-45.6 0.2-3.2 2.8-7.6 5.6-9.2 48.2-26.4 74.2-74.6 69-129-1.8-18.4-17.2-32.2-35.8-31.8-18.4 0.4-33.4 14.6-34.4 33.2-0.4 8.8 0 17.6-1.6 26.2-5.2 26.2-27.6 44.6-54.4 44.8-59.8 0.2-119.4 0.2-179.2 0-29.4-0.2-53.8-22.6-55-51.8-1.2-27.2-0.6-54.4-0.6-81.6 0-35.2 0-70.2 0-105.4 0-38.6 23.2-61.4 62-61.4 56 0 111.8 0 167.8 0 36.2 0 58.6 21 61 57.2 1.2 19.4 17.2 34 36 33.4 19.2-0.6 33.8-15.8 34.2-35.4 1-65.2-55.4-124.2-121-125.2-63-1-125.8-0.8-188.8 0-60.2 0.8-113.4 49.8-120.2 110-0.8 7.6-3.6 8.8-10.2 8.8-138.2-0.2-276.4 0.2-414.6-0.4-21.6 0-36.8 6.6-44.6 27.2 0 9.8 0 19.6 0 29.6zM135 259.2c131.6 0 262.6 0 393.6 0 0.4 1 1 1.8 1 2.8 0 32.2 0.2 64.4 0 96.6 0 2.2-1.6 5-3.2 6.6-33 30-70.6 51.4-115.8 55.6-26.2 2.4-52.6 2-78.8 1.8-64.6-0.4-117.2-26.2-157.6-76.6-20.4-25.2-33.2-54-39.2-86.8zM488.8 623.4c0.2 72-57.6 131-129 131.2-72.4 0.4-131.2-57.6-131.6-129.6-0.4-73 57.8-132 129.8-132.2 72.2 0 130.6 58.4 130.8 130.6zM815.4 510.8c0 16 0.6 31.2-0.2 46.2-1.4 33.6-27.2 61.8-59.6 66-35.2 4.4-67.2-15-77.4-47.8-6.6-21-2.6-42.8-3.6-64.4 47.4 0 93.6 0 140.8 0zM734.6 313c5.8 7 11 13.8 16.6 20 13 14.8 34 16.6 48.8 4.4 14.8-12 17.6-33.2 5.4-48.6-13.8-17.8-28.2-35.2-42.8-52.2-14-16.2-36.8-16.6-52-1.2-7.8 8-15.2 16.2-22.6 24.6-12.8 14.2-13.8 32.6-3 46.4 10.8 14 28.8 17.4 45.8 8.6 1-0.6 2-1 3.8-2z" />
<glyph unicode="&#xe923;" glyph-name="um" d="M896 254.4c8.8 0 19.4 0 30.2 0 21-0.2 35.6-14 35.2-33-0.4-18.6-14.8-31.2-35.6-31.2-10.4 0-20.6 0-29.8 0-8.2-19.4-15.8-37.8-25-59.4 6.2-5.6 14.6-12.4 22.4-20.2 14.6-14.6 15.4-34 2-47.4-13.2-13.2-32.6-12.6-47.4 1.8-7.6 7.4-15.2 15.2-22 22.2-19-8-37.4-15.8-57.6-24.4 0-8.6 0-19.4 0-30.4-0.2-21.4-12.2-34.6-31.8-34.8-20-0.2-32.4 13.2-32.4 35 0 10.6 0 21.4 0 30.4-19.6 8.2-38 16-59 24.8-6.2-6.6-13.6-15.2-21.6-23.2-14.4-14.4-32.8-14.6-46.2-1-13.6 13.6-13.2 31.8 0.8 46.2 8 8 16 16 23 22.8-8.4 19.8-16 38.2-24.2 57.8-9.8 0-21.2-0.2-32.6 0-19.8 0.2-32.6 12.4-32.8 31.4-0.2 19.2 12.8 32.2 32.8 32.8 11.4 0.2 22.6 0 32.4 0 8.2 19.6 16 38 24.8 59.2-6.6 6-15.2 13.4-23.2 21.4-14.4 14.4-14.6 32.8-1 46.2 13.6 13.6 31.6 13.4 46.2-1 7.8-7.8 15.2-16 22-22.8 19.8 8.4 38.2 16.2 58.6 24.8 0 8.6 0 19.4 0 30.4 0.2 20.4 13.4 34.8 32.2 34.8 18.6 0 32-14.4 32.2-34.8 0-10.6 0-21.4 0-30.4 19.6-8.2 37.8-15.8 59-24.8 5.8 6.2 13 14.6 20.8 22.4 14.6 14.6 34 15 47.2 1.4 13-13.2 12.2-32-1.8-46.6-7.4-7.6-15.2-15.2-22-22 7.8-19.6 15.6-38.4 24.2-58.4zM832.8 222.4c0 53.4-42.6 96.2-96 96.4s-96.4-42.4-96.8-95.8c-0.2-53.8 42.8-97 96.6-97 53.2 0.2 96 43 96.2 96.4zM447.2 897.2c106.2 0 192.8-86.8 192.8-193-0.2-106-87.2-192.8-193.4-192.6-105.6 0.2-192.2 87-192.2 192.6-0.2 106 86.6 193 192.8 193zM318.6 705c-0.2-71.2 56.6-128.8 127.4-129 71.6-0.4 129.4 56.6 129.6 128 0.2 71.2-56.6 128.6-127.4 129-71.8 0.2-129.4-56.6-129.6-128zM126 126c4.8 0 8.6 0 12.6 0 100.4 0 200.8 0 301.2 0 24.6 0 40.4-19.8 33.4-41.8-4-12.4-15-21.2-28.2-22.4-3.4-0.2-6.6-0.2-10-0.2-94.4 0-188.8 0.4-283-0.2-96.4-0.4-91.6-5-90.2 91 0.2 21 2 42.2 5.8 62.8 23 122.6 129.4 220 253.8 229.6 53.2 4 107 2 160.4 2 17.4 0 30.6-15 30.2-32.4-0.2-17.8-13.8-31.4-32.2-31.6-43.8-0.2-87.6 0.2-131.4-0.2-102.4-0.6-189.2-68.4-215.4-167.4-7.6-28.8-7.8-58.2-7-89.2z" />
<glyph unicode="&#xe924;" glyph-name="group" d="M962 513.2c-6.2-17.2-17.2-29-36.6-27.8-7.4 0.4-15.4 4-21.8 8-32.4 21-67.2 35.6-105.4 41.4-68.8 10.4-132.8-3-190.8-42-11.2-7.4-21.2-16.6-31.4-25.2-2.6-2.2-5-6-5.4-9.4-5-42.6-23.2-78.8-53.8-108.8-1-1-1.8-2.2-2.6-3.2 16.2-8.4 32-16.2 47.6-24.6 7-3.8 13.6-8.2 20-12.6 16.8-11.8 21.2-32.2 10.6-48.6-10.4-16.2-31.4-21.4-48.6-10.2-27 17.6-55.2 32.4-86.6 39.4-99.6 22.4-186.6-2.2-260.2-73-27.6-26.6-46.2-59-60.6-94.6-12.2-30 8.2-54.2 37.2-54 98.8 1 197.4 0.4 296.2 0.4 20 0 33.6-10 37.8-27.4 5-21.2-10.6-41.2-32.2-41.2-103.8 0-207.4 0.2-311.2 0-41.6 0-70.4 20.4-90 55.4-18.4 33.2-14 67 0 100.6 36.2 87 98.6 148.2 184.6 185.4 3.8 1.6 7.4 3.2 12 5.2-47 47-66.4 102.8-53.8 167.6 9.4 48.2 35.8 86.2 76.4 113.6 90.4 60.8 220.6 26.8 265.2-80.4 24.8 13.4 49.6 27 74.8 40.8-46.2 46-65.6 102.4-52.6 167.8 9 45.4 33.8 81.6 71.4 109.2 69.8 51.2 172.2 41.4 232.2-20.6 65-67.4 72.2-182.2-7-257.8 3.2-1.6 6.2-2.8 9.2-4.4 19.2-10.4 39-20 57.4-32 7.6-5 12-15 17.8-22.8 0.2-4.8 0.2-9.6 0.2-14.2zM392.4 587.2c-60 0-109-49-109-109 0-59.8 49.2-109 109-109s108.8 49.2 108.8 109.2c0.2 60-48.8 108.8-108.8 108.8zM865.2 719c0 60-49.2 109-109 108.8-60 0-109-49.2-108.8-109 0-60 49.2-109 109-108.8 60 0 109 49 108.8 109zM962 158c-7.2-21-22.2-29-44-28.2-29 0.8-57.8 0.2-87.8 0.2 0-3.8 0-6.8 0-10 0-28.2 0-56.2 0-84.4 0-11.4-3.6-21.2-12.4-28.8-11.4-9.8-24.8-9.2-37.2-4.8-13.8 5-20.4 17.2-20.6 31.8-0.2 28.4 0 56.8 0 85.2 0 3.2 0 6.4 0 11-3.4 0-6.6 0-9.6 0-28.8 0-57.4-0.2-86.2 0-14 0.2-25 6.2-31.6 18.6-6.4 11.8-6 23.8 1.2 35 7 11.4 17.8 16.6 31 16.6 28.2 0 56.2 0 84.4 0 3.2 0 6.4 0 10.8 0 0 3.6 0 6.6 0 9.8 0 27.8 0 55.6 0 83.6 0 22.8 14.8 38.8 35.6 38.6 20.4-0.2 34.6-15.8 34.8-38.4 0.2-30.8 0-61.4 0-93.4 3.6 0 6.6 0 9.8 0 26 0 52.2-0.6 78.2 0.2 21.8 0.8 36.8-7.4 43.8-28.4-0.2-4.8-0.2-9.4-0.2-14.2z" />
<glyph unicode="&#xe925;" glyph-name="group-filled" d="M962 513.2c-6.2-17.2-17.2-29-36.6-27.8-7.4 0.4-15.4 4-21.8 8-32.4 21-67.2 35.6-105.4 41.4-68.8 10.4-132.8-3-190.8-42-11.2-7.4-21.2-16.6-31.4-25.2-2.6-2.2-5-6-5.4-9.4-5-42.6-23.2-78.8-53.8-108.8-1-1-1.8-2.2-2.6-3.2 16.2-8.4 32-16.2 47.6-24.6 7-3.8 13.6-8.2 20-12.6 16.8-11.8 21.2-32.2 10.6-48.6-10.4-16.2-31.4-21.4-48.6-10.2-27 17.6-55.2 32.4-86.6 39.4-99.6 22.4-186.6-2.2-260.2-73-27.6-26.6-46.2-59-60.6-94.6-12.2-30 8.2-54.2 37.2-54 98.8 1 197.4 0.4 296.2 0.4 20 0 33.6-10 37.8-27.4 5-21.2-10.6-41.2-32.2-41.2-103.8 0-207.4 0.2-311.2 0-41.6 0-70.4 20.4-90 55.4-18.4 33.2-14 67 0 100.6 36.2 87 98.6 148.2 184.6 185.4 3.8 1.6 7.4 3.2 12 5.2-47 47-66.4 102.8-53.8 167.6 9.4 48.2 35.8 86.2 76.4 113.6 90.4 60.8 220.6 26.8 265.2-80.4 24.8 13.4 49.6 27 74.8 40.8-46.2 46-65.6 102.4-52.6 167.8 9 45.4 33.8 81.6 71.4 109.2 69.8 51.2 172.2 41.4 232.2-20.6 65-67.4 72.2-182.2-7-257.8 3.2-1.6 6.2-2.8 9.2-4.4 19.2-10.4 39-20 57.4-32 7.6-5 12-15 17.8-22.8 0.2-4.8 0.2-9.6 0.2-14.2zM962 158c-7.2-21-22.2-29-44-28.2-29 0.8-57.8 0.2-87.8 0.2 0-3.8 0-6.8 0-10 0-28.2 0-56.2 0-84.4 0-11.4-3.6-21.2-12.4-28.8-11.4-9.8-24.8-9.2-37.2-4.8-13.8 5-20.4 17.2-20.6 31.8-0.2 28.4 0 56.8 0 85.2 0 3.2 0 6.4 0 11-3.4 0-6.6 0-9.6 0-28.8 0-57.4-0.2-86.2 0-14 0.2-25 6.2-31.6 18.6-6.4 11.8-6 23.8 1.2 35 7 11.4 17.8 16.6 31 16.6 28.2 0 56.2 0 84.4 0 3.2 0 6.4 0 10.8 0 0 3.6 0 6.6 0 9.8 0 27.8 0 55.6 0 83.6 0 22.8 14.8 38.8 35.6 38.6 20.4-0.2 34.6-15.8 34.8-38.4 0.2-30.8 0-61.4 0-93.4 3.6 0 6.6 0 9.8 0 26 0 52.2-0.6 78.2 0.2 21.8 0.8 36.8-7.4 43.8-28.4-0.2-4.8-0.2-9.4-0.2-14.2z" />
<glyph unicode="&#xe926;" glyph-name="permission-filled" d="M490.6 897.2c127.2-0.2 230.4-103.6 230-230.4-0.4-127.2-103.8-230-230.8-229.8-127.4 0.4-230 103.4-229.8 230.4 0.2 127.2 103.6 230 230.6 229.8zM287.6 38.8c-50 0-100 0-150 0-46.8 0-76.2 29.2-76 75.6 0 25.2-1.4 50.6 1.6 75.4 5.6 44.2 31.2 77.6 64.4 105.4 46.2 38.8 100.4 61.6 157.8 78 88.4 25.2 178.6 31.6 270 24.8 17.8-1.4 29.8-15.6 29-33.2-0.8-16.6-14.6-29.6-31.8-29.4-27.4 0.4-55 2.4-82.4 1.8-87.4-2.2-172.2-16.8-251.2-56.8-24.6-12.4-47.4-27.6-66.6-47.8-18.8-19.8-29.8-42.6-28.4-70.6 0.8-15.6 0-31.4 0.2-47 0-12.2 1.4-13.6 13.6-13.6 100.8 0 201.4 0 302.2 0 4.2 0 8.6 0.2 12.8-0.6 16.6-2.6 28.2-16.8 27.2-33s-14.4-29-31.2-29c-53.8-0.2-107.6 0-161.2 0zM754 431.8c-71.2-17.2-134.8-85.8-126.6-179 0.6-6.4-1-10.8-5.6-15.4-28.8-28.6-57.2-57.4-86.2-85.8-10-9.6-14.2-20.4-14-34 0.6-27.8 0.2-55.6 0.2-83.4 0-25 11.8-37 36.4-37 28.6 0 57 0.4 85.4-0.2 13.4-0.2 23.6 4.2 33 13.8 28.8 29.4 58 58.4 87.4 87.4 2.6 2.4 7.2 4.8 10.6 4.4 100.8-10.2 186.6 66.2 186.6 166.4 0 109.2-101.4 188.6-207.2 162.8zM786.8 226.6c-24.8 0-45.2 20.4-45.2 45.6s20.2 45.2 45.6 45c25.4-0.2 45.2-20.4 44.8-45.8-0.2-24.6-20.6-44.8-45.2-44.8z" />
<glyph unicode="&#xe927;" glyph-name="users-filled" d="M61.6 70.4c0 42.8 0 85.6 0 128.4 0.8 5.8 1.6 11.4 2.4 17.2 12.6 88.8 54 161.2 125.6 215.6 13 9.8 27 18.2 40.8 27.2-0.2 0.4 0 1.2-0.4 1.4-1.4 1.6-2.8 3-4.2 4.4-42.4 42-65.8 92.8-67.6 152.6-2.4 77.8 27.8 141.6 89.8 188 77.6 58.2 174.6 60.2 256.6 8.4 5.6-3.6 9.4-3.2 14.8 0.2 76.8 46.8 155.6 49.6 234 5.8 119.8-67 149.2-230.4 61.4-336-7-8.4-14.8-16.4-22.6-25.2 3.6-2.2 6.8-4.2 10-6 88-52.8 142-129.6 155.4-231.2 6.4-47.8 3.4-97 3.8-145.6 0-12.6-7.8-22.2-19.8-26.6-6.4-2.2-13.8-2.8-20.6-2.8-272.2-0.2-544.2 0-816.4-0.4-20.2 0.2-35 5.6-43 24.6zM560 763.4c31.4-40.8 47.8-87 47.8-138.4 0-51.2-16.4-97.6-47.8-138.4 68.4-39 148.2-25.6 201 33.4 52.2 58.2 52.2 150.4 1.8 208.8-54.6 63.6-141.6 71.4-202.8 34.6zM704.6 111.2c64.8 0 128.2 0 193.8 0-1.4 35 0.8 69.8-4.8 103.6-15.8 95.4-70 162-159.6 199-4.8 2-11.6 2-16.4 0.2-32-11.4-64.6-15.6-98.4-12.8-2 0.2-4.2 0-7.8 0 4-4.4 6.6-7.4 9.4-10.4 29.2-32 50.8-68.4 65.2-109.2 12.8-36.6 18-74.4 18.6-112.8 0.2-19 0-38 0-57.6z" />
<glyph unicode="&#xe928;" glyph-name="role-filled" d="M961.4 380.6c0.4 49.2-25.2 92-69.6 116.2-2.8 1.6-5.4 6-5.6 9.2-0.4 15.2 0 30.4-0.2 45.6-0.8 77.2-55.2 135.8-132 142.2-71.6 6-140.4-49.8-147.8-121.2-2.2-22-1-44.4-2-66.6-0.2-3.2-3-7.2-5.6-9.2-8.6-6.6-18.8-11.4-26.4-18.8-11-10.6-20.2-23-30-34.4-16.4 9.2-33.6 19-50.8 28.8 91 81.6 86.8 217.6 7.4 295-75.6 73.8-195.2 76.8-273.8 6.2-39.8-35.8-62.6-80.8-66.4-134.2-4.8-66.2 18.8-121.8 67.2-166.8-0.8-0.8-1.2-1.4-1.6-1.6-1.4-0.6-2.6-1.2-4-1.8-75.8-35.6-125.8-93.6-149-174.2-4.6-16.2-6.6-33.2-9.8-49.8 0-10 0-19.8 0-29.6 7.8-20.6 23-27.2 44.6-27.2 138.2 0.6 276.4 0.2 414.6 0.4 6.6 0 9.4-1.2 10.2-8.8 6.8-60.2 60-109.2 120.2-110 63-0.8 125.8-1 188.8 0 63.8 1 119 56.8 121 120 0.4 2.2 0.8 4.6 0.8 7v183c-0.2 0.2-0.2 0.4-0.2 0.6zM678.2 575.2c10.2 32.8 42.2 52.2 77.4 47.8 32.4-4.2 58.2-32.4 59.6-66 0.8-15 0.2-30.2 0.2-46.2-47.2 0-93.4 0-140.8 0 1 21.6-3 43.4 3.6 64.4zM818.8 288.2c-13.8-17.8-28.2-35.2-42.8-52.2-14-16.2-36.8-16.6-52-1.2-7.8 8-15.2 16.2-22.6 24.6-12.8 14.2-13.8 32.6-3 46.4 10.8 14 28.8 17.4 45.8 8.6 1-0.6 2-1 3.8-2 5.8 7 11 13.8 16.6 20 13 14.8 34 16.6 48.8 4.4 14.8-12 17.6-33.2 5.4-48.6z" />
<glyph unicode="&#xe929;" glyph-name="um-filled" d="M896 254.4c8.8 0 19.4 0 30.2 0 21-0.2 35.6-14 35.2-33-0.4-18.6-14.8-31.2-35.6-31.2-10.4 0-20.6 0-29.8 0-8.2-19.4-15.8-37.8-25-59.4 6.2-5.6 14.6-12.4 22.4-20.2 14.6-14.6 15.4-34 2-47.4-13.2-13.2-32.6-12.6-47.4 1.8-7.6 7.4-15.2 15.2-22 22.2-19-8-37.4-15.8-57.6-24.4 0-8.6 0-19.4 0-30.4-0.2-21.4-12.2-34.6-31.8-34.8-20-0.2-32.4 13.2-32.4 35 0 10.6 0 21.4 0 30.4-19.6 8.2-38 16-59 24.8-6.2-6.6-13.6-15.2-21.6-23.2-14.4-14.4-32.8-14.6-46.2-1-13.6 13.6-13.2 31.8 0.8 46.2 8 8 16 16 23 22.8-8.4 19.8-16 38.2-24.2 57.8-9.8 0-21.2-0.2-32.6 0-19.8 0.2-32.6 12.4-32.8 31.4-0.2 19.2 12.8 32.2 32.8 32.8 11.4 0.2 22.6 0 32.4 0 8.2 19.6 16 38 24.8 59.2-6.6 6-15.2 13.4-23.2 21.4-14.4 14.4-14.6 32.8-1 46.2 13.6 13.6 31.6 13.4 46.2-1 7.8-7.8 15.2-16 22-22.8 19.8 8.4 38.2 16.2 58.6 24.8 0 8.6 0 19.4 0 30.4 0.2 20.4 13.4 34.8 32.2 34.8 18.6 0 32-14.4 32.2-34.8 0-10.6 0-21.4 0-30.4 19.6-8.2 37.8-15.8 59-24.8 5.8 6.2 13 14.6 20.8 22.4 14.6 14.6 34 15 47.2 1.4 13-13.2 12.2-32-1.8-46.6-7.4-7.6-15.2-15.2-22-22 7.8-19.6 15.6-38.4 24.2-58.4zM447.2 897.2c106.2 0 192.8-86.8 192.8-193-0.2-106-87.2-192.8-193.4-192.6-105.6 0.2-192.2 87-192.2 192.6-0.2 106 86.6 193 192.8 193zM126 126c4.8 0 8.6 0 12.6 0 100.4 0 200.8 0 301.2 0 24.6 0 40.4-19.8 33.4-41.8-4-12.4-15-21.2-28.2-22.4-3.4-0.2-6.6-0.2-10-0.2-94.4 0-188.8 0.4-283-0.2-96.4-0.4-91.6-5-90.2 91 0.2 21 2 42.2 5.8 62.8 23 122.6 129.4 220 253.8 229.6 53.2 4 107 2 160.4 2 17.4 0 30.6-15 30.2-32.4-0.2-17.8-13.8-31.4-32.2-31.6-43.8-0.2-87.6 0.2-131.4-0.2-102.4-0.6-189.2-68.4-215.4-167.4-7.6-28.8-7.8-58.2-7-89.2z" />
<glyph unicode="&#xe92a;" glyph-name="user" d="M210.6-2.8c-7.6 2-15.4 3.4-22.8 5.8-62.4 20-98 86.2-80.2 149.8 23.4 84 69 153.8 135.6 209.8 19.8 16.6 47 14.8 62.8-3.8 16.2-19.2 13.8-46.2-6.4-63.4-51.2-43.4-86.8-96.8-106-161.2-8.6-29.2 6.4-49.4 37-49.4 134.8 0 269.6 0 404.2 0 13.6 0 25.4-3.2 35.2-13 22-22 14.8-59.4-14-71.6-2.6-1.2-5.2-2.4-7.8-3.4-145.8 0.4-291.6 0.4-437.6 0.4zM787.2-2.8c-2 1-4 2-6.2 3-19.8 8.2-30.6 27.4-27.2 48.8 3 19 20 34.2 40.2 36 30.4 2.6 43 20.8 34.4 49.8-19 63.8-54 117-104.8 159.8-12.8 10.8-20 23.8-18.2 40.6 1.8 17.4 11.4 30 27.8 36.4s31.6 3.2 45.2-8c35.2-29.2 65-63 89-102 23.2-37.6 41.6-77.4 50-121 12.6-65.8-32-129.4-98-141.4-2-0.4-3.8-1.2-5.6-1.8-9-0.2-17.8-0.2-26.6-0.2zM511.4 389.8c-139-0.6-252.8 112.6-253.8 252.8-1 139.6 112.8 254.2 252.8 254.6 139.8 0.4 253.4-112.4 254.2-252.2 0.8-140.4-112.4-254.4-253.2-255.2zM510.8 478.2c91.4-0.2 165.6 73.4 165.8 164.8 0.4 91.6-73.8 166.2-165.4 166.4-91.2 0.2-165.4-73.6-165.8-165-0.4-91.6 73.8-166 165.4-166.2z" />
<glyph unicode="&#xe92b;" glyph-name="download" d="M647 455.2h-89v407c0 5.2-4.4 9.6-9.6 9.6h-72.2c-5.2 0-9.6-4.4-9.6-9.6v-407h-89.2c-8 0-12.6-9.2-7.6-15.6l134.8-170.6c1-1.2 2-2 3.4-2.8 1.4-0.6 2.8-1 4.2-1s3 0.4 4.2 1c1.4 0.6 2.4 1.6 3.4 2.8l134.8 170.4c4.8 6.6 0.4 15.8-7.6 15.8zM952.6 310.8h-72.2c-5.2 0-9.6-4.4-9.6-9.6v-185.2h-717.2v185.2c0 5.2-4.4 9.6-9.6 9.6h-72.2c-5.2 0-9.6-4.4-9.6-9.6v-238.2c0-21.2 17.2-38.6 38.6-38.6h823c21.2 0 38.6 17.2 38.6 38.6v238.2c-0.2 5.2-4.6 9.6-9.8 9.6z" />
<glyph unicode="&#xe92c;" glyph-name="edit" d="M220.6-3c-7.4 1.6-14.8 3-22.2 4.8-82.4 20.8-136.2 88.8-136.4 173.8-0.4 154-0.4 308 0 462 0.2 85.8 55.2 154.8 138.8 174.2 13.6 3.2 28 4.4 42 4.4 110.2 0.4 220.4 0.2 330.6 0.2 27.8 0 45.6-17.2 44-42.4-1.2-18-16-33.2-34-34.8-4.4-0.4-8.8-0.4-13.2-0.4-109 0-218 0-327 0-46.6 0-84-25.2-97.8-66.6-3.8-11.2-5.6-23.6-5.6-35.4-0.4-153.4-0.4-306.8-0.2-460.2 0-59 43-101.8 102-101.8 154.6-0.2 309.2 0 463.8 0 59.4 0 102.2 42.8 102.4 102.2 0.2 107.2 0.2 214.6 0 321.8 0 15.2 4.6 27.8 17.4 36.4 24 16.2 56 1 59.8-28 0.4-3.2 0.4-6.4 0.4-9.6 0-106.6 0.6-213.4-0.2-320-0.6-75.8-35.4-131.4-104-164.2-14.8-7.2-31.8-9.6-47.8-14.2-2.2-0.6-4.4-1.2-6.6-1.8-168.8-0.4-337.6-0.4-506.2-0.4zM850.2 899.8c44-2.2 79.6-23.2 99.6-65.8 20-42.2 15.2-84-15.2-119.4-42-48.8-86.2-95.4-129.6-143-90-98.6-179.8-197-270-295.2-7-7.6-16-14-25.4-18.2-42-19-84.2-37.2-126.4-55.6-25.6-11.2-49.4-6.2-66.2 13.6-13.2 15.8-15.4 34-9.2 53 15 46.2 30.6 92.4 46.4 138.6 2.2 6.4 6.2 12.8 11 17.8 132.2 145.2 264.8 290.4 397.4 435.4 22.8 25 51 38 87.6 38.8zM532.4 388.6c3.6 4 6.8 7.4 10 10.8 74.2 81.4 148.6 162.6 222.8 244 35.6 39 71.4 78 107 117.2 15.2 16.8 14.8 37.4-0.6 51.8-15.4 14.2-36 12.8-51.6-3.6-2.4-2.6-4.8-5.2-7.2-7.8-109.2-119.6-218.4-239-327.4-358.6-1.6-1.8-3.2-3.8-5.2-6.2 17.6-15.8 34.6-31.4 52.2-47.6zM426.4 380.2c-9.8-29.6-19-57-29-86.8 28.8 12.6 55.6 24.4 83.6 36.8-18.4 17-35.6 32.8-54.6 50z" />
<glyph unicode="&#xe92d;" glyph-name="link-filled" d="M962 648.4c-4-18-6.8-36.2-12.2-53.6-10-33-27.6-62-51.8-86.6-56.6-57.2-113.2-114.8-171-170.8-102.2-99.4-268.8-84-349.2 31.4-1.4 2-2.6 3.8-2.8 4 18.8 20 36.2 40.6 56.2 58.6 17.2 15.4 42.4 12.2 60.6-4.8 24.8-23.2 53.8-33.4 87.6-29.6 25.2 2.8 46 14.2 63.8 32 36.8 37 73.8 73.8 110.6 110.6 17.6 17.6 35.4 35 52.8 52.8 41.4 42.2 41.6 109 0.4 150.2-41.6 41.8-108.4 41.8-150.8-0.2-25.8-25.6-51.4-51.4-77-77-3.4-3.4-6-5.2-11.2-3-46.2 19-94.2 25.2-143.6 19.6-0.8 0-1.6 0.2-3.4 0.4 2.4 2.6 4.2 4.8 6.2 6.8 45.6 45.6 91.4 91 136.6 136.8 39.8 40.2 87 64.4 143.4 70.6 1.8 0.2 3.4 1 5 1.4 12.8 0 25.8 0 38.6 0 2-0.6 3.8-1.2 5.8-1.6 95.6-11 172.6-77.2 197.4-170 3.4-13 5.2-26.2 7.8-39.4 0.2-12.8 0.2-25.8 0.2-38.6zM62 247.6c2.4 12.2 4 24.8 7 36.8 9.6 39.2 28 74 56.4 102.6 58.2 59 116.2 118.2 176 175.6 99.8 96.2 269.4 77 346.8-38.2 0.6-1 1.2-2 3.2-5.2-7.4-6.6-15.2-13.6-22.6-20.8-9-8.8-17.8-17.8-26.8-26.6-22-21.8-46.8-22-69.8-1.2-33.8 30.6-72.6 38.2-114.8 20.8-12.8-5.4-25.2-14.2-35.2-24-55.4-54.4-110.2-109.4-164.8-164.4-41.6-42-41.4-108.6-0.2-150.2 41-41.2 108-41.4 150.2 0 26.2 25.6 51.8 51.8 77.6 77.6 3 3 5.2 5.2 10.4 3.2 46.4-19.2 94.6-25.6 144.4-20 0.8 0 1.6-0.2 3.2-0.4-2.6-2.8-4.6-5.2-6.8-7.4-45.4-45.4-90.8-90.6-136-136.2-39.8-40.2-87-64.4-143.4-70.4-1.8-0.2-3.4-1-5-1.4-12.8 0-25.8 0-38.6 0-2 0.6-3.8 1.2-5.8 1.6-95.4 10.8-172.8 77.4-197.4 170-3.4 13-5.2 26.2-7.8 39.4-0.2 13-0.2 26-0.2 38.8z" />
<glyph unicode="&#xe92e;" glyph-name="link" d="M684.2 898c14 0 28.2 0 42.2 0 2.2-0.6 4.4-1.4 6.8-1.6 104.4-10.6 193.2-86.2 219.8-187.6 4-15.2 6-31 9-46.4 0-13.4 0-27 0-40.4-0.6-2.2-1.2-4.4-1.4-6.6-6.6-62.4-33.2-115-77.6-159.2-46.6-46.2-92.4-93.2-139.4-138.8-15.6-15.2-34.2-27.4-51.2-41.2-3-2.4-6-5.4-8.4-8.4-13-16.2-24.4-33.8-38.6-48.6-47.6-48.8-96.2-96.8-144.4-145-30.8-30.8-66.8-53.2-108.8-65.2-17.6-5-36-7.4-54-11-13.4 0-27 0-40.4 0-2.2 0.6-4.4 1.2-6.8 1.6-107.4 15.2-179.8 73.8-216 175.8-6.6 18.6-8.6 38.6-12.8 58 0 14 0 28.2 0 42.2 0.6 1.6 1.2 3.2 1.4 5 6.6 61.4 32.2 113.6 75.8 157.2 47.4 47.4 94.4 95.2 142.6 142 15.2 14.8 33.2 26.6 50 40 3.2 2.4 6 5.4 8.4 8.4 13.2 16.4 24.8 34.4 39.4 49.2 47.2 48.4 95.4 95.8 143.2 143.8 35.8 36 78.4 59.8 128 70.6 10.8 2.6 22 4.2 33.2 6.2zM390.2 383.4c1.4-2.2 2.6-4.2 4-6.2 69.4-98.8 215.2-114.8 302.6-31.6 54.2 51.4 107.2 104.2 158.4 158.6 49.6 52.8 65.4 117.2 47.6 187.4-19 74.8-67.4 124.8-141.6 145.6-75.6 21.2-143.2 2.6-199.6-52.4-41.6-40.4-82.2-81.8-123.2-122.8-1.8-1.8-3.4-3.6-6-6.6 4.2 0 7-0.2 9.8 0 41.2 3.6 81.2-2.4 119.4-18.2 5.2-2 7.4 0 10.4 3 22.2 22.2 44.2 44.4 66.4 66.4 24.4 24.2 53.8 34 87.6 26.6 71.8-16 98.2-102 48-155.8-13.8-14.8-28.4-28.8-42.8-43-34.6-34.6-69.2-69.2-103.8-103.8-24-23.8-52.6-33-86-26.8-18.6 3.4-34.2 12.8-48.2 25.6-16.8 15.4-39.8 16.4-55.6 1.6-16-14.8-31.2-31.2-47.4-47.6zM633.4 513.2c-1 1.6-2.2 3.8-3.8 5.8-70.2 99.4-216.4 114.2-304 29.8-52.6-50.6-104.8-101.6-154.6-154.8-58.8-63-72.6-137.6-40.6-217.4 54.2-135.2 228-168.6 332.6-65.4 41 40.6 81.6 81.6 122.4 122.4 2 2 3.6 4 5.8 6.4-1.4 0.4-2 0.8-2.6 0.8-4-0.2-8.2-0.4-12.2-0.6-38.4-2.8-75.4 3.2-111 17.4-6 2.4-9.6 2-14.4-2.8-22.6-23-45-46.2-68.4-68.4-37.6-35.8-95.4-34.8-131.4 1.6-35.8 36-36.2 93.2-1 130.8 7 7.4 14.4 14.6 21.6 21.8 41.4 41.4 82.8 82.8 124.2 124.2 17 17 37 27.4 61.2 29 28.4 2 52.8-7.4 73.6-27 16.4-15.4 38.6-17.4 54-3.2 17 15.6 32.2 32.8 48.6 49.6zM673.6 552.2c20.4 20.2 41.8 40.6 62.2 62 15.8 16.4 15 41.2-0.8 57-16 16-40.6 16.2-57.6 0.2-8.8-8.2-17-16.8-25.6-25.4-12.4-12.4-24.8-24.6-36.2-36 19.8-19.8 38.6-38.6 58-57.8zM350.2 344.2c-20-20-41-40.6-61.4-61.6-16.2-16.8-16-41.6 0-57.6s40.6-16.4 57.6-0.4c9.6 9 18.8 18.6 28 27.8 11.6 11.6 23 23 33.8 33.6-19.6 19.6-38.4 38.6-58 58.2z" />
<glyph unicode="&#xe92f;" glyph-name="building-filled" d="M896.2 798.6c-130.2 24.4-260.4 49-390.6 73.4-44.8 8.4-89.8 16.8-134.6 25.2-2 0.4-3.8 1.2-5.8 1.8-1.2 0-2.4 0-3.6 0-0.2-17.6-0.4-35-0.4-52.6 0-46 0-91.8 0-137.8 0-3.4 0-7 0-11-26.4-5-52.2-9.8-78-14.8-73-13.6-146-27.2-218.8-41-1.2-0.2-2.2-0.8-3.2-1.2 0-213.8 0-427.8 0-641.6 299.6 0 599.2 0 899.4 0 0 262.6 0 524.6 0 787.6-21.4 4-42.8 8-64.4 12zM286.4 149.4c-24.4 0-48.8 0-74 0 0 24.6 0 49 0 74.2 25 0 49.2 0 74 0 0-24.6 0-49.2 0-74.2zM286.4 299.8c-24.4 0-48.8 0-74.2 0 0 24.8 0 48.8 0 73.6 24.8 0 49.2 0 74.2 0 0-24.6 0-48.8 0-73.6zM286.6 449.6c-24.8 0-49.2 0-74.2 0 0 24.6 0 49 0 74 24.8 0 49 0 74.2 0 0-25.2 0-49.4 0-74zM700.2 673.4c37.4 0 74.2 0 111.4 0 0-24.6 0-48.8 0-73.8-37 0-73.8 0-111.4 0 0 24.4 0 48.8 0 73.8zM512.2 673.4c37.2 0 74.2 0 111.6 0 0-24.4 0-48.8 0-73.8-36.8 0-73.8 0-111.6 0 0 24.8 0 49 0 73.8zM624 523.6c0-24.6 0-49 0-74.2-37.4 0-74.2 0-111.4 0 0 24.8 0 49.2 0 74.2 36.8 0 73.8 0 111.4 0zM624 149.4c-37.2 0-73.8 0-111.4 0 0 24.6 0 49.2 0 74.2 36.8 0 73.6 0 111.4 0 0-25 0-49.4 0-74.2zM624 299.6c-37.2 0-74.2 0-111.6 0 0 24.6 0 49 0 73.8 37.2 0 74 0 111.6 0 0-24.8 0-49 0-73.8zM700 523.4c37.2 0 74 0 111.6 0 0-24.6 0-49 0-73.8-37 0-73.8 0-111.6 0 0 24.6 0 48.8 0 73.8zM811.6 149.4c-37.2 0-74 0-111.4 0 0 24.6 0 49 0 74.2 37.4 0 74.2 0 111.4 0 0-25 0-49.4 0-74.2zM811.6 299.6c-37.2 0-74 0-111.4 0 0 24.4 0 48.6 0 73.6 36.8 0 73.6 0 111.4 0 0-24.8 0-48.8 0-73.6z" />
<glyph unicode="&#xe930;" glyph-name="menu-horizontal" d="M962 448c0-55.781-45.219-101-101-101s-101 45.219-101 101c0 55.781 45.219 101 101 101s101-45.219 101-101zM613 448c0-55.781-45.219-101-101-101s-101 45.219-101 101c0 55.781 45.219 101 101 101s101-45.219 101-101zM264 448c0-55.781-45.219-101-101-101s-101 45.219-101 101c0 55.781 45.219 101 101 101s101-45.219 101-101z" />
<glyph unicode="&#xe931;" glyph-name="menu-vertical" d="M613 797c0-55.781-45.219-101-101-101s-101 45.219-101 101c0 55.781 45.219 101 101 101s101-45.219 101-101zM613 448c0-55.781-45.219-101-101-101s-101 45.219-101 101c0 55.781 45.219 101 101 101s101-45.219 101-101zM613 99c0-55.781-45.219-101-101-101s-101 45.219-101 101c0 55.781 45.219 101 101 101s101-45.219 101-101z" />
<glyph unicode="&#xe932;" glyph-name="menu" d="M512 842.445c129.434 0 258.662 0 388.096 0 36.454 0 61.85-18.432 69.837-50.381 9.216-36.659-15.36-74.138-52.838-80.077-6.349-1.024-12.698-1.434-19.251-1.434-257.843 0-515.686 0-773.734 0-38.093 0-64.102 18.432-72.090 51.2-8.602 35.84 15.974 73.318 52.838 79.053 7.578 1.229 15.36 1.434 22.938 1.434 128.205 0.205 256.205 0.205 384.205 0.205zM510.566 52.326c-129.434 0-258.662 0-388.096 0-36.454 0-61.85 18.637-70.042 50.381-9.216 36.659 15.36 74.342 52.838 80.077 6.349 1.024 12.698 1.434 19.251 1.434 257.843 0 515.686 0 773.734 0 37.478 0 62.464-17.203 71.27-48.538 10.445-37.683-14.336-76.186-53.043-81.92-7.168-1.024-14.541-1.229-21.709-1.229-128-0.205-256-0.205-384.205-0.205zM313.344 381.44c-63.898 0-127.795-0.205-191.488 0-36.045 0-61.85 19.456-69.427 51.2-8.806 36.045 15.974 73.318 52.634 79.258 5.12 0.819 10.24 1.434 15.36 1.434 129.024 0 258.048 0.205 387.072 0 38.093 0 64.922-23.347 69.222-58.778 4.301-33.997-19.866-66.15-53.658-71.68-6.758-1.024-13.722-1.434-20.48-1.434-63.283-0.205-126.157 0-189.235 0z" />
<glyph unicode="&#xe933;" glyph-name="pane-toggle" d="M962.4 874.8v-853.4h-108.6v853.4h108.6zM465.8 122.2c-13.8 0-27.8 5.4-38.4 16-21.2 21.2-21.2 55.6 0 76.8l178.8 178.8h-489.4c-30 0-54.4 24.4-54.4 54.4s24.4 54.4 54.4 54.4h489.6l-178.8 178.8c-21.2 21.2-21.2 55.6 0 76.8s55.6 21.2 76.8 0l271.6-271.6c0.2 0 0.2-0.2 0.2-0.2s0 0 0.2-0.2v0c0 0 0.2 0 0.2-0.2 0 0 0 0 0.2 0 5-5 8.6-10.8 11.2-17 0 0 0 0 0 0v0c2.8-6.4 4.2-13.4 4.2-20.8s-1.4-14.4-4.2-20.8v0c0 0 0 0 0 0-2.6-6.2-6.4-12-11.2-17-0.2 0-0.2 0-0.2-0.2 0 0 0 0-0.2 0v0c0 0-0.2 0-0.2-0.2 0 0 0 0-0.2-0.2v0l-271.8-271.8c-10.6-10.6-24.4-15.8-38.4-15.8z" />
<glyph unicode="&#xe934;" glyph-name="building" d="M361.8 899c1.2 0 2.4 0 3.6 0 2-0.6 3.8-1.4 5.8-1.8 44.8-8.4 89.8-16.8 134.6-25.2 130-24.4 260.2-49 390.4-73.4 21.4-4 43-8.2 64.2-12.2 0-262.8 0-524.8 0-787.6-300.2 0-599.8 0-899.4 0 0 213.8 0 427.8 0 641.6 1 0.4 2.2 1 3.2 1.2 73 13.6 146 27.2 218.8 41 25.8 4.8 51.6 9.8 78 14.8 0 4 0 7.6 0 11 0 46 0 91.8 0 137.8 0.2 17.6 0.6 35.2 0.8 52.8zM436.6 808.4c0-245.4 0-489.6 0-733.6 150 0 299.4 0 448.6 0 0 217 0 433.2 0 649.6-149.8 28-299 56-448.6 84zM136.8 579c0-168.6 0-336.2 0-504 75 0 149.4 0 223.8 0 0 182.2 0 363.8 0 546-75-14.2-149.4-28-223.8-42zM511.4 599.6c0 24.8 0 49 0 73.8 37.2 0 74.2 0 111.6 0 0-24.4 0-48.8 0-73.8-36.8 0-73.8 0-111.6 0zM623 449.4c-37.4 0-74.2 0-111.4 0 0 24.8 0 49.2 0 74.2 37 0 74 0 111.4 0 0-24.6 0-49 0-74.2zM623.2 223.6c0-25 0-49.4 0-74.2-37.2 0-73.8 0-111.4 0 0 24.6 0 49.2 0 74.2 37 0 73.6 0 111.4 0zM699.4 673.4c37.4 0 74.2 0 111.4 0 0-24.6 0-48.8 0-73.8-37 0-73.8 0-111.4 0 0 24.4 0 48.8 0 73.8zM699.2 449.4c0 24.8 0 49 0 73.8 37.2 0 74 0 111.6 0 0-24.6 0-49 0-73.8-37 0-73.8 0-111.6 0zM699.4 223.6c37.4 0 74.2 0 111.4 0 0-24.8 0-49.2 0-74.2-37.2 0-74 0-111.4 0 0 24.6 0 49 0 74.2zM623.2 373.4c0-24.8 0-49 0-73.8-37.2 0-74.2 0-111.6 0 0 24.6 0 49 0 73.8 37.2 0 74 0 111.6 0zM810.8 373.2c0-24.8 0-49 0-73.6-37.2 0-74 0-111.4 0 0 24.4 0 48.6 0 73.6 37 0 73.6 0 111.4 0zM285.8 523.6c0-25 0-49.2 0-74-24.8 0-49.2 0-74.2 0 0 24.6 0 49 0 74 24.6 0 49 0 74.2 0zM211.6 223.6c25 0 49.2 0 74 0 0-24.8 0-49.2 0-74.2-24.4 0-48.8 0-74 0 0 24.6 0 49 0 74.2zM211.6 299.8c0 24.8 0 48.8 0 73.6 24.8 0 49.2 0 74.2 0 0-24.6 0-48.6 0-73.6-24.6 0-49 0-74.2 0z" />
<glyph unicode="&#xe935;" glyph-name="eye" d="M511.6 136.4c-70.2 0.8-134.4 22.2-194.6 56.6-100.6 57.4-179.8 138.2-247.6 231-9.6 13.2-9.8 29-0.6 42 68 95 147.4 178.2 249.4 237.4 66 38.2 136.6 60.4 213.8 55.8 60-3.6 115-23 167.2-51.8 68.6-38 127.4-88.6 179.6-146.6 25.8-28.8 49.2-59.6 73-90 14-18 13.4-32.2 0.2-50.4-58.4-79.4-126-149.8-208.4-204.8-56-37.6-116.2-65-183.6-74.6-16-2.6-32.2-3.2-48.4-4.6zM149.8 446.4c1.2-2 1.4-3 2-3.6 9.4-11.2 18.6-22.6 28.4-33.6 52.6-59.4 110.4-112.6 180.2-151.2 39-21.6 80.2-36.8 125-41.6 53.6-5.8 104.2 5.8 152.4 28.4 95 44.8 168.6 115.2 232.8 196.6 1.4 1.8 0.8 7.2-0.8 9.2-13.4 16.8-26.8 33.6-41 49.8-51.6 58.2-108.6 110-177.8 146.8-82.2 43.8-166.2 51-252.4 12.4-103.8-46.4-180.2-124.8-248.8-213.2zM700.6 448.6c0.2-104.6-84.4-189.2-188.8-189-104.2 0.2-188.4 84.2-188.4 188.4-0.2 104.6 84.2 189.2 188.8 189 104.2 0 188.2-84 188.4-188.4zM398 448.6c0-62.4 51.2-113.8 113.4-114 62.4-0.2 114 51 114.2 113.2 0.4 62.6-51.2 114.6-114 114.6-62-0.2-113.4-51.4-113.6-113.8z" />
<glyph unicode="&#xe936;" glyph-name="folder-plus" d="M62 739.8c0.2 0.6 0.6 1 0.8 1.6 12.4 44.2 37.4 63 83.6 63 65.6 0 131.2-0.2 196.8 0.2 34.2 0.2 62-12 83.2-39.4 9.6-12.6 20.2-24.4 29.8-37 9.6-12.8 22.2-18 38-18 92.2 0.2 184.6 0.2 276.8 0 37.8 0 67.4-21.2 75.6-55.8 2.8-11.8 2.4-24.4 2.8-36.6 0.4-12.6 0-25 0-38.6 17.4 0 34-0.2 50.6 0 16 0.2 31-3.2 43-14.6 17.6-16.6 22.8-36.6 16-60-27-92-53.8-184.2-80.6-276.4-7.2-24.8-14.4-49.4-21.6-74.2-11.8-39.6-42.4-62.8-84-63-60.6-0.2-121.2 0-182 0-146 0-291.8 0-437.8 0-49 0-78.2 22.8-90.2 70.2-0.2 0.6-0.6 1-1 1.4 0.2 192.8 0.2 385 0.2 577.2zM217.8 129.2c1.2 0 3.4 0 5.8 0 183 0 366.2 0 549.2 0 25.4 0 41.2 12 48.4 36.4 33.8 115.6 67.4 231.4 101 347 5.6 19-1.8 28.8-21.4 28.8-174.8 0-349.8 0-524.6 0-25.4 0-41.2-11.8-48.2-36.4-20.8-71-41.4-142-62-213.2-16-53.8-32-107.8-48.2-162.6zM812.2 579.4c0 17.8 0 34.2 0 50.6 0 28-14.8 43-42.6 43-92.2 0-184.6 0.2-276.8 0-26.8 0-48.2 10-64.8 30.8-11.2 14-22.4 27.8-33.8 41.6-11.2 13.6-25.6 21.2-43.4 21.2-71.2 0-142.4 0.4-213.6-0.4-8.2 0-17.2-4-24-8.6-11.6-8-13.8-20.8-13.8-34.4 0.2-180.8 0-361.6 0-542.4 0-2.6 0-5.2 0.2-8 1.4-20.4 13.6-36 32.2-41.8 26-8 50.2 6.8 58.6 35.6 33.6 115.2 67 230.2 100.6 345.4 13.2 45 42.6 67.2 89.8 67.2 139.8 0 279.4 0 419.2 0 3.6 0.2 7.2 0.2 12.2 0.2zM564.8 356.6c0 22-0.2 42.8 0 63.8 0.2 9.4 5.8 17 14.6 20 8.4 2.6 17.6 0.6 22.4-6.6 2.8-4.4 4.8-10 5-15.2 0.6-20.2 0.2-40.6 0.2-61.4 2.4-0.2 4.6-0.2 6.6-0.2 17.6 0 35.4 0 53 0 15.2 0 25-8.2 25.2-21 0.2-13-9.6-21.4-24.8-21.4-19.6 0-39.2 0-60 0 0-2.6 0-4.8 0-7.2 0-18 0-36.2 0-54.2 0-13.8-9-23.4-21.4-23.4-12.2 0.2-20.8 9.8-20.8 23.4 0 18 0 36.2 0 54.2 0 2.2 0 4.2 0 7-11.6 0-22.4 0-33.4 0-9.4 0-19 0-28.4 0-13.2 0.2-22.8 9.2-22.8 21.4 0.2 12 9.4 21 22.4 21 18.4 0.2 36.6 0 55 0 2-0.2 4.2-0.2 7.2-0.2z" />
<glyph unicode="&#xe937;" glyph-name="file" d="M151.2 447.8c0 99.4-0.2 198.6 0 298 0.2 73.4 49.4 133.6 121.2 148.4 9.8 2 19.8 2.8 29.8 2.8 92.4 0.2 185 0.2 277.4 0 42.2 0 78.8-15 108.8-44.8 45.6-45.4 91.2-90.8 136.6-136.6 31-31.2 46.4-68.8 46.4-113-0.2-150.6 0-301.2 0-451.8 0-88.4-65.6-153.8-154-153.8-137.2 0-274.2 0-411.4 0-89 0-154.4 65.4-154.4 154.4-0.4 99-0.4 197.8-0.4 296.4zM601.2 835.2c-7.6 0.8-14.2 1.8-20.6 1.8-92.8 0.2-185.6 0.2-278.4 0-51.6-0.2-90.8-39.4-90.8-91-0.2-199.4-0.2-398.6 0-598 0-51.4 39.4-90.6 91-90.8 139.4-0.2 278.8-0.2 418 0 51 0 90.6 39.2 90.6 90.2 0.2 153.4 0.2 306.8 0 460.2 0 6.4-1.4 12.8-2 19.4-4.6 0-8 0-11.6 0-36 0-71.8-0.4-107.8 0.2-43.6 0.6-79.8 32-87 74.8-1.2 7-1.4 14.2-1.6 21.4 0.2 37 0.2 73.8 0.2 111.8zM661.2 793.6c0-25.6 0-49.8 0-74.2 0-19.8 12.4-32.2 32.2-32.2 22.2-0.2 44.4 0 66.4 0 2.2 0 4.6 0.4 7 0.6-35 35.2-69.6 70-105.6 105.8z" />
<glyph unicode="&#xe938;" glyph-name="file-plus" d="M151.2 447.8c0 99.4-0.2 198.6 0 298 0.2 73.4 49.4 133.6 121.2 148.4 9.8 2 19.8 2.8 29.8 2.8 92.4 0.2 185 0.2 277.4 0 42.2 0 78.8-15 108.8-44.8 45.6-45.4 91.2-90.8 136.6-136.6 31-31.2 46.4-68.8 46.4-113-0.2-150.6 0-301.2 0-451.8 0-88.4-65.6-153.8-154-153.8-137.2 0-274.2 0-411.4 0-89 0-154.4 65.4-154.4 154.4-0.4 99-0.4 197.8-0.4 296.4zM601.2 835.2c-7.6 0.8-14.2 1.8-20.6 1.8-92.8 0.2-185.6 0.2-278.4 0-51.6-0.2-90.8-39.4-90.8-91-0.2-199.4-0.2-398.6 0-598 0-51.4 39.4-90.6 91-90.8 139.4-0.2 278.8-0.2 418 0 51 0 90.6 39.2 90.6 90.2 0.2 153.4 0.2 306.8 0 460.2 0 6.4-1.4 12.8-2 19.4-4.6 0-8 0-11.6 0-36 0-71.8-0.4-107.8 0.2-43.6 0.6-79.8 32-87 74.8-1.2 7-1.4 14.2-1.6 21.4 0.2 37 0.2 73.8 0.2 111.8zM661.2 793.6c0-25.6 0-49.8 0-74.2 0-19.8 12.4-32.2 32.2-32.2 22.2-0.2 44.4 0 66.4 0 2.2 0 4.6 0.4 7 0.6-35 35.2-69.6 70-105.6 105.8zM481.2 447.2c0 31-0.2 60.6 0 90.2 0.2 13.4 8.2 24 20.8 28.2 11.8 3.8 25 0.8 31.8-9.4 4-6.2 6.8-14.2 7-21.6 0.8-28.6 0.4-57.4 0.4-87 3.4-0.2 6.4-0.4 9.4-0.4 25 0 50 0 75 0 21.6 0 35.4-11.6 35.6-29.8 0.2-18.4-13.6-30.2-35.2-30.2-27.8 0-55.6 0-84.8 0 0-3.6 0-6.8 0-10.2 0-25.6 0-51.2 0-76.8 0-19.6-12.8-33.2-30.4-33-17.2 0.2-29.4 13.8-29.4 33 0 25.6 0 51.2 0 76.8 0 3 0 6 0 10-16.4 0-31.8 0-47.4 0-13.4 0-26.8 0-40.2 0-18.8 0.2-32.4 13-32.2 30.2 0.2 17 13.4 29.6 31.8 29.6 26 0.2 51.8 0 77.8 0 2.8 0.4 5.8 0.4 10 0.4z" />
<glyph unicode="&#xe939;" glyph-name="file-filled" d="M871.2 607c0 6.6-1.2 13.4-1.8 20.4-4.6 0-8 0-11.4 0-54 0-108 0-162.2 0-55.6 0-94.4 38.8-94.4 94.2 0 54.4 0 108.6 0 163 0 3.4 0 6.8 0 11-7.4 0.6-14.2 1.6-21 1.6-93.4 0.2-186.8 0.4-280.2 0-81.8-0.4-148.4-66.8-148.6-148.6-0.4-200.8-0.4-401.6 0-602.6 0.2-81.4 66.6-148 148-148.2 141.2-0.4 282.4-0.4 423.6 0 81.4 0.2 147.8 66.8 148 148.4 0.4 153.4 0.2 307 0 460.8zM694.4 687.2c48.4 0 96.8 0 145.2 0 2.2 0 4.6 0.4 6.8 0.6 0.6 1 1.2 1.8 2 2.8-59.6 62.6-120.8 124-183.6 183.4-1.2-0.6-2.2-1.4-3.4-2 0-2 0-4.2 0-6.2 0-48.8 0-97.4 0-146.2 0-20.2 12.4-32.4 33-32.4z" />
<glyph unicode="&#xe93a;" glyph-name="folder" d="M62 739.8c0.2 0.6 0.6 1 0.8 1.6 12.4 44.2 37.4 63 83.6 63 65.6 0 131.2-0.2 196.8 0.2 34.2 0.2 62-12 83.2-39.4 9.6-12.6 20.2-24.4 29.8-37 9.6-12.8 22.2-18 38-18 92.2 0.2 184.6 0.2 276.8 0 37.8 0 67.4-21.2 75.6-55.8 2.8-11.8 2.4-24.4 2.8-36.6 0.4-12.6 0-25 0-38.6 17.4 0 34-0.2 50.6 0 16 0.2 31-3.2 43-14.6 17.6-16.6 22.8-36.6 16-60-27-92-53.8-184.2-80.6-276.4-7.2-24.8-14.4-49.4-21.6-74.2-11.8-39.6-42.4-62.8-84-63-60.6-0.2-121.2 0-182 0-146 0-291.8 0-437.8 0-49 0-78.2 22.8-90.2 70.2-0.2 0.6-0.6 1-1 1.4 0.2 192.8 0.2 385 0.2 577.2zM217.8 129.2c1.2 0 3.4 0 5.8 0 183 0 366.2 0 549.2 0 25.4 0 41.2 12 48.4 36.4 33.8 115.6 67.4 231.4 101 347 5.6 19-1.8 28.8-21.4 28.8-174.8 0-349.8 0-524.6 0-25.4 0-41.2-11.8-48.2-36.4-20.8-71-41.4-142-62-213.2-16-53.8-32-107.8-48.2-162.6zM812.2 579.4c0 17.8 0 34.2 0 50.6 0 28-14.8 43-42.6 43-92.2 0-184.6 0.2-276.8 0-26.8 0-48.2 10-64.8 30.8-11.2 14-22.4 27.8-33.8 41.6-11.2 13.6-25.6 21.2-43.4 21.2-71.2 0-142.4 0.4-213.6-0.4-8.2 0-17.2-4-24-8.6-11.6-8-13.8-20.8-13.8-34.4 0.2-180.8 0-361.6 0-542.4 0-2.6 0-5.2 0.2-8 1.4-20.4 13.6-36 32.2-41.8 26-8 50.2 6.8 58.6 35.6 33.6 115.2 67 230.2 100.6 345.4 13.2 45 42.6 67.2 89.8 67.2 139.8 0 279.4 0 419.2 0 3.6 0.2 7.2 0.2 12.2 0.2z" />
<glyph unicode="&#xe93b;" glyph-name="folder-filled" d="M61.2 739.2c1.4 4.8 2.6 9.6 4.2 14.2 10.4 30 37.2 50 70.4 50.2 71.8 0.6 143.6 0.6 215.4 0 29.2-0.2 53-12.8 71.6-35.6 11-13.4 22-26.6 32.6-40.4 9.8-12.6 22-18.2 38-18.2 92.4 0.2 184.6 0.2 277 0 37.8 0 66.8-20.6 75.6-54.8 3.2-12.2 3-25.2 4.4-39-5.4 0-8.8 0-12.4 0-153.2 0-306.6 0-459.8 0-62 0-106.2-33.4-123.6-93.2-34-116.8-68.2-233.6-102.2-350.4-7.8-27-26.2-42.8-50.6-43.8-17.8-0.8-31.2 7.8-38 24-0.6 1.6-1.6 3-2.4 4.4-0.2 194.4-0.2 388.4-0.2 582.6zM114.4 91.6c3.6 1 7.2 2 10.8 3.2 32.4 10.6 52.8 32.6 62.2 65 21.8 74.8 43.6 149.4 65.4 224.2 12.8 44.2 25.6 88.2 38.6 132.2 11.4 38.8 42 62.4 82.4 62.4 176.2 0.2 352.2 0.2 528.4 0 41.8 0 67.6-34.6 56-74.6-33.4-115.6-67-231-100.8-346.4-12.2-41.6-47-66.8-91.6-67-84.4-0.2-168.8 0-253.2 0-132.8 0-265.6 0-398.2 0 0 0.2 0 0.6 0 1z" />
<glyph unicode="&#xe93c;" glyph-name="folder-shared-filled" d="M61.2 739.2c1.4 4.8 2.6 9.6 4.2 14.2 10.4 30 37.2 50 70.4 50.2 71.8 0.6 143.6 0.6 215.4 0 29.2-0.2 53-12.8 71.6-35.6 11-13.4 22-26.6 32.6-40.4 9.8-12.6 22-18.2 38-18.2 92.4 0.2 184.6 0.2 277 0 37.8 0 66.8-20.6 75.6-54.8 3.2-12.2 3-25.2 4.4-39-5.4 0-8.8 0-12.4 0-153.2 0-306.6 0-459.8 0-62 0-106.2-33.4-123.6-93.2-34-116.8-68.2-233.6-102.2-350.4-7.8-27-26.2-42.8-50.6-43.8-17.8-0.8-31.2 7.8-38 24-0.6 1.6-1.6 3-2.4 4.4-0.2 194.4-0.2 388.4-0.2 582.6zM902.2 578.6c-176.2 0.2-352.2 0.2-528.4 0-40.4 0-71-23.6-82.4-62.4-13-44-25.8-88-38.6-132.2-21.8-74.8-43.6-149.4-65.4-224.2-9.4-32.4-29.8-54.4-62.2-65-3.6-1.2-7.2-2.2-10.8-3.2 0-0.4 0-0.8 0-1 132.6 0 265.4 0 398.2 0 84.4 0 168.8-0.2 253.2 0 44.6 0.2 79.4 25.4 91.6 67 33.8 115.4 67.4 230.8 100.8 346.4 11.6 40-14.2 74.6-56 74.6zM614.2 401.4c2.2 5.2 5.4 10 9.4 14s8.8 7.2 14 9.4c5.2 2.2 10.8 3.2 16.4 3.2s11.2-1.2 16.4-3.2c5.2-2.2 10-5.4 14-9.4s7.2-8.8 9.4-14c2.2-5.2 3.2-10.8 3.2-16.4 0-11.4-4.6-22.4-12.6-30.4s-19-12.6-30.4-12.6c-11.4 0-22.4 4.6-30.4 12.6s-12.6 19-12.6 30.4c-0.2 5.6 1 11.2 3.2 16.4zM502.2 450.8c9.8 9.8 23.2 15.4 37 15.4 14 0 27.2-5.6 37-15.4s15.4-23.2 15.4-37-5.6-27.2-15.4-37c-9.8-9.8-23.2-15.4-37-15.4-14 0-27.2 5.6-37 15.4s-15.4 23.2-15.4 37 5.6 27 15.4 37zM630 251.4v-1.6c0-1.6-0.4-3.2-1.2-4.6s-2-2.6-3.4-3.4c-26-15.6-55.6-23.8-86-23.8-31.4 0-60.8 8.6-86 23.8-1.4 0.8-2.6 2-3.4 3.4s-1.2 3-1.2 4.6v1.6c0 24 9.6 47 26.6 64s40 26.6 64 26.6 47-9.6 64-26.6c17-16.8 26.6-39.8 26.6-64v0zM715.8 258.4c0-1.8-0.6-3.4-1.6-4.8s-2.2-2.6-3.8-3.4c-20-9.8-42.2-14.2-64.4-12.8 1.8 3.8 2.8 8 3 12.2v1.8c0 23.6-7.6 46.6-21.8 65.6 9.6 4.6 20.4 6.6 31 5.8s21-4.2 29.8-10.2c8.8-5.8 16.2-14 21-23.6 4.8-9.2 7.2-19.8 6.8-30.6z" />
<glyph unicode="&#xe93d;" glyph-name="videos-filled" d="M152 628h-90v-540c0-23.8 9.4-46.8 26.4-63.6 16.8-17 39.8-26.4 63.6-26.4h540v90h-540v540zM872 898h-540c-23.8 0-46.8-9.4-63.6-26.4-17-16.8-26.4-39.8-26.4-63.6v-540c0-23.8 9.4-46.8 26.4-63.6 16.8-16.8 39.8-26.4 63.6-26.4h540c23.8 0 46.8 9.4 63.6 26.4 16.8 16.8 26.4 39.8 26.4 63.6v540c0 23.8-9.4 46.8-26.4 63.6-16.8 17-39.8 26.4-63.6 26.4zM467 358v360l315-180-315-180z" />
<glyph unicode="&#xe93e;" glyph-name="image" d="M904.4 840.4c-37.2 37.2-86.6 57.6-139.2 57.6h-506.4c-52.6 0-102-20.4-139.2-57.6s-57.6-86.6-57.6-139.2v-506.2c0-52.6 20.4-102 57.6-139.2s86.6-57.6 139-57.6c0 0 0 0 0.2 0 0 0 0 0 0.2 0h511.8c51 0 99.2 19.8 135.2 56 36.2 36.2 56 84.2 56 135.2v511.8c0 52.6-20.4 102-57.6 139.2zM246.8 54.8c-33 2.8-63.8 17-87.4 40.6-26.6 26.6-41.2 61.8-41.2 99.4v506.4c0 37.6 14.6 72.8 41.2 99.4s61.8 41.2 99.4 41.2h506.2c37.6 0 72.8-14.6 99.4-41.2s41.2-61.8 41.2-99.4v-414.8l-141.6 154.6c-10.6 11.6-23.4 20.6-37.8 27-14.4 6.2-29.6 9.4-45.2 9.4 0 0-0.2 0-0.2 0-15.8 0-31-3.2-45.4-9.6s-27-15.6-37.6-27.2l-351-385.8zM364.4 729.2c-73.6 0-133.6-60-133.6-133.6s60-133.6 133.6-133.6 133.6 60 133.6 133.6-60 133.6-133.6 133.6zM364.4 518.4c-42.6 0-77.4 34.6-77.4 77.4s34.6 77.4 77.4 77.4 77.4-34.6 77.4-77.4-34.8-77.4-77.4-77.4z" />
<glyph unicode="&#xe93f;" glyph-name="times" d="M153-2l-90 90 360 360-360 360 90 90 360-360 360 360 90-90-360-360 360-360-90-90-360 360z" />
<glyph unicode="&#xe940;" glyph-name="arrow-right-curved" d="M622 0.8c8-2.8 16.8-3 25-0.6s15.4 7.4 20.6 14l285.6 367.8c5.6 7.2 8.6 16 8.6 25s-3 18-8.6 25l-285.8 367.6c-5.2 6.8-12.4 11.6-20.6 14s-16.8 2.2-25-0.6c-8-2.8-15-8-20-14.8-5-7-7.6-15.2-7.6-23.8v-163c-219.6 4.6-325.2 46.2-378.2 91.6-50 43.2-59.4 93.8-69 147l-2.4 13.6c-1.8 9.8-7.2 18.6-15 24.6-7.8 6.2-17.6 9.2-27.6 8.6s-19.4-4.8-26.4-11.8c-7-7-11.2-16.4-11.8-26.4-7-112.2 3.6-274.8 82.8-410.8 77-132 215.4-233.6 448-244.2v-164.2c0-8.6 2.6-16.8 7.6-23.8 4.8-6.8 11.8-12 19.8-14.8v0z" />
<glyph unicode="&#xe941;" glyph-name="cog-filled" d="M891.2 384.6l-22.8 13.2c4.8 33.2 4.8 66.8 0 100l22.8 13.2c20.6 12 35.8 31.6 41.8 54.6 6.2 23 3 47.6-9 68.2l-45 77.8c-23.8 41.4-81.4 57-122.8 33l-23.8-13.8c-26 20.4-54.8 37.4-85.4 50v27.2c0 49.6-40.4 90-90 90h-90c-49.6 0-90-40.4-90-90v-27c-30.6-12.8-59.2-29.6-85.4-50l-23.8 13.8c-41.6 23.8-99 8.4-122.8-33l-45-77.6c-12-20.6-15.2-45.2-9-68.2s21.2-42.8 41.8-54.6l22.8-13.2c-4.8-33.2-4.8-66.8 0-100l-22.8-13.2c-20.6-12-35.8-31.6-41.8-54.6-6.2-23.2-2.8-47.8 9-68.6l45-77.8c23.8-41.2 81.4-56.8 122.8-32.8l23.8 13.8c26-20.4 54.8-37.4 85.4-50v-27c0-49.6 40.4-90 90-90h90c49.6 0 90 40.4 90 90v27c30.6 12.8 59.2 29.6 85.4 50l23.8-13.8c41.6-23.8 99-8.4 122.8 32.8l45 77.8c12 20.6 15.2 45.2 9 68.2s-21.2 42.8-41.8 54.6zM512 308c-76 0-140 64-140 140s64 140 140 140c76 0 140-64 140-140s-64-140-140-140z" />
<glyph unicode="&#xe942;" glyph-name="minus" d="M963 398h-900v100h900z" />
<glyph unicode="&#xe943;" glyph-name="check" d="M412 98c-13.2 0-26 5.2-35.4 14.6l-300 300c-19.6 19.6-19.6 51.2 0 70.8s51.2 19.6 70.8 0l261.2-261.4 465 558c17.6 21 49.2 24.2 70.4 6.4 21.2-17.6 24-49.2 6.4-70.4l-500-600c-9-10.8-22.2-17.2-36.2-17.8-0.6-0.2-1.4-0.2-2.2-0.2z" />
<glyph unicode="&#xe944;" glyph-name="arrow-up" d="M962 268c0-23-8.8-46-26.4-63.6-35.2-35.2-92.2-35.2-127.2 0l-296.4 296.4-296.4-296.4c-35.2-35.2-92.2-35.2-127.2 0s-35.2 92.2 0 127.2l360 360c35.2 35.2 92.2 35.2 127.2 0l360-360c17.6-17.6 26.4-40.6 26.4-63.6z" />
<glyph unicode="&#xe945;" glyph-name="restore" d="M512 348c-27.4 0-51 9.8-70.6 29.4s-29.4 43.2-29.4 70.6 9.8 51 29.4 70.6c19.6 19.6 43.2 29.4 70.6 29.4s51-9.8 70.6-29.4c19.6-19.6 29.4-43.2 29.4-70.6s-9.8-51-29.4-70.6c-19.6-19.6-43.2-29.4-70.6-29.4zM512-2c-104.2 0-196.2 31.2-276.2 93.8s-133 143-158.8 241.2c-4.2 17.4-1.4 32.8 8.2 45.6s22.6 19.4 39.4 19.4c11.6 0 22.2-4.2 31.8-12.6s16-18.4 19.4-30c19.2-75.8 60-137.6 122.6-185.6 62.4-47.8 133.6-71.8 213.6-71.8 97.6 0 180.2 34 248 102 68 67.8 102 150.6 102 248s-34 180.2-102 248.2c-67.8 67.8-150.4 101.8-248 101.8-57.4 0-111.2-13.4-161.2-40s-92-63.4-126.2-110h87.4c14.2 0 26-4.8 35.6-14.4s14.4-21.4 14.4-35.6-4.8-26-14.4-35.6c-9.6-9.6-21.4-14.4-35.6-14.4h-200c-14.2 0-26 4.8-35.6 14.4s-14.4 21.4-14.4 35.6v200c0 14.2 4.8 26 14.4 35.6s21.4 14.4 35.6 14.4c14.2 0 26-4.8 35.6-14.4s14.4-21.4 14.4-35.6v-67.6c42.6 53.4 94.4 94.6 155.6 123.8s126 43.8 194.4 43.8c62.6 0 121-11.8 175.6-35.6s102-55.8 142.6-96.2c40.4-40.4 72.4-88 96.2-142.6s35.6-113.2 35.6-175.6-11.8-121-35.6-175.6c-23.8-54.6-55.8-102-96.2-142.6-40.4-40.4-88-72.6-142.6-96.2-54.6-23.8-113-35.6-175.6-35.6z" />
<glyph unicode="&#xe946;" glyph-name="eye-hide" d="M246 239.6c-68.2 51.4-125.6 114.4-176.6 184.4-9.6 13.2-9.8 29-0.6 42 68 95 147.4 178.2 249.4 237.4 66 38.2 136.6 60.4 213.8 55.8 60-3.6 115-23 167.2-51.8 3-1.8 6.2-3.4 9.2-5.2l49.6 49.6c11.2 11.2 29.6 10.6 41.4-1 11.8-11.8 12.2-30.2 1-41.4l-563.6-563.8c-11.2-11.2-29.6-10.6-41.4 1-11.8 11.8-12.2 30.2-1 41.4l51.6 51.6zM652.6 646.2c-0.6 0.2-1 0.6-1.6 0.8-82.2 43.8-166.2 51-252.4 12.4-103.8-46.4-180.2-124.8-248.8-213.2 0.6-1 1-1.6 1.2-2.2 0.4-0.6 0.6-1 0.8-1.4 2.6-3.2 5.2-6.4 8-9.6 6.8-8 13.4-16.2 20.4-24 37.2-42 76.8-80.8 121.6-113.6l51 51c-18.6 29.2-29.6 64-29.6 101.4-0.2 104.6 84.2 189.2 188.8 189 37.4 0 72.2-10.8 101.4-29.6l39.2 39zM558.4 552c-14.4 6.6-30.2 10.2-46.8 10.2-62-0.2-113.4-51.4-113.6-113.8 0-16.6 3.6-32.4 10.2-46.8l150.2 150.4zM511.6 136.2c-57.2 0.6-110.6 15-161 39l59.4 59.4c24-9.2 49-15.6 75.4-18.4 53.6-5.8 104.2 5.8 152.4 28.4 95 44.8 168.6 115.2 232.8 196.6 1.4 1.8 0.8 7.2-0.8 9.2v0c-13.4 16.8-26.8 33.6-41 49.8-24.2 27.2-49.4 53-76.6 76.6l54.8 54.8c25.4-22 49.2-45.6 71.8-70.8 21.8-24.4 42-50.2 62.2-76 3.6-4.6 7.2-9.2 10.8-14 14-18 13.4-32.2 0.2-50.4-58.4-79.4-126-149.8-208.4-204.8-56-37.6-116.2-65-183.6-74.6-11.4-1.8-23-2.6-34.6-3.6v0c-4.6-0.4-9.2-0.8-13.8-1.2zM446.6 271.2c20.4-7.4 42.2-11.6 65.2-11.6 104.4-0.2 189 84.4 188.8 189 0 23-4.2 44.8-11.6 65.2l-63.4-63.4c0-0.8 0-1.6 0-2.4-0.2-62.2-51.8-113.4-114.2-113.2-0.4 0-1 0-1.4 0l-63.4-63.6z" />
</font>
</defs>
</svg>
