<?xml version="1.0" encoding="utf-8"?>
<!-- Generator: Adobe Illustrator 24.3.0, SVG Export Plug-In . SVG Version: 6.00 Build 0)  -->
<svg version="1.1" id="Layer_1" xmlns="http://www.w3.org/2000/svg" xmlns:xlink="http://www.w3.org/1999/xlink" x="0px" y="0px"
	 viewBox="0 0 512 512" style="enable-background:new 0 0 512 512;" xml:space="preserve">
<style type="text/css">
	.st0{fill-rule:evenodd;clip-rule:evenodd;}
</style>
<path class="st0" d="M311,479.6c4,1.4,8.4,1.5,12.5,0.3c4.1-1.2,7.7-3.7,10.3-7L476.6,289c2.8-3.6,4.3-8,4.3-12.5
	c0-4.5-1.5-9-4.3-12.5L333.7,80.2c-2.6-3.4-6.2-5.8-10.3-7c-4.1-1.2-8.4-1.1-12.5,0.3c-4,1.4-7.5,4-10,7.4
	c-2.5,3.5-3.8,7.6-3.8,11.9v81.5c-109.8-2.3-162.6-23.1-189.1-45.8C83,106.9,78.3,81.6,73.5,55l-1.2-6.8c-0.9-4.9-3.6-9.3-7.5-12.3
	c-3.9-3.1-8.8-4.6-13.8-4.3c-5,0.3-9.7,2.4-13.2,5.9c-3.5,3.5-5.6,8.2-5.9,13.2c-3.5,56.1,1.8,137.4,41.4,205.4
	c38.5,66,107.7,116.8,224,122.1v82.1c0,4.3,1.3,8.4,3.8,11.9C303.5,475.6,307,478.2,311,479.6L311,479.6z"/>
</svg>
