<?xml version="1.0" encoding="utf-8"?>
<!-- Generator: Adobe Illustrator 24.3.0, SVG Export Plug-In . SVG Version: 6.00 Build 0)  -->
<svg version="1.1" id="Layer_1" xmlns="http://www.w3.org/2000/svg" xmlns:xlink="http://www.w3.org/1999/xlink" x="0px" y="0px"
	 viewBox="0 0 512 512" style="enable-background:new 0 0 512 512;" xml:space="preserve">
<path d="M481,228.8c0-120-91-203.5-221.6-203.5C123.9,25.2,31,119,31,255.9c0,141.2,90.4,230.9,233,230.9c34.8,0,68.3-4.9,93.1-13.6
	v-34.8c-17.4,8-54.7,13.3-92.6,13.3C146.2,451.6,70,375.5,70,257.6c0-115,77.6-197.4,185.8-197.4c110.6,0,186.4,68.3,186.4,168.1
	c0,68-22.4,112-57.2,112c-19.9,0-31.2-11.3-31.2-30.7V147.3h-41.8V181h-4.4c-10.8-24.1-35.6-39-64.7-39c-56.6,0-96.1,47-96.1,114.1
	c0,70.2,38.6,117.5,96.2,117.5c32.4,0,57.2-15.7,69.1-43.9h4.4c3.2,27.1,28.4,46.4,60.7,46.4C440.7,376.1,481,318.9,481,228.8
	L481,228.8z M190.7,257.2c0-48.4,21.8-77.2,58.9-77.2c37.6,0,61.7,29.9,61.7,77.2s-24.4,77.4-62.2,77.4
	C212.9,334.6,190.7,305.3,190.7,257.2z"/>
</svg>
