<?xml version="1.0" encoding="utf-8"?>
<!-- Generator: Adobe Illustrator 24.3.0, SVG Export Plug-In . SVG Version: 6.00 Build 0)  -->
<svg version="1.1" id="Layer_1" xmlns="http://www.w3.org/2000/svg" xmlns:xlink="http://www.w3.org/1999/xlink" x="0px" y="0px"
	 viewBox="0 0 500 500" style="enable-background:new 0 0 500 500;" xml:space="preserve">
<path d="M437.5,227.3c0-100-75.8-169.6-184.7-169.6c-112.9,0-190.3,78.1-190.3,192.2c0,117.7,75.3,192.4,194.2,192.4
	c29,0,56.9-4.1,77.6-11.3v-29c-14.5,6.7-45.6,11.1-77.2,11.1C158.5,413,95,349.6,95,251.3c0-95.8,64.7-164.5,154.8-164.5
	c92.2,0,155.3,56.9,155.3,140.1c0,56.7-18.7,93.3-47.7,93.3c-16.6,0-26-9.4-26-25.6V159.4h-34.8v28.1h-3.7
	c-9-20.1-29.7-32.5-53.9-32.5c-47.2,0-80.1,39.2-80.1,95.1c0,58.5,32.2,97.9,80.2,97.9c27,0,47.7-13.1,57.6-36.6h3.7
	c2.7,22.6,23.7,38.7,50.6,38.7C403.9,350.1,437.5,302.4,437.5,227.3L437.5,227.3z M195.6,251c0-40.3,18.2-64.3,49.1-64.3
	c31.3,0,51.4,24.9,51.4,64.3s-20.3,64.5-51.8,64.5C214.1,315.5,195.6,291.1,195.6,251z"/>
</svg>
