<?xml version="1.0" encoding="utf-8"?>
<!-- Generator: Adobe Illustrator 24.3.0, SVG Export Plug-In . SVG Version: 6.00 Build 0)  -->
<svg version="1.1" id="Layer_1" xmlns="http://www.w3.org/2000/svg" xmlns:xlink="http://www.w3.org/1999/xlink" x="0px" y="0px"
	 viewBox="0 0 512 512" style="enable-background:new 0 0 512 512;" xml:space="preserve">
<path d="M429.4,338.8c-8.1-24.7-12.3-50.5-12.3-76.5V198c0.6-40.7-13.9-80.2-40.8-110.8c-26.7-30.7-63.8-50.4-104.2-55.4
	c-22.3-2.3-45,0-66.5,7.3c-21.5,6.9-41.1,18.5-57.7,33.8c-16.6,15-29.8,33.4-38.8,53.8c-9,20.5-13.8,42.6-13.9,65v70.7
	c0,25.9-4.2,51.6-12.3,76.2l-19.2,56.9l15.4,21.2h112.7c0,16.9,6.9,33.4,18.8,45.4c11.9,11.9,28.4,18.8,45.4,18.8
	c16.9,0,33.4-6.9,45.4-18.8c11.9-11.9,18.9-28.5,18.9-45.4h112.7l15.4-21.2L429.4,338.8z"/>
</svg>
