<?xml version="1.0" encoding="utf-8"?>
<!-- Generator: Adobe Illustrator 24.3.0, SVG Export Plug-In . SVG Version: 6.00 Build 0)  -->
<svg version="1.1" id="Layer_1" xmlns="http://www.w3.org/2000/svg" xmlns:xlink="http://www.w3.org/1999/xlink" x="0px" y="0px"
	 viewBox="0 0 512 512" style="enable-background:new 0 0 512 512;" xml:space="preserve">
<g>
	<path d="M180.9,30.5c0.6,0,1.2,0,1.8,0c1,0.3,1.9,0.7,2.9,0.9c22.4,4.2,44.9,8.4,67.3,12.6C317.9,56.2,383,68.5,448.1,80.7
		c10.7,2,21.5,4.1,32.1,6.1c0,131.4,0,262.4,0,393.8c-150.1,0-299.9,0-449.7,0c0-106.9,0-213.9,0-320.8c0.5-0.2,1.1-0.5,1.6-0.6
		c36.5-6.8,73-13.6,109.4-20.5c12.9-2.4,25.8-4.9,39-7.4c0-2,0-3.8,0-5.5c0-23,0-45.9,0-68.9C180.6,48.1,180.8,39.3,180.9,30.5z
		 M218.3,75.8c0,122.7,0,244.8,0,366.8c75,0,149.7,0,224.3,0c0-108.5,0-216.6,0-324.8C367.7,103.8,293.1,89.8,218.3,75.8z
		 M68.4,190.5c0,84.3,0,168.1,0,252c37.5,0,74.7,0,111.9,0c0-91.1,0-181.9,0-273C142.8,176.6,105.6,183.5,68.4,190.5z"/>
	<path d="M255.7,180.2c0-12.4,0-24.5,0-36.9c18.6,0,37.1,0,55.8,0c0,12.2,0,24.4,0,36.9C293.1,180.2,274.6,180.2,255.7,180.2z"/>
	<path d="M311.5,255.3c-18.7,0-37.1,0-55.7,0c0-12.4,0-24.6,0-37.1c18.5,0,37,0,55.7,0C311.5,230.5,311.5,242.7,311.5,255.3z"/>
	<path d="M311.6,368.2c0,12.5,0,24.7,0,37.1c-18.6,0-36.9,0-55.7,0c0-12.3,0-24.6,0-37.1C274.4,368.2,292.7,368.2,311.6,368.2z"/>
	<path d="M349.7,143.3c18.7,0,37.1,0,55.7,0c0,12.3,0,24.4,0,36.9c-18.5,0-36.9,0-55.7,0C349.7,168,349.7,155.8,349.7,143.3z"/>
	<path d="M349.6,255.3c0-12.4,0-24.5,0-36.9c18.6,0,37,0,55.8,0c0,12.3,0,24.5,0,36.9C386.9,255.3,368.5,255.3,349.6,255.3z"/>
	<path d="M349.7,368.2c18.7,0,37.1,0,55.7,0c0,12.4,0,24.6,0,37.1c-18.6,0-37,0-55.7,0C349.7,393,349.7,380.8,349.7,368.2z"/>
	<path d="M311.6,293.3c0,12.4,0,24.5,0,36.9c-18.6,0-37.1,0-55.8,0c0-12.3,0-24.5,0-36.9C274.4,293.3,292.8,293.3,311.6,293.3z"/>
	<path d="M405.4,293.4c0,12.4,0,24.5,0,36.8c-18.6,0-37,0-55.7,0c0-12.2,0-24.3,0-36.8C368.2,293.4,386.5,293.4,405.4,293.4z"/>
	<path d="M142.9,218.2c0,12.5,0,24.6,0,37c-12.4,0-24.6,0-37.1,0c0-12.3,0-24.5,0-37C118.1,218.2,130.3,218.2,142.9,218.2z"/>
	<path d="M105.8,368.2c12.5,0,24.6,0,37,0c0,12.4,0,24.6,0,37.1c-12.2,0-24.4,0-37,0C105.8,393,105.8,380.8,105.8,368.2z"/>
	<path d="M105.8,330.1c0-12.4,0-24.4,0-36.8c12.4,0,24.6,0,37.1,0c0,12.3,0,24.3,0,36.8C130.6,330.1,118.4,330.1,105.8,330.1z"/>
</g>
</svg>
