<?xml version="1.0" encoding="utf-8"?>
<!-- Generator: Adobe Illustrator 24.3.0, SVG Export Plug-In . SVG Version: 6.00 Build 0)  -->
<svg version="1.1" id="Layer_1" xmlns="http://www.w3.org/2000/svg" xmlns:xlink="http://www.w3.org/1999/xlink" x="0px" y="0px"
	 viewBox="0 0 512 512" style="enable-background:new 0 0 512 512;" xml:space="preserve">
<path d="M448.1,80.7C383,68.5,317.9,56.2,252.8,44c-22.4-4.2-44.9-8.4-67.3-12.6c-1-0.2-1.9-0.6-2.9-0.9c-0.6,0-1.2,0-1.8,0
	c-0.1,8.8-0.2,17.5-0.2,26.3c0,23,0,45.9,0,68.9c0,1.7,0,3.5,0,5.5c-13.2,2.5-26.1,4.9-39,7.4c-36.5,6.8-73,13.6-109.4,20.5
	c-0.6,0.1-1.1,0.4-1.6,0.6c0,106.9,0,213.9,0,320.8c149.8,0,299.6,0,449.7,0c0-131.3,0-262.3,0-393.8
	C469.6,84.7,458.9,82.7,448.1,80.7z M143.2,405.3c-12.2,0-24.4,0-37,0c0-12.3,0-24.5,0-37.1c12.5,0,24.6,0,37,0
	C143.2,380.5,143.2,392.8,143.2,405.3z M143.2,330.1c-12.2,0-24.4,0-37.1,0c0-12.4,0-24.4,0-36.8c12.4,0,24.6,0,37.1,0
	C143.2,305.6,143.2,317.7,143.2,330.1z M143.3,255.2c-12.4,0-24.6,0-37.1,0c0-12.3,0-24.5,0-37c12.4,0,24.5,0,37.1,0
	C143.3,230.8,143.3,242.9,143.3,255.2z M350.1,143.3c18.7,0,37.1,0,55.7,0c0,12.3,0,24.4,0,36.9c-18.5,0-36.9,0-55.7,0
	C350.1,168,350.1,155.8,350.1,143.3z M256.1,143.3c18.6,0,37.1,0,55.8,0c0,12.2,0,24.4,0,36.9c-18.4,0-36.9,0-55.8,0
	C256.1,167.8,256.1,155.7,256.1,143.3z M312,218.2c0,12.3,0,24.5,0,37.1c-18.7,0-37.1,0-55.7,0c0-12.4,0-24.6,0-37.1
	C274.7,218.2,293.2,218.2,312,218.2z M312,405.3c-18.6,0-36.9,0-55.7,0c0-12.3,0-24.6,0-37.1c18.4,0,36.8,0,55.7,0
	C312,380.7,312,392.9,312,405.3z M312,330.2c-18.6,0-37.1,0-55.8,0c0-12.3,0-24.5,0-36.9c18.6,0,37,0,55.8,0
	C312,305.7,312,317.8,312,330.2z M350,218.3c18.6,0,37,0,55.8,0c0,12.3,0,24.5,0,36.9c-18.5,0-36.9,0-55.8,0
	C350,242.9,350,230.8,350,218.3z M405.8,405.3c-18.6,0-37,0-55.7,0c0-12.3,0-24.5,0-37.1c18.7,0,37.1,0,55.7,0
	C405.8,380.7,405.8,392.9,405.8,405.3z M405.8,330.2c-18.6,0-37,0-55.7,0c0-12.2,0-24.3,0-36.8c18.4,0,36.8,0,55.7,0
	C405.8,305.8,405.8,317.8,405.8,330.2z"/>
</svg>
