<?xml version="1.0" encoding="utf-8"?>
<!-- Generator: Adobe Illustrator 24.3.0, SVG Export Plug-In . SVG Version: 6.00 Build 0)  -->
<svg version="1.1" id="Layer_1" xmlns="http://www.w3.org/2000/svg" xmlns:xlink="http://www.w3.org/1999/xlink" x="0px" y="0px"
	 viewBox="0 0 512 512" style="enable-background:new 0 0 512 512;" xml:space="preserve">
<g>
	<path d="M146,212.9c11.4-39.1,56.9-64.5,100.9-42.1c24.6-48.7,79.8-59.3,117.2-43.4c32.3,13.7,67.2,55.3,50.7,112.2
		c2.2,0.5,4.4,0.9,6.6,1.4c36.7,8.4,61.4,40.9,59.6,78.6c-1.7,36.4-30.4,67-67.2,71.4c-3.2,0.4-6.4,0.4-9.6,0.4
		c-93.7,0-187.4,0.1-281.1,0c-45.7-0.1-82.2-30.6-90.6-75.4c-9.1-48.2,25.5-97.2,73.9-104.9C119.6,209,132.7,209.5,146,212.9z"/>
</g>
</svg>
