<?xml version="1.0" encoding="utf-8"?>
<!-- Generator: Adobe Illustrator 24.3.0, SVG Export Plug-In . SVG Version: 6.00 Build 0)  -->
<svg version="1.1" id="Layer_1" xmlns="http://www.w3.org/2000/svg" xmlns:xlink="http://www.w3.org/1999/xlink" x="0px" y="0px"
	 viewBox="0 0 512 512" style="enable-background:new 0 0 512 512;" xml:space="preserve">
<g>
	<path d="M31,290.3c1.2-5.7,2.1-11.5,3.6-17.1c12.8-46.6,58.8-76.6,106.3-69.4c2.9,0.4,4-0.4,5.2-3c16.9-35.7,56.6-52.3,93.7-39.2
		c2.8,1,4.1,0.7,5.9-1.9c23.6-33.5,56.1-48.4,96.2-41.4c40.9,7.2,66.5,32.9,77,73.3c3.3,12.6,3.1,25.6,0.7,38.4
		c-0.2,1-0.3,2-0.4,3.4c2.1,0.7,4.1,1.4,6.1,2.1c35.3,12.1,58.5,47.3,55.3,83.9c-3.4,38.6-31.7,69.2-69.5,74.9
		c-4.6,0.7-9.3,0.9-14,0.9c-89.5,0.1-178.9,0.1-268.4,0c-49.1,0-87.9-32.7-96.6-81c-0.4-2.4-0.8-4.8-1.3-7.3
		C31,301.5,31,295.9,31,290.3z M262.5,377.7c44.8,0,89.6,0.1,134.4-0.1c5.4,0,10.9-0.4,16.1-1.5c30.6-7,51.1-34,50.2-65.6
		c-0.9-30-23.4-55.5-53.7-60.9c-9.4-1.7-11.7-5.5-9-14.8c3.6-12.5,4.3-25.1,1.6-37.8c-7.1-33.5-33-57.5-66.8-62.3
		c-31.9-4.5-63.6,12.4-79.4,42.2c-3.5,6.7-7.7,8-14.4,4.6c-33.2-16.7-70.6-1.1-82.4,34.2c-2.2,6.6-5.8,8.6-12.8,7
		c-11.1-2.6-22.3-3-33.5-1.1C72,228.4,42.6,269.2,49.1,310c6.5,40.3,38.3,67.6,79,67.7C172.9,377.7,217.7,377.7,262.5,377.7z"/>
</g>
</svg>
