<?xml version="1.0" encoding="utf-8"?>
<!-- Generator: Adobe Illustrator 24.3.0, SVG Export Plug-In . SVG Version: 6.00 Build 0)  -->
<svg version="1.1" id="Layer_1" xmlns="http://www.w3.org/2000/svg" xmlns:xlink="http://www.w3.org/1999/xlink" x="0px" y="0px"
	 viewBox="0 0 512 512" style="enable-background:new 0 0 512 512;" xml:space="preserve">
<style type="text/css">
	.st0{fill:none;}
</style>
<rect x="31" y="31" class="st0" width="450" height="450"/>
<path d="M445.6,287.7l-11.4-6.6c2.4-16.6,2.4-33.4,0-50l11.4-6.6c10.3-6,17.9-15.8,20.9-27.3c3.1-11.5,1.5-23.8-4.5-34.1l-22.5-38.9
	c-11.9-20.7-40.7-28.5-61.4-16.5l-11.9,6.9c-13-10.2-27.4-18.7-42.7-25V76c0-24.8-20.2-45-45-45h-45c-24.8,0-45,20.2-45,45v13.5
	c-15.3,6.4-29.6,14.8-42.7,25l-11.9-6.9c-20.8-11.9-49.5-4.2-61.4,16.5L50,162.9c-6,10.3-7.6,22.6-4.5,34.1s10.6,21.4,20.9,27.3
	l11.4,6.6c-2.4,16.6-2.4,33.4,0,50l-11.4,6.6c-10.3,6-17.9,15.8-20.9,27.3c-3.1,11.6-1.4,23.9,4.5,34.3L72.5,388
	c11.9,20.6,40.7,28.4,61.4,16.4l11.9-6.9c13,10.2,27.4,18.7,42.7,25V436c0,24.8,20.2,45,45,45h45c24.8,0,45-20.2,45-45v-13.5
	c15.3-6.4,29.6-14.8,42.7-25l11.9,6.9c20.8,11.9,49.5,4.2,61.4-16.4l22.5-38.9c6-10.3,7.6-22.6,4.5-34.1
	C463.4,303.5,455.9,293.6,445.6,287.7z M256,326c-38,0-70-32-70-70c0-38,32-70,70-70c38,0,70,32,70,70C326,294,294,326,256,326z"/>
</svg>
