<?xml version="1.0" encoding="utf-8"?>
<!-- Generator: Adobe Illustrator 24.3.0, SVG Export Plug-In . SVG Version: 6.00 Build 0)  -->
<svg version="1.1" id="Layer_1" xmlns="http://www.w3.org/2000/svg" xmlns:xlink="http://www.w3.org/1999/xlink" x="0px" y="0px"
	 viewBox="0 0 512 512" style="enable-background:new 0 0 512 512;" xml:space="preserve">
<style type="text/css">
	.st0{clip-path:url(#SVGID_2_);}
</style>
<g>
	<defs>
		<rect id="SVGID_1_" x="31" y="31" width="450" height="450"/>
	</defs>
	<clipPath id="SVGID_2_">
		<use xlink:href="#SVGID_1_"  style="overflow:visible;"/>
	</clipPath>
	<g class="st0">
		<path d="M256,346c49.6,0,90-40.4,90-90s-40.4-90-90-90s-90,40.4-90,90S206.4,346,256,346z M256,211c24.4,0,45,20.6,45,45
			s-20.6,45-45,45s-45-20.6-45-45S231.6,211,256,211z"/>
		<path d="M50,349.1L72.5,388c11.9,20.6,40.7,28.4,61.4,16.4l11.9-6.9c13,10.2,27.4,18.7,42.7,25V436c0,24.8,20.2,45,45,45h45
			c24.8,0,45-20.2,45-45v-13.5c15.3-6.4,29.6-14.8,42.7-25l11.9,6.9c20.8,11.9,49.5,4.2,61.4-16.4l22.5-38.9
			c6-10.3,7.6-22.6,4.5-34.1c-3.1-11.5-10.6-21.4-20.9-27.3l-11.4-6.6c2.4-16.6,2.4-33.4,0-50l11.4-6.6c10.3-6,17.9-15.8,20.9-27.3
			c3.1-11.5,1.5-23.8-4.5-34.1l-22.5-38.9c-11.9-20.7-40.7-28.5-61.4-16.5l-11.9,6.9c-13-10.2-27.4-18.7-42.7-25V76
			c0-24.8-20.2-45-45-45h-45c-24.8,0-45,20.2-45,45v13.5c-15.3,6.4-29.6,14.8-42.7,25l-11.9-6.9c-20.8-11.9-49.5-4.2-61.4,16.5
			L50,162.9c-6,10.3-7.6,22.6-4.5,34.1c3.1,11.5,10.6,21.4,20.9,27.3l11.4,6.6c-2.4,16.6-2.4,33.4,0,50l-11.4,6.6
			c-10.3,6-17.9,15.8-20.9,27.3C42.4,326.4,44.1,338.7,50,349.1z M124.8,287c-2.5-10.1-3.8-20.6-3.8-31c0-10.4,1.3-20.8,3.8-31
			c1.2-4.7,0.8-9.7-1.1-14.2c-1.9-4.5-5.2-8.3-9.5-10.7L89,185.4l22.5-38.9l25.8,14.9c4.2,2.4,9.1,3.4,13.9,2.9
			c4.8-0.6,9.3-2.7,12.8-6.1c15.2-14.5,33.6-25.2,53.6-31.5c4.6-1.4,8.6-4.3,11.5-8.1c2.9-3.9,4.4-8.6,4.4-13.4V76h45v29.2
			c0,4.8,1.6,9.5,4.4,13.4c2.9,3.9,6.9,6.7,11.5,8.1c20.1,6.2,38.4,17,53.6,31.5c3.5,3.3,8,5.5,12.8,6c4.8,0.6,9.7-0.4,13.9-2.8
			l25.7-14.9l22.5,38.9l-25.3,14.6c-4.2,2.4-7.6,6.2-9.5,10.7c-1.9,4.5-2.3,9.5-1.1,14.2c2.5,10.2,3.8,20.6,3.8,31
			c0,10.4-1.3,20.8-3.8,31c-1.2,4.7-0.8,9.7,1.1,14.2c1.9,4.5,5.2,8.3,9.5,10.7l25.3,14.6l-22.5,38.9l-25.8-14.9
			c-4.2-2.4-9.1-3.4-13.9-2.9c-4.8,0.6-9.3,2.7-12.8,6.1c-15.2,14.5-33.6,25.2-53.6,31.5c-4.6,1.4-8.6,4.3-11.5,8.1
			c-2.9,3.9-4.4,8.6-4.4,13.4l0,29.2h-45v-29.2c0-4.8-1.6-9.5-4.4-13.4c-2.9-3.9-6.9-6.7-11.5-8.1c-20.1-6.2-38.4-17-53.6-31.5
			c-3.5-3.4-8-5.5-12.8-6.1c-4.8-0.6-9.7,0.4-13.9,2.9l-25.7,14.9L89,326.6l25.3-14.6c4.2-2.4,7.6-6.2,9.5-10.7
			C125.6,296.7,126,291.7,124.8,287z"/>
	</g>
</g>
</svg>
