<?xml version="1.0" encoding="utf-8"?>
<!-- Generator: Adobe Illustrator 24.3.0, SVG Export Plug-In . SVG Version: 6.00 Build 0)  -->
<svg version="1.1" id="Layer_1" xmlns="http://www.w3.org/2000/svg" xmlns:xlink="http://www.w3.org/1999/xlink" x="0px" y="0px"
	 viewBox="0 0 512 512" style="enable-background:new 0 0 512 512;" xml:space="preserve">
<g>
	<path d="M30.9,206.4c1.6-8.9,2.5-17.9,4.8-26.6c11-41.3,35.8-72.6,72-94.6c65.4-39.8,148-34.2,207.8,13.4
		c4.4,3.5,8.3,7.8,12.8,11.4c1.9,1.5,4.4,2.9,6.8,3.3c58.7,9.6,104.4,38.5,130.6,92.8c24.1,50,19.1,99.3-10.6,146
		c-1.9,3-2.4,5.3-1.3,8.8c8.1,24.7,15.9,49.5,23.7,74.3c2.8,8.8-0.9,16.7-9,18.2c-3.4,0.6-7.6-0.3-10.8-1.9
		c-24.1-11.9-48-24.1-71.9-36.5c-3.2-1.7-5.7-1.5-9-0.4c-65.2,23.6-125.7,15.7-181.1-26.8c-3.4-2.6-6.8-5.3-9.5-8.5
		c-3.8-4.4-8.5-5.8-13.9-7.1c-13-3-25.9-6.8-38.8-10.7c-2.7-0.8-4.8-1-7.4,0.3c-24.2,12.4-48.4,24.8-72.7,36.9
		c-3.1,1.5-7.1,2.5-10.4,2c-8.2-1.3-12.2-9.3-9.4-17.9c7.9-25.1,15.9-50.1,24-75.1c0.9-2.9,0.7-5-1-7.6c-14-20.7-22.5-43.5-25-68.4
		c-0.1-1.1-0.5-2.3-0.8-3.4C30.9,221,30.9,213.7,30.9,206.4z M443,414.5c-0.5-2-0.8-3.2-1.2-4.4c-5.1-16.1-10-32.4-15.5-48.4
		c-2.5-7.3-1.4-13,3.2-19.1c33.1-44.4,32.8-103.8-1.1-147.6c-26.9-34.8-63.2-53.1-106.7-56.4c-45.8-3.5-86.3,9.8-119.2,42.4
		c-30.2,29.8-43.3,66.3-36.2,108.6c6.7,40.3,29.6,70.3,64.6,90.4c45.8,26.4,93.7,28.1,142.3,7.6c6.3-2.7,11.8-2.9,17.9,0.4
		c11.7,6.3,23.6,12.1,35.5,18.2C431.7,408.9,437,411.5,443,414.5z M155.6,342c0.2-0.3,0.4-0.6,0.7-0.9c-0.6-1.3-1.3-2.6-1.9-3.9
		c-22.1-45.3-22.7-91,0.5-135.7c25-48,66.1-75.1,118.4-86.4c5.2-1.1,10.5-1.8,16.6-2.8c-2.5-1.7-4.3-3-6.1-4.1
		c-20.9-12.8-43.6-20.4-68-22.3c-41.3-3.3-78.7,7.1-110.8,33.6c-31.6,26-48.4,59.6-47.6,101c0.5,26.1,9.2,49.5,25,70.3
		c4.1,5.4,5.1,10.7,2.9,17.2c-5.3,16.1-10.4,32.2-15.5,48.4c-0.5,1.6-0.9,3.3-1.4,5.5c2.4-1.2,4.3-2.1,6.1-3
		c15.8-8,31.5-16,47.2-24.1c5.1-2.6,9.9-2.8,15.1-0.4C142.8,337.1,149.3,339.4,155.6,342z"/>
	<path d="M255.7,282.7c-7.1,0.1-13.2-5.8-13.3-12.9c-0.2-7.3,5.9-13.5,13.2-13.4c7.1,0,13.1,6,13.1,13.1
		C268.8,276.6,262.9,282.6,255.7,282.7z"/>
	<path d="M374.1,269.5c0,7.1-5.9,13.1-13,13.2c-7.3,0.1-13.4-6-13.3-13.3c0.1-7.1,6.1-13,13.2-13
		C368.1,256.5,374.1,262.4,374.1,269.5z"/>
	<path d="M321.4,269.6c0,7.1-6,13.1-13.1,13.1c-7.3,0-13.3-6.2-13.2-13.4c0.1-7.1,6.2-13,13.3-12.9
		C315.5,256.5,321.4,262.5,321.4,269.6z"/>
</g>
</svg>
