<?xml version="1.0" encoding="utf-8"?>
<!-- Generator: Adobe Illustrator 24.3.0, SVG Export Plug-In . SVG Version: 6.00 Build 0)  -->
<svg version="1.1" id="Layer_1" xmlns="http://www.w3.org/2000/svg" xmlns:xlink="http://www.w3.org/1999/xlink" x="0px" y="0px"
	 viewBox="0 0 512 512" style="enable-background:new 0 0 512 512;" xml:space="preserve">
<style type="text/css">
	.st0{fill:#1E4B6C;}
</style>
<path class="st0" d="M447.7,121.6H303.3l-57.9-43.3c-5.7-4.4-12.8-6.7-20-6.7H131c-8.8,0-17.3,3.5-23.6,9.8
	c-6.3,6.3-9.8,14.7-9.8,23.6v33.3H64.3c-8.8,0-17.3,3.5-23.6,9.8c-6.3,6.3-9.8,14.7-9.8,23.6v233.3c0,8.8,3.5,17.3,9.8,23.6
	c6.3,6.3,14.7,9.8,23.6,9.8h318.5c8.3-0.1,16.3-3.4,22.2-9.3c5.9-5.9,9.2-13.9,9.3-22.2v-35.2h35.2c8.3-0.1,16.3-3.4,22.2-9.3
	c5.9-5.9,9.2-13.9,9.3-22.2V154.9c0-8.8-3.5-17.3-9.8-23.6C465,125.1,456.5,121.6,447.7,121.6L447.7,121.6z M447.7,338.3h-33.3
	V221.6c0-8.8-3.5-17.3-9.8-23.6c-6.3-6.3-14.7-9.8-23.6-9.8H236.6l-57.9-43.3c-5.7-4.4-12.8-6.7-20-6.7H131v-33.3h94.4l57.9,43.3
	c5.7,4.4,12.8,6.7,20,6.7h144.4V338.3z"/>
</svg>
