<?xml version="1.0" encoding="utf-8"?>
<!-- Generator: Adobe Illustrator 24.3.0, SVG Export Plug-In . SVG Version: 6.00 Build 0)  -->
<svg version="1.1" id="Layer_1" xmlns="http://www.w3.org/2000/svg" xmlns:xlink="http://www.w3.org/1999/xlink" x="0px" y="0px"
	 viewBox="0 0 512 512" style="enable-background:new 0 0 512 512;" xml:space="preserve">
<g>
	<path d="M186.8,227.1H71.4C49.1,227.1,31,209,31,186.8V71.4C31,49.1,49.1,31,71.4,31h115.4c22.3,0,40.4,18.1,40.4,40.4v115.4
		C227.2,209,209,227.1,186.8,227.1z M71.4,65.6c-3.2,0-5.8,2.6-5.8,5.8v115.4c0,3.2,2.6,5.8,5.8,5.8h115.4c3.2,0,5.8-2.6,5.8-5.8
		V71.4c0-3.2-2.6-5.8-5.8-5.8H71.4z"/>
	<path d="M186.8,481H71.4C49.1,481,31,462.9,31,440.6V325.2c0-22.3,18.1-40.4,40.4-40.4h115.4c22.3,0,40.4,18.1,40.4,40.4v115.4
		C227.2,462.9,209,481,186.8,481z M71.4,319.5c-3.2,0-5.8,2.6-5.8,5.8v115.4c0,3.2,2.6,5.8,5.8,5.8h115.4c3.2,0,5.8-2.6,5.8-5.8
		V325.2c0-3.2-2.6-5.8-5.8-5.8H71.4z"/>
	<path d="M440.6,227.1H325.2c-22.2,0-40.4-18.1-40.4-40.4V71.4c0-22.3,18.1-40.4,40.4-40.4h115.4c22.2,0,40.4,18.1,40.4,40.4v115.4
		C481,209,462.9,227.1,440.6,227.1z M325.2,65.6c-3.2,0-5.7,2.6-5.7,5.8v115.4c0,3.2,2.6,5.8,5.7,5.8h115.4c3.2,0,5.7-2.6,5.7-5.8
		V71.4c0-3.2-2.6-5.8-5.7-5.8H325.2z"/>
	<path d="M440.6,481H325.2c-22.2,0-40.4-18.1-40.4-40.4V325.2c0-22.3,18.1-40.4,40.4-40.4h115.4c22.2,0,40.4,18.1,40.4,40.4v115.4
		C481,462.9,462.9,481,440.6,481z M325.2,319.5c-3.2,0-5.7,2.6-5.7,5.8v115.4c0,3.2,2.6,5.8,5.7,5.8h115.4c3.2,0,5.7-2.6,5.7-5.8
		V325.2c0-3.2-2.6-5.8-5.7-5.8H325.2z"/>
</g>
</svg>
