<?xml version="1.0" encoding="utf-8"?>
<!-- Generator: Adobe Illustrator 24.3.0, SVG Export Plug-In . SVG Version: 6.00 Build 0)  -->
<svg version="1.1" id="Layer_1" xmlns="http://www.w3.org/2000/svg" xmlns:xlink="http://www.w3.org/1999/xlink" x="0px" y="0px"
	 viewBox="0 0 512 512" style="enable-background:new 0 0 512 512;" xml:space="preserve">
<style type="text/css">
	.st0{fill:#41A5EE;}
	.st1{fill:#2B7CD3;}
	.st2{fill:#185ABD;}
	.st3{fill:#103F91;}
	.st4{opacity:0.1;enable-background:new    ;}
	.st5{opacity:0.2;enable-background:new    ;}
	.st6{fill:#2368C4;}
	.st7{fill:#FFFFFF;}
</style>
<g>
	<path class="st0" d="M461.8,47.9h-307c-10.6,0-19.2,8.5-19.2,19.1l0,0v85l177.9,52l167.4-52V67C481,56.4,472.4,47.9,461.8,47.9
		L461.8,47.9z"/>
	<path class="st1" d="M481,151.9H135.6V256l177.9,31.2L481,256V151.9z"/>
	<path class="st2" d="M135.6,256v104.1l167.4,20.8L481,360.1V256H135.6z"/>
	<path class="st3" d="M154.8,464.1h307c10.6,0,19.2-8.5,19.2-19.1l0,0v-85H135.6v85C135.6,455.6,144.2,464.1,154.8,464.1
		L154.8,464.1z"/>
	<path class="st4" d="M263,131.1H135.6v260.2H263c10.6,0,19.2-8.6,19.2-19.1v-222C282.1,139.7,273.6,131.2,263,131.1z"/>
	<path class="st5" d="M252.5,141.5H135.6v260.2h116.9c10.6,0,19.2-8.6,19.2-19.1v-222C271.7,150.1,263.1,141.6,252.5,141.5z"/>
	<path class="st5" d="M252.5,141.5H135.6v239.3h116.9c10.6,0,19.2-8.6,19.2-19.1V160.6C271.7,150.1,263.1,141.6,252.5,141.5z"/>
	<path class="st5" d="M242,141.5H135.6v239.3H242c10.6,0,19.2-8.6,19.2-19.1V160.6C261.2,150.1,252.6,141.6,242,141.5z"/>
	<path class="st6" d="M50.2,141.5H242c10.6,0,19.2,8.5,19.2,19.1v190.8c0,10.5-8.6,19.1-19.2,19.1H50.2c-10.6,0-19.2-8.5-19.2-19.1
		V160.6C31,150.1,39.6,141.5,50.2,141.5z"/>
	<path class="st7" d="M66.2,194h24.2l18.2,86.7c0.4,1.8,0.8,4.1,1.2,7.1c0.4,2.9,0.6,5.5,0.7,7.7h0.4c0.2-2.1,0.5-4.6,1-7.5
		s1-5.4,1.4-7.4l20.2-86.6h26.1l20.9,85.3c1.2,5.3,2.1,10.7,2.6,16.1h0.3c0.4-5.2,1.1-10.5,2.2-15.6l16.7-85.8h23.7l-29.3,124h-27.7
		l-19.9-82.1c-0.6-2.4-1.2-5.4-2-9.3s-1.2-6.6-1.4-8.3h-0.3c-0.2,2-0.7,5-1.4,9c-0.7,4-1.2,6.9-1.6,8.8L123.9,318H95.7"/>
</g>
</svg>
