<?xml version="1.0" encoding="utf-8"?>
<!-- Generator: Adobe Illustrator 24.3.0, SVG Export Plug-In . SVG Version: 6.00 Build 0)  -->
<svg version="1.1" id="Layer_1" xmlns="http://www.w3.org/2000/svg" xmlns:xlink="http://www.w3.org/1999/xlink" x="0px" y="0px"
	 viewBox="0 0 512 512" style="enable-background:new 0 0 512 512;" xml:space="preserve">
<g>
	<path d="M110.3,481.5c-3.7-0.8-7.4-1.5-11.1-2.4c-41.2-10.4-68.1-44.4-68.2-86.9c-0.2-77-0.2-154,0-231
		c0.1-42.9,27.6-77.4,69.4-87.1c6.8-1.6,14-2.2,21-2.2c55.1-0.2,110.2-0.1,165.3-0.1c13.9,0,22.8,8.6,22,21.2c-0.6,9-8,16.6-17,17.4
		c-2.2,0.2-4.4,0.2-6.6,0.2c-54.5,0-109,0-163.5,0c-23.3,0-42,12.6-48.9,33.3c-1.9,5.6-2.8,11.8-2.8,17.7
		c-0.2,76.7-0.2,153.4-0.1,230.1c0,29.5,21.5,50.9,51,50.9c77.3,0.1,154.6,0,231.9,0c29.7,0,51.1-21.4,51.2-51.1
		c0.1-53.6,0.1-107.3,0-160.9c0-7.6,2.3-13.9,8.7-18.2c12-8.1,28-0.5,29.9,14c0.2,1.6,0.2,3.2,0.2,4.8c0,53.3,0.3,106.7-0.1,160
		c-0.3,37.9-17.7,65.7-52,82.1c-7.4,3.6-15.9,4.8-23.9,7.1c-1.1,0.3-2.2,0.6-3.3,0.9C279,481.5,194.6,481.5,110.3,481.5z"/>
	<path d="M425.1,30.1c22,1.1,39.8,11.6,49.8,32.9c10,21.1,7.6,42-7.6,59.7c-21,24.4-43.1,47.7-64.8,71.5
		c-45,49.3-89.9,98.5-135,147.6c-3.5,3.8-8,7-12.7,9.1c-21,9.5-42.1,18.6-63.2,27.8c-12.8,5.6-24.7,3.1-33.1-6.8
		c-6.6-7.9-7.7-17-4.6-26.5c7.5-23.1,15.3-46.2,23.2-69.3c1.1-3.2,3.1-6.4,5.5-8.9C248.7,194.6,315,122,381.3,49.5
		C392.7,37,406.8,30.5,425.1,30.1z M266.2,285.7c1.8-2,3.4-3.7,5-5.4c37.1-40.7,74.3-81.3,111.4-122c17.8-19.5,35.7-39,53.5-58.6
		c7.6-8.4,7.4-18.7-0.3-25.9c-7.7-7.1-18-6.4-25.8,1.8c-1.2,1.3-2.4,2.6-3.6,3.9C351.8,139.3,297.2,199,242.7,258.8
		c-0.8,0.9-1.6,1.9-2.6,3.1C248.9,269.8,257.4,277.6,266.2,285.7z M213.2,289.9c-4.9,14.8-9.5,28.5-14.5,43.4
		c14.4-6.3,27.8-12.2,41.8-18.4C231.3,306.4,222.7,298.5,213.2,289.9z"/>
</g>
</svg>
