<?xml version="1.0" encoding="utf-8"?>
<!-- Generator: Adobe Illustrator 24.3.0, SVG Export Plug-In . SVG Version: 6.00 Build 0)  -->
<svg version="1.1" id="Layer_1" xmlns="http://www.w3.org/2000/svg" xmlns:xlink="http://www.w3.org/1999/xlink" x="0px" y="0px"
	 viewBox="0 0 512 512" style="enable-background:new 0 0 512 512;" xml:space="preserve">
<style type="text/css">
	.st0{fill-rule:evenodd;clip-rule:evenodd;}
</style>
<g>
	<path class="st0" d="M123,360.2C88.9,334.5,60.2,303,34.7,268c-4.8-6.6-4.9-14.5-0.3-21c34-47.5,73.7-89.1,124.7-118.7
		c33-19.1,68.3-30.2,106.9-27.9c30,1.8,57.5,11.5,83.6,25.9c1.5,0.9,3.1,1.7,4.6,2.6l24.8-24.8c5.6-5.6,14.8-5.3,20.7,0.5
		c5.9,5.9,6.1,15.1,0.5,20.7L118.4,407.2c-5.6,5.6-14.8,5.3-20.7-0.5c-5.9-5.9-6.1-15.1-0.5-20.7L123,360.2z M326.3,156.9
		c-0.3-0.1-0.5-0.3-0.8-0.4c-41.1-21.9-83.1-25.5-126.2-6.2c-51.9,23.2-90.1,62.4-124.4,106.6c0.3,0.5,0.5,0.8,0.6,1.1
		c0.2,0.3,0.3,0.5,0.4,0.7c1.3,1.6,2.6,3.2,4,4.8c3.4,4,6.7,8.1,10.2,12c18.6,21,38.4,40.4,60.8,56.8l25.5-25.5
		c-9.3-14.6-14.8-32-14.8-50.7c-0.1-52.3,42.1-94.6,94.4-94.5c18.7,0,36.1,5.4,50.7,14.8L326.3,156.9z M279.2,204
		c-7.2-3.3-15.1-5.1-23.4-5.1c-31,0.1-56.7,25.7-56.8,56.9c0,8.3,1.8,16.2,5.1,23.4L279.2,204z"/>
	<path d="M255.8,411.9c-28.6-0.3-55.3-7.5-80.5-19.5l29.7-29.7c12,4.6,24.5,7.8,37.7,9.2c26.8,2.9,52.1-2.9,76.2-14.2
		c47.5-22.4,84.3-57.6,116.4-98.3c0.7-0.9,0.4-3.6-0.4-4.6l0,0c-6.7-8.4-13.4-16.8-20.5-24.9c-12.1-13.6-24.7-26.5-38.3-38.3
		l27.4-27.4c12.7,11,24.6,22.8,35.9,35.4c10.9,12.2,21,25.1,31.1,38c1.8,2.3,3.6,4.6,5.4,7c7,9,6.7,16.1,0.1,25.2
		c-29.2,39.7-63,74.9-104.2,102.4c-28,18.8-58.1,32.5-91.8,37.3c-5.7,0.9-11.5,1.3-17.3,1.8l0,0
		C260.4,411.5,258.1,411.7,255.8,411.9z"/>
	<path d="M223.3,344.4c10.2,3.7,21.1,5.8,32.6,5.8c52.2,0.1,94.5-42.2,94.4-94.5c0-11.5-2.1-22.4-5.8-32.6l-31.7,31.7
		c0,0.4,0,0.8,0,1.2c-0.1,31.1-25.9,56.7-57.1,56.6c-0.2,0-0.5,0-0.7,0L223.3,344.4z"/>
</g>
</svg>
