<?xml version="1.0" encoding="utf-8"?>
<!-- Generator: Adobe Illustrator 24.3.0, SVG Export Plug-In . SVG Version: 6.00 Build 0)  -->
<svg version="1.1" id="Layer_1" xmlns="http://www.w3.org/2000/svg" xmlns:xlink="http://www.w3.org/1999/xlink" x="0px" y="0px"
	 viewBox="0 0 512 512" style="enable-background:new 0 0 512 512;" xml:space="preserve">
<g>
	<path d="M255.8,411.8c-35.1-0.4-67.2-11.1-97.3-28.3C108.2,354.8,68.6,314.4,34.7,268c-4.8-6.6-4.9-14.5-0.3-21
		c34-47.5,73.7-89.1,124.7-118.7c33-19.1,68.3-30.2,106.9-27.9c30,1.8,57.5,11.5,83.6,25.9c34.3,19,63.7,44.3,89.8,73.3
		c12.9,14.4,24.6,29.8,36.5,45c7,9,6.7,16.1,0.1,25.2c-29.2,39.7-63,74.9-104.2,102.4c-28,18.8-58.1,32.5-91.8,37.3
		C272,410.8,263.9,411.1,255.8,411.8z M74.9,256.8c0.6,1,0.7,1.5,1,1.8c4.7,5.6,9.3,11.3,14.2,16.8c26.3,29.7,55.2,56.3,90.1,75.6
		c19.5,10.8,40.1,18.4,62.5,20.8c26.8,2.9,52.1-2.9,76.2-14.2c47.5-22.4,84.3-57.6,116.4-98.3c0.7-0.9,0.4-3.6-0.4-4.6
		c-6.7-8.4-13.4-16.8-20.5-24.9c-25.8-29.1-54.3-55-88.9-73.4c-41.1-21.9-83.1-25.5-126.2-6.2C147.4,173.4,109.2,212.6,74.9,256.8z"
		/>
	<path d="M350.3,255.7c0.1,52.3-42.2,94.6-94.4,94.5c-52.1-0.1-94.2-42.1-94.2-94.2c-0.1-52.3,42.1-94.6,94.4-94.5
		C308.2,161.5,350.2,203.5,350.3,255.7z M199,255.7c0,31.2,25.6,56.9,56.7,57c31.2,0.1,57-25.5,57.1-56.6
		c0.2-31.3-25.6-57.3-57-57.3C224.8,198.9,199.1,224.5,199,255.7z"/>
</g>
</svg>
