<?xml version="1.0" encoding="utf-8"?>
<!-- Generator: Adobe Illustrator 24.3.0, SVG Export Plug-In . SVG Version: 6.00 Build 0)  -->
<svg version="1.1" id="Layer_1" xmlns="http://www.w3.org/2000/svg" xmlns:xlink="http://www.w3.org/1999/xlink" x="0px" y="0px"
	 viewBox="0 0 512 512" style="enable-background:new 0 0 512 512;" xml:space="preserve">
<g>
	<path d="M435.6,176.5c0-3.3-0.6-6.7-0.9-10.2c-2.3,0-4,0-5.7,0c-27,0-54,0-81.1,0c-27.8,0-47.2-19.4-47.2-47.1
		c0-27.2,0-54.3,0-81.5c0-1.7,0-3.4,0-5.5c-3.7-0.3-7.1-0.8-10.5-0.8c-46.7-0.1-93.4-0.2-140.1,0c-40.9,0.2-74.2,33.4-74.3,74.3
		c-0.2,100.4-0.2,200.8,0,301.3c0.1,40.7,33.3,74,74,74.1c70.6,0.2,141.2,0.2,211.8,0c40.7-0.1,73.9-33.4,74-74.2
		C435.8,330.2,435.7,253.4,435.6,176.5z"/>
	<path d="M347.2,136.4c24.2,0,48.4,0,72.6,0c1.1,0,2.3-0.2,3.4-0.3c0.3-0.5,0.6-0.9,1-1.4c-29.8-31.3-60.4-62-91.8-91.7
		c-0.6,0.3-1.1,0.7-1.7,1c0,1,0,2.1,0,3.1c0,24.4,0,48.7,0,73.1C330.7,130.3,336.9,136.4,347.2,136.4z"/>
</g>
</svg>
