<?xml version="1.0" encoding="utf-8"?>
<!-- Generator: Adobe Illustrator 24.3.0, SVG Export Plug-In . SVG Version: 6.00 Build 0)  -->
<svg version="1.1" id="Layer_1" xmlns="http://www.w3.org/2000/svg" xmlns:xlink="http://www.w3.org/1999/xlink" x="0px" y="0px"
	 viewBox="0 0 512 512" style="enable-background:new 0 0 512 512;" xml:space="preserve">
<g>
	<path d="M317.7,29.6c2.7,2.5,5.5,4.8,8,7.5c34.7,36.3,69.3,72.7,104,108.9c4,4.2,5.9,8.7,5.9,14.5c-0.1,85.7-0.1,171.4-0.1,257.1
		c0,30.4-18.3,54-47,60.5c-4.5,1-9.3,1.4-14,1.4c-78.5,0.1-157.1,0.1-235.6,0c-34.9,0-60.8-26-60.8-61c0-109.5,0-219,0-328.4
		c0-29.2,16.7-51.4,44.8-59.6c0.7-0.2,1.2-0.6,1.9-0.9C189.1,29.6,253.4,29.6,317.7,29.6z M302.6,50.8c-1.9-0.1-3.3-0.2-4.7-0.2
		c-52.7,0-105.4,0-158.1,0c-23.9,0-39.8,15.9-39.8,39.7c0,109.2,0,218.4,0,327.5c0,24.1,15.9,39.9,40.1,39.9c77.8,0,155.6,0,233.4,0
		c24.3,0,40.2-15.9,40.2-40.2c0-81.9,0-163.8,0-245.7c0-1.5,0-3.1,0-4.8c-20.8,0-40.9,0-61,0c-29.8,0-50-20.2-50.1-49.9
		c0-20.4,0-40.8,0-61.2C302.6,54.3,302.6,52.7,302.6,50.8z M398.6,145.2c-25.1-26.3-49.2-51.6-73.8-77.4c-0.3,1.5-0.5,2.1-0.5,2.6
		c0,16.1-0.3,32.3,0.1,48.4c0.4,16.2,11,26.2,27.3,26.4c9.7,0.1,19.4,0,29.1,0C386.3,145.2,391.9,145.2,398.6,145.2z"/>
	<path d="M267.6,234.6c0,1.6,0,3.1,0,4.7c0,36.8,0,73.7,0,110.5c0,4.4-0.8,8.1-4.5,10.9c-6.4,4.7-15.3,1.4-16.9-6.3
		c-0.4-2.1-0.4-4.4-0.4-6.6c0-36,0-71.9,0-107.9c0-1.7,0-3.5,0-5.2c-0.6-0.5-1.2-1-1.8-1.4c-0.7,1.4-1.2,3-2.2,4.1
		c-13,14.1-26.1,28.2-39.2,42.3c-3.1,3.3-6.6,5.7-11.5,4.8c-8-1.5-11.6-10.3-6.9-16.9c0.8-1.1,1.7-2,2.6-3
		c20.1-21.6,40.2-43.2,60.3-64.7c6.4-6.9,12.5-7.1,18.8-0.4c20.6,22,41,44,61.6,66c3.3,3.6,4.6,7.6,3.1,12.1
		c-1.4,4.2-4.7,6.6-9.2,7.2c-4.2,0.5-7.3-1.6-10-4.6c-13.3-14.3-26.6-28.6-39.9-42.9c-1-1.1-1.8-2.3-2.7-3.4
		C268.4,234.2,268,234.4,267.6,234.6z"/>
</g>
</svg>
