<?xml version="1.0" encoding="utf-8"?>
<!-- Generator: Adobe Illustrator 24.3.0, SVG Export Plug-In . SVG Version: 6.00 Build 0)  -->
<svg version="1.1" id="Layer_1" xmlns="http://www.w3.org/2000/svg" xmlns:xlink="http://www.w3.org/1999/xlink" x="0px" y="0px"
	 viewBox="0 0 512 512" style="enable-background:new 0 0 512 512;" xml:space="preserve">
<g>
	<path d="M75.6,256.1c0-49.7-0.1-99.3,0-149c0.1-36.7,24.7-66.8,60.6-74.2c4.9-1,9.9-1.4,14.9-1.4c46.2-0.1,92.5-0.1,138.7,0
		c21.1,0,39.4,7.5,54.4,22.4c22.8,22.7,45.6,45.4,68.3,68.3c15.5,15.6,23.2,34.4,23.2,56.5c-0.1,75.3,0,150.6,0,225.9
		c0,44.2-32.8,76.9-77,76.9c-68.6,0-137.1,0-205.7,0c-44.5,0-77.2-32.7-77.2-77.2C75.6,354.8,75.6,305.4,75.6,256.1z M300.6,62.4
		c-3.8-0.4-7.1-0.9-10.3-0.9c-46.4-0.1-92.8-0.1-139.2,0c-25.8,0.1-45.4,19.7-45.4,45.5c-0.1,99.7-0.1,199.3,0,299
		c0,25.7,19.7,45.3,45.5,45.4c69.7,0.1,139.4,0.1,209,0c25.5,0,45.3-19.6,45.3-45.1c0.1-76.7,0.1-153.4,0-230.1c0-3.2-0.7-6.4-1-9.7
		c-2.3,0-4,0-5.8,0c-18,0-35.9,0.2-53.9-0.1c-21.8-0.3-39.9-16-43.5-37.4c-0.6-3.5-0.7-7.1-0.8-10.7
		C300.6,99.8,300.6,81.4,300.6,62.4z M330.6,83.2c0,12.8,0,24.9,0,37.1c0,9.9,6.2,16.1,16.1,16.1c11.1,0.1,22.2,0,33.2,0
		c1.1,0,2.3-0.2,3.5-0.3C365.9,118.5,348.6,101.1,330.6,83.2z"/>
	<path d="M240.6,256.4c0-15.5-0.1-30.3,0-45.1c0.1-6.7,4.1-12,10.4-14.1c5.9-1.9,12.5-0.4,15.9,4.7c2,3.1,3.4,7.1,3.5,10.8
		c0.4,14.3,0.2,28.7,0.2,43.5c1.7,0.1,3.2,0.2,4.7,0.2c12.5,0,25,0,37.5,0c10.8,0,17.7,5.8,17.8,14.9c0.1,9.2-6.8,15.1-17.6,15.1
		c-13.9,0-27.8,0-42.4,0c0,1.8,0,3.4,0,5.1c0,12.8,0,25.6,0,38.4c0,9.8-6.4,16.6-15.2,16.5c-8.6-0.1-14.7-6.9-14.7-16.5
		c0-12.8,0-25.6,0-38.4c0-1.5,0-3,0-5c-8.2,0-15.9,0-23.7,0c-6.7,0-13.4,0-20.1,0c-9.4-0.1-16.2-6.5-16.1-15.1
		c0.1-8.5,6.7-14.8,15.9-14.8c13-0.1,25.9,0,38.9,0C237,256.4,238.5,256.4,240.6,256.4z"/>
</g>
</svg>
