<?xml version="1.0" encoding="utf-8"?>
<!-- Generator: Adobe Illustrator 24.3.0, SVG Export Plug-In . SVG Version: 6.00 Build 0)  -->
<svg version="1.1" id="Layer_1" xmlns="http://www.w3.org/2000/svg" xmlns:xlink="http://www.w3.org/1999/xlink" x="0px" y="0px"
	 viewBox="0 0 512 512" style="enable-background:new 0 0 512 512;" xml:space="preserve">
<g>
	<path d="M30.6,110.4c0.7-2.4,1.3-4.8,2.1-7.1c5.2-15,18.6-25,35.2-25.1c35.9-0.3,71.8-0.3,107.7,0c14.6,0.1,26.5,6.4,35.8,17.8
		c5.5,6.7,11,13.3,16.3,20.2c4.9,6.3,11,9.1,19,9.1c46.2-0.1,92.3-0.1,138.5,0c18.9,0,33.4,10.3,37.8,27.4
		c1.6,6.1,1.5,12.6,2.2,19.5c-2.7,0-4.4,0-6.2,0c-76.6,0-153.3,0-229.9,0c-31,0-53.1,16.7-61.8,46.6c-17,58.4-34.1,116.8-51.1,175.2
		c-3.9,13.5-13.1,21.4-25.3,21.9c-8.9,0.4-15.6-3.9-19-12c-0.3-0.8-0.8-1.5-1.2-2.2C30.6,304.5,30.6,207.5,30.6,110.4z"/>
	<path d="M57.2,434.2c1.8-0.5,3.6-1,5.4-1.6c16.2-5.3,26.4-16.3,31.1-32.5c10.9-37.4,21.8-74.7,32.7-112.1
		c6.4-22.1,12.8-44.1,19.3-66.1c5.7-19.4,21-31.2,41.2-31.2c88.1-0.1,176.1-0.1,264.2,0c20.9,0,33.8,17.3,28,37.3
		c-16.7,57.8-33.5,115.5-50.4,173.2c-6.1,20.8-23.5,33.4-45.8,33.5c-42.2,0.1-84.4,0-126.6,0c-66.4,0-132.8,0-199.1,0
		C57.2,434.6,57.2,434.4,57.2,434.2z"/>
</g>
</svg>
