<?xml version="1.0" encoding="utf-8"?>
<!-- Generator: Adobe Illustrator 24.3.0, SVG Export Plug-In . SVG Version: 6.00 Build 0)  -->
<svg version="1.1" id="Layer_1" xmlns="http://www.w3.org/2000/svg" xmlns:xlink="http://www.w3.org/1999/xlink" x="0px" y="0px"
	 viewBox="0 0 512 512" style="enable-background:new 0 0 512 512;" xml:space="preserve">
<g>
	<path d="M31,110.1c0.1-0.3,0.3-0.5,0.4-0.8c6.2-22.1,18.7-31.5,41.8-31.5c32.8,0,65.6,0.1,98.4-0.1c17.1-0.1,31,6,41.6,19.7
		c4.8,6.3,10.1,12.2,14.9,18.5c4.8,6.4,11.1,9,19,9c46.1-0.1,92.3-0.1,138.4,0c18.9,0,33.7,10.6,37.8,27.9
		c1.4,5.9,1.2,12.2,1.4,18.3c0.2,6.3,0,12.5,0,19.3c8.7,0,17,0.1,25.3,0c8-0.1,15.5,1.6,21.5,7.3c8.8,8.3,11.4,18.3,8,30
		c-13.5,46-26.9,92.1-40.3,138.2c-3.6,12.4-7.2,24.7-10.8,37.1c-5.9,19.8-21.2,31.4-42,31.5c-30.3,0.1-60.6,0-91,0
		c-73,0-145.9,0-218.9,0c-24.5,0-39.1-11.4-45.1-35.1c-0.1-0.3-0.3-0.5-0.5-0.7C31,302.3,31,206.2,31,110.1z M108.9,415.4
		c0.6,0,1.7,0,2.9,0c91.5,0,183.1,0,274.6,0c12.7,0,20.6-6,24.2-18.2c16.9-57.8,33.7-115.7,50.5-173.5c2.8-9.5-0.9-14.4-10.7-14.4
		c-87.4,0-174.9,0-262.3,0c-12.7,0-20.6,5.9-24.1,18.2c-10.4,35.5-20.7,71-31,106.6C125,361,117,388,108.9,415.4z M406.1,190.3
		c0-8.9,0-17.1,0-25.3c0-14-7.4-21.5-21.3-21.5c-46.1,0-92.3-0.1-138.4,0c-13.4,0-24.1-5-32.4-15.4c-5.6-7-11.2-13.9-16.9-20.8
		c-5.6-6.8-12.8-10.6-21.7-10.6c-35.6,0-71.2-0.2-106.8,0.2c-4.1,0-8.6,2-12,4.3c-5.8,4-6.9,10.4-6.9,17.2c0.1,90.4,0,180.8,0,271.2
		c0,1.3,0,2.6,0.1,4c0.7,10.2,6.8,18,16.1,20.9c13,4,25.1-3.4,29.3-17.8c16.8-57.6,33.5-115.1,50.3-172.7
		c6.6-22.5,21.3-33.6,44.9-33.6c69.9,0,139.7,0,209.6,0C401.8,190.3,403.6,190.3,406.1,190.3z"/>
</g>
<path d="M282.4,301.7c0-11-0.1-21.4,0-31.9c0.1-4.7,2.9-8.5,7.3-10c4.2-1.3,8.8-0.3,11.2,3.3c1.4,2.2,2.4,5,2.5,7.6
	c0.3,10.1,0.1,20.3,0.1,30.7c1.2,0.1,2.3,0.1,3.3,0.1c8.8,0,17.7,0,26.5,0c7.6,0,12.5,4.1,12.6,10.5c0.1,6.5-4.8,10.7-12.4,10.7
	c-9.8,0-19.6,0-30,0c0,1.3,0,2.4,0,3.6c0,9,0,18.1,0,27.1c0,6.9-4.5,11.7-10.7,11.7c-6.1-0.1-10.4-4.9-10.4-11.7c0-9,0-18.1,0-27.1
	c0-1.1,0-2.1,0-3.5c-5.8,0-11.2,0-16.7,0c-4.7,0-9.5,0-14.2,0c-6.6-0.1-11.4-4.6-11.4-10.7c0.1-6,4.7-10.5,11.2-10.5
	c9.2-0.1,18.3,0,27.5,0C279.8,301.7,280.9,301.7,282.4,301.7z"/>
</svg>
