<?xml version="1.0" encoding="utf-8"?>
<!-- Generator: Adobe Illustrator 24.3.0, SVG Export Plug-In . SVG Version: 6.00 Build 0)  -->
<svg version="1.1" id="Layer_1" xmlns="http://www.w3.org/2000/svg" xmlns:xlink="http://www.w3.org/1999/xlink" x="0px" y="0px"
	 viewBox="0 0 512 512" style="enable-background:new 0 0 512 512;" xml:space="preserve">
<g>
	<path d="M255.7,457.9c-44.8,0-89.6-0.2-134.3,0.1c-13.9,0.1-27.6,0.2-40.9-4.9c-30.1-11.7-50.2-41-49.9-73.3
		c0.3-29.9,0.4-59.7,0.5-89.6c0.1-48.7,0.1-97.5-0.1-146.2c-0.1-11.7-0.6-23.3,3-34.7c10.4-32.9,40.2-55,74.5-54.9
		c32.7,0.1,65.5,0.3,98.2,0.3c6.7,0,12.1,2.1,16.8,6.9c19.3,19.6,38.9,38.9,58.3,58.5c2.6,2.6,5.2,3.8,8.9,3.8
		c36.9-0.2,73.7-0.2,110.6-0.4c46-0.3,81.4,37,79.2,83c-1,21.4-0.4,42.8-0.4,64.2c0.1,36.5,0.3,73,0.4,109.5
		c0.2,43.2-34.8,78.2-78.1,78.1c-48.9-0.1-97.8,0-146.7,0C255.7,458.2,255.7,458.1,255.7,457.9z M255.6,423.4c44.4,0,88.8,0,133.3,0
		c5.7,0,11.5-0.3,17.2-0.8c21.3-2,34.2-13.5,38-34.2c1-5.5,1.4-11.1,1.4-16.6c0.1-54,0.1-107.9,0-161.9c0-5-0.4-10.1-1.2-15
		c-2.8-19.5-13.9-31.2-33.1-34.6c-6.9-1.2-13.9-1.7-20.9-1.7c-35.3-0.2-70.5-0.3-105.8,0.1c-9.1,0.1-16-2.5-22.4-9.2
		c-18.5-19.1-37.5-37.8-56.5-56.5c-2-2-5.5-3.4-8.3-3.4c-25-0.3-50-0.2-75-0.1c-5.7,0-11.5,0.3-17.2,0.8
		c-21.3,1.9-34.3,13.5-38.1,34.1c-1.1,5.8-1.4,11.8-1.4,17.7c-0.1,76.3-0.1,152.5,0,228.8c0,5.4,0.4,10.8,1.2,16.1
		c2.7,19.2,13.5,31,32.5,34.6c7,1.3,14.3,1.8,21.4,1.9C165.7,423.5,210.6,423.4,255.6,423.4z"/>
</g>
<path d="M265.6,240.6c0,1.6,0,3.1,0,4.7c0,36.8,0,73.7,0,110.5c0,4.4-0.8,8.1-4.5,10.9c-6.4,4.7-15.3,1.4-16.9-6.3
	c-0.4-2.1-0.4-4.4-0.4-6.6c0-36,0-71.9,0-107.9c0-1.7,0-3.5,0-5.2c-0.6-0.5-1.2-1-1.8-1.4c-0.7,1.4-1.2,3-2.2,4.1
	c-13,14.1-26.1,28.2-39.2,42.3c-3.1,3.3-6.6,5.7-11.5,4.8c-8-1.5-11.6-10.3-6.9-16.9c0.8-1.1,1.7-2,2.6-3
	c20.1-21.6,40.2-43.2,60.3-64.7c6.4-6.9,12.5-7.1,18.8-0.4c20.6,22,41,44,61.6,66c3.3,3.6,4.6,7.6,3.1,12.1
	c-1.4,4.2-4.7,6.6-9.2,7.2c-4.2,0.5-7.3-1.6-10-4.6c-13.3-14.3-26.6-28.6-39.9-42.9c-1-1.1-1.8-2.3-2.7-3.4
	C266.4,240.1,266,240.3,265.6,240.6z"/>
</svg>
