<?xml version="1.0" encoding="utf-8"?>
<!-- Generator: Adobe Illustrator 24.3.0, SVG Export Plug-In . SVG Version: 6.00 Build 0)  -->
<svg version="1.1" id="Layer_1" xmlns="http://www.w3.org/2000/svg" xmlns:xlink="http://www.w3.org/1999/xlink" x="0px" y="0px"
	 viewBox="0 0 512 512" style="enable-background:new 0 0 512 512;" xml:space="preserve">
<g>
	<path d="M481,223.4c-3.1,8.6-8.6,14.5-18.3,13.9c-3.7-0.2-7.7-2-10.9-4c-16.2-10.5-33.6-17.8-52.7-20.7c-34.4-5.2-66.4,1.5-95.4,21
		c-5.6,3.7-10.6,8.3-15.7,12.6c-1.3,1.1-2.5,3-2.7,4.7c-2.5,21.3-11.6,39.4-26.9,54.4c-0.5,0.5-0.9,1.1-1.3,1.6
		c8.1,4.2,16,8.1,23.8,12.3c3.5,1.9,6.8,4.1,10,6.3c8.4,5.9,10.6,16.1,5.3,24.3c-5.2,8.1-15.7,10.7-24.3,5.1
		c-13.5-8.8-27.6-16.2-43.3-19.7c-49.8-11.2-93.3,1.1-130.1,36.5C84.7,385,75.4,401.2,68.2,419c-6.1,15,4.1,27.1,18.6,27
		c49.4-0.5,98.7-0.2,148.1-0.2c10,0,16.8,5,18.9,13.7c2.5,10.6-5.3,20.6-16.1,20.6c-51.9,0-103.7-0.1-155.6,0
		c-20.8,0-35.2-10.2-45-27.7c-9.2-16.6-7-33.5,0-50.3c18.1-43.5,49.3-74.1,92.3-92.7c1.9-0.8,3.7-1.6,6-2.6
		c-23.5-23.5-33.2-51.4-26.9-83.8c4.7-24.1,17.9-43.1,38.2-56.8c45.2-30.4,110.3-13.4,132.6,40.2c12.4-6.7,24.8-13.5,37.4-20.4
		c-23.1-23-32.8-51.2-26.3-83.9c4.5-22.7,16.9-40.8,35.7-54.6c34.9-25.6,86.1-20.7,116.1,10.3c32.5,33.7,36.1,91.1-3.5,128.9
		c1.6,0.8,3.1,1.4,4.6,2.2c9.6,5.2,19.5,10,28.7,16c3.8,2.5,6,7.5,8.9,11.4C481,218.7,481,221.1,481,223.4z"/>
	<path d="M481,401c-3.6,10.5-11.1,14.5-22,14.1c-14.5-0.4-28.9-0.1-43.9-0.1c0,1.9,0,3.4,0,5c0,14.1,0,28.1,0,42.2
		c0,5.7-1.8,10.6-6.2,14.4c-5.7,4.9-12.4,4.6-18.6,2.4c-6.9-2.5-10.2-8.6-10.3-15.9c-0.1-14.2,0-28.4,0-42.6c0-1.6,0-3.2,0-5.5
		c-1.7,0-3.3,0-4.8,0c-14.4,0-28.7,0.1-43.1,0c-7-0.1-12.5-3.1-15.8-9.3c-3.2-5.9-3-11.9,0.6-17.5c3.5-5.7,8.9-8.3,15.5-8.3
		c14.1,0,28.1,0,42.2,0c1.6,0,3.2,0,5.4,0c0-1.8,0-3.3,0-4.9c0-13.9,0-27.8,0-41.8c0-11.4,7.4-19.4,17.8-19.3
		c10.2,0.1,17.3,7.9,17.4,19.2c0.1,15.4,0,30.7,0,46.7c1.8,0,3.3,0,4.9,0c13,0,26.1,0.3,39.1-0.1c10.9-0.4,18.4,3.7,21.9,14.2
		C481,396.3,481,398.6,481,401z"/>
</g>
</svg>
