<?xml version="1.0" encoding="utf-8"?>
<!-- Generator: Adobe Illustrator 24.3.0, SVG Export Plug-In . SVG Version: 6.00 Build 0)  -->
<svg version="1.1" id="Layer_1" xmlns="http://www.w3.org/2000/svg" xmlns:xlink="http://www.w3.org/1999/xlink" x="0px" y="0px"
	 viewBox="0 0 512 512" style="enable-background:new 0 0 512 512;" xml:space="preserve">
<path d="M375.5,354.4c5.6,0,11-2.2,14.9-6.2c4-4,6.2-9.3,6.2-14.9c0-5.6-2.2-11-6.2-14.9c-4-4-9.3-6.2-14.9-6.2s-11,2.2-14.9,6.2
	s-6.2,9.3-6.2,14.9c0,5.6,2.2,11,6.2,14.9C364.6,352.2,369.9,354.4,375.5,354.4z M37.7,279.7C33.3,290,31,301.1,31,312.2v56.2
	c0,14.9,5.9,29.2,16.5,39.8c10.5,10.5,24.9,16.5,39.8,16.5h337.5c14.9,0,29.2-5.9,39.8-16.5c10.5-10.5,16.5-24.9,16.5-39.8v-56.2
	c0-10.8-1.7-21.7-5.3-32c-23.1-66.1-53-129.7-69-162.4c-4.6-9.2-11.6-17-20.4-22.4c-8.8-5.4-18.9-8.3-29.2-8.2H157.3
	c-11,0-21.8,3.2-31,9.3c-9.2,6.1-16.4,14.7-20.7,24.8L37.7,279.7L37.7,279.7z M157.3,115.4h199.8c10.5,0,19.9,5.8,24.4,14.9
	c13.2,26.9,35.7,74.7,55.9,127.2c-4.1-0.9-8.4-1.4-12.6-1.4H87.2c-3.1,0-6.2,0.3-9.1,0.7l53.3-124.3c2.2-5.1,5.8-9.4,10.4-12.4
	C146.4,117,151.8,115.4,157.3,115.4z M452.9,368.5c0,7.5-3,14.6-8.2,19.9c-5.3,5.3-12.4,8.2-19.9,8.2H87.2c-7.5,0-14.6-3-19.9-8.2
	s-8.2-12.4-8.2-19.9v-56.2c0-7.5,3-14.6,8.2-19.9s12.4-8.2,19.9-8.2h337.5c7.5,0,14.6,3,19.9,8.2c5.3,5.3,8.2,12.4,8.2,19.9V368.5z"
	/>
</svg>
