<?xml version="1.0" encoding="utf-8"?>
<!-- Generator: Adobe Illustrator 24.3.0, SVG Export Plug-In . SVG Version: 6.00 Build 0)  -->
<svg version="1.1" id="Layer_1" xmlns="http://www.w3.org/2000/svg" xmlns:xlink="http://www.w3.org/1999/xlink" x="0px" y="0px"
	 viewBox="0 0 512 512" style="enable-background:new 0 0 512 512;" xml:space="preserve">
<g>
	<path d="M31,262.1c0-4.1,0-8.2,0-12.3c2.7-13.1,11.1-22.3,20.3-31.4C107,162.9,162.7,107.3,218.1,51.6c9.2-9.2,18.4-17.9,31.7-20.6
		c4.1,0,8.2,0,12.3,0c13.3,2.6,22.5,11.4,31.7,20.6C351,109,408.4,166.2,465.6,223.4c1.9,1.9,3.8,3.7,5.5,5.7
		c20.6,24.2,7.4,61.6-23.8,67.4c-4.7,0.9-9.5,0.8-14.5,1.3c0,1.9,0,3.7,0,5.4c0,42.5,0,84.9,0,127.4c0,29.5-20.9,50.3-50.3,50.4
		c-22.4,0-44.8,0-67.2,0c-11.1,0-16-5-16-16.2c0-33.7,0-67.4,0-101.1c0-15-9.1-24-24.1-24.1c-12.4,0-24.9,0.3-37.3-0.1
		c-15.3-0.5-25.4,10.4-25.2,25c0.5,33.5,0.2,67.1,0.2,100.6c0,10.8-5.1,15.8-15.9,15.8c-22.1,0-44.2,0-66.3,0
		c-30.7,0-51.2-20.6-51.2-51.2c0-42.3,0-84.7,0-127c0-1.7,0-3.4,0-4.9c-0.9-0.3-1.1-0.5-1.4-0.5c-2.2-0.1-4.4,0-6.6-0.1
		c-16.1-0.8-28.1-8.4-35.7-22.6C33.5,270.9,32.5,266.4,31,262.1z"/>
</g>
</svg>
