<?xml version="1.0" encoding="utf-8"?>
<!-- Generator: Adobe Illustrator 24.3.0, SVG Export Plug-In . SVG Version: 6.00 Build 0)  -->
<svg version="1.1" id="Layer_1" xmlns="http://www.w3.org/2000/svg" xmlns:xlink="http://www.w3.org/1999/xlink" x="0px" y="0px"
	 viewBox="0 0 512 512" style="enable-background:new 0 0 512 512;" xml:space="preserve">
<g>
	<path d="M481,265.2c-2.6,7.7-6.1,14.9-12.2,20.5c-7.9,7.2-17.2,11.1-27.9,11.2c-2.2,0-4.4,0-7.4,0c0,1.9,0,3.5,0,5.2
		c0,43.1,0.1,86.3,0,129.4c-0.1,23.6-15,42.6-37.6,48c-4,0.9-8.1,1.3-12.2,1.3c-22.9,0.1-45.8,0.1-68.7,0.1
		c-10,0-15.2-5.2-15.3-15.2c0-33.7-0.4-67.5,0.2-101.2c0.2-14.7-9.8-25.8-25.5-25.2c-12.3,0.5-24.6,0.1-37,0.1
		c-15.3,0-24.3,9-24.3,24.4c0,33.6,0,67.2,0,100.8c0,11.5-4.9,16.3-16.3,16.3c-22.3,0-44.6,0-66.9,0c-29.6,0-50.5-20.8-50.5-50.4
		c-0.1-42.5,0-85.1,0-127.6c0-1.7,0-3.5,0-5.5c-5-0.4-9.9-0.4-14.5-1.3c-15.7-3.1-26.5-12.4-31.5-27.4c-5-14.9-2-28.6,8.2-40.7
		c1.3-1.6,2.8-3,4.3-4.4c57.4-57.4,114.8-114.7,172.1-172.1c8.3-8.3,16.3-16.8,28-20.4c7,0,14.1,0,21.1,0
		c11.1,3.6,19.1,11.5,27.1,19.5c56.4,56.6,112.9,113,169.5,169.4c7.6,7.6,14.4,15.4,17.4,25.9C481,252.3,481,258.8,481,265.2z
		 M326.2,454.5c2,0,3.6,0,5.1,0c16.9,0,33.7,0,50.6,0c16.5,0,25.2-8.7,25.2-25.3c0-47.8,0-95.6,0-143.5c0-9.9,5.3-15.1,15.3-15.2
		c6.2,0,12.3,0.1,18.5-0.1c6.7-0.2,12-4.4,13.9-10.8c2.2-7.4-1.4-12.6-6.3-17.5c-59.6-59.5-119.1-119.1-178.7-178.6
		c-9.6-9.6-17-9.5-26.7,0.2c-53,53-106,106-159,159c-7.4,7.4-14.8,14.7-22.1,22.1c-4.6,4.8-5.8,10.5-3.1,16.6c2.6,5.9,7.4,9,13.9,9
		c5.4,0.1,10.9,0,16.3,0c12.1,0,16.9,4.7,16.9,16.7c0,47.8,0,95.6,0,143.5c0,14.5,9.2,23.7,23.6,23.7c17.6,0,35.2,0,52.8,0
		c1.4,0,2.8-0.1,4.5-0.2c0-2.1,0-3.9,0-5.6c0-29.8-0.2-59.6,0.2-89.3c0.4-23.4,19.2-44,42.6-45.6c17.9-1.2,36-0.2,54.1-0.2
		c1.3,0,2.6,0.3,3.9,0.6c23.1,5.1,38.5,24,38.6,48c0.2,28.9,0,57.8,0,86.7C326.2,450.6,326.2,452.3,326.2,454.5z"/>
</g>
</svg>
