<?xml version="1.0" encoding="utf-8"?>
<!-- Generator: Adobe Illustrator 24.3.0, SVG Export Plug-In . SVG Version: 6.00 Build 0)  -->
<svg version="1.1" id="Layer_1" xmlns="http://www.w3.org/2000/svg" xmlns:xlink="http://www.w3.org/1999/xlink" x="0px" y="0px"
	 viewBox="0 0 512 512" style="enable-background:new 0 0 512 512;" xml:space="preserve">
<g>
	<path d="M452.2,59.8C433.6,41.2,408.9,31,382.6,31H129.4c-26.3,0-51,10.2-69.6,28.8C41.2,78.4,31,103.1,31,129.4v253.1
		c0,26.3,10.2,51,28.8,69.6c18.6,18.6,43.3,28.8,69.5,28.8c0,0,0,0,0.1,0c0,0,0,0,0.1,0h255.9c25.5,0,49.6-9.9,67.6-28
		c18.1-18.1,28-42.1,28-67.6V129.4C481,103.1,470.8,78.4,452.2,59.8z M123.4,452.6c-16.5-1.4-31.9-8.5-43.7-20.3
		c-13.3-13.3-20.6-30.9-20.6-49.7V129.4c0-18.8,7.3-36.4,20.6-49.7s30.9-20.6,49.7-20.6h253.1c18.8,0,36.4,7.3,49.7,20.6
		c13.3,13.3,20.6,30.9,20.6,49.7v207.4L382,259.5c-5.3-5.8-11.7-10.3-18.9-13.5c-7.2-3.1-14.8-4.7-22.6-4.7c0,0-0.1,0-0.1,0
		c-7.9,0-15.5,1.6-22.7,4.8c-7.2,3.2-13.5,7.8-18.8,13.6L123.4,452.6z"/>
	<path d="M182.2,115.4c-36.8,0-66.8,30-66.8,66.8s30,66.8,66.8,66.8s66.8-30,66.8-66.8S219,115.4,182.2,115.4z M182.2,220.8
		c-21.3,0-38.7-17.3-38.7-38.7s17.3-38.7,38.7-38.7s38.7,17.3,38.7,38.7S203.5,220.8,182.2,220.8z"/>
</g>
</svg>
