<?xml version="1.0" encoding="utf-8"?>
<!-- Generator: Adobe Illustrator 24.3.0, SVG Export Plug-In . SVG Version: 6.00 Build 0)  -->
<svg version="1.1" id="Layer_1" xmlns="http://www.w3.org/2000/svg" xmlns:xlink="http://www.w3.org/1999/xlink" x="0px" y="0px"
	 viewBox="0 0 512 512" style="enable-background:new 0 0 512 512;" xml:space="preserve">
<g>
	<path d="M481,155.8c-2,9-3.4,18.1-6.1,26.8c-5,16.5-13.8,31-25.9,43.3c-28.3,28.6-56.6,57.4-85.5,85.4
		c-51.1,49.7-134.4,42-174.6-15.7c-0.7-1-1.3-1.9-1.4-2c9.4-10,18.1-20.3,28.1-29.3c8.6-7.7,21.2-6.1,30.3,2.4
		c12.4,11.6,26.9,16.7,43.8,14.8c12.6-1.4,23-7.1,31.9-16c18.4-18.5,36.9-36.9,55.3-55.3c8.8-8.8,17.7-17.5,26.4-26.4
		c20.7-21.1,20.8-54.5,0.2-75.1c-20.8-20.9-54.2-20.9-75.4,0.1c-12.9,12.8-25.7,25.7-38.5,38.5c-1.7,1.7-3,2.6-5.6,1.5
		c-23.1-9.5-47.1-12.6-71.8-9.8c-0.4,0-0.8-0.1-1.7-0.2c1.2-1.3,2.1-2.4,3.1-3.4c22.8-22.8,45.7-45.5,68.3-68.4
		c19.9-20.1,43.5-32.2,71.7-35.3c0.9-0.1,1.7-0.5,2.5-0.7c6.4,0,12.9,0,19.3,0c1,0.3,1.9,0.6,2.9,0.8c47.8,5.5,86.3,38.6,98.7,85
		c1.7,6.5,2.6,13.1,3.9,19.7C481,142.9,481,149.4,481,155.8z"/>
	<path d="M31,356.2c1.2-6.1,2-12.4,3.5-18.4c4.8-19.6,14-37,28.2-51.3c29.1-29.5,58.1-59.1,88-87.8c49.9-48.1,134.7-38.5,173.4,19.1
		c0.3,0.5,0.6,1,1.6,2.6c-3.7,3.3-7.6,6.8-11.3,10.4c-4.5,4.4-8.9,8.9-13.4,13.3c-11,10.9-23.4,11-34.9,0.6
		c-16.9-15.3-36.3-19.1-57.4-10.4c-6.4,2.7-12.6,7.1-17.6,12c-27.7,27.2-55.1,54.7-82.4,82.2c-20.8,21-20.7,54.3-0.1,75.1
		c20.5,20.6,54,20.7,75.1,0c13.1-12.8,25.9-25.9,38.8-38.8c1.5-1.5,2.6-2.6,5.2-1.6c23.2,9.6,47.3,12.8,72.2,10
		c0.4,0,0.8,0.1,1.6,0.2c-1.3,1.4-2.3,2.6-3.4,3.7c-22.7,22.7-45.4,45.3-68,68.1c-19.9,20.1-43.5,32.2-71.7,35.2
		c-0.9,0.1-1.7,0.5-2.5,0.7c-6.4,0-12.9,0-19.3,0c-1-0.3-1.9-0.6-2.9-0.8c-47.7-5.4-86.4-38.7-98.7-85c-1.7-6.5-2.6-13.1-3.9-19.7
		C31,369.1,31,362.6,31,356.2z"/>
</g>
</svg>
