<?xml version="1.0" encoding="utf-8"?>
<!-- Generator: Adobe Illustrator 24.3.0, SVG Export Plug-In . SVG Version: 6.00 Build 0)  -->
<svg version="1.1" id="Layer_1" xmlns="http://www.w3.org/2000/svg" xmlns:xlink="http://www.w3.org/1999/xlink" x="0px" y="0px"
	 viewBox="0 0 512 512" style="enable-background:new 0 0 512 512;" xml:space="preserve">
<g>
	<path d="M342.1,31c7,0,14.1,0,21.1,0c1.1,0.3,2.2,0.7,3.4,0.8c52.2,5.3,96.6,43.1,109.9,93.8c2,7.6,3,15.5,4.5,23.2
		c0,6.7,0,13.5,0,20.2c-0.3,1.1-0.6,2.2-0.7,3.3c-3.3,31.2-16.6,57.5-38.8,79.6c-23.3,23.1-46.2,46.6-69.7,69.4
		c-7.8,7.6-17.1,13.7-25.6,20.6c-1.5,1.2-3,2.7-4.2,4.2c-6.5,8.1-12.2,16.9-19.3,24.3c-23.8,24.4-48.1,48.4-72.2,72.5
		c-15.4,15.4-33.4,26.6-54.4,32.6c-8.8,2.5-18,3.7-27,5.5c-6.7,0-13.5,0-20.2,0c-1.1-0.3-2.2-0.6-3.4-0.8
		c-53.7-7.6-89.9-36.9-108-87.9c-3.3-9.3-4.3-19.3-6.4-29c0-7,0-14.1,0-21.1c0.3-0.8,0.6-1.6,0.7-2.5c3.3-30.7,16.1-56.8,37.9-78.6
		c23.7-23.7,47.2-47.6,71.3-71c7.6-7.4,16.6-13.3,25-20c1.6-1.2,3-2.7,4.2-4.2c6.6-8.2,12.4-17.2,19.7-24.6
		c23.6-24.2,47.7-47.9,71.6-71.9c17.9-18,39.2-29.9,64-35.3C330.9,32.8,336.5,32,342.1,31z M195.1,288.3c0.7,1.1,1.3,2.1,2,3.1
		c34.7,49.4,107.6,57.4,151.3,15.8c27.1-25.7,53.6-52.1,79.2-79.3c24.8-26.4,32.7-58.6,23.8-93.7c-9.5-37.4-33.7-62.4-70.8-72.8
		c-37.8-10.6-71.6-1.3-99.8,26.2c-20.8,20.2-41.1,40.9-61.6,61.4c-0.9,0.9-1.7,1.8-3,3.3c2.1,0,3.5,0.1,4.9,0
		c20.6-1.8,40.6,1.2,59.7,9.1c2.6,1,3.7,0,5.2-1.5c11.1-11.1,22.1-22.2,33.2-33.2c12.2-12.1,26.9-17,43.8-13.3
		c35.9,8,49.1,51,24,77.9c-6.9,7.4-14.2,14.4-21.4,21.5c-17.3,17.3-34.6,34.6-51.9,51.9c-12,11.9-26.3,16.5-43,13.4
		c-9.3-1.7-17.1-6.4-24.1-12.8c-8.4-7.7-19.9-8.2-27.8-0.8C210.8,271.9,203.2,280.1,195.1,288.3z M316.7,223.4
		c-0.5-0.8-1.1-1.9-1.9-2.9c-35.1-49.7-108.2-57.1-152-14.9c-26.3,25.3-52.4,50.8-77.3,77.4c-29.4,31.5-36.3,68.8-20.3,108.7
		c27.1,67.6,114,84.3,166.3,32.7c20.5-20.3,40.8-40.8,61.2-61.2c1-1,1.8-2,2.9-3.2c-0.7-0.2-1-0.4-1.3-0.4c-2,0.1-4.1,0.2-6.1,0.3
		c-19.2,1.4-37.7-1.6-55.5-8.7c-3-1.2-4.8-1-7.2,1.4c-11.3,11.5-22.5,23.1-34.2,34.2c-18.8,17.9-47.7,17.4-65.7-0.8
		c-17.9-18-18.1-46.6-0.5-65.4c3.5-3.7,7.2-7.3,10.8-10.9c20.7-20.7,41.4-41.4,62.1-62.1c8.5-8.5,18.5-13.7,30.6-14.5
		c14.2-1,26.4,3.7,36.8,13.5c8.2,7.7,19.3,8.7,27,1.6C300.9,240.4,308.5,231.8,316.7,223.4z M336.8,203.9
		c10.2-10.1,20.9-20.3,31.1-31c7.9-8.2,7.5-20.6-0.4-28.5c-8-8-20.3-8.1-28.8-0.1c-4.4,4.1-8.5,8.4-12.8,12.7
		c-6.2,6.2-12.4,12.3-18.1,18C317.7,184.9,327.1,194.3,336.8,203.9z M175.1,307.9c-10,10-20.5,20.3-30.7,30.8
		c-8.1,8.4-8,20.8,0,28.8c8,8,20.3,8.2,28.8,0.2c4.8-4.5,9.4-9.3,14-13.9c5.8-5.8,11.5-11.5,16.9-16.8
		C194.3,327.2,184.9,317.7,175.1,307.9z"/>
</g>
</svg>
