<?xml version="1.0" encoding="utf-8"?>
<!-- Generator: Adobe Illustrator 24.3.0, SVG Export Plug-In . SVG Version: 6.00 Build 0)  -->
<svg version="1.1" id="Layer_1" xmlns="http://www.w3.org/2000/svg" xmlns:xlink="http://www.w3.org/1999/xlink" x="0px" y="0px"
	 viewBox="0 0 512 512" style="enable-background:new 0 0 512 512;" xml:space="preserve">
<g>
	<path d="M455.2,481.5H55.7V199.8H123c0.2-45.3,1.5-84.5,16.2-113.9c18.6-37.1,55.5-54.3,116.1-54.3s97.7,17.3,116.1,54.3
		c14.7,29.4,16.1,68.6,16.2,113.9h67.5V481.5z M84.9,452.3H426V229H84.9V452.3z M152.3,199.8h206.3c-0.3-92.6-5.1-139.1-103.2-139.1
		S152.6,107.2,152.3,199.8z M255.5,363.8c-8.1,0-14.7-6.6-14.7-14.7v-50.6c0-8.1,6.6-14.7,14.7-14.7s14.7,6.6,14.7,14.7v50.6
		C270.1,357.2,263.6,363.8,255.5,363.8z"/>
	<path d="M255.5,363.2c9.3,0,16.8,7.5,16.8,16.8c0,9.3-7.5,16.8-16.8,16.8s-16.8-7.5-16.8-16.8C238.7,370.7,246.2,363.2,255.5,363.2
		 M255.5,333.8c-25.4,0-46.1,20.7-46.1,46.1c0,25.4,20.7,46.1,46.1,46.1s46.1-20.7,46.1-46.1S280.9,333.8,255.5,333.8L255.5,333.8z"
		/>
</g>
</svg>
