<?xml version="1.0" encoding="utf-8"?>
<!-- Generator: Adobe Illustrator 24.3.0, SVG Export Plug-In . SVG Version: 6.00 Build 0)  -->
<svg version="1.1" id="Layer_1" xmlns="http://www.w3.org/2000/svg" xmlns:xlink="http://www.w3.org/1999/xlink" x="0px" y="0px"
	 viewBox="0 0 468.8 500" style="enable-background:new 0 0 468.8 500;" xml:space="preserve">
<g>
	<path d="M367,400.5H100.7V212.7h44.9c0.1-30.2,1-56.3,10.8-75.9c12.4-24.7,37-36.2,77.4-36.2s65.1,11.5,77.4,36.2
		c9.8,19.6,10.7,45.7,10.8,75.9h45V400.5z M120.2,381h227.3V232.2H120.2V381z M165.1,212.7h137.5c-0.2-61.7-3.4-92.7-68.8-92.7
		S165.3,151,165.1,212.7z M233.9,322c-5.4,0-9.8-4.4-9.8-9.8v-33.7c0-5.4,4.4-9.8,9.8-9.8s9.8,4.4,9.8,9.8v33.7
		C243.6,317.6,239.3,322,233.9,322z"/>
	<path d="M233.9,321.6c6.2,0,11.2,5,11.2,11.2s-5,11.2-11.2,11.2s-11.2-5-11.2-11.2S227.7,321.6,233.9,321.6 M233.9,302
		c-16.9,0-30.7,13.8-30.7,30.7c0,16.9,13.8,30.7,30.7,30.7s30.7-13.8,30.7-30.7S250.8,302,233.9,302L233.9,302z"/>
</g>
</svg>
