<?xml version="1.0" encoding="utf-8"?>
<!-- Generator: Adobe Illustrator 24.3.0, SVG Export Plug-In . SVG Version: 6.00 Build 0)  -->
<svg version="1.1" id="Layer_1" xmlns="http://www.w3.org/2000/svg" xmlns:xlink="http://www.w3.org/1999/xlink" x="0px" y="0px"
	 viewBox="0 0 512 512" style="enable-background:new 0 0 512 512;" xml:space="preserve">
<g>
	<path d="M65.6,70c0,124.4,0,248.3,0,372.8c74.9-15,149.5-29.9,224.7-44.9c0-2,0-3.9,0-5.7c0-16.6-0.1-33.1,0.1-49.7
		c0.1-8.5,5.5-14.7,13.5-16.5c7.2-1.7,15.1,1.6,18.5,8.3c1.4,2.8,2.3,6.3,2.3,9.5c0.2,22.4,0.1,44.8,0.1,67.2
		c0,10.1-5.3,16.5-15.4,18.5c-28.6,5.7-57.1,11.4-85.7,17.1c-56,11.2-112.1,22.4-168.1,33.6c-5.9,1.2-11.5,1.8-16.9-1.7
		c-4.9-3.3-7.5-8-8-13.8c-0.1-1.3-0.1-2.5-0.1-3.8c0-136.4,0-272.7,0-409.1c0-11.9,6.3-19.9,16.6-20.2c4-0.1,8.1,1,12.1,1.8
		C142.6,50,225.8,66.6,309,83.3c10.6,2.1,15.8,8.3,15.8,19.1c0,22.1,0,44.1,0,66.2c0,10.9-7.2,18.6-17.2,18.6
		c-9.9,0.1-17.2-7.6-17.3-18.5c-0.1-16.2-0.2-32.5,0.1-48.7c0.1-3.8-0.9-5.5-4.8-6.2C236,104,186.4,94.1,136.9,84.2
		C114,79.6,91.2,75,68.3,70.4C67.5,70.3,66.8,70.2,65.6,70z"/>
	<path d="M420.2,273.6c-1.7,0-3.4,0-5.1,0c-69.8,0-139.7,0-209.5,0c-11.9,0-19.6-7.6-19-18.5c0.5-8.2,7.3-15.1,15.5-15.8
		c1.9-0.1,3.8-0.1,5.7-0.1c69.1,0,138.1,0,207.2,0c1.7,0,3.4,0,6.3,0c-1.7-1.9-2.7-3.1-3.9-4.2c-17.3-17.3-34.6-34.5-51.8-51.9
		c-7.1-7.1-7.8-16.8-2-23.9c6.4-7.8,17.6-8.6,25.2-1.7c4.7,4.2,9,8.9,13.4,13.3c23.7,23.7,47.5,47.5,71.2,71.2
		c9.6,9.6,9.6,19-0.1,28.7c-27.6,27.6-55.3,55.3-82.9,83c-4.7,4.7-10.1,7.7-16.9,6.4c-6.7-1.3-11.5-5.3-13.5-11.9
		c-2-6.7-0.4-12.8,4.6-17.8c12.8-12.8,25.6-25.6,38.5-38.5c5.8-5.8,11.6-11.5,17.4-17.3C420.5,274.3,420.3,273.9,420.2,273.6z"/>
</g>
</svg>
