<?xml version="1.0" encoding="utf-8"?>
<!-- Generator: Adobe Illustrator 24.3.0, SVG Export Plug-In . SVG Version: 6.00 Build 0)  -->
<svg version="1.1" id="Layer_1" xmlns="http://www.w3.org/2000/svg" xmlns:xlink="http://www.w3.org/1999/xlink" x="0px" y="0px"
	 viewBox="0 0 512 512" style="enable-background:new 0 0 512 512;" xml:space="preserve">
<path d="M223.8,63.1c-51.1,0-100.2,20.3-136.4,56.5S31,204.9,31,256s20.3,100.2,56.5,136.4c36.2,36.2,85.2,56.5,136.4,56.5
	c42.9,0,84-14.1,117.9-39.9l-30.9-30.9c-22.4,16-48.8,25.5-76.3,27.5c-27.5,2-55-3.6-79.5-16.3c-24.5-12.6-45-31.7-59.4-55.3
	c-14.3-23.5-21.9-50.6-21.9-78.1c0-82.9,67.1-150,150-150s150,67.1,150,150h-64.3l85.7,85.7L481,256h-64.3
	c0-51.1-20.3-100.2-56.5-136.4C324,83.5,275,63.1,223.8,63.1z M131.9,280.9c-1.9,1.5-2.6,4.1-1.5,6.2l19.3,33.2
	c1.3,2.6,3.9,2.6,6,2.6l24.2-9.6c5.1,3.4,10.5,6.4,16.1,9l3.9,25.5c0.4,2.4,2.6,4.1,4.7,4.1h38.6c2.1,0.6,4.5-1.3,4.9-3.6l3.9-25.3
	c5.8-2.6,11.4-5.8,16.3-9.6l24,9.6c2.4,0.9,4.9-0.2,6-2.6l19.3-32.1c1.1-2.6,0.4-5.1-1.3-6.6l-21.4-15.9c0.6-6.4,0.6-12.9,0-19.3
	l21.4-16.3c1.9-1.5,2.4-3.9,1.3-6.2l-19.3-33.2c-0.6-1-1.5-1.8-2.6-2.2c-1.1-0.4-2.3-0.4-3.4,0.1l-24,9.6c-5.1-3.6-10.7-6.4-16.5-9
	l-3.6-25.5c-0.3-1.1-0.9-2.1-1.8-2.9c-0.9-0.7-2-1.2-3.2-1.2h-37.7c-2.1,0-4.1,1.5-4.5,3.6l-3.6,25.3c-5.6,2.6-11.4,5.8-16.3,9.6
	l-24.6-9c-1.2-0.4-2.5-0.4-3.6,0.1c-1.1,0.5-2.1,1.4-2.6,2.5l-19.5,32.1c-1.1,2.6-0.4,5.1,1.3,6.6l21.4,15.9c-0.4,3.2-0.4,6.4,0,9.6
	c-0.2,3.2-0.2,6.4,0,9.6l-21.4,15.9 M223.8,288.1c-18,0-32.1-14.6-32.1-32.1c0-17.8,14.4-32.1,32.1-32.1S256,238.2,256,256
	S241.6,288.1,223.8,288.1z"/>
</svg>
