<?xml version="1.0" encoding="utf-8"?>
<!-- Generator: Adobe Illustrator 24.3.0, SVG Export Plug-In . SVG Version: 6.00 Build 0)  -->
<svg version="1.1" id="Layer_1" xmlns="http://www.w3.org/2000/svg" xmlns:xlink="http://www.w3.org/1999/xlink" x="0px" y="0px"
	 viewBox="0 0 512 512" style="enable-background:new 0 0 512 512;" xml:space="preserve">
<style type="text/css">
	.st0{fill-rule:evenodd;clip-rule:evenodd;}
</style>
<path class="st0" d="M481.2,42.6v426.7h-54.3V42.6H481.2z"/>
<path d="M232.9,418.9c-6.9,0-13.9-2.7-19.2-8c-10.6-10.6-10.6-27.8,0-38.4l89.4-89.4H58.4c-15,0-27.2-12.2-27.2-27.2
	c0-15,12.2-27.2,27.2-27.2h244.8l-89.4-89.4c-10.6-10.6-10.6-27.8,0-38.4s27.8-10.6,38.4,0l135.8,135.8c0.1,0,0.1,0.1,0.1,0.1
	c0,0,0,0,0.1,0.1v0c0,0,0.1,0,0.1,0.1c0,0,0,0,0.1,0c2.5,2.5,4.3,5.4,5.6,8.5c0,0,0,0,0,0l0,0c1.4,3.2,2.1,6.7,2.1,10.4
	c0,3.7-0.7,7.2-2.1,10.4l0,0c0,0,0,0,0,0c-1.3,3.1-3.2,6-5.6,8.5c-0.1,0-0.1,0-0.1,0.1c0,0,0,0-0.1,0v0c0,0-0.1,0-0.1,0.1
	c0,0,0,0-0.1,0.1l0,0L252.1,411C246.8,416.3,239.9,418.9,232.9,418.9z"/>
</svg>
