<?xml version="1.0" encoding="utf-8"?>
<!-- Generator: Adobe Illustrator 24.3.0, SVG Export Plug-In . SVG Version: 6.00 Build 0)  -->
<svg version="1.1" id="Layer_1" xmlns="http://www.w3.org/2000/svg" xmlns:xlink="http://www.w3.org/1999/xlink" x="0px" y="0px"
	 viewBox="0 0 512 512" style="enable-background:new 0 0 512 512;" xml:space="preserve">
<style type="text/css">
	.st0{fill:#E14C3F;}
	.st1{fill:#FE7164;}
	.st2{fill:#FEFDFD;}
	.st3{fill:#FEFCFB;}
	.st4{fill:#FEFBFB;}
	.st5{fill:#C64F45;}
	.st6{fill:#FD7467;}
	.st7{fill:#FD7064;}
	.st8{fill:#FE796C;}
	.st9{fill:#FD776B;}
	.st10{fill:#FB7569;}
	.st11{fill:#FB6F62;}
	.st12{fill:#FE7B6F;}
	.st13{fill:#FD7164;}
	.st14{fill:#E14C40;}
	.st15{fill:#FD7366;}
</style>
<path class="st0" d="M122.4,30.9c99,0,198,0,297.1,0c0.6,0.3,1.2,0.8,1.8,0.9c27.1,5,45.8,20.3,55.6,46.2c1.8,4.6,2.8,9.7,4.2,14.4
	c0,109.3,0,218.5,0,327.8c-0.4,1.2-1,2.3-1.2,3.5c-7.3,34.2-35.2,57.1-70.2,57.1c-102.3,0.1-204.7,0.1-307-0.1
	c-7.9,0-16.2-1.3-23.7-3.9C49,466.7,31,440.6,31,408.7c0-78.1,0-156,0-234.1c0-1.3,0.1-2.6,0.1-4c2.5-2.4,5-4.7,7.5-7.2
	c12.1-12.1,24.4-24.4,36.5-36.5c1.3-1.3,2.2-3,3.3-4.5c4.9-0.1,9.6-0.1,14.4-0.2c16.3-0.1,29.4-13.2,29.6-29.6
	C122.5,72.1,122.4,51.5,122.4,30.9z M384,327.7c0-27.1,0.1-54.4,0.1-81.5c3.5,0,6.9,0.2,10.4-0.2c1.7-0.2,3.9-1.5,4.5-3
	c1.9-4.2,3.1-8.7,4.4-13.1c0.2-0.9-0.3-2-0.6-3c0.3-1.7,0.8-3.3,1.2-5.4c-6.8,0-13.2,0-19.8,0c0-3.4,0-6.4,0-9.4
	c3.5-5.6,8.6-7.7,15.2-7.3c5.7,0.3,5.7,0,5.8-5.8c0-4,0.1-7.9,0-11.8c-0.2-7.4,1.4-6-6.4-7.5c-23.8-4.6-37.8,6.9-38.4,31.2
	c-0.1,3.4,0,6.9,0,10.8c-4.7,0-8.9,0-13.2,0c0,6.5,0,12.5,0,18.4c0.1,6,0.1,6,6.2,6c2.3,0,4.6,0.1,6.9,0.1c0,27.2,0.1,54.4,0.1,81.6
	c0.1,5.4,0.6,6,6,6.1c3.7,0.1,7.6,0,11.4,0C383.8,333.8,384,333.7,384,327.7z M233.4,295.8c0.1,9.9,3.6,18.5,9.9,26.1
	c12.6,15,41.2,21.3,61.6,3c1.1-1,2.3-1.9,3.6-2.9c4.6,11.2,4.6,11.2,16.8,11.2c3.5,0,7.1,0,10.8,0c-0.1-2.3-0.2-3.6-0.2-5
	c0.1-0.9,0.6-1.9,0.2-2.5c-4.3-8.2-4.9-17-4.9-26c0.1-38.7,0-77.3,0-116c0-1.7,0-3.3,0-5.4c-8.2,2.3-15.7,4.3-23.3,6.5
	c0,6.4,0,12.6,0,18.7c0,6.3,0,12.5,0,19.3c-11.2-4.3-22.1-4.5-33.1-3.1c-22.5,2.9-37.1,16-41.2,38
	C231.3,270.4,231.8,283.1,233.4,295.8z M130.4,280.6c16.9,0,33.6,0.2,50.5-0.1c26.1-0.4,39.6-20.1,40.6-43.3c0-5.5,0.6-11.1,0-16.6
	c-1.3-13.7-6.2-25.6-18.4-33.2c-7.7-4.9-16.2-6.2-25.3-6.2c-22.4,0.1-44.8,0-67.2,0c-1.3,0-2.5,0.1-4.1,0.2c-0.1,1-0.2,1.7-0.2,2.3
	c0,48.2,0,96.3,0.1,144.5c0.1,5.8,0.1,5.8,5.8,5.8c4,0,7.8,0,11.8,0c6.1,0,6.1,0,6.2-6C130.3,312.1,130.4,296.3,130.4,280.6z"/>
<path class="st1" d="M31.4,122.1c1.2-1.3,2.3-2.6,3.5-3.9c27.8-27.8,55.6-55.6,83.4-83.4c1.2-1.2,2.2-2.6,3.2-4c0.3,0,0.6,0,0.9,0
	c0,20.6,0.1,41.1,0,61.7c-0.1,16.3-13.2,29.4-29.6,29.7c-4.9,0.1-9.6,0.1-14.4,0.2C62.7,122.3,47.1,122.2,31.4,122.1z"/>
<path class="st2" d="M106.5,328c0-48.2,0-96.3-0.1-144.4c0-0.7,0.1-1.4,0.2-2.3c1.5-0.1,2.8-0.2,4.1-0.2c22.4,0,44.8,0,67.2,0
	c8.9,0,17.5,1.3,25.3,6.2c12.2,7.7,17.1,19.6,18.4,33.2c0.6,5.5,0,11.1,0,16.6c-0.6,2.1-1.1,4.2-1.7,6.3
	c-3.3,12.2-9.3,22.8-21.5,27.7c-6.2,2.4-13.2,3.6-20,4c-14.3,0.6-28.7,0.2-43,0.2c-1.5,0-3.1,0-4.9,0c0,2.2,0,3.9,0,5.4
	c-0.1,15.8-0.1,31.6-0.2,47.4C122.4,328,114.4,328,106.5,328z M197.8,226c0.1-8.5-2.2-15.9-10.5-19.6c-4-1.9-8.7-3-13.1-3.1
	c-13.8-0.4-27.5-0.2-41.2-0.2c-0.9,0-1.7,0.2-2.6,0.4c0,1.8,0,3.4,0,5c0,14.6,0,29.2,0,43.8c15.9,0,31.2,0.4,46.5-0.2
	c9.2-0.3,16.8-4.6,19.3-14.4C197.4,233.9,197.4,230,197.8,226z"/>
<path class="st3" d="M233.4,295.8c-1.5-12.7-2.1-25.4,0.4-38c4.3-22.1,18.7-35.2,41.2-38c11-1.4,21.8-1.2,33.1,3.1
	c0-6.8,0-13,0-19.3c0-6.2,0-12.2,0-18.7c7.6-2.1,15.1-4.2,23.3-6.5c0,2.1,0,3.7,0,5.4c0,38.7,0.1,77.3,0,116c0,9,0.6,17.9,4.9,26
	c0.3,0.7-0.1,1.7-0.2,2.5c-6.6,0-13.1,0.1-19.7-0.3c-1.5-0.1-3.6-1.5-4.4-3c-1.3-2.5-1.9-5.6-2.9-8.6c-4.1,2.9-7.8,5.8-11.9,8.4
	c-22.4,14-53.6,2.6-61.7-22.5C234.6,300.3,234.1,298,233.4,295.8z M307.8,248.9c1.1-3.3,0-5.2-3.3-6.3c-7.7-2.8-15.7-3.4-23.7-2.8
	c-15.2,1.3-25.1,12.1-24.8,27.5c0.1,7.6-0.4,15.2,0.3,22.7c1.7,15.2,12.6,22.8,27.2,19.3c9.6-2.3,17-8.2,23.6-15.2
	c0.7-0.7,0.9-1.9,0.9-2.8C308,277.3,308,263,307.8,248.9z"/>
<path class="st4" d="M360.7,327.8c0-27.2-0.1-54.4-0.1-81.6c0-1.8,0-3.6,0-5.5c-4.7-0.2-8.9-0.4-13.1-0.7c0-6,0-11.9,0-18.4
	c4.4,0,8.5,0,13.2,0c0-4-0.1-7.4,0-10.8c0.6-24.4,14.6-35.9,38.4-31.2c7.8,1.5,6.3,0.2,6.4,7.5c0.1,4,0,7.8,0,11.8
	c-3.3,0.1-6.6,0.1-9.9,0.4c-7.7,0.8-11.2,4.9-11.1,12.7c0,3,0,6,0,9.4c6.6,0,13.1,0,19.8,0c-0.4,2.1-0.9,3.7-1.2,5.4
	c-0.6,1.7-1.2,3.3-1.8,5c-2.9,8.7-2.9,8.8-11.9,8.8c-5.5,0-5.5,0-5.1,5.6c0,27.1-0.1,54.4-0.1,81.5
	C376.2,327.8,368.4,327.8,360.7,327.8z"/>
<path class="st5" d="M31.4,122.1c15.7,0.1,31.3,0.2,47,0.3c-1.1,1.5-2.1,3.2-3.3,4.5c-12.1,12.2-24.3,24.4-36.5,36.5
	c-2.4,2.4-5,4.7-7.5,7.2C31.2,154.5,31.3,138.3,31.4,122.1z"/>
<path class="st6" d="M233.4,295.8c0.7,2.2,1.3,4.4,2,6.6c8.2,25,39.4,36.5,61.7,22.5c4.1-2.5,7.8-5.5,11.9-8.4c0.9,3,1.4,6,2.9,8.6
	c0.8,1.4,2.9,2.9,4.4,3c6.5,0.3,13.1,0.2,19.7,0.3c0.1,1.3,0.1,2.6,0.2,5c-3.7,0-7.3,0-10.8,0c-12.1,0-12.1,0-16.8-11.2
	c-1.3,1-2.5,1.9-3.6,2.9c-20.5,18.3-49.2,12-61.6-3C236.9,314.3,233.5,305.7,233.4,295.8z"/>
<path class="st7" d="M130.4,280.6c0-1.5,0-3.2,0-5.4c1.7,0,3.3,0,4.9,0c14.3,0,28.7,0.4,43-0.2c6.7-0.2,13.8-1.4,20-4
	c12.2-4.9,18.2-15.4,21.5-27.7c0.6-2.1,1.1-4.2,1.7-6.3c-0.9,23.3-14.3,42.9-40.6,43.3C164.1,280.7,147.3,280.5,130.4,280.6z"/>
<path class="st8" d="M106.5,328c7.9,0,15.8,0,23.7-0.1c-0.1,6-0.1,6-6.2,6c-4,0-7.8,0-11.8,0C106.7,333.8,106.7,333.8,106.5,328z"/>
<path class="st9" d="M360.7,327.8c7.8,0,15.5-0.1,23.4-0.1c0,6-0.1,6.2-6.1,6.3c-3.7,0-7.6,0.1-11.4,0
	C361.2,333.7,360.8,333.3,360.7,327.8z"/>
<path class="st10" d="M384.3,212c-0.1-7.7,3.5-11.9,11.1-12.7c3.3-0.3,6.6-0.3,9.9-0.4c-0.2,5.8-0.2,6.2-5.8,5.8
	C392.9,204.3,387.8,206.4,384.3,212z"/>
<path class="st11" d="M384.1,246.2c-0.4-5.6-0.4-5.6,5.1-5.6c9,0,9,0,11.9-8.8c0.6-1.7,1.2-3.3,1.8-5c0.2,1,0.9,2.1,0.6,3
	c-1.3,4.4-2.5,8.9-4.4,13.1c-0.7,1.4-2.9,2.8-4.5,3C391.2,246.5,387.7,246.2,384.1,246.2z"/>
<path class="st12" d="M347.3,240.1c4.2,0.2,8.4,0.4,13.1,0.7c0,1.9,0,3.6,0,5.5c-2.3,0-4.6-0.1-6.9-0.1
	C347.4,246.1,347.4,246.1,347.3,240.1z"/>
<path class="st0" d="M197.8,226c-0.4,3.9-0.4,7.9-1.4,11.7c-2.6,9.7-10.1,14-19.3,14.4c-15.3,0.7-30.8,0.2-46.5,0.2
	c0-14.7,0-29.2,0-43.8c13.9,0,27.8-0.1,41.7,0C186.9,208.5,192.7,212.5,197.8,226z"/>
<path class="st13" d="M197.8,226c-5.1-13.5-10.9-17.5-25.7-17.6c-13.9,0-27.8,0-41.7,0c0-1.5,0-3.2,0-5c1-0.1,1.8-0.4,2.6-0.4
	c13.8,0,27.5-0.2,41.2,0.2c4.4,0.1,9,1.2,13.1,3.1C195.6,210.1,197.8,217.6,197.8,226z"/>
<path class="st14" d="M307.8,248.9c0.1,14.2,0.2,28.3,0.2,42.6c0,1-0.3,2.1-0.9,2.8c-6.6,6.9-14,12.9-23.6,15.2
	c-14.6,3.5-25.5-4.1-27.2-19.3c-0.9-7.5-0.2-15.1-0.3-22.7c4.1-16.7,14.7-23.8,34.8-22.1C296.5,245.8,302.1,247.7,307.8,248.9z"/>
<path class="st15" d="M307.8,248.9c-5.6-1.2-11.2-3.1-17.1-3.6c-20.2-1.8-30.8,5.3-34.8,22.1c-0.3-15.3,9.6-26.1,24.8-27.5
	c8.2-0.8,16,0,23.7,2.8C307.7,243.7,308.9,245.6,307.8,248.9z"/>
</svg>
