<?xml version="1.0" encoding="utf-8"?>
<!-- Generator: Adobe Illustrator 24.3.0, SVG Export Plug-In . SVG Version: 6.00 Build 0)  -->
<svg version="1.1" xmlns="http://www.w3.org/2000/svg" xmlns:xlink="http://www.w3.org/1999/xlink" x="0px" y="0px"
	 viewBox="0 0 512 512" style="enable-background:new 0 0 512 512;" xml:space="preserve">
<g id="Layer_1">
	<g>
		<path d="M245.3,31.4c63.6,0.1,115.2,51.8,115,115.2c-0.2,63.6-51.9,115-115.4,114.9c-63.7-0.2-115-51.7-114.9-115.2
			C130.1,82.7,181.8,31.3,245.3,31.4z"/>
		<path d="M143.8,460.6c-25,0-50,0-75,0c-23.4,0-38.1-14.6-38-37.8c0-12.6-0.7-25.3,0.8-37.7c2.8-22.1,15.6-38.8,32.2-52.7
			c23.1-19.4,50.2-30.8,78.9-39c44.2-12.6,89.3-15.8,135-12.4c8.9,0.7,14.9,7.8,14.5,16.6c-0.4,8.3-7.3,14.8-15.9,14.7
			c-13.7-0.2-27.5-1.2-41.2-0.9c-43.7,1.1-86.1,8.4-125.6,28.4c-12.3,6.2-23.7,13.8-33.3,23.9C66.8,373.6,61.3,385,62,399
			c0.4,7.8,0,15.7,0.1,23.5c0,6.1,0.7,6.8,6.8,6.8c50.4,0,100.7,0,151.1,0c2.1,0,4.3-0.1,6.4,0.3c8.3,1.3,14.1,8.4,13.6,16.5
			s-7.2,14.5-15.6,14.5C197.5,460.7,170.6,460.6,143.8,460.6z"/>
	</g>
	<path d="M377,264.1c-35.6,8.6-67.4,42.9-63.3,89.5c0.3,3.2-0.5,5.4-2.8,7.7c-14.4,14.3-28.6,28.7-43.1,42.9c-5,4.8-7.1,10.2-7,17
		c0.3,13.9,0.1,27.8,0.1,41.7c0,12.5,5.9,18.5,18.2,18.5c14.3,0,28.5-0.2,42.7,0.1c6.7,0.1,11.8-2.1,16.5-6.9
		c14.4-14.7,29-29.2,43.7-43.7c1.3-1.2,3.6-2.4,5.3-2.2c50.4,5.1,93.3-33.1,93.3-83.2C480.6,290.9,429.9,251.2,377,264.1z
		 M393.4,366.7c-12.4,0-22.6-10.2-22.6-22.8c0-12.6,10.1-22.6,22.8-22.5c12.7,0.1,22.6,10.2,22.4,22.9
		C415.9,356.6,405.7,366.7,393.4,366.7z"/>
</g>
<g id="Layer_2">
</g>
</svg>
