<?xml version="1.0" encoding="utf-8"?>
<!-- Generator: Adobe Illustrator 24.3.0, SVG Export Plug-In . SVG Version: 6.00 Build 0)  -->
<svg version="1.1" id="Layer_1" xmlns="http://www.w3.org/2000/svg" xmlns:xlink="http://www.w3.org/1999/xlink" x="0px" y="0px"
	 viewBox="0 0 512 512" style="enable-background:new 0 0 512 512;" xml:space="preserve">
<g>
	<path d="M245.3,31.4c63.6,0.1,115.2,51.8,115,115.2c-0.2,63.6-51.9,115-115.4,114.9c-63.7-0.2-115-51.7-114.9-115.2
		C130.1,82.7,181.8,31.3,245.3,31.4z M245.4,230.1c46.2-0.1,83.6-37.5,83.6-83.6c0-46.2-37.7-83.8-84-83.7
		c-46.4,0.1-83.7,37.6-83.5,84.1C161.6,192.9,199.2,230.2,245.4,230.1z"/>
	<path d="M480.6,345.5c0,50.1-42.9,88.3-93.3,83.2c-1.7-0.2-4,1-5.3,2.2c-14.7,14.5-29.3,29-43.7,43.7c-4.7,4.8-9.8,7-16.5,6.9
		c-14.2-0.3-28.4-0.1-42.7-0.1c-12.3,0-18.2-6-18.2-18.5c0-13.9,0.2-27.8-0.1-41.7c-0.1-6.8,2-12.2,7-17
		c14.5-14.2,28.7-28.6,43.1-42.9c2.3-2.3,3.1-4.5,2.8-7.7c-4.1-46.6,27.7-80.9,63.3-89.5C429.9,251.2,480.6,290.9,480.6,345.5z
		 M292.2,449.9c7.6,0,14.5-0.2,21.3,0.1c3.4,0.1,5.8-0.9,8.2-3.3c14.7-14.9,29.7-29.5,44.3-44.5c5.6-5.7,11.5-7.5,19.4-5.8
		c37.1,8.1,70.1-23.9,63-60.5c-5.7-28.9-33.1-47.7-61.5-41.9c-28.9,5.9-47.2,33.4-40.9,62.5c1.8,8.3-0.2,14.5-6.1,20.3
		c-15,14.6-29.7,29.5-44.4,44.4c-1.3,1.3-3,3.1-3,4.7C292,433.6,292.2,441.4,292.2,449.9z"/>
	<path d="M143.8,460.6c-25,0-50,0-75,0c-23.4,0-38.1-14.6-38-37.8c0-12.6-0.7-25.3,0.8-37.7c2.8-22.1,15.6-38.8,32.2-52.7
		c23.1-19.4,50.2-30.8,78.9-39c44.2-12.6,89.3-15.8,135-12.4c8.9,0.7,14.9,7.8,14.5,16.6c-0.4,8.3-7.3,14.8-15.9,14.7
		c-13.7-0.2-27.5-1.2-41.2-0.9c-43.7,1.1-86.1,8.4-125.6,28.4c-12.3,6.2-23.7,13.8-33.3,23.9c-9.4,9.9-14.9,21.3-14.2,35.3
		c0.4,7.8,0,15.7,0.1,23.5c0,6.1,0.7,6.8,6.8,6.8c50.4,0,100.7,0,151.1,0c2.1,0,4.3-0.1,6.4,0.3c8.3,1.3,14.1,8.4,13.6,16.5
		c-0.5,8.1-7.2,14.5-15.6,14.5C197.5,460.7,170.6,460.6,143.8,460.6z"/>
	<path d="M374.3,345.3c0-12.6,10.1-22.6,22.8-22.5c12.7,0.1,22.6,10.2,22.4,22.9c-0.1,12.3-10.3,22.4-22.6,22.4
		C384.5,368.1,374.3,357.9,374.3,345.3z"/>
</g>
</svg>
