<?xml version="1.0" encoding="utf-8"?>
<!-- Generator: Adobe Illustrator 24.3.0, SVG Export Plug-In . SVG Version: 6.00 Build 0)  -->
<svg version="1.1" id="Layer_1" xmlns="http://www.w3.org/2000/svg" xmlns:xlink="http://www.w3.org/1999/xlink" x="0px" y="0px"
	 viewBox="0 0 512 512" style="enable-background:new 0 0 512 512;" xml:space="preserve">
<g>
	<path d="M336,272.4c-5.7,0-10.7,0.1-15.8,0c-9.4-0.2-16.4-7.2-16.4-16.1c0-9,7.1-15.8,16.5-16c5-0.1,10,0,15.6,0c0-2.3,0-4.2,0-6.2
		c0-50.5,0-101.1,0-151.6c0-13,6-18.9,19.1-18.9c8.9,0,17.8-0.2,26.6,0.1c3.8,0.1,5.8-0.9,7.5-4.5c9.7-20.8,32.1-31.6,54.1-26.4
		c22.1,5.1,37.7,25.2,37.3,48c-0.4,21.8-16.1,41-37.4,45.9c-21.9,5-44.2-5.7-53.8-26.1c-1.8-3.8-3.8-5.2-7.8-4.9
		c-4.3,0.3-8.6,0.1-13.2,0.1c0,48.3,0,96.1,0,144.6c5.7,0,11.5,0.2,17.3-0.2c1.1-0.1,2.4-2.4,3.1-3.9c13.1-27.5,46.7-36.6,71.3-19.2
		c16.4,11.6,24,32,18.9,51.3c-5.2,19.8-21.8,34.1-42.2,36.1c-19.6,1.9-38.9-8.9-47.4-27.2c-1.8-3.8-3.8-5.2-7.8-4.9
		c-4.3,0.3-8.6,0.1-13.2,0.1c0,48.3,0,96.1,0,144.6c5.7,0,11.5,0.3,17.3-0.2c1.2-0.1,2.6-2.6,3.4-4.3c13.1-27.2,46.6-36.1,71.1-18.8
		c16.4,11.6,24,32,18.9,51.3c-5.2,19.8-21.8,34.1-42.2,36.1c-19.6,2-38.9-8.9-47.4-27.1c-1.8-3.8-3.7-5-7.8-4.9
		c-9.4,0.3-18.7,0.1-28.1,0.1c-10.9-0.1-17.5-6.6-17.5-17.6c0-51,0-102.1,0-153.1C336,276.6,336,274.8,336,272.4z M448.5,79.6
		c0-8.7-7.2-16-15.9-16c-8.7-0.1-16,7.1-16.2,15.8c-0.1,8.9,7.3,16.4,16.2,16.3C441.3,95.6,448.5,88.3,448.5,79.6z M432.6,240.3
		c-8.7-0.1-16.1,7.1-16.2,15.8c-0.1,8.7,6.9,16.1,15.6,16.3c8.9,0.2,16.4-7.1,16.5-16C448.5,247.7,441.3,240.4,432.6,240.3z
		 M432.7,417c-8.7-0.1-16.1,7-16.3,15.7c-0.2,8.7,6.9,16.1,15.6,16.4c8.9,0.3,16.5-7.1,16.5-16C448.6,424.5,441.4,417.1,432.7,417z"
		/>
	<path d="M30.7,256.4c0-20.7,0.1-41.5,0-62.2c-0.1-8.5,3.5-14.2,11.5-17.5c36.6-15.6,73.1-31.3,109.6-47c5.1-2.2,9.9-2.2,15,0
		c36.7,15.8,73.4,31.5,110.1,47.2c7.5,3.2,11,8.7,11,16.8c0,41.8,0,83.7,0,125.5c0,8.1-3.5,13.7-11,16.9
		c-36.7,15.7-73.4,31.4-110.1,47.2c-5.3,2.3-10.2,2.1-15.5-0.2c-36.4-15.7-72.7-31.3-109.2-46.8c-7.9-3.4-11.6-9-11.5-17.5
		C30.8,297.9,30.7,277.1,30.7,256.4z M63.3,216.6c-0.3,1-0.4,1.3-0.4,1.6c0,29.6-0.1,59.2,0.1,88.8c0,1.5,1.9,3.7,3.4,4.4
		c18.5,8.1,37.1,16.1,55.7,24c6.9,2.9,13.7,5.8,20.7,8.7c0.2-0.8,0.4-1.2,0.4-1.5c0-29.6,0.1-59.2-0.1-88.8c0-1.5-1.9-3.7-3.4-4.4
		c-8.6-4-17.5-7.6-26.2-11.3C96.9,231,80.3,223.9,63.3,216.6z M175.3,343.9c1.2-0.3,2-0.3,2.7-0.7c24.9-10.6,49.7-21.3,74.6-31.9
		c2.8-1.2,3-3,3-5.4c-0.1-20.9,0-41.8,0-62.7c0-8.7,0-17.3,0-26.4c-1.2,0.3-2,0.4-2.7,0.7c-24.9,10.6-49.7,21.3-74.6,31.8
		c-2.8,1.2-3,2.9-3,5.4c0.1,20.2,0,40.5,0,60.7C175.3,325,175.3,334.3,175.3,343.9z M230.9,192.1c-24.1-10.3-46.7-20.1-69.5-29.7
		c-1.7-0.7-4.3,0-6.1,0.8c-20.6,8.7-41.1,17.5-61.7,26.4c-1.6,0.7-3.1,1.6-5.3,2.6c1.4,0.7,2,1.1,2.8,1.4
		c21.8,9.3,43.5,18.7,65.4,27.9c1.9,0.8,4.9,0.4,7-0.5c16.9-7.1,33.8-14.4,50.6-21.7C219.3,197,224.5,194.8,230.9,192.1z"/>
</g>
</svg>
