<?xml version="1.0" encoding="utf-8"?>
<!-- Generator: Adobe Illustrator 24.3.0, SVG Export Plug-In . SVG Version: 6.00 Build 0)  -->
<svg version="1.1" id="Layer_1" xmlns="http://www.w3.org/2000/svg" xmlns:xlink="http://www.w3.org/1999/xlink" x="0px" y="0px"
	 viewBox="0 0 500 500" style="enable-background:new 0 0 500 500;" xml:space="preserve">
<style type="text/css">
	.st0{clip-path:url(#SVGID_2_);}
	.st1{fill:#231F20;}
</style>
<g>
	<defs>
		<rect id="SVGID_1_" x="100" y="100" width="300" height="300"/>
	</defs>
	<clipPath id="SVGID_2_">
		<use xlink:href="#SVGID_1_"  style="overflow:visible;"/>
	</clipPath>
	<g class="st0">
		<path class="st1" d="M335.7,378.6v-21.4h21.4v21.4H335.7z M271.4,335.7v-21.4h21.4v21.4H271.4z M271.4,400h42.9v-21.4h-21.4v-21.4
			h-21.4V400z M357.1,357.1v-42.9h21.4v42.9H357.1z M378.6,357.1H400V400h-42.9v-21.4h21.4V357.1z M357.1,292.9v-21.4H400v42.9
			h-21.4v-21.4H357.1z M335.7,292.9h-21.4v42.9h-21.4v21.4h42.9V292.9z M271.4,292.9v-21.4h42.9v21.4H271.4z M142.9,314.3h42.9v42.9
			h-42.9V314.3z"/>
		<path class="st1" d="M228.6,400H100V271.4h128.6V400z M121.4,378.6h85.7v-85.7h-85.7V378.6z M314.3,142.9h42.9v42.9h-42.9V142.9z"
			/>
		<path class="st1" d="M400,228.6H271.4V100H400V228.6z M292.9,207.1h85.7v-85.7h-85.7V207.1z M142.9,142.9h42.9v42.9h-42.9V142.9z"
			/>
		<path class="st1" d="M228.6,228.6H100V100h128.6V228.6z M121.4,207.1h85.7v-85.7h-85.7V207.1z"/>
	</g>
</g>
</svg>
