<?xml version="1.0" encoding="utf-8"?>
<!-- Generator: Adobe Illustrator 24.3.0, SVG Export Plug-In . SVG Version: 6.00 Build 0)  -->
<svg version="1.1" id="Layer_1" xmlns="http://www.w3.org/2000/svg" xmlns:xlink="http://www.w3.org/1999/xlink" x="0px" y="0px"
	 viewBox="0 0 512 512" style="enable-background:new 0 0 512 512;" xml:space="preserve">
<style type="text/css">
	.st0{clip-path:url(#SVGID_2_);}
</style>
<g>
	<g>
		<g>
			<defs>
				<rect id="SVGID_1_" x="31" y="31" width="450" height="450"/>
			</defs>
			<clipPath id="SVGID_2_">
				<use xlink:href="#SVGID_1_"  style="overflow:visible;"/>
			</clipPath>
			<g class="st0">
				<path d="M384.6,448.9v-32.1h32.1v32.1H384.6z M288.1,384.6v-32.1h32.1v32.1H288.1z M288.1,481h64.4v-32.1h-32.1v-32.1h-32.1V481
					H288.1z M416.7,416.7v-64.4h32.1v64.4H416.7z M448.9,416.7H481V481h-64.3v-32.1h32.1L448.9,416.7L448.9,416.7L448.9,416.7z
					 M416.7,320.3v-32.1H481v64.3h-32.1v-32.1h-32.2L416.7,320.3L416.7,320.3z M384.6,320.3h-32.1v64.4h-32.1v32.1h64.3v-96.5H384.6
					z M288.1,320.3v-32.1h64.4v32.1H288.1z M95.3,352.4h64.3v64.4H95.3V352.4z"/>
				<path d="M223.9,481H31V288.1h192.9V481z M63.1,448.9h128.6V320.4H63.1V448.9z M352.4,95.3h64.4v64.3h-64.4V95.3z"/>
				<path d="M481,223.9H288.1V31H481V223.9z M320.3,191.7h128.5V63.1H320.3V191.7L320.3,191.7z M95.3,95.3h64.3v64.3H95.3V95.3z"/>
				<path d="M223.9,223.9H31V31h192.9V223.9z M63.1,191.7h128.6V63.1H63.1V191.7z"/>
			</g>
		</g>
	</g>
</g>
</svg>
