<?xml version="1.0" encoding="utf-8"?>
<!-- Generator: Adobe Illustrator 24.3.0, SVG Export Plug-In . SVG Version: 6.00 Build 0)  -->
<svg version="1.1" id="Layer_1" xmlns="http://www.w3.org/2000/svg" xmlns:xlink="http://www.w3.org/1999/xlink" x="0px" y="0px"
	 viewBox="0 0 512 512" style="enable-background:new 0 0 512 512;" xml:space="preserve">
<path d="M256,306c-13.7,0-25.5-4.9-35.3-14.7c-9.8-9.8-14.7-21.6-14.7-35.3s4.9-25.5,14.7-35.3c9.8-9.8,21.6-14.7,35.3-14.7
	s25.5,4.9,35.3,14.7c9.8,9.8,14.7,21.6,14.7,35.3s-4.9,25.5-14.7,35.3C281.5,301.1,269.7,306,256,306z M256,481
	c-52.1,0-98.1-15.6-138.1-46.9c-40-31.3-66.5-71.5-79.4-120.6c-2.1-8.7-0.7-16.4,4.1-22.8c4.8-6.4,11.3-9.7,19.7-9.7
	c5.8,0,11.1,2.1,15.9,6.3c4.8,4.2,8,9.2,9.7,15c9.6,37.9,30,68.8,61.3,92.8C180.4,419,216,431,256,431c48.8,0,90.1-17,124-51
	c34-33.9,51-75.3,51-124s-17-90.1-51-124.1C346.1,98,304.8,81,256,81c-28.7,0-55.6,6.7-80.6,20c-25,13.3-46,31.7-63.1,55H156
	c7.1,0,13,2.4,17.8,7.2c4.8,4.8,7.2,10.7,7.2,17.8s-2.4,13-7.2,17.8c-4.8,4.8-10.7,7.2-17.8,7.2H56c-7.1,0-13-2.4-17.8-7.2
	C33.4,194,31,188.1,31,181V81c0-7.1,2.4-13,7.2-17.8C43,58.4,48.9,56,56,56c7.1,0,13,2.4,17.8,7.2C78.6,68,81,73.9,81,81v33.8
	c21.3-26.7,47.2-47.3,77.8-61.9C189.4,38.3,221.8,31,256,31c31.3,0,60.5,5.9,87.8,17.8c27.3,11.9,51,27.9,71.3,48.1
	c20.2,20.2,36.2,44,48.1,71.3c11.9,27.3,17.8,56.6,17.8,87.8s-5.9,60.5-17.8,87.8c-11.9,27.3-27.9,51-48.1,71.3
	c-20.2,20.2-44,36.3-71.3,48.1C316.5,475.1,287.3,481,256,481z"/>
</svg>
