<?xml version="1.0" encoding="utf-8"?>
<!-- Generator: Adobe Illustrator 24.3.0, SVG Export Plug-In . SVG Version: 6.00 Build 0)  -->
<svg version="1.1" id="Layer_1" xmlns="http://www.w3.org/2000/svg" xmlns:xlink="http://www.w3.org/1999/xlink" x="0px" y="0px"
	 viewBox="0 0 512 512" style="enable-background:new 0 0 512 512;" xml:space="preserve">
<g>
	<path d="M30.7,357.4c1.6-8.3,2.6-16.8,4.9-24.9c11.6-40.3,36.6-69.3,74.5-87.1c0.7-0.3,1.3-0.6,2-0.9c0.2-0.1,0.4-0.4,0.8-0.8
		c-24.2-22.5-36-50.3-33.6-83.4c1.9-26.7,13.3-49.2,33.2-67.1c39.3-35.3,99.1-33.8,136.9,3.1c39.7,38.7,41.8,106.7-3.7,147.5
		c8.6,4.9,17.2,9.8,25.4,14.4c4.9-5.7,9.5-11.9,15-17.2c3.8-3.7,8.9-6.1,13.2-9.4c1.3-1,2.7-3,2.8-4.6c0.5-11.1-0.1-22.3,1-33.3
		c3.7-35.7,38.1-63.6,73.9-60.6c38.4,3.2,65.6,32.5,66,71.1c0.1,7.6-0.1,15.2,0.1,22.8c0.1,1.6,1.4,3.8,2.8,4.6
		c24.1,13.2,37.1,37.3,34.5,64.5c-0.9,9.2-8.6,16.1-17.9,15.9c-9.2-0.2-16.7-7.3-17.2-16.6c-0.2-4.4,0-8.8-0.8-13.1
		c-2.6-13.1-13.8-22.3-27.2-22.4c-29.9-0.1-59.7-0.1-89.6,0c-14.7,0.1-26.9,11.3-27.5,25.9c-0.6,13.6-0.3,27.2-0.3,40.8
		c0,17.6,0,35.1,0,52.7c0,19.3,11.6,30.7,31,30.7c28,0,55.9,0,83.9,0c18.1,0,29.3-10.5,30.5-28.6c0.6-9.7,8.6-17,18-16.7
		c9.6,0.3,16.9,7.9,17.1,17.7c0.5,32.6-27.7,62.1-60.5,62.6c-31.5,0.5-62.9,0.4-94.4,0c-30.1-0.4-56.7-24.9-60.1-55
		c-0.4-3.8-1.8-4.4-5.1-4.4c-69.1,0.1-138.2-0.1-207.3,0.2c-10.8,0-18.4-3.3-22.3-13.6C30.7,367.3,30.7,362.4,30.7,357.4z
		 M67.5,350.4c65.8,0,131.3,0,196.8,0c0.2-0.5,0.5-0.9,0.5-1.4c0-16.1,0.1-32.2,0-48.3c0-1.1-0.8-2.5-1.6-3.3
		c-16.5-15-35.3-25.7-57.9-27.8c-13.1-1.2-26.3-1-39.4-0.9c-32.3,0.2-58.6,13.1-78.8,38.3C76.9,319.6,70.5,334,67.5,350.4z
		 M244.4,168.3c0.1-36-28.8-65.5-64.5-65.6c-36.2-0.2-65.6,28.8-65.8,64.8c-0.2,36.5,28.9,66,64.9,66.1
		C215.1,233.6,244.3,204.4,244.4,168.3z M407.7,224.6c0-8,0.3-15.6-0.1-23.1c-0.7-16.8-13.6-30.9-29.8-33
		c-17.6-2.2-33.6,7.5-38.7,23.9c-3.3,10.5-1.3,21.4-1.8,32.2C361,224.6,384.1,224.6,407.7,224.6z"/>
	<path d="M367.3,323.5c2.9-3.5,5.5-6.9,8.3-10c6.5-7.4,17-8.3,24.4-2.2c7.4,6,8.8,16.6,2.7,24.3c-6.9,8.9-14.1,17.6-21.4,26.1
		c-7,8.1-18.4,8.3-26,0.6c-3.9-4-7.6-8.1-11.3-12.3c-6.4-7.1-6.9-16.3-1.5-23.2c5.4-7,14.4-8.7,22.9-4.3
		C365.9,322.8,366.4,323,367.3,323.5z"/>
</g>
</svg>
