<?xml version="1.0" encoding="utf-8"?>
<!-- Generator: Adobe Illustrator 24.3.0, SVG Export Plug-In . SVG Version: 6.00 Build 0)  -->
<svg version="1.1" id="Layer_1" xmlns="http://www.w3.org/2000/svg" xmlns:xlink="http://www.w3.org/1999/xlink" x="0px" y="0px"
	 viewBox="0 0 512 512" style="enable-background:new 0 0 512 512;" xml:space="preserve">
<path d="M480.7,289.7c0.2-24.6-12.6-46-34.8-58.1c-1.4-0.8-2.7-3-2.8-4.6c-0.2-7.6,0-15.2-0.1-22.8c-0.4-38.6-27.6-67.9-66-71.1
	c-35.8-3-70.2,24.9-73.9,60.6c-1.1,11-0.5,22.2-1,33.3c-0.1,1.6-1.5,3.6-2.8,4.6c-4.3,3.3-9.4,5.7-13.2,9.4
	c-5.5,5.3-10.1,11.5-15,17.2c-8.2-4.6-16.8-9.5-25.4-14.4c45.5-40.8,43.4-108.8,3.7-147.5c-37.8-36.9-97.6-38.4-136.9-3.1
	c-19.9,17.9-31.3,40.4-33.2,67.1c-2.4,33.1,9.4,60.9,33.6,83.4c-0.4,0.4-0.6,0.7-0.8,0.8c-0.7,0.3-1.3,0.6-2,0.9
	c-37.9,17.8-62.9,46.8-74.5,87.1c-2.3,8.1-3.3,16.6-4.9,24.9c0,5,0,9.9,0,14.8c3.9,10.3,11.5,13.6,22.3,13.6
	c69.1-0.3,138.2-0.1,207.3-0.2c3.3,0,4.7,0.6,5.1,4.4c3.4,30.1,30,54.6,60.1,55c31.5,0.4,62.9,0.5,94.4,0
	c31.9-0.5,59.5-28.4,60.5-60c0.2-1.1,0.4-2.3,0.4-3.5V290C480.7,289.9,480.7,289.8,480.7,289.7z M339.1,192.4
	c5.1-16.4,21.1-26.1,38.7-23.9c16.2,2.1,29.1,16.2,29.8,33c0.4,7.5,0.1,15.1,0.1,23.1c-23.6,0-46.7,0-70.4,0
	C337.8,213.8,335.8,202.9,339.1,192.4z M409.4,335.9c-6.9,8.9-14.1,17.6-21.4,26.1c-7,8.1-18.4,8.3-26,0.6c-3.9-4-7.6-8.1-11.3-12.3
	c-6.4-7.1-6.9-16.3-1.5-23.2c5.4-7,14.4-8.7,22.9-4.3c0.5,0.3,1,0.5,1.9,1c2.9-3.5,5.5-6.9,8.3-10c6.5-7.4,17-8.3,24.4-2.2
	C414.1,317.6,415.5,328.2,409.4,335.9z"/>
</svg>
