<?xml version="1.0" encoding="utf-8"?>
<!-- Generator: Adobe Illustrator 24.3.0, SVG Export Plug-In . SVG Version: 6.00 Build 0)  -->
<svg version="1.1" id="Layer_1" xmlns="http://www.w3.org/2000/svg" xmlns:xlink="http://www.w3.org/1999/xlink" x="0px" y="0px"
	 viewBox="0 0 512 512" style="enable-background:new 0 0 512 512;" xml:space="preserve">
<path d="M454.5,481c-6.8,0-13.6-2.6-18.7-7.8l-76.2-76.4c-14.2,10.9-29.7,19.9-46.4,26.8c-24.9,10.3-51.2,15.5-78.1,15.5
	c-26.9,0-53.2-5.2-78.1-15.5c-24.9-10.3-47.2-25.2-66.2-44.2c-19-19-33.9-41.3-44.2-66.2C36.2,288.3,31,262,31,235.1
	c0-26.9,5.2-53.2,15.5-78.1c10.3-24.9,25.2-47.2,44.2-66.2c19-19,41.3-33.9,66.2-44.2C181.9,36.2,208.2,31,235.1,31
	c26.9,0,53.2,5.2,78.1,15.5c24.9,10.3,47.2,25.2,66.2,44.2c19,19,33.9,41.3,44.2,66.2c10.3,24.9,15.5,51.2,15.5,78.1
	c0,26.9-5.2,53.2-15.5,78.1c-6.9,16.6-15.8,32.1-26.7,46.2l76.3,76.4c10.3,10.3,10.3,27.1,0,37.4C468.1,478.4,461.3,481,454.5,481z
	 M235.1,83.9c-40.4,0-78.3,15.7-106.9,44.3c-28.6,28.6-44.3,66.5-44.3,106.9c0,40.4,15.7,78.3,44.3,106.9
	c28.5,28.6,66.5,44.3,106.9,44.3c40.2,0,78-15.6,106.5-43.8c0.2-0.2,0.3-0.4,0.5-0.5c0.2-0.2,0.3-0.3,0.5-0.5
	c28.2-28.5,43.7-66.2,43.7-106.3c0-40.4-15.7-78.3-44.3-106.9C313.4,99.7,275.5,83.9,235.1,83.9z"/>
</svg>
