<?xml version="1.0" encoding="utf-8"?>
<!-- Generator: Adobe Illustrator 24.3.0, SVG Export Plug-In . SVG Version: 6.00 Build 0)  -->
<svg version="1.1" id="Layer_1" xmlns="http://www.w3.org/2000/svg" xmlns:xlink="http://www.w3.org/1999/xlink" x="0px" y="0px"
	 viewBox="0 0 512 512" style="enable-background:new 0 0 512 512;" xml:space="preserve">
<path d="M480.5,175.7c-4.7,5.5-9,11.4-13.9,16.7c-36.8,38.2-73.5,76.3-110.2,114.6c-5.8,6.1-11.8,7.5-18.1,4.3
	c-5.7-3-7.8-8.1-7.8-14.2c0-17.8,0-35.7,0-53.5c0-1.7,0-3.2,0-4.5c-0.6-0.5-0.8-0.8-0.9-0.8c-41.6-2.7-80.4,4.9-114.3,30.7
	c-18.8,14.2-33.6,32.1-44.4,53.1c-4.2,8.1-11.6,11.4-18.8,8.2c-5.1-2.2-8.6-6-8.6-11.7c-0.6-27.8-1.2-55.5,7.8-82.2
	c22.8-68.1,69.4-110.2,139.3-126.1c11.4-2.7,23.6-2.5,35.2-3.8c1.4-0.2,2.9-0.2,4.8-0.3c0-2.1,0-3.9,0-5.8c0-16.5,0.3-33.1-0.1-49.6
	c-0.3-8.7,1.9-15.5,10.3-19.2c2.4,0,4.6,0,7.1,0c3.3,2.5,7.1,4.6,9.9,7.6c36,37,71.8,74.4,107.6,111.6c5.4,5.6,10.1,11.8,15.1,17.8
	C480.5,171,480.5,173.3,480.5,175.7z"/>
<path d="M30.7,153.8c0.6-1.3,1.2-2.5,1.5-3.9c6.3-25.2,27.7-42.7,53.7-43.3c18.9-0.5,37.8-0.2,56.7-0.2c11.4,0.2,19.3,8.1,19.2,19
	c-0.2,10.7-8.2,18.4-19.8,18.6c-17.8,0-35.7,0-53.5,0c-12.4,0-20.1,7.5-20.1,19.8c0,86.7,0,173.4,0,260.1c0,12.4,7.5,19.8,20.1,19.8
	c111.4,0,222.9,0,334.3,0c12.9,0,20.2-7.5,20.2-20.6c0-48.7,0-97.5,0-146.2c0-12.9,9.1-21.7,20.8-20.4c8.9,1,13.8,6.9,16.7,14.8
	c0,54.1,0,108.3,0,162.6c-0.6,1.3-1.2,2.6-1.5,3.9c-6,22.5-20.4,36.4-42.9,42.3c-1.3,0.3-2.7,0.8-3.9,1.2c-118,0-236.1,0-354.1,0
	c-1-0.4-2-0.9-3.2-1.2c-22.8-6-37.2-20.2-43.2-43.2c-0.3-1.1-0.8-1.9-1.2-3.1C30.7,340.7,30.7,247.1,30.7,153.8z"/>
</svg>
