<?xml version="1.0" encoding="utf-8"?>
<!-- Generator: Adobe Illustrator 24.3.0, SVG Export Plug-In . SVG Version: 6.00 Build 0)  -->
<svg version="1.1" id="Layer_1" xmlns="http://www.w3.org/2000/svg" xmlns:xlink="http://www.w3.org/1999/xlink" x="0px" y="0px"
	 viewBox="0 0 512 512" style="enable-background:new 0 0 512 512;" xml:space="preserve">
<path d="M157.5,351.5c-4.5,0-9-0.9-13.4-2.9c-12.8-5.6-20.5-16.7-20.6-29.8c-0.6-29-1.3-58.9,8.8-88.9
	c25.1-74.8,76.8-121.7,153.7-139.2c8.5-2,16.6-2.6,24.6-3.2c0-0.7,0-1.5,0-2.2c0.1-11.2,0.1-22.8-0.1-34
	c-0.8-24.3,13.6-34.3,22.2-38.1l3.9-1.7h18l5.4,4.1c0.7,0.5,1.6,1.1,2.5,1.8c2.9,2,6.4,4.4,9.8,8c27.1,27.8,54.4,56.3,80.9,83.8
	c8.9,9.3,17.8,18.5,26.7,27.8c4.5,4.6,8.3,9.4,12.1,14c1.3,1.6,2.6,3.3,4,4.9l4.6,5.6v21.7l-4.8,5.6c-1.7,2-3.3,4-5.1,6.2
	c-2.9,3.6-5.9,7.3-9.3,11l-0.3,0.3c-35.8,37.2-72.9,75.7-110.2,114.6c-11.8,12.4-27.4,15.5-41.6,8.3L329,329
	c-11.7-6.2-18.5-17.8-18.5-31.9v-39.3c-32.8,0.6-60.1,9.6-83.1,27.1c-16.2,12.2-29.2,27.8-38.7,46.3
	C182,344.2,170.1,351.5,157.5,351.5z M163.5,318.6L163.5,318.6C163.5,318.6,163.5,318.6,163.5,318.6z M350.5,297.5L350.5,297.5
	L350.5,297.5z M328.5,126.3l-0.5,0.1c-4.4,0.5-8.8,0.8-13,1.1c-7.2,0.5-14,0.9-19.8,2.3l-0.2,0c-63.3,14.4-104.1,51.4-124.8,112.9
	c-5.6,16.8-7,34.4-7.1,52.9c10.9-16.5,24.3-30.8,40-42.7c35-26.6,76.8-38,127.6-34.7v0c3.2,0.2,8.2,1.3,12.8,5.7l6.8,5.7v54.5
	C384.9,248.4,419,213,452,178.7c1.8-2,3.7-4.2,5.5-6.5c-2.2-2.7-4.4-5.2-6.6-7.5c-8.9-9.3-17.8-18.5-26.7-27.8
	c-24.1-25.1-49-50.9-73.6-76.3c0.1,8.4,0,16.9,0,25.1c0,4.9-0.1,9.8-0.1,14.8v24.8l-19,1c-0.6,0-1.2,0.1-1.8,0.1
	C329.4,126.3,328.9,126.3,328.5,126.3z M341.2,293.8L341.2,293.8L341.2,293.8z M328,258.2c0.2,0,0.3,0,0.5,0l-0.2,0
	C328.2,258.3,328.1,258.2,328,258.2z"/>
<path d="M30.7,153.8c0.6-1.3,1.2-2.5,1.5-3.9c6.3-25.2,27.7-42.7,53.7-43.3c18.9-0.5,37.8-0.2,56.7-0.2c11.4,0.2,19.3,8.1,19.2,19
	c-0.2,10.7-8.2,18.4-19.8,18.6c-17.8,0-35.7,0-53.5,0c-12.4,0-20.1,7.5-20.1,19.8c0,86.7,0,173.4,0,260.1c0,12.4,7.5,19.8,20.1,19.8
	c111.4,0,222.9,0,334.3,0c12.9,0,20.2-7.5,20.2-20.6c0-48.7,0-97.5,0-146.2c0-12.9,9.1-21.7,20.8-20.4c8.9,1,13.8,6.9,16.7,14.8
	c0,54.1,0,108.3,0,162.6c-0.6,1.3-1.2,2.6-1.5,3.9c-6,22.5-20.4,36.4-42.9,42.3c-1.3,0.3-2.7,0.8-3.9,1.2c-118,0-236.1,0-354.1,0
	c-1-0.4-2-0.9-3.2-1.2c-22.8-6-37.2-20.2-43.2-43.2c-0.3-1.1-0.8-1.9-1.2-3.1C30.7,340.7,30.7,247.1,30.7,153.8z"/>
</svg>
