<?xml version="1.0" encoding="utf-8"?>
<!-- Generator: Adobe Illustrator 24.3.0, SVG Export Plug-In . SVG Version: 6.00 Build 0)  -->
<svg version="1.1" id="Layer_1" xmlns="http://www.w3.org/2000/svg" xmlns:xlink="http://www.w3.org/1999/xlink" x="0px" y="0px"
	 viewBox="0 0 512 512" style="enable-background:new 0 0 512 512;" xml:space="preserve">
<g>
	<path d="M375.8,30.7c8.5,2.6,17.3,4.3,25.3,8.1c30.2,14.2,46.9,48.4,40.3,81.5c-6.5,32.8-34.7,57.9-67.9,60
		c-24.2,1.6-44.4-6.9-60.8-24.5c-0.6-0.6-1.2-1.3-1.8-1.9c-0.2-0.2-0.5-0.3-1-0.7c-6.3,2.9-12.8,5.9-19.3,8.9
		c-23.9,11-47.7,22.1-71.6,33c-2.4,1.1-3.7,2.2-3,5.2c3.5,16,2.2,31.7-2.8,47.1c-0.4,1.1,0.4,3.5,1.4,4.1
		c22.6,14.1,45.3,28,67.9,41.9c0.2,0.1,0.5,0.2,0.1,0c8.7-6.9,16.5-14.3,25.4-20c23.4-15.1,49.2-20.7,76.7-16.3
		c39.7,6.4,68.8,28.1,85.4,64.6c17.4,38.4,13.5,76-10.2,110.8c-16.7,24.5-40.3,39.4-69.3,45.6c-53,11.4-108.7-19.3-127.5-70.2
		c-9.6-26-9.9-52-0.4-78.1c1.1-3.1,0.5-4.5-2.2-6.2c-22.5-13.7-44.9-27.5-67-41.2c-6.6,5.1-12.8,10.5-19.5,14.9
		c-39.2,25.7-94.5,15.9-122.9-21.5c-10.4-13.7-17-28.9-19.2-46c-0.1-1.1-0.5-2.2-0.8-3.4c0-5.6,0-11.1,0-16.7
		c0.3-1.1,0.7-2.2,0.8-3.3c3-23.6,13.7-43.2,31.4-59.1c31.6-28.5,82.8-30.8,116.3-4.8c7.5,5.8,14,12.7,21.4,19.5
		c-0.4,0.1,0,0.1,0.4-0.1c30.3-13.9,60.5-27.9,90.8-41.8c2.5-1.1,2.5-2.6,2.2-4.8c-4.8-30.7,12.1-63.2,40.4-76.5
		c8.1-3.8,17.1-5.5,25.7-8.2C365.2,30.7,370.5,30.7,375.8,30.7z M367.6,442.8c41.2,0.2,74.7-33,75.1-74.5
		c0.3-41.2-32.9-74.7-74.4-75.2c-41.3-0.4-75.2,33.2-75.3,74.7C292.9,409.1,326.2,442.6,367.6,442.8z M124.4,274.2
		c31-0.1,56.1-25.2,56.1-56.1c0-30.8-25.2-56.1-56.1-56.3c-30.9-0.2-56.4,25.3-56.2,56.4C68.4,249.3,93.5,274.3,124.4,274.2z
		 M367.7,68.3c-20.6,0.2-37.6,17.3-37.2,37.6c0.3,20.6,17.3,37.4,37.7,37.2c20.5-0.2,37.6-17.5,37.2-37.6
		C405,84.8,388.2,68.2,367.7,68.3z"/>
</g>
</svg>
