<?xml version="1.0" encoding="utf-8"?>
<!-- Generator: Adobe Illustrator 24.3.0, SVG Export Plug-In . SVG Version: 6.00 Build 0)  -->
<svg version="1.1" id="Layer_1" xmlns="http://www.w3.org/2000/svg" xmlns:xlink="http://www.w3.org/1999/xlink" x="0px" y="0px"
	 viewBox="0 0 512 512" style="enable-background:new 0 0 512 512;" xml:space="preserve">
<g>
	<path d="M289.5,359.1c5.5-4.7,11.4-9,16.6-14c38.2-36.7,76.4-73.6,114.6-110.3c6.2-5.9,7.5-11.9,4.3-18.1c-3-5.7-8.1-7.7-14.2-7.7
		c-17.8,0-35.8,0-53.6,0c-1.6,0-3.2,0-4.6,0c-0.4-0.5-0.7-0.8-0.7-1c-2.6-41.6,5-80.4,30.8-114.3c14.3-18.8,32.1-33.6,53.1-44.5
		c8.2-4.2,11.3-11.5,8.3-18.8c-2.2-5.1-6.1-8.5-11.7-8.6c-27.7-0.5-55.5-1.1-82.2,7.8C282,52.4,239.9,99,224,169
		c-2.6,11.4-2.5,23.6-3.7,35.3c-0.2,1.4-0.2,2.8-0.3,4.7c-2.1,0-4,0-5.8,0c-16.5,0-33.1,0.3-49.7-0.1c-8.7-0.3-15.5,2-19.2,10.4
		c0,2.4,0,4.7,0,7c2.5,3.3,4.7,7,7.6,9.9c37.1,35.9,74.4,71.8,111.6,107.6c5.6,5.4,11.9,10.1,17.8,15.2
		C284.8,359.1,287.1,359.1,289.5,359.1z"/>
</g>
<path d="M31.6,162.5c0.5-1.3,1.2-2.5,1.5-3.9c6.3-25.2,27.8-42.7,53.7-43.3c18.9-0.4,37.8-0.2,56.7-0.1c11.3,0.1,19.3,8.2,19.2,19.1
	c-0.1,10.7-8.3,18.5-19.8,18.5c-17.8,0-35.8,0-53.6,0c-12.4,0-20.1,7.6-20.1,19.9c0,86.7,0,173.4,0,260.2c0,12.4,7.6,19.9,20,19.9
	c111.4,0,222.9,0,334.4,0c12.9,0,20.3-7.5,20.3-20.6c0-48.8,0-97.6,0-146.3c0-12.8,9.1-21.8,20.9-20.4c8.9,1.1,13.8,6.9,16.6,14.9
	c0,54.2,0,108.4,0,162.6c-0.5,1.3-1.1,2.5-1.5,4c-6,22.5-20.4,36.5-42.9,42.3c-1.3,0.4-2.6,0.8-4,1.2c-118,0-236.2,0-354.2,0
	c-1.1-0.4-2-1-3.1-1.2c-22.9-6-37.2-20.3-43.2-43.2c-0.3-1.1-0.8-2-1.2-3.1C31.6,349.5,31.6,256,31.6,162.5z"/>
</svg>
