<?xml version="1.0" encoding="utf-8"?>
<!-- Generator: Adobe Illustrator 24.3.0, SVG Export Plug-In . SVG Version: 6.00 Build 0)  -->
<svg version="1.1" id="Layer_1" xmlns="http://www.w3.org/2000/svg" xmlns:xlink="http://www.w3.org/1999/xlink" x="0px" y="0px"
	 viewBox="0 0 512 512" style="enable-background:new 0 0 512 512;" xml:space="preserve">
<g>
	<path d="M31,206.5c2.6-8.3,7-15.6,15.7-18c6.8-1.9,14.1-2.3,21.2-3c36.9-3.4,73.8-6.7,110.7-9.9c3-0.3,4.5-1.4,5.7-4.2
		c16.2-38.1,32.5-76.1,48.7-114.2c3.3-7.7,8.2-13.5,16.4-15.8c12-3.4,23.7,2.4,28.9,14.5c11,25.6,22,51.3,32.9,77
		c5.5,12.9,11.1,25.8,16.5,38.7c1,2.5,2.3,3.6,5,3.9c27.1,2.4,54.2,4.8,81.4,7.3c14.9,1.3,29.7,2.7,44.6,4.2
		c10.4,1,17.6,6.5,20.8,16.3c3.4,10.2,0.5,19.1-7.5,26.1c-31.1,27.4-62.3,54.7-93.5,81.9c-2.8,2.5-3.9,4.5-3,8.5
		c9.4,40.3,18.5,80.7,27.6,121c2.4,10.5-0.1,19.7-8.9,26.1c-8.9,6.4-18.3,6.1-27.6,0.6c-35.5-21.3-71.1-42.5-106.5-63.8
		c-3-1.8-5.2-1.9-8.2,0c-35.3,21.3-70.8,42.4-106.2,63.6c-12,7.2-24.9,5.3-32.7-4.7c-4.9-6.3-6.2-13.5-4.4-21.2
		c9.2-40.4,18.3-80.7,27.6-121c1-4.1,0.2-6.5-3-9.3c-31.1-27-61.9-54.2-92.9-81.2c-4.6-4-7.3-9-9.3-14.5C31,212.3,31,209.4,31,206.5
		z"/>
</g>
</svg>
