<?xml version="1.0" encoding="utf-8"?>
<!-- Generator: Adobe Illustrator 24.3.0, SVG Export Plug-In . SVG Version: 6.00 Build 0)  -->
<svg version="1.1" id="Layer_1" xmlns="http://www.w3.org/2000/svg" xmlns:xlink="http://www.w3.org/1999/xlink" x="0px" y="0px"
	 viewBox="0 0 512 512" style="enable-background:new 0 0 512 512;" xml:space="preserve">
<g>
	<path d="M481,215.2c-2.4,7.9-7.8,13.3-13.9,18.6c-29.7,25.8-59.3,51.9-89,77.8c-2.6,2.3-3.4,4.3-2.6,7.8
		c9.3,40.3,18.4,80.7,27.6,121c2.4,10.5,0.2,19.7-8.6,26.2c-9,6.7-18.5,6.3-27.9,0.6c-35.4-21.2-70.8-42.3-106.2-63.6
		c-3.2-1.9-5.4-2-8.6-0.1c-35.3,21.3-70.8,42.5-106.2,63.6c-12,7.1-24.9,5.1-32.7-4.9c-4.9-6.3-6-13.5-4.3-21.2
		c9.1-40.2,18.2-80.4,27.5-120.6c1-4.3,0.2-6.7-3.1-9.6c-31.1-27-61.9-54.2-92.9-81.3c-8-7-11.3-15.7-8-26c3.2-10,10.5-15.6,21-16.7
		c8.2-0.8,16.3-1.6,24.5-2.3c33.7-3,67.3-6.1,101-9c3-0.3,4.5-1.6,5.6-4.3c16.2-38.1,32.5-76.1,48.7-114.2
		c4.4-10.3,11.7-16.6,23-16.5c11.4,0,18.6,6.4,22.9,16.7c16.1,38,32.4,75.8,48.5,113.8c1.3,3.2,3.1,4.4,6.4,4.7
		c40.2,3.5,80.5,7.4,120.7,10.7c13.5,1.1,22.5,7,26.4,20.2C481,209.4,481,212.3,481,215.2z M138.1,438.7c1.9-1.1,3.1-1.7,4.4-2.5
		c32.8-19.6,65.6-39.1,98.3-58.9c10.4-6.3,20-6.4,30.4-0.1c32.5,19.7,65.2,39.1,97.9,58.6c1.4,0.8,2.8,1.6,4.7,2.7
		c-0.3-1.4-0.3-2-0.5-2.5c-8.7-38.5-17.4-77-26.2-115.5c-2.5-10.8,0.3-19.5,8.7-26.7c28.7-25,57.3-50.2,85.9-75.3
		c1.5-1.3,2.9-2.6,4.9-4.5c-1.9-0.3-2.7-0.5-3.6-0.6c-38.6-3.5-77.2-7.2-115.9-10.4c-11.8-1-19.4-6.6-23.9-17.5
		c-14.7-35-29.8-69.9-44.7-104.9c-0.7-1.6-1.4-3.1-2.5-5.4c-1.4,3.1-2.5,5.4-3.5,7.7c-14.7,34.4-29.4,68.8-44.1,103.3
		c-4.1,9.6-10.8,15.5-21.4,16.5c-36.3,3.3-72.6,6.6-108.9,9.9c-4,0.4-7.9,0.8-13.1,1.4c2,1.7,3.1,2.6,4.2,3.6
		c29.1,25.5,58.1,51,87.2,76.4c8.1,7,10.8,15.6,8.4,26c-6.2,27.2-12.4,54.5-18.6,81.7C143.7,413.9,141,426,138.1,438.7z"/>
</g>
</svg>
