<?xml version="1.0" encoding="utf-8"?>
<!-- Generator: Adobe Illustrator 24.3.0, SVG Export Plug-In . SVG Version: 6.00 Build 0)  -->
<svg version="1.1" id="Layer_1" xmlns="http://www.w3.org/2000/svg" xmlns:xlink="http://www.w3.org/1999/xlink" x="0px" y="0px"
	 viewBox="0 0 512 512" style="enable-background:new 0 0 512 512;" xml:space="preserve">
<g>
	<path d="M290.4,31c2.8,0.9,5.5,1.6,8.3,2.6c16.4,5.9,27.4,21.2,27.8,38.5c0.1,4.8,0,9.6,0,15.1c1.8,0,3.3,0,4.9,0
		c23.6,0,47.2,0,70.9,0c22,0,36.9,15,37,37c0,8.5,0.1,17,0,25.5c-0.1,9-5.9,14.8-15,14.8c-112.1,0-224.2,0-336.3,0
		c-9,0-15-5.9-15-14.8c0-11.1-0.7-22.4,0.8-33.3c2.3-17.2,16.9-29.1,34.4-29.2c24.1-0.1,48.1,0,72.2,0c1.6,0,3.2,0,5.3,0
		c0-4.4,0-8.4,0-12.5c0.1-22.1,12.9-38.1,34.6-43c0.5-0.1,1-0.5,1.5-0.7C244.6,31,267.5,31,290.4,31z M213.8,86.9
		c28.4,0,56.4,0,84.5,0c0-5,0.2-9.7,0-14.3c-0.3-7.4-6.1-13.4-13.6-13.4c-19.1-0.2-38.1-0.2-57.2,0c-7.3,0.1-13.2,5.9-13.6,13
		C213.6,77,213.8,81.8,213.8,86.9z"/>
	<path d="M256,192.7c51.1,0,102.1,0,153.2,0c6.8,0,7.8,1.1,7.4,8c-1.6,33.5-3.2,67-4.8,100.5c-2.3,47.1-4.3,94.2-7,141.3
		c-1.2,21.7-19.3,38.2-41.2,38.4c-17.3,0.2-34.6,0.1-51.9,0.1c-53.9,0-107.7,0-161.6,0c-21.6,0-39.1-13.9-42.5-34.6
		c-1.5-9-1.4-18.4-1.9-27.6c-1.9-39.8-3.7-79.6-5.6-119.3c-1.6-33.1-3.1-66.1-4.8-99.2c-0.3-6.2,0.8-7.6,7-7.6
		C153.6,192.7,204.8,192.7,256,192.7z M171.5,319.3c0,12.4,0,24.9,0,37.3c0,18-0.1,36,0,54c0,7.4,5.6,13.3,12.6,14
		c7.1,0.7,13.7-4.1,15.2-11.2c0.4-1.8,0.3-3.8,0.3-5.7c0-59,0-118,0-177.1c0-1.3,0.1-2.6-0.1-4c-0.7-5.7-3.6-9.9-9-12
		c-9.5-3.8-19.1,3.2-19.1,14C171.5,258.9,171.5,289.1,171.5,319.3z M270.1,319.2c0-30,0-60,0-90.1c0-7-3.2-12.1-8.8-14.4
		c-9.6-3.9-19.3,3.2-19.3,14.2c0,37.1,0,74.1,0,111.2c0,23.1,0,46.3,0,69.4c0,6.5,2.7,11.4,8.7,14c9.4,4.2,19.5-2.9,19.5-13.8
		C270.2,379.6,270.1,349.4,270.1,319.2z M340.6,319.7c0-30.2,0-60.3,0-90.5c0-7-3.2-12.1-8.8-14.4c-9.6-3.9-19.3,3.1-19.3,14.1
		c0,35.6,0,71.2,0,106.8c0,24.5,0,48.9,0,73.4c0,4.6,1.1,8.7,4.6,11.9c4.5,3.9,9.6,5,15.1,2.5c5.8-2.6,8.5-7.3,8.5-13.7
		C340.6,379.7,340.6,349.7,340.6,319.7z"/>
</g>
</svg>
