<?xml version="1.0" encoding="utf-8"?>
<!-- Generator: Adobe Illustrator 24.3.0, SVG Export Plug-In . SVG Version: 6.00 Build 0)  -->
<svg version="1.1" id="Layer_1" xmlns="http://www.w3.org/2000/svg" xmlns:xlink="http://www.w3.org/1999/xlink" x="0px" y="0px"
	 viewBox="0 0 512 512" style="enable-background:new 0 0 512 512;" xml:space="preserve">
<g>
	<path d="M221.7,31c22.8,0,45.6,0,68.4,0c0.4,0.2,0.7,0.6,1.1,0.7c22.1,4.9,34.8,20.9,34.9,43.6c0,3.9,0,7.8,0,12c2.1,0,3.7,0,5.3,0
		c24,0,48-0.1,71.9,0c19,0.1,34.5,14.9,34.9,33.5c0.4,17,0.2,34,0.1,51c-0.1,7.9-6.1,13.6-14.1,13.9c-2.4,0.1-4.9,0-7.6,0
		c-0.5,10.6-0.9,20.7-1.4,30.7c-2.2,47-4.5,93.9-6.7,140.9c-1.4,28.5-2.4,57.1-4.4,85.6c-1.2,17.3-11.1,29.1-27.2,35.5
		c-2.8,1.1-5.8,1.8-8.7,2.6c-74.9,0-149.7,0-224.6,0c-1-0.3-1.9-0.7-2.9-0.9c-17-3.7-29.9-16.7-32.7-33.8c-1.2-7-1.1-14.3-1.4-21.5
		c-3.5-73.4-7-146.9-10.5-220.3c-0.3-6.2-0.7-12.5-1.1-18.9c-2.1,0-3.7,0-5.3,0c-11,0-16.3-5.4-16.3-16.5c0-14.8,0-29.6,0-44.4
		c0-22.6,14.8-37.5,37.3-37.5c23.4,0,46.8,0,70.2,0c1.5,0,3.1,0,4.9,0c0-5.3-0.1-10,0-14.6c0.6-15.5,7.3-27.6,20.7-35.5
		C211.1,34.4,216.6,33,221.7,31z M387.4,186c-87.6,0-175.6,0-264,0c0.7,16.2,1.4,32.1,2.2,48c2.2,47.2,4.5,94.5,6.8,141.7
		c1,20.8,1.9,41.5,3,62.3c0.6,9.9,6.1,14.8,15.8,14.8c69.9,0,139.7,0,209.6,0c1.7,0,3.5-0.1,5.2-0.5c7.3-1.9,10.4-6.9,10.9-17.4
		c3.5-74,7.1-148,10.5-222C387.7,204.1,387.4,195.2,387.4,186z M101.6,157.3c103.2,0,205.8,0,308.7,0c0-10.7,0-21,0-31.4
		c0-8.6-1.9-10.5-10.6-10.5c-95.9,0-191.7,0-287.6,0c-1.2,0-2.3-0.1-3.5,0c-4.2,0.3-7,2.8-7,6.9
		C101.5,133.9,101.6,145.4,101.6,157.3z M298,87.1c0-5.1,0.2-9.8,0-14.5c-0.3-7.4-6.1-13.4-13.6-13.4c-19-0.2-38-0.1-57,0
		c-6.6,0-12.4,4.9-13.2,11.3c-0.7,5.4-0.1,11-0.1,16.6C242.1,87.1,269.8,87.1,298,87.1z"/>
	<path d="M199.8,319.1c0,30.2,0,60.3,0,90.5c0,10.8-9.5,17.8-18.9,14.2c-5.7-2.2-9.1-7.2-9.1-13.7c-0.1-14.1,0-28.1,0-42.2
		c0-46.3,0-92.6,0-138.8c0-11.1,9.5-18.1,19.1-14.3c5.6,2.2,8.9,7.3,8.9,14.3c0,29.1,0,58.3,0,87.4
		C199.8,317.4,199.8,318.3,199.8,319.1z"/>
	<path d="M241.9,319c0-30.2,0-60.3,0-90.5c0-10.5,9.4-17.3,18.8-13.8c5.5,2,9.1,7.1,9.2,13.2c0.1,7,0,14.1,0,21.1
		c0,52.9,0,105.7,0,158.6c0,2,0.1,4.1-0.4,6.1c-1.6,7.1-8.3,11.8-15.3,10.9c-7.2-0.9-12.3-6.9-12.4-14.7c0-28.1,0-56.2,0-84.4
		C241.9,323.4,241.9,321.2,241.9,319z"/>
	<path d="M340.2,319.3c0,30.2,0,60.3,0,90.5c0,10.9-10,18-19.4,13.8c-5.9-2.7-8.7-7.5-8.6-14c0.1-23.3,0-46.6,0-69.9
		c0-36.9,0-73.8,0-110.7c0-11,9.7-18,19.2-14.2c5.6,2.3,8.8,7.4,8.8,14.4C340.2,259.2,340.2,289.2,340.2,319.3z"/>
</g>
</svg>
