<?xml version="1.0" encoding="utf-8"?>
<!-- Generator: Adobe Illustrator 24.3.0, SVG Export Plug-In . SVG Version: 6.00 Build 0)  -->
<svg version="1.1" id="Layer_1" xmlns="http://www.w3.org/2000/svg" xmlns:xlink="http://www.w3.org/1999/xlink" x="0px" y="0px"
	 viewBox="0 0 512 512" style="enable-background:new 0 0 512 512;" xml:space="preserve">
<g>
	<path d="M448,352.8c4.4,0,9.7,0,15.1,0c10.5,0.1,17.8,7,17.6,16.5c-0.2,9.3-7.4,15.6-17.8,15.6c-5.2,0-10.3,0-14.9,0
		c-4.1,9.7-7.9,18.9-12.5,29.7c3.1,2.8,7.3,6.2,11.2,10.1c7.3,7.3,7.7,17,1,23.7c-6.6,6.6-16.3,6.3-23.7-0.9
		c-3.8-3.7-7.6-7.6-11-11.1c-9.5,4-18.7,7.9-28.8,12.2c0,4.3,0,9.7,0,15.2c-0.1,10.7-6.1,17.3-15.9,17.4c-10,0.1-16.2-6.6-16.2-17.5
		c0-5.3,0-10.7,0-15.2c-9.8-4.1-19-8-29.5-12.4c-3.1,3.3-6.8,7.6-10.8,11.6c-7.2,7.2-16.4,7.3-23.1,0.5c-6.8-6.8-6.6-15.9,0.4-23.1
		c4-4,8-8,11.5-11.4c-4.2-9.9-8-19.1-12.1-28.9c-4.9,0-10.6,0.1-16.3,0c-9.9-0.1-16.3-6.2-16.4-15.7c-0.1-9.6,6.4-16.1,16.4-16.4
		c5.7-0.1,11.3,0,16.2,0c4.1-9.8,8-19,12.4-29.6c-3.3-3-7.6-6.7-11.6-10.7c-7.2-7.2-7.3-16.4-0.5-23.1c6.8-6.8,15.8-6.7,23.1,0.5
		c3.9,3.9,7.6,8,11,11.4c9.9-4.2,19.1-8.1,29.3-12.4c0-4.3,0-9.7,0-15.2c0.1-10.2,6.7-17.4,16.1-17.4c9.3,0,16,7.2,16.1,17.4
		c0,5.3,0,10.7,0,15.2c9.8,4.1,18.9,7.9,29.5,12.4c2.9-3.1,6.5-7.3,10.4-11.2c7.3-7.3,17-7.5,23.6-0.7c6.5,6.6,6.1,16-0.9,23.3
		c-3.7,3.8-7.6,7.6-11,11C439.8,333.4,443.7,342.8,448,352.8z M416.4,368.8c0-26.7-21.3-48.1-48-48.2c-26.7-0.1-48.2,21.2-48.4,47.9
		c-0.1,26.9,21.4,48.5,48.3,48.5C394.9,416.9,416.3,395.5,416.4,368.8z"/>
	<path d="M223.6,31.4c53.1,0,96.4,43.4,96.4,96.5c-0.1,53-43.6,96.4-96.7,96.3c-52.8-0.1-96.1-43.5-96.1-96.3
		C127.1,74.9,170.5,31.4,223.6,31.4z M159.3,127.5c-0.1,35.6,28.3,64.4,63.7,64.5c35.8,0.2,64.7-28.3,64.8-64
		c0.1-35.6-28.3-64.3-63.7-64.5C188.2,63.4,159.4,91.8,159.3,127.5z"/>
	<path d="M63,417c2.4,0,4.3,0,6.3,0c50.2,0,100.4,0,150.6,0c12.3,0,20.2,9.9,16.7,20.9c-2,6.2-7.5,10.6-14.1,11.2
		c-1.7,0.1-3.3,0.1-5,0.1c-47.2,0-94.4-0.2-141.5,0.1c-48.2,0.2-45.8,2.5-45.1-45.5c0.1-10.5,1-21.1,2.9-31.4
		c11.5-61.3,64.7-110,126.9-114.8c26.6-2,53.5-1,80.2-1c8.7,0,15.3,7.5,15.1,16.2c-0.1,8.9-6.9,15.7-16.1,15.8
		c-21.9,0.1-43.8-0.1-65.7,0.1C123,289,79.6,322.9,66.5,372.4C62.7,386.8,62.6,401.5,63,417z"/>
</g>
</svg>
