<?xml version="1.0" encoding="utf-8"?>
<!-- Generator: Adobe Illustrator 24.3.0, SVG Export Plug-In . SVG Version: 6.00 Build 0)  -->
<svg version="1.1" id="Layer_1" xmlns="http://www.w3.org/2000/svg" xmlns:xlink="http://www.w3.org/1999/xlink" x="0px" y="0px"
	 viewBox="0 0 512 512" style="enable-background:new 0 0 512 512;" xml:space="preserve">
<g>
	<path d="M255.5,480.6c-54,0-108.1,0.1-162.1,0c-31.5-0.1-55.7-20.2-61-50.8c-0.8-4.6-0.8-9.4-0.8-14.2c0-86.8,0-173.7,0-260.5
		c0-3.3-0.9-6.8-0.2-9.9c1.1-5.4,1.8-11.4,4.9-15.6c15-20.7,30.8-40.9,46.3-61.3c4.2-5.6,8.4-11.3,12.6-16.8c10-13.1,23-20,39.7-20
		c80.9,0.1,161.8,0.1,242.7,0c17,0,30,7.1,40,20.4c16.9,22.6,33.9,45.2,50.8,67.8c2.1,2.8,4.3,5.5,6.6,8.2c4.6,5.2,6.1,11.3,6.1,18
		c0,3.9-0.4,7.7-0.4,11.6c0,87,0,174,0,261.1c0,29.7-17.6,53.2-45.3,60.2c-5.9,1.5-12.1,1.9-18.2,1.9
		C363.2,480.6,309.3,480.6,255.5,480.6z M76.2,166.6c0,2.3,0,4.6,0,6.8c0,78.1,0,156.2,0,234.2c0,4.4-0.2,8.8,0.2,13.2
		c0.8,8.9,6.4,14.3,15.4,15c1.4,0.1,2.8,0.1,4.2,0.1c106.7,0,213.4,0,320.1,0c1.8,0,3.5,0.1,5.3-0.1c7.3-0.8,12.3-5.2,13.8-12.4
		c0.6-2.7,0.8-5.6,0.8-8.4c0-80.9,0-161.8,0-242.7c0-1.8-0.2-3.7-0.2-5.6C315.6,166.6,196.3,166.6,76.2,166.6z M99.2,120.8
		c104.9,0,209,0,313.7,0c-10.8-14.5-21.2-28.4-31.8-42.2c-1-1.4-3.5-2.3-5.3-2.3c-79.8-0.1-159.6-0.1-239.5,0c-2,0-4.7,1.4-6,3
		C125,86,120,93,114.8,99.9C109.7,106.7,104.6,113.5,99.2,120.8z"/>
	<path d="M238.2,277.5c-6.7,5.6-12.5,10.3-18.2,15.1c-5.3,4.4-10.5,8.8-15.7,13.2c-9.9,8.3-22.8,7.3-31.4-2.6
		c-8.2-9.4-7.6-22.8,2-31c21.8-18.5,43.4-37.4,66.1-54.7c11-8.4,26.4-9.3,38.3,1.9c17.6,16.6,36.9,31.3,55.4,46.9
		c3.9,3.3,7.9,6.6,10.7,10.7c6.6,9.5,5,20.4-3.1,27.6c-9.6,8.5-20.7,8.8-30,1.1c-9.4-7.9-18.8-15.7-29.4-24.5c0,3,0,4.8,0,6.6
		c0,26.7,0.1,53.3,0,80c-0.1,16.5-11.8,25.8-27.9,22.5c-10.5-2.1-16.7-10.1-16.7-22.3c-0.1-26.3,0-52.6,0-79
		C238.2,285.6,238.2,282.2,238.2,277.5z"/>
</g>
</svg>
