<?xml version="1.0" encoding="utf-8"?>
<!-- Generator: Adobe Illustrator 24.3.0, SVG Export Plug-In . SVG Version: 6.00 Build 0)  -->
<svg version="1.1" id="Layer_1" xmlns="http://www.w3.org/2000/svg" xmlns:xlink="http://www.w3.org/1999/xlink" x="0px" y="0px"
	 viewBox="0 0 512 512" style="enable-background:new 0 0 512 512;" xml:space="preserve">
<style type="text/css">
	.st0{fill-rule:evenodd;clip-rule:evenodd;}
</style>
<g>
	<g>
		<path d="M132.4,440.4c-4.6,0-9.3-1.8-12.8-5.3c-7.1-7.1-7.1-18.5,0-25.6L450.1,79c7.1-7.1,18.5-7.1,25.6,0
			c7.1,7.1,7.1,18.5,0,25.6L145.2,435.1C141.7,438.6,137.1,440.4,132.4,440.4z"/>
	</g>
	<path class="st0" d="M301.8,179.2l25.7-25.7c-14.6-3.5-25.8-16.9-26-32.7c-0.4-18.3,15-33.8,33.6-34c15.9-0.1,29.4,11,33.1,26
		l25.9-25.9c-6.5-11.5-16.4-21-28.8-26.8c-5.1-2.4-10.5-3.9-16-5.4c-2.3-0.6-4.6-1.3-6.9-2c-4.8,0-9.6,0-13.8-0.1
		c-2.5,0.8-5,1.5-7.6,2.2c-5.4,1.5-10.7,2.9-15.7,5.2c-25.6,12-40.8,41.4-36.5,69.1c0.3,2,0.3,3.3-2,4.3
		c-13.7,6.3-27.4,12.6-41,18.9s-27.3,12.6-41,18.9c-0.4,0.2-0.7,0.2-0.4,0.1c-2.1-2-4.2-3.9-6.2-5.9c-4.3-4.1-8.5-8.2-13.1-11.8
		c-30.3-23.5-76.5-21.4-105.1,4.3c-16,14.4-25.7,32.1-28.4,53.4c-0.1,0.7-0.3,1.5-0.5,2.2c-0.1,0.2-0.1,0.5-0.2,0.7v15.1
		c0.1,0.3,0.2,0.6,0.3,1c0.2,0.7,0.4,1.4,0.5,2.1c2,15.5,8,29.2,17.4,41.6c25.7,33.8,75.6,42.7,111.1,19.4c4.2-2.8,8.2-5.9,12.2-9.2
		c1.8-1.4,3.6-2.9,5.4-4.3c4.7,2.9,9.5,5.9,14.2,8.8l24.5-24.5c-6.6-4.1-13.1-8.1-19.7-12.2c-0.9-0.5-1.6-2.7-1.3-3.7
		c4.5-13.9,5.7-28.1,2.5-42.6c-0.6-2.7,0.5-3.7,2.7-4.7c13.6-6.2,27.1-12.4,40.6-18.7c8-3.7,16.1-7.4,24.1-11.1
		c5.9-2.7,11.7-5.4,17.4-8c0.2,0.2,0.4,0.3,0.6,0.4c0.1,0.1,0.2,0.2,0.3,0.2c0.3,0.3,0.5,0.6,0.8,0.9c0.3,0.3,0.5,0.6,0.8,0.9
		C290.5,171.3,296,175.7,301.8,179.2z M166,222.2c0,27.9-22.7,50.6-50.7,50.7c-27.9,0.1-50.6-22.5-50.8-50.6s22.9-51.2,50.8-51
		S166,194.3,166,222.2z"/>
	<path d="M364.1,260.4l-29.6,29.6c0.4,0,0.8,0,1.2,0c37.5,0.5,67.5,30.7,67.2,68c-0.4,37.5-30.6,67.5-67.9,67.3
		c-37.4-0.2-67.5-30.5-67.4-67.8c0-0.2,0-0.5,0-0.7l-29.5,29.5c0.7,2.5,1.5,5,2.5,7.4c17,46,67.3,73.7,115.2,63.4
		c26.2-5.6,47.5-19.1,62.6-41.2c21.4-31.5,24.9-65.4,9.2-100.1C414.7,287.1,393.1,268.5,364.1,260.4z"/>
</g>
</svg>
