<?xml version="1.0" encoding="utf-8"?>
<!-- Generator: Adobe Illustrator 24.3.0, SVG Export Plug-In . SVG Version: 6.00 Build 0)  -->
<svg version="1.1" id="Layer_1" xmlns="http://www.w3.org/2000/svg" xmlns:xlink="http://www.w3.org/1999/xlink" x="0px" y="0px"
	 viewBox="0 0 512 512" style="enable-background:new 0 0 512 512;" xml:space="preserve">
<path d="M188.7,139.1h44.5v203.5c0,2.6,2.2,4.8,4.8,4.8h36.1c2.6,0,4.8-2.2,4.8-4.8V139.1h44.6c4,0,6.3-4.6,3.8-7.8l-67.4-85.3
	c-0.5-0.6-1-1-1.7-1.4c-0.7-0.3-1.4-0.5-2.1-0.5c-0.7,0-1.5,0.2-2.1,0.5c-0.7,0.3-1.2,0.8-1.7,1.4l-67.4,85.2
	C182.5,134.5,184.7,139.1,188.7,139.1z M476.3,324.6h-36.1c-2.6,0-4.8,2.2-4.8,4.8v92.6H76.8v-92.6c0-2.6-2.2-4.8-4.8-4.8H35.9
	c-2.6,0-4.8,2.2-4.8,4.8v119.1c0,10.6,8.6,19.3,19.3,19.3h411.5c10.6,0,19.3-8.6,19.3-19.3V329.4
	C481.1,326.8,478.9,324.6,476.3,324.6z"/>
</svg>
