<?xml version="1.0" encoding="utf-8"?>
<!-- Generator: Adobe Illustrator 24.3.0, SVG Export Plug-In . SVG Version: 6.00 Build 0)  -->
<svg version="1.1" id="Layer_1" xmlns="http://www.w3.org/2000/svg" xmlns:xlink="http://www.w3.org/1999/xlink" x="0px" y="0px"
	 viewBox="0 0 512 512" style="enable-background:new 0 0 512 512;" xml:space="preserve">
<g>
	<path d="M30.8,444.8c0-21.4,0-42.8,0-64.2c0.4-2.9,0.8-5.7,1.2-8.6c6.3-44.4,27-80.6,62.8-107.8c6.5-4.9,13.5-9.1,20.4-13.6
		c-0.1-0.2,0-0.6-0.2-0.7c-0.7-0.8-1.4-1.5-2.1-2.2c-21.2-21-32.9-46.4-33.8-76.3c-1.2-38.9,13.9-70.8,44.9-94
		c38.8-29.1,87.3-30.1,128.3-4.2c2.8,1.8,4.7,1.6,7.4-0.1c38.4-23.4,77.8-24.8,117-2.9c59.9,33.5,74.6,115.2,30.7,168
		c-3.5,4.2-7.4,8.2-11.3,12.6c1.8,1.1,3.4,2.1,5,3c44,26.4,71,64.8,77.7,115.6c3.2,23.9,1.7,48.5,1.9,72.8c0,6.3-3.9,11.1-9.9,13.3
		c-3.2,1.1-6.9,1.4-10.3,1.4c-136.1,0.1-272.1,0-408.2,0.2C42.2,457,34.8,454.3,30.8,444.8z M280,98.3
		c15.7,20.4,23.9,43.5,23.9,69.2c0,25.6-8.2,48.8-23.9,69.2c34.2,19.5,74.1,12.8,100.5-16.7c26.1-29.1,26.1-75.2,0.9-104.4
		C354.1,83.8,310.6,79.9,280,98.3z M352.3,424.4c32.4,0,64.1,0,96.9,0c-0.7-17.5,0.4-34.9-2.4-51.8c-7.9-47.7-35-81-79.8-99.5
		c-2.4-1-5.8-1-8.2-0.1c-16,5.7-32.3,7.8-49.2,6.4c-1-0.1-2.1,0-3.9,0c2,2.2,3.3,3.7,4.7,5.2c14.6,16,25.4,34.2,32.6,54.6
		c6.4,18.3,9,37.2,9.3,56.4C352.4,405.1,352.3,414.6,352.3,424.4z"/>
</g>
</svg>
