<?xml version="1.0" encoding="utf-8"?>
<!-- Generator: Adobe Illustrator 24.3.0, SVG Export Plug-In . SVG Version: 6.00 Build 0)  -->
<svg version="1.1" id="Layer_1" xmlns="http://www.w3.org/2000/svg" xmlns:xlink="http://www.w3.org/1999/xlink" x="0px" y="0px"
	 viewBox="0 0 512 512" style="enable-background:new 0 0 512 512;" xml:space="preserve">
<g>
	<path d="M105.3,481.4c-3.8-1-7.7-1.7-11.4-2.9c-31.2-10-49-43.1-40.1-74.9c11.7-42,34.5-76.9,67.8-104.9c9.9-8.3,23.5-7.4,31.4,1.9
		c8.1,9.6,6.9,23.1-3.2,31.7c-25.6,21.7-43.4,48.4-53,80.6c-4.3,14.6,3.2,24.7,18.5,24.7c67.4,0,134.8,0,202.1,0
		c6.8,0,12.7,1.6,17.6,6.5c11,11,7.4,29.7-7,35.8c-1.3,0.6-2.6,1.2-3.9,1.7C251.2,481.4,178.3,481.4,105.3,481.4z"/>
	<path d="M393.6,481.4c-1-0.5-2-1-3.1-1.5c-9.9-4.1-15.3-13.7-13.6-24.4c1.5-9.5,10-17.1,20.1-18c15.2-1.3,21.5-10.4,17.2-24.9
		c-9.5-31.9-27-58.5-52.4-79.9c-6.4-5.4-10-11.9-9.1-20.3c0.9-8.7,5.7-15,13.9-18.2c8.2-3.2,15.8-1.6,22.6,4
		c17.6,14.6,32.5,31.5,44.5,51c11.6,18.8,20.8,38.7,25,60.5c6.3,32.9-16,64.7-49,70.7c-1,0.2-1.9,0.6-2.8,0.9
		C402.4,481.4,398,481.4,393.6,481.4z"/>
	<path d="M255.7,285.1c-69.5,0.3-126.4-56.3-126.9-126.4c-0.5-69.8,56.4-127.1,126.4-127.3c69.9-0.2,126.7,56.2,127.1,126.1
		C382.7,227.7,326.1,284.7,255.7,285.1z M255.4,240.9c45.7,0.1,82.8-36.7,82.9-82.4c0.2-45.8-36.9-83.1-82.7-83.2
		c-45.6-0.1-82.7,36.8-82.9,82.5C172.5,203.6,209.6,240.8,255.4,240.9z"/>
</g>
</svg>
