<?xml version="1.0" encoding="utf-8"?>
<!-- Generator: Adobe Illustrator 24.3.0, SVG Export Plug-In . SVG Version: 6.00 Build 0)  -->
<svg version="1.1" id="Layer_1" xmlns="http://www.w3.org/2000/svg" xmlns:xlink="http://www.w3.org/1999/xlink" x="0px" y="0px"
	 viewBox="0 0 512 512" style="enable-background:new 0 0 512 512;" xml:space="preserve">
<path d="M76,166H31v270c0,11.9,4.7,23.4,13.2,31.8C52.6,476.3,64.1,481,76,481h270v-45H76V166z"/>
<path d="M436,31H166c-11.9,0-23.4,4.7-31.8,13.2C125.7,52.6,121,64.1,121,76v270c0,11.9,4.7,23.4,13.2,31.8
	c8.4,8.4,19.9,13.2,31.8,13.2h270c11.9,0,23.4-4.7,31.8-13.2c8.4-8.4,13.2-19.9,13.2-31.8V76c0-11.9-4.7-23.4-13.2-31.8
	C459.4,35.7,447.9,31,436,31z M233.5,301V121L391,211L233.5,301z"/>
</svg>
