<svg id="Layer_2" data-name="Layer 2" xmlns="http://www.w3.org/2000/svg" viewBox="0 0 32 32"><defs><style>.cls-1{fill:#f2ca00;}.cls-2{fill:#bd9e00;}.cls-3,.cls-4{fill:#324561;}.cls-4{fill-rule:evenodd;}.cls-5{fill:none;stroke:#324561;}.cls-6{opacity:0.25;}</style></defs><g id="_7z" data-name="7z"><g id="rar"><path class="cls-1" d="M3,2.24H29a.8.8,0,0,1,.8.8V28.92a.8.8,0,0,1-.8.8H3a.81.81,0,0,1-.81-.81V3A.81.81,0,0,1,3,2.24Z"/><path class="cls-2" d="M29,2.48a.57.57,0,0,1,.57.57V28.91a.57.57,0,0,1-.57.57H3.05a.57.57,0,0,1-.57-.57V3.05a.57.57,0,0,1,.57-.57H29M29,2H3.05a1,1,0,0,0-1,1V28.91a1,1,0,0,0,1,1.05H29A1,1,0,0,0,30,28.91V3.05A1,1,0,0,0,29,2Z"/></g><path class="cls-3" d="M6.86,22l4.19-9.86H5.55V10h8v1.59L9.33,22Z"/><path class="cls-3" d="M19,22H14V21l2.93-3.78H14.18V16H18.9V17L16,20.73h3Z"/><path class="cls-4" d="M28,6H24V4h4Z"/><path class="cls-4" d="M28,10H24V8h4Z"/><path class="cls-4" d="M28,14H24V12h4Z"/><path class="cls-4" d="M28,18H24V16h4Z"/><path class="cls-5" d="M27.5,23.67A1.66,1.66,0,0,1,26,25.48a1.66,1.66,0,0,1-1.5-1.81,6.36,6.36,0,0,1,.36-2.23c.27-.64.63-1,1.14-1s.87.32,1.14,1A6.36,6.36,0,0,1,27.5,23.67Z"/></g></svg>