<svg width="32" height="32" viewBox="0 0 32 32" fill="none" xmlns="http://www.w3.org/2000/svg">
<path d="M9.21094 24.4062H9.91406C10.2422 24.4062 10.4792 24.3555 10.625 24.2539C10.7734 24.1523 10.8477 23.9844 10.8477 23.75C10.8477 23.5312 10.7669 23.375 10.6055 23.2812C10.4466 23.1849 10.194 23.1367 9.84766 23.1367H9.21094V24.4062Z" fill="#0C9855"/>
<path d="M9.21094 25.3672V26.8555H10C10.3333 26.8555 10.5794 26.7917 10.7383 26.6641C10.8971 26.5365 10.9766 26.3411 10.9766 26.0781C10.9766 25.6042 10.638 25.3672 9.96094 25.3672H9.21094Z" fill="#0C9855"/>
<path d="M22.5312 24.832H22.1328V23.1367H22.6836C23.0143 23.1367 23.2565 23.2044 23.4102 23.3398C23.5664 23.4753 23.6445 23.6849 23.6445 23.9688C23.6445 24.25 23.5521 24.4648 23.3672 24.6133C23.1823 24.7591 22.9036 24.832 22.5312 24.832Z" fill="#0C9855"/>
<path fill-rule="evenodd" clip-rule="evenodd" d="M5 20H27V30H5V20ZM8 22.1445H9.77734C10.5872 22.1445 11.1745 22.2604 11.5391 22.4922C11.9062 22.7214 12.0898 23.0872 12.0898 23.5898C12.0898 23.931 12.0091 24.2109 11.8477 24.4297C11.6888 24.6484 11.4766 24.7799 11.2109 24.8242V24.8633C11.5729 24.944 11.8333 25.0951 11.9922 25.3164C12.1536 25.5378 12.2344 25.832 12.2344 26.1992C12.2344 26.7201 12.0456 27.1263 11.668 27.418C11.293 27.7096 10.7826 27.8555 10.1367 27.8555H8V22.1445ZM15.793 27.8555L14.418 23.375H14.3828C14.4323 24.2865 14.457 24.8945 14.457 25.1992V27.8555H13.375V22.1445H15.0234L16.375 26.5117H16.3984L17.832 22.1445H19.4805V27.8555H18.3516V25.1523C18.3516 25.0247 18.3529 24.8776 18.3555 24.7109C18.3607 24.5443 18.3789 24.1016 18.4102 23.3828H18.375L16.9023 27.8555H15.793ZM24.2891 25.3359C24.6745 25.0104 24.8672 24.5404 24.8672 23.9258C24.8672 23.3346 24.6862 22.8906 24.3242 22.5938C23.9648 22.2943 23.4388 22.1445 22.7461 22.1445H20.9219V27.8555H22.1328V25.8242H22.6523C23.3607 25.8242 23.9062 25.6615 24.2891 25.3359Z" fill="#0C9855"/>
<path fill-rule="evenodd" clip-rule="evenodd" d="M27 8L20.7143 2H5V30H27V8ZM26.4762 29.5V8.20711L20.4973 2.5H5.52381V29.5H26.4762Z" fill="black"/>
<path fill-rule="evenodd" clip-rule="evenodd" d="M26.4762 8.4961L20.1913 8.4961L20.1913 2.3251L20.7151 2.3251L20.7151 7.9961L26.4762 7.9961L26.4762 8.4961Z" fill="black"/>
<path fill-rule="evenodd" clip-rule="evenodd" d="M7 19.0037L7 17H8.05882V19.0037H7Z" fill="#0C9855"/>
<path fill-rule="evenodd" clip-rule="evenodd" d="M9.11765 19.0037L9.11765 17H10.1765V19.0037H9.11765Z" fill="#0C9855"/>
<path fill-rule="evenodd" clip-rule="evenodd" d="M11.2353 19.0037L11.2353 17H12.2941V19.0037H11.2353Z" fill="#0C9855"/>
<path fill-rule="evenodd" clip-rule="evenodd" d="M13.3529 19.0037L13.3529 17H14.4118V19.0037H13.3529Z" fill="#0C9855"/>
<path fill-rule="evenodd" clip-rule="evenodd" d="M15.4706 19.0037L15.4706 17H16.5294V19.0037H15.4706Z" fill="#0C9855"/>
<path fill-rule="evenodd" clip-rule="evenodd" d="M17.5882 19.0037L17.5882 17H18.6471V19.0037H17.5882Z" fill="#0C9855"/>
<path fill-rule="evenodd" clip-rule="evenodd" d="M19.7059 19.0037L19.7059 17H20.7647V19.0037H19.7059Z" fill="#0C9855"/>
<path fill-rule="evenodd" clip-rule="evenodd" d="M21.8235 19.0037L21.8235 17H22.8824V19.0037H21.8235Z" fill="#0C9855"/>
<path fill-rule="evenodd" clip-rule="evenodd" d="M23.9412 19.0037L23.9412 17H25V19.0037H23.9412Z" fill="#0C9855"/>
</svg>
