<svg id="Layer_2" data-name="Layer 2" xmlns="http://www.w3.org/2000/svg" viewBox="0 0 32 32"><defs><style>.cls-1{fill:#fff;}.cls-2{fill:#25559a;}</style></defs><g id="doc"><g id="right"><path class="cls-1" d="M18,4.5H28.78A1.22,1.22,0,0,1,30,5.72V26.31a1.19,1.19,0,0,1-1.19,1.19H18a0,0,0,0,1,0,0V4.5A0,0,0,0,1,18,4.5Z"/><path class="cls-2" d="M29,4H16v.67H29c.28,0,.51.3.51.68v21.3c0,.38-.23.68-.51.68H16V28H29c.56,0,1-.6,1-1.35V5.35C30,4.6,29.55,4,29,4Z"/><rect class="cls-2" x="18" y="20.25" width="10" height="1.06"/><rect class="cls-2" x="18" y="17.06" width="10" height="1.06"/><rect class="cls-2" x="18" y="13.88" width="10" height="1.06"/><rect class="cls-2" x="18" y="10.69" width="10" height="1.06"/><rect class="cls-2" x="18" y="7.5" width="10" height="1.06"/><rect class="cls-2" x="18" y="23.44" width="10" height="1.06"/></g><g id="left"><polygon id="left-2" data-name="left" class="cls-2" points="18 30 2 28 2 4 18 2 18 30"/></g><path class="cls-1" d="M13.12,20H11.34l-1-4.2c0-.15-.1-.46-.19-.93s-.14-.78-.16-.94c0,.19-.07.51-.15,1s-.14.74-.19.93L8.66,20H6.88L5,12H6.54l.94,4.37c.17.8.29,1.5.36,2.09,0-.21.07-.53.14-1s.14-.78.2-1L9.26,12h1.48l1.08,4.48c0,.2.1.51.17.92s.13.77.16,1.06c0-.28.09-.64.17-1.06s.14-.77.2-1L13.46,12H15Z"/></g></svg>