<svg width="32" height="32" viewBox="0 0 32 32" fill="none" xmlns="http://www.w3.org/2000/svg">
<path d="M9.13368 28.0838V26.31H2.13342V11.3597H9.13368V2.11057H23.8235L29.8841 8.25716V29.8569H9.13368V28.0838Z" fill="white"/>
<path d="M9.00121 28.2171C9.00121 26.7249 9.00734 26.3949 9.00734 26.3949L9.38576 26.4114L9.37621 29.6107H29.6263V8.57892H28.5013C27.5979 8.57892 25.6591 8.57198 25.6591 8.57198L24.9318 8.16525L29.5046 8.13551L23.8763 2.43618V3.60707C23.8763 4.56339 23.8714 5.33982 23.8714 5.33982C23.8714 5.33982 23.5013 4.92576 23.5013 5.34809C23.5013 5.77042 23.8646 5.466 23.8646 5.466C23.8646 5.466 23.8763 6.08718 23.8763 6.67842C23.8763 7.26966 23.8782 7.96621 23.8782 7.96621C23.8782 7.96621 23.5014 7.58641 23.5014 8.00872V8.57886H11.6264V7.4386H23.5014V5.91823H11.6264V4.77799H23.5014V2.37073H9.37614L9.39523 11.4489L8.99773 11.4233C8.99773 11.4233 9.00104 10.6411 9.00104 6.61506V1.99062H23.9408L30.0014 8.13721V29.9907H9.00104L9.00121 28.2171ZM11.6262 26.8234V26.4433H14.3137C16.6193 26.4433 15.4139 26.3448 15.4139 26.1818C15.4139 26.0159 17.661 26.0632 22.1888 26.0632H27.3763V27.2035H11.6263L11.6262 26.8234ZM17.0013 23.9727V23.4026H27.3762V24.5429H17.0013V23.9727ZM17.0013 21.3121V20.742H27.3762V21.8822H17.0013V21.3121ZM17.0013 18.6515V18.0814H27.3762V19.2216H17.0013V18.6515ZM17.0013 15.9909V15.4208H27.3762V16.561H17.0013V15.9909ZM17.0013 13.3303V12.7601H27.3762V13.9004H17.0013V13.3303ZM11.6262 10.6697V10.0995H27.3762V11.2398H11.6262V10.6697Z" fill="#999898"/>
<path d="M23.5006 8.00938C23.5006 7.58705 23.5007 7.43925 23.5007 7.43925L23.8757 7.43542V8.15126H27.3496L27.3622 8.57427C27.3622 8.57427 27.0771 8.5793 25.4382 8.5793H23.5007L23.5006 8.00938ZM23.5007 5.91889V4.77864L23.8689 4.78687L23.8708 5.91889H23.5007Z" fill="#999898"/>
<path d="M2.00439 18.8459V11.244H17.0046V26.4477H2.00439V18.8459ZM15.8797 20.683V16.0585H15.5901C15.3375 16.0585 15.0509 16.5405 13.3482 19.8278L11.396 23.5971L9.13632 23.6699L9.06706 20.0077L6.98914 23.6605H5.00447V16.0586H4.00444V14.5383H8.50452V16.0586H7.37952L7.40022 18.7826L9.42191 14.5383H11.5046L11.5074 18.9093L12.313 17.5157L13.1185 16.122L12.2543 16.0434V14.5383H15.8794V12.3845H3.12895V25.3078H15.8794L15.8797 20.683Z" fill="#295595"/>
</svg>
