<svg width="32" height="32" viewBox="0 0 32 32" fill="none" xmlns="http://www.w3.org/2000/svg">
<path d="M22.4742 2.33333H9.25316C8.88962 2.33333 8.59494 2.63908 8.59494 3.01626V29.6504C8.59494 30.0276 8.88962 30.3333 9.25316 30.3333H28.3418C28.7053 30.3333 29 30.0276 29 29.6504V9.10401C29 8.92289 28.9307 8.74919 28.8072 8.62111L22.9396 2.53336C22.8162 2.40528 22.6488 2.33333 22.4742 2.33333Z" fill="white" stroke="#979593" stroke-width="0.5" stroke-miterlimit="10"/>
<path d="M22.4177 2.33333V8.47967C22.4177 8.85685 22.7124 9.1626 23.076 9.1626H29" stroke="#979593" stroke-width="0.5" stroke-miterlimit="10"/>
<path d="M26.3671 20.7724H16.1646V20.0894H26.3671C26.5489 20.0894 26.6962 20.2423 26.6962 20.4309C26.6962 20.6195 26.5489 20.7724 26.3671 20.7724ZM26.3671 18.7236H16.1646V18.0406H26.3671C26.5489 18.0406 26.6962 18.1935 26.6962 18.3821C26.6962 18.5707 26.5489 18.7236 26.3671 18.7236ZM26.3671 16.6748H16.1646V15.9919H26.3671C26.5489 15.9919 26.6962 16.1447 26.6962 16.3333C26.6962 16.5219 26.5489 16.6748 26.3671 16.6748ZM26.3671 14.626H16.1646V13.9431H26.3671C26.5489 13.9431 26.6962 14.096 26.6962 14.2846C26.6962 14.4731 26.5489 14.626 26.3671 14.626ZM26.3671 22.8211H16.1646V22.1382H26.3671C26.5489 22.1382 26.6962 22.2911 26.6962 22.4797C26.6962 22.6683 26.5489 22.8211 26.3671 22.8211Z" fill="#C8C6C4"/>
<path d="M4.31646 25.2114H14.8481C15.5751 25.2114 16.1646 24.5999 16.1646 23.8455V12.9187C16.1646 12.1644 15.5751 11.5528 14.8481 11.5528H4.31646C3.58941 11.5528 3 12.1644 3 12.9187V23.8455C3 24.5999 3.58941 25.2114 4.31646 25.2114Z" fill="#185ABD"/>
<path d="M7.48401 20.6513C7.50577 20.8296 7.51988 20.9849 7.52666 21.1176H7.55174C7.56181 20.9918 7.581 20.8401 7.60937 20.6618C7.63774 20.4839 7.66542 20.3337 7.69221 20.2114L8.8553 14.9675H10.3594L11.5627 20.1329C11.6229 20.3879 11.6731 20.7124 11.7131 21.1071H11.7331C11.7499 20.8347 11.7916 20.5204 11.8585 20.1642L12.8212 14.9675H14.1899L12.5054 22.4797H10.9059L9.75776 17.503C9.72432 17.3597 9.68674 17.1731 9.64494 16.9425C9.60314 16.7122 9.57724 16.5445 9.56727 16.4397H9.54726C9.53386 16.5619 9.50793 16.7435 9.46946 16.9843C9.43098 17.2255 9.40001 17.4034 9.37668 17.5187L8.29873 22.4797H6.67433L4.97468 14.9675H6.36845L7.41644 20.222C7.43978 20.3301 7.46226 20.4734 7.48401 20.6513Z" fill="white"/>
</svg>
