<svg id="Layer_2" data-name="Layer 2" xmlns="http://www.w3.org/2000/svg" viewBox="0 0 32 32"><defs><style>.cls-1{fill:#fff;}.cls-2,.cls-3{fill:#d61212;}.cls-3{fill-rule:evenodd;}</style></defs><g id="flv"><path class="cls-1" d="M3,2.24H29a.8.8,0,0,1,.8.8V28.92a.8.8,0,0,1-.8.8H3a.81.81,0,0,1-.81-.81V3A.81.81,0,0,1,3,2.24Z"/><path class="cls-2" d="M29,2.48a.57.57,0,0,1,.57.57V28.91a.57.57,0,0,1-.57.57H3.05a.57.57,0,0,1-.57-.57V3.05a.57.57,0,0,1,.57-.57H29M29,2H3.05a1,1,0,0,0-1,1V28.91a1,1,0,0,0,1,1.05H29A1,1,0,0,0,30,28.91V3.05A1,1,0,0,0,29,2Z"/><path class="cls-3" d="M2,19H30V29.32a.73.73,0,0,1-.78.68H2.78A.73.73,0,0,1,2,29.32Z"/><path class="cls-1" d="M8.6,28H7V22h4.4v1H8.6v1.55h2.61v1H8.6Z"/><path class="cls-1" d="M12.9,28V22h1.63v4.95h3.11V28Z"/><path class="cls-1" d="M23.36,22H25l-2.61,6H20.62L18,22h1.64l1.45,3.57c.08.21.16.46.25.74s.14.47.16.58a9.24,9.24,0,0,1,.39-1.32Z"/><path class="cls-2" d="M14.64,11.18c-1.39,3.45-3.64,3.4-3.64,3.4v2.2c3.48,0,4.87-2.41,5.88-4.84h2.83V9.65h-1.9C19,6.9,21,7,21,7V4.78C17,4.78,15.87,8.14,14.64,11.18Z"/></g></svg>