<svg width="32" height="32" viewBox="0 0 32 32" fill="none" xmlns="http://www.w3.org/2000/svg">
<path fill-rule="evenodd" clip-rule="evenodd" d="M5 20H27V30H5V20ZM10.2453 28H9V22H12.4214V23.0424H10.2453V24.5896H12.2703V25.6279H10.2453V28ZM13.5891 28V22H14.8548V26.9494H17.2759V28H13.5891ZM23 22H21.7221L20.5911 25.5705C20.4169 26.1997 20.3149 26.6402 20.2849 26.8919C20.2686 26.7825 20.2264 26.5882 20.1584 26.3092C20.093 26.0274 20.0291 25.7811 19.9665 25.5705L18.8437 22H17.5658L19.5908 28H20.9708L23 22Z" fill="#D61212"/>
<path fill-rule="evenodd" clip-rule="evenodd" d="M27 8L20.7143 2H5V30H27V8ZM26.4762 29.5V8.20711L20.4973 2.5H5.52381V29.5H26.4762Z" fill="black"/>
<path d="M13.9159 13.1216C12.8004 15.8784 11 15.8431 11 15.8431V17.6C13.7867 17.6 14.8943 15.6706 15.7045 13.7255H17.9707V11.8941H16.4442C17.407 9.69804 19 9.77643 19 9.77643V8C15.8023 8 14.8982 10.6902 13.9159 13.1216Z" fill="#D61212"/>
<path fill-rule="evenodd" clip-rule="evenodd" d="M26.4762 8.4961L20.1913 8.4961L20.1913 2.3251L20.7151 2.3251L20.7151 7.9961L26.4762 7.9961L26.4762 8.4961Z" fill="black"/>
</svg>
