<svg xmlns="http://www.w3.org/2000/svg" viewBox="0 0 32 32"><defs><style>.cls-1{fill:#19405c;}.cls-2{opacity:0.25;}.cls-3,.cls-4,.cls-5,.cls-6,.cls-7{fill:none;stroke-miterlimit:10;stroke-width:0.1px;}.cls-3{stroke:#b400ff;}.cls-4{stroke:#0036f9;}.cls-5{stroke:#00ff7f;}.cls-6{stroke:#ff7900;}.cls-7{stroke:#00d5e5;}</style></defs><g id="Layer_2" data-name="Layer 2"><path class="cls-1" d="M2,7c0-.15.08-.3.13-.44A2.3,2.3,0,0,1,4.32,5H11a2.84,2.84,0,0,1,2.23,1.1c.34.41.69.82,1,1.25a1.38,1.38,0,0,0,1.18.56h8.62a2.27,2.27,0,0,1,2.35,1.69,7.32,7.32,0,0,1,.14,1.2H11.86A3.76,3.76,0,0,0,8,13.68L4.84,24.49a1.7,1.7,0,0,1-1.58,1.35,1.16,1.16,0,0,1-1.18-.74C2.06,25.05,2,25,2,25Q2,16,2,7Z"/><path class="cls-1" d="M3.66,27l.33-.1a2.85,2.85,0,0,0,1.94-2c.68-2.3,1.35-4.6,2-6.91l1.2-4.07A2.58,2.58,0,0,1,11.73,12H28.17a1.73,1.73,0,0,1,1.74,2.3c-1,3.57-2.08,7.12-3.13,10.68A2.86,2.86,0,0,1,23.93,27H3.66Z"/></g><g id="guides" class="cls-2"><rect id="_28_x_24" data-name="28 x 24" class="cls-3" x="2" y="4" width="28" height="24"/><rect id="_24_x_28" data-name="24 x 28" class="cls-4" x="4" y="2" width="24" height="28"/><rect id="_26_x_26" data-name="26 x 26" class="cls-5" x="3" y="3" width="26" height="26"/><circle class="cls-6" cx="16" cy="16" r="14"/><line class="cls-7" x1="0.01" y1="0.01" x2="32.01" y2="32.01"/><line class="cls-7" x1="32.01" y1="0.01" x2="0.01" y2="32.01"/></g></svg>