<svg id="Layer_2" data-name="Layer 2" xmlns="http://www.w3.org/2000/svg" viewBox="0 0 32 32"><defs><style>.cls-1{fill:#19405c;}.cls-2{opacity:0.25;}</style></defs><g id="folder"><path class="cls-1" d="M2,7c0-.15.08-.3.13-.44A2.3,2.3,0,0,1,4.32,5H11a2.84,2.84,0,0,1,2.23,1.1c.34.41.69.82,1,1.25a1.38,1.38,0,0,0,1.18.56h8.62a2.27,2.27,0,0,1,2.35,1.69,7.32,7.32,0,0,1,.14,1.2H11.86A3.76,3.76,0,0,0,8,13.68L4.84,24.49a1.7,1.7,0,0,1-1.58,1.35,1.16,1.16,0,0,1-1.18-.74C2.06,25.05,2,25,2,25Q2,16,2,7Z"/><path class="cls-1" d="M3.66,27l.33-.1a2.85,2.85,0,0,0,1.94-2c.68-2.3,1.35-4.6,2-6.91l1.2-4.07A2.58,2.58,0,0,1,11.73,12H28.17a1.73,1.73,0,0,1,1.74,2.3c-1,3.57-2.08,7.12-3.13,10.68A2.86,2.86,0,0,1,23.93,27H3.66Z"/></g></svg>