<svg id="Layer_2" data-name="Layer 2" xmlns="http://www.w3.org/2000/svg" viewBox="0 0 32 32"><defs><style>.cls-1{fill:#bbf5ff;}.cls-2{fill:#316899;}.cls-3{opacity:0.2;}.cls-4{fill:#ff0;}.cls-5{fill:#fff;}.cls-6{opacity:0.25;}</style></defs><g id="gif"><rect class="cls-1" x="2.24" y="2.24" width="27.52" height="27.52" rx="0.81"/><path class="cls-2" d="M29,2.48a.58.58,0,0,1,.57.57V29a.58.58,0,0,1-.57.57H3.05A.58.58,0,0,1,2.48,29V3.05a.58.58,0,0,1,.57-.57H29M29,2H3.05a1,1,0,0,0-1,1V29a1,1,0,0,0,1,1.05H29A1,1,0,0,0,30,29V3.05A1,1,0,0,0,29,2Z"/><path class="cls-2" d="M29.52,20.76v8.12a.64.64,0,0,1-.64.64H3.08a.6.6,0,0,1-.6-.6V21.79L9,11.48a2.56,2.56,0,0,1,4.43,0L18,17l1.76-2.8a2.57,2.57,0,0,1,4.43,0Z"/><polygon points="2.49 19.86 2.48 19.88 2.48 19.86 2.49 19.86"/><circle class="cls-3" cx="18.59" cy="8.41" r="2.41"/><circle class="cls-4" cx="19.38" cy="7.79" r="2.41"/><path class="cls-5" d="M11.83,23.64h2.65v3a8.81,8.81,0,0,1-1.21.26,8.92,8.92,0,0,1-1.16.07,3.17,3.17,0,0,1-2.31-.78A3,3,0,0,1,9,24a2.74,2.74,0,0,1,.93-2.2A3.79,3.79,0,0,1,12.49,21a5.51,5.51,0,0,1,2,.36l-.47,1A3.77,3.77,0,0,0,12.48,22a2,2,0,0,0-1.47.54A1.92,1.92,0,0,0,10.46,24a2.15,2.15,0,0,0,.44,1.45,1.67,1.67,0,0,0,1.3.5,5.67,5.67,0,0,0,.9-.08V24.67H11.83Z"/><path class="cls-5" d="M16.07,26.92V21.08h1.42v5.84Z"/><path class="cls-5" d="M20.56,26.92H19.17V21.08H23v1H20.56v1.5h2.27v1H20.56Z"/></g></svg>