<svg width="32" height="32" viewBox="0 0 32 32" fill="none" xmlns="http://www.w3.org/2000/svg">
<path d="M13.75 17.25L19 12L27 20H5.5L11 14.5L13.75 17.25Z" fill="#0C9855"/>
<path fill-rule="evenodd" clip-rule="evenodd" d="M5 20H27V30H5V20ZM12.4219 24.5859H14.6875V27.5469C14.3203 27.6667 13.974 27.75 13.6484 27.7969C13.3255 27.8464 12.9948 27.8711 12.6562 27.8711C11.7943 27.8711 11.1354 27.6185 10.6797 27.1133C10.2266 26.6055 10 25.8776 10 24.9297C10 24.0078 10.263 23.2891 10.7891 22.7734C11.3177 22.2578 12.0495 22 12.9844 22C13.5703 22 14.1354 22.1172 14.6797 22.3516L14.2773 23.3203C13.8607 23.112 13.4271 23.0078 12.9766 23.0078C12.4531 23.0078 12.0339 23.1836 11.7188 23.5352C11.4036 23.8867 11.2461 24.3594 11.2461 24.9531C11.2461 25.5729 11.3724 26.0469 11.625 26.375C11.8802 26.7005 12.25 26.8633 12.7344 26.8633C12.987 26.8633 13.2435 26.8372 13.5039 26.7852V25.5938H12.4219V24.5859ZM16.0508 27.793V22.082H17.2617V27.793H16.0508ZM18.6992 27.793H19.8906V25.5352H21.8281V24.5469H19.8906V23.0742H21.9727V22.082H18.6992V27.793Z" fill="#0C9855"/>
<path fill-rule="evenodd" clip-rule="evenodd" d="M27 8L20.7143 2H5V30H27V8ZM26.4762 29.5V8.20711L20.4973 2.5H5.52381V29.5H26.4762Z" fill="black"/>
<path fill-rule="evenodd" clip-rule="evenodd" d="M26.4762 8.4961L20.1913 8.4961L20.1913 2.3251L20.7151 2.3251L20.7151 7.9961L26.4762 7.9961L26.4762 8.4961Z" fill="black"/>
<path d="M12.5 6C10.5672 6 9 7.56719 9 9.5C9 11.4328 10.5672 13 12.5 13C14.4328 13 16 11.4328 16 9.5C16 7.56719 14.4328 6 12.5 6ZM12.5 12.4062C10.8953 12.4062 9.59375 11.1047 9.59375 9.5C9.59375 7.89531 10.8953 6.59375 12.5 6.59375C14.1047 6.59375 15.4062 7.89531 15.4062 9.5C15.4062 11.1047 14.1047 12.4062 12.5 12.4062Z" fill="#DC1919"/>
<path d="M13.9396 9.38837L11.2314 7.52664C11.2097 7.51156 11.184 7.5025 11.1571 7.50045C11.1303 7.4984 11.1034 7.50344 11.0794 7.51502C11.0554 7.52661 11.0353 7.54427 11.0212 7.56604C11.0072 7.58782 10.9999 7.61285 11 7.63834V11.3618C11 11.4752 11.1354 11.5393 11.2314 11.4735L13.9396 9.61177C13.9583 9.59902 13.9735 9.58224 13.984 9.56282C13.9945 9.54339 14 9.52189 14 9.50007C14 9.47825 13.9945 9.45674 13.984 9.43732C13.9735 9.4179 13.9583 9.40112 13.9396 9.38837V9.38837ZM11.5835 10.5487V8.45144L13.1082 9.50007L11.5835 10.5487V10.5487Z" fill="#DC1919"/>
</svg>
