<svg width="32" height="32" viewBox="0 0 32 32" fill="none" xmlns="http://www.w3.org/2000/svg">
<path fill-rule="evenodd" clip-rule="evenodd" d="M5 20H27V30H5V20ZM9.86312 28H10.8583V22H9.86312V24.3516H7.99839V22H7V28H7.99839V25.4104H9.86312V28ZM12.868 28H13.8663V23.0588H15.1449V22H11.5894V23.0588H12.868V28ZM17.8631 28L16.7295 23.2927H16.7005C16.7413 24.2503 16.7617 24.8892 16.7617 25.2093V28H15.8696V22H17.2287L18.343 26.5882H18.3623L19.5443 22H20.9034V28H19.9726V25.1601C19.9726 25.026 19.9737 24.8714 19.9758 24.6963C19.9801 24.5212 19.9952 24.0561 20.0209 23.301H19.9919L18.7778 28H17.8631ZM22.0918 22V28H25V26.9494H23.0902V22H22.0918Z" fill="#D64112"/>
<path fill-rule="evenodd" clip-rule="evenodd" d="M27 8L20.7143 2H5V30H27V8ZM26.4762 29.5V8.20711L20.4973 2.5H5.52381V29.5H26.4762Z" fill="black"/>
<path fill-rule="evenodd" clip-rule="evenodd" d="M26.4762 8.4961L20.1913 8.4961L20.1913 2.3251L20.7151 2.3251L20.7151 7.9961L26.4762 7.9961L26.4762 8.4961Z" fill="black"/>
<path d="M13.3039 15.456L9.34375 13.6584V13.0716L13.3039 11.036V12.0209L10.5761 13.3219L13.3039 14.4751V15.456Z" fill="#717171"/>
<path d="M16.9928 10.2891L14.8193 16.2891H13.7146L15.8881 10.2891H16.9928Z" fill="#717171"/>
<path d="M17.3836 14.4751L20.1114 13.3219L17.3836 12.0209V11.036L21.3438 13.0716V13.6584L17.3836 15.456V14.4751Z" fill="#717171"/>
</svg>
