<svg width="32" height="32" viewBox="0 0 32 32" fill="none" xmlns="http://www.w3.org/2000/svg">
<path d="M13.75 17.25L19 12L27 20H5.5L11 14.5L13.75 17.25Z" fill="#0C9855"/>
<path d="M12.9784 24.2237H12.6223V22.8625H13.1146C13.4101 22.8625 13.6266 22.9169 13.7639 23.0256C13.9036 23.1343 13.9734 23.3027 13.9734 23.5306C13.9734 23.7564 13.8908 23.9289 13.7255 24.0481C13.5603 24.1652 13.3112 24.2237 12.9784 24.2237Z" fill="#0C9855"/>
<path fill-rule="evenodd" clip-rule="evenodd" d="M5 20H27V30H5V20ZM24 24.0763H21.9751V24.8855H22.9422V25.8421C22.7094 25.884 22.4802 25.9049 22.2544 25.9049C21.8215 25.9049 21.491 25.7742 21.2629 25.5128C21.0372 25.2493 20.9243 24.8688 20.9243 24.3711C20.9243 23.8944 21.0651 23.5149 21.3467 23.2326C21.6283 22.9503 22.0031 22.8092 22.4709 22.8092C22.8735 22.8092 23.261 22.8928 23.6334 23.0601L23.993 22.2823C23.5066 22.0941 23.0015 22 22.4779 22C21.6423 22 20.9883 22.207 20.5158 22.621C20.0457 23.035 19.8106 23.6121 19.8106 24.3523C19.8106 25.1134 20.0131 25.6979 20.4181 26.1056C20.8254 26.5112 21.4142 26.7141 22.1846 26.7141C22.4872 26.7141 22.7827 26.6942 23.0714 26.6545C23.3623 26.6168 23.6718 26.5499 24 26.4537V24.0763ZM8 27.931C8.18154 27.977 8.3945 28 8.63888 28C9.17187 28 9.57451 27.8599 9.84683 27.5797C10.1191 27.2995 10.2553 26.8918 10.2553 26.3565V22.0659H9.17303V26.3628C9.17303 26.6451 9.12183 26.8521 9.01942 26.9838C8.91701 27.1176 8.74711 27.1845 8.50971 27.1845C8.3561 27.1845 8.1862 27.1636 8 27.1218V27.931ZM14.5494 24.6283C14.8939 24.367 15.0661 23.9895 15.0661 23.4961C15.0661 23.0214 14.9044 22.6649 14.5808 22.4266C14.2597 22.1861 13.7895 22.0659 13.1704 22.0659H11.54V26.6513H12.6223V25.0204H13.0866C13.7197 25.0204 14.2073 24.8897 14.5494 24.6283ZM18.9692 26.6513H16.0297V22.0659H18.9692V22.8625H17.1119V23.8693H18.8401V24.666H17.1119V25.8484H18.9692V26.6513Z" fill="#0C9855"/>
<path fill-rule="evenodd" clip-rule="evenodd" d="M27 8L20.7143 2H5V30H27V8ZM26.4762 29.5V8.20711L20.4973 2.5H5.52381V29.5H26.4762Z" fill="black"/>
<path fill-rule="evenodd" clip-rule="evenodd" d="M26.4762 8.49609L20.1912 8.49609L20.1912 2.3251L20.7151 2.3251L20.7151 7.99609L26.4762 7.99609L26.4762 8.49609Z" fill="black"/>
<circle cx="11" cy="9" r="2" fill="#CACE11"/>
</svg>
