<svg id="Layer_2" data-name="Layer 2" xmlns="http://www.w3.org/2000/svg" viewBox="0 0 32 32"><defs><style>.cls-1{fill:#06e8ff;}.cls-2{fill:#319b5e;}.cls-3{opacity:0.2;}.cls-4{fill:#ff0;}.cls-5{fill:#fff;}.cls-6{opacity:0.25;}</style></defs><g id="jpg"><rect class="cls-1" x="2.24" y="2.24" width="27.52" height="27.52" rx="0.81"/><path class="cls-2" d="M29,2.48a.58.58,0,0,1,.57.57V29a.58.58,0,0,1-.57.57H3.05A.58.58,0,0,1,2.48,29V3.05a.58.58,0,0,1,.57-.57H29M29,2H3.05a1,1,0,0,0-1,1V29a1,1,0,0,0,1,1.05H29A1,1,0,0,0,30,29V3.05A1,1,0,0,0,29,2Z"/><path class="cls-2" d="M29.52,20.76v8.12a.64.64,0,0,1-.64.64H3.08a.6.6,0,0,1-.6-.6V21.79L9,11.48a2.56,2.56,0,0,1,4.43,0L18,17l1.76-2.8a2.57,2.57,0,0,1,4.43,0Z"/><polygon points="2.49 19.86 2.48 19.88 2.48 19.86 2.49 19.86"/><circle class="cls-3" cx="18.59" cy="8.41" r="2.41"/><circle class="cls-4" cx="19.38" cy="7.79" r="2.41"/><path class="cls-5" d="M8.85,27.92a3.54,3.54,0,0,1-.85-.1V26.74a3,3,0,0,0,.68.09.8.8,0,0,0,.68-.27,1.31,1.31,0,0,0,.21-.83V20H11v5.72a2.2,2.2,0,0,1-.55,1.63A2.12,2.12,0,0,1,8.85,27.92Z"/><path class="cls-5" d="M17.43,21.91a1.78,1.78,0,0,1-.69,1.51,3.16,3.16,0,0,1-1.95.52h-.62v2.18H12.72V20H14.9a3.12,3.12,0,0,1,1.88.48A1.68,1.68,0,0,1,17.43,21.91Zm-3.26,1h.47a1.69,1.69,0,0,0,1-.24A.77.77,0,0,0,16,22a.8.8,0,0,0-.28-.68,1.43,1.43,0,0,0-.87-.21h-.65Z"/><path class="cls-5" d="M21.3,22.68H24v3.17a8,8,0,0,1-1.24.27,9.11,9.11,0,0,1-1.18.08,3.22,3.22,0,0,1-2.36-.81,3.18,3.18,0,0,1-.81-2.34,2.91,2.91,0,0,1,.94-2.31A3.84,3.84,0,0,1,22,19.92a5.56,5.56,0,0,1,2,.37l-.48,1A3.8,3.8,0,0,0,22,21a1.95,1.95,0,0,0-2.06,2.09,2.28,2.28,0,0,0,.45,1.52,1.64,1.64,0,0,0,1.32.52,5.82,5.82,0,0,0,.92-.08V23.76H21.3Z"/></g></svg>