<svg width="32" height="32" viewBox="0 0 32 32" fill="none" xmlns="http://www.w3.org/2000/svg">
<path d="M14.3962 23.965H14.8119C15.2005 23.965 15.4912 23.8869 15.6841 23.7308C15.8771 23.5719 15.9735 23.3419 15.9735 23.0408C15.9735 22.7369 15.892 22.5125 15.729 22.3675C15.5687 22.2225 15.316 22.15 14.9709 22.15H14.3962V23.965Z" fill="#0C9855"/>
<path fill-rule="evenodd" clip-rule="evenodd" d="M27 20H5V30H27V20ZM23 23.7684H20.6361V24.8474H21.7651V26.1228C21.4934 26.1786 21.2257 26.2065 20.9622 26.2065C20.4568 26.2065 20.0709 26.0322 19.8047 25.6837C19.5411 25.3325 19.4093 24.8251 19.4093 24.1615C19.4093 23.5259 19.5737 23.0199 19.9025 22.6435C20.2312 22.2671 20.6687 22.0789 21.2148 22.0789C21.6849 22.0789 22.1373 22.1905 22.5721 22.4135L22.9918 21.3764C22.424 21.1255 21.8344 21 21.223 21C20.2476 21 19.484 21.276 18.9325 21.828C18.3836 22.38 18.1092 23.1495 18.1092 24.1364C18.1092 25.1512 18.3456 25.9305 18.8183 26.4741C19.2938 27.015 19.9813 27.2854 20.8806 27.2854C21.2339 27.2854 21.5789 27.2589 21.9159 27.206C22.2555 27.1558 22.6169 27.0666 23 26.9383V23.7684ZM9.74585 29C9.46055 29 9.21194 28.9693 9 28.908V27.8291C9.21737 27.8848 9.41572 27.9127 9.59505 27.9127C9.8722 27.9127 10.0705 27.8235 10.1901 27.6451C10.3097 27.4694 10.3694 27.1934 10.3694 26.817V21.0878H11.6329V26.8087C11.6329 27.5224 11.4739 28.066 11.156 28.4396C10.8381 28.8132 10.3681 29 9.74585 29ZM17.2492 22.9948C17.2492 23.6527 17.0481 24.156 16.646 24.5044C16.2466 24.8529 15.6773 25.0272 14.9383 25.0272H14.3962V27.2018H13.1328V21.0878H15.0361C15.7589 21.0878 16.3077 21.2481 16.6827 21.5687C17.0604 21.8866 17.2492 22.3619 17.2492 22.9948Z" fill="#0C9855"/>
<path d="M13.75 17.25L19 12L27 20H5.5L11 14.5L13.75 17.25Z" fill="#0C9855"/>
<path fill-rule="evenodd" clip-rule="evenodd" d="M27 8L20.7143 2H5V30H27V8ZM26.4762 29.5V8.20711L20.4973 2.5H5.52381V29.5H26.4762Z" fill="black"/>
<path fill-rule="evenodd" clip-rule="evenodd" d="M26.4762 8.49609L20.1912 8.49609L20.1912 2.3251L20.7151 2.3251L20.7151 7.99609L26.4762 7.99609L26.4762 8.49609Z" fill="black"/>
<circle cx="11" cy="9" r="2" fill="#CACE11"/>
</svg>
