<svg xmlns="http://www.w3.org/2000/svg" viewBox="0 0 32 32"><defs><style>.cls-1{fill:#fff;}.cls-2,.cls-3{fill:#717171;}.cls-3{fill-rule:evenodd;}.cls-4{opacity:0.25;}.cls-5,.cls-6,.cls-7,.cls-8,.cls-9{fill:none;stroke-miterlimit:10;stroke-width:0.1px;}.cls-5{stroke:#b400ff;}.cls-6{stroke:#0036f9;}.cls-7{stroke:#00ff7f;}.cls-8{stroke:#ff7900;}.cls-9{stroke:#00d5e5;}</style></defs><g id="Layer_2" data-name="Layer 2"><g id="svg"><g id="html"><path class="cls-1" d="M3,2.24H29a.8.8,0,0,1,.8.8V28.91a.81.81,0,0,1-.81.81H3a.81.81,0,0,1-.81-.81V3A.81.81,0,0,1,3,2.24Z"/><path class="cls-2" d="M29,2.48a.57.57,0,0,1,.57.57V28.91a.57.57,0,0,1-.57.57H3.05a.57.57,0,0,1-.57-.57V3.05a.57.57,0,0,1,.57-.57H29M29,2H3.05a1,1,0,0,0-1,1V28.91a1,1,0,0,0,1,1.05H29A1,1,0,0,0,30,28.91V3.05A1,1,0,0,0,29,2Z"/><path class="cls-3" d="M2,19H30V29.32a.73.73,0,0,1-.78.68H2.78A.73.73,0,0,1,2,29.32Z"/></g></g><path class="cls-3" d="M4,5.2H28V4H4Z"/><path class="cls-3" d="M4,9H28V7.8H4Z"/><path class="cls-3" d="M4,12.8H28V11.6H4Z"/><path class="cls-3" d="M4,16.2H28V15H4Z"/><path class="cls-1" d="M15,25.78v-.39a1.71,1.71,0,0,1,.23-.89,2.78,2.78,0,0,1,.81-.8,3.11,3.11,0,0,0,.75-.65.91.91,0,0,0,.18-.55.59.59,0,0,0-.26-.53,1.24,1.24,0,0,0-.72-.18,4.35,4.35,0,0,0-1.86.52l-.59-1.16a5.29,5.29,0,0,1,2.57-.66,2.76,2.76,0,0,1,1.77.52,1.7,1.7,0,0,1,.66,1.4,1.84,1.84,0,0,1-.27,1,3.9,3.9,0,0,1-1,.95,2.76,2.76,0,0,0-.66.58.88.88,0,0,0-.14.51v.32Zm-.17,1.81a.87.87,0,0,1,.24-.67,1.2,1.2,0,0,1,1.41,0,1,1,0,0,1,0,1.33,1.14,1.14,0,0,1-1.4,0A.83.83,0,0,1,14.79,27.59Z"/></g><g id="guides" class="cls-4"><rect id="_28_x_24" data-name="28 x 24" class="cls-5" x="2" y="4" width="28" height="24"/><rect id="_24_x_28" data-name="24 x 28" class="cls-6" x="4" y="2" width="24" height="28"/><rect id="_26_x_26" data-name="26 x 26" class="cls-7" x="3" y="3" width="26" height="26"/><circle class="cls-8" cx="16" cy="16" r="14"/><line class="cls-9" x1="0.01" y1="0.01" x2="32.01" y2="32.01"/><line class="cls-9" x1="32.01" y1="0.01" x2="0.01" y2="32.01"/></g></svg>