<svg id="Layer_2" data-name="Layer 2" xmlns="http://www.w3.org/2000/svg" viewBox="0 0 32 32"><defs><style>.cls-1{fill:#fff;}.cls-2,.cls-3{fill:#717171;}.cls-3{fill-rule:evenodd;}</style></defs><g id="svg"><g id="html"><path class="cls-1" d="M3,2.24H29a.8.8,0,0,1,.8.8V28.91a.81.81,0,0,1-.81.81H3a.81.81,0,0,1-.81-.81V3A.81.81,0,0,1,3,2.24Z"/><path class="cls-2" d="M29,2.48a.57.57,0,0,1,.57.57V28.91a.57.57,0,0,1-.57.57H3.05a.57.57,0,0,1-.57-.57V3.05a.57.57,0,0,1,.57-.57H29M29,2H3.05a1,1,0,0,0-1,1V28.91a1,1,0,0,0,1,1.05H29A1,1,0,0,0,30,28.91V3.05A1,1,0,0,0,29,2Z"/><path class="cls-3" d="M2,19H30V29.32a.73.73,0,0,1-.78.68H2.78A.73.73,0,0,1,2,29.32Z"/></g></g><path class="cls-3" d="M4,5.2H28V4H4Z"/><path class="cls-3" d="M4,9H28V7.8H4Z"/><path class="cls-3" d="M4,12.8H28V11.6H4Z"/><path class="cls-3" d="M4,16.2H28V15H4Z"/><path class="cls-1" d="M15,25.78v-.39a1.71,1.71,0,0,1,.23-.89,2.78,2.78,0,0,1,.81-.8,3.11,3.11,0,0,0,.75-.65.91.91,0,0,0,.18-.55.59.59,0,0,0-.26-.53,1.24,1.24,0,0,0-.72-.18,4.35,4.35,0,0,0-1.86.52l-.59-1.16a5.29,5.29,0,0,1,2.57-.66,2.76,2.76,0,0,1,1.77.52,1.7,1.7,0,0,1,.66,1.4,1.84,1.84,0,0,1-.27,1,3.9,3.9,0,0,1-1,.95,2.76,2.76,0,0,0-.66.58.88.88,0,0,0-.14.51v.32Zm-.17,1.81a.87.87,0,0,1,.24-.67,1.2,1.2,0,0,1,1.41,0,1,1,0,0,1,0,1.33,1.14,1.14,0,0,1-1.4,0A.83.83,0,0,1,14.79,27.59Z"/></svg>