<svg id="Layer_2" data-name="Layer 2" xmlns="http://www.w3.org/2000/svg" viewBox="0 0 32 32"><defs><style>.cls-1{fill:#fff;}.cls-2,.cls-3{fill:#e14c3f;}.cls-3{fill-rule:evenodd;}.cls-4{opacity:0.25;}</style></defs><g id="pdf"><path class="cls-1" d="M3,2.24H29a.8.8,0,0,1,.8.8V28.92a.8.8,0,0,1-.8.8H3a.81.81,0,0,1-.81-.81V3A.81.81,0,0,1,3,2.24Z"/><path class="cls-2" d="M29,2.48a.57.57,0,0,1,.57.57V28.91a.57.57,0,0,1-.57.57H3.05a.57.57,0,0,1-.57-.57V3.05a.57.57,0,0,1,.57-.57H29M29,2H3.05a1,1,0,0,0-1,1V28.91a1,1,0,0,0,1,1.05H29A1,1,0,0,0,30,28.91V3.05A1,1,0,0,0,29,2Z"/><path class="cls-3" d="M2,19H30V29.32a.73.73,0,0,1-.78.68H2.78A.73.73,0,0,1,2,29.32Z"/><path class="cls-2" d="M10.93,16.92a1.12,1.12,0,0,1-.62-.59,1.49,1.49,0,0,1,.12-1.54,3.66,3.66,0,0,1,1.25-1.1,10.63,10.63,0,0,1,2.08-.9,27.79,27.79,0,0,0,1.48-3.12,11.41,11.41,0,0,1-.6-1.82,3.93,3.93,0,0,1-.06-1.59,1.5,1.5,0,0,1,.91-1.15A1.44,1.44,0,0,1,16.33,5a1.07,1.07,0,0,1,.39.18,1.1,1.1,0,0,1,.28.33,1.81,1.81,0,0,1,.18.76,4.45,4.45,0,0,1-.07.86,14,14,0,0,1-.73,2.51A15.78,15.78,0,0,0,17.75,12a7.8,7.8,0,0,1,1.87.07,2.24,2.24,0,0,1,1.35.65,1.24,1.24,0,0,1,.28.73,1.56,1.56,0,0,1-.2.78,1.48,1.48,0,0,1-.49.59,1.2,1.2,0,0,1-.72.19,2.36,2.36,0,0,1-1.3-.58,8,8,0,0,1-1.28-1.33,14.7,14.7,0,0,0-2.79.57A16.64,16.64,0,0,1,13,15.78a3.8,3.8,0,0,1-1.3,1.1,1.08,1.08,0,0,1-.81,0Zm1.93-2.66c-.23.11-.45.22-.64.33a2.75,2.75,0,0,0-.91.77.47.47,0,0,0-.06.5l0,.07.05,0a2.89,2.89,0,0,0,.89-.8c.22-.27.43-.56.63-.85Zm2.29-1.86c.47-.11.94-.2,1.42-.27-.26-.39-.49-.79-.72-1.2-.22.49-.45,1-.7,1.47Zm3.43.63a4.5,4.5,0,0,0,.61.57,1.31,1.31,0,0,0,.7.36.15.15,0,0,0,.09,0,.38.38,0,0,0,.13-.18.66.66,0,0,0,.09-.28.12.12,0,0,0,0-.08,1.23,1.23,0,0,0-.72-.3,6.23,6.23,0,0,0-.86-.07ZM15.79,8.12A9.33,9.33,0,0,0,16.07,7a3.39,3.39,0,0,0,.06-.65A.87.87,0,0,0,16.08,6a.66.66,0,0,0-.2.06.5.5,0,0,0-.28.39,3,3,0,0,0,.07,1.15,5,5,0,0,0,.12.49Z"/><path class="cls-1" d="M12.46,23.29a2,2,0,0,1-.64,1.58,2.77,2.77,0,0,1-1.83.54H9.41v2.27H8.05V21.3h2a2.73,2.73,0,0,1,1.77.5A1.82,1.82,0,0,1,12.46,23.29Zm-3.05,1h.44a1.53,1.53,0,0,0,.94-.24.9.9,0,0,0,.31-.72.92.92,0,0,0-.26-.71,1.26,1.26,0,0,0-.82-.22H9.41Z"/><path class="cls-1" d="M19,24.43a3.13,3.13,0,0,1-.9,2.41,3.65,3.65,0,0,1-2.59.84H13.67V21.3h2a3.39,3.39,0,0,1,2.43.82A3,3,0,0,1,19,24.43Zm-1.41,0c0-1.37-.61-2.05-1.82-2.05H15v4.15h.58C16.91,26.56,17.56,25.86,17.56,24.46Z"/><path class="cls-1" d="M21.62,27.68H20.29V21.3H24v1.11H21.62v1.64h2.16v1.11H21.62Z"/></g></svg>