<svg width="32" height="32" viewBox="0 0 32 32" fill="none" xmlns="http://www.w3.org/2000/svg">
<path d="M8.2725 3C13.9839 3 19.6952 3 25.4066 3C25.4384 3.01866 25.4765 3.04353 25.5083 3.04975C27.0729 3.32959 28.1477 4.194 28.7138 5.6554C28.8156 5.91659 28.8728 6.20265 28.9555 6.47006C28.9555 12.6328 28.9555 18.7956 28.9555 24.9584C28.93 25.0268 28.8982 25.089 28.8855 25.1574C28.4658 27.0852 26.8567 28.3787 24.8342 28.3787C18.932 28.3849 13.0299 28.3849 7.12769 28.3725C6.66976 28.3725 6.19276 28.2978 5.76027 28.1548C4.04305 27.5765 3 26.1026 3 24.3054C3 19.9025 3 15.5059 3 11.103C3 11.0284 3.00636 10.9537 3.00636 10.8792C3.15264 10.7423 3.29256 10.6118 3.43885 10.4749C4.13845 9.79085 4.84442 9.10058 5.54403 8.41653C5.62035 8.3419 5.67123 8.24862 5.73483 8.16156C6.01468 8.15534 6.28816 8.15534 6.568 8.14912C7.5093 8.1429 8.26615 7.40287 8.2725 6.4825C8.27887 5.31959 8.2725 4.16291 8.2725 3ZM23.365 19.7346C23.365 18.2048 23.3714 16.6688 23.3714 15.139C23.5749 15.139 23.772 15.1514 23.9692 15.1266C24.0646 15.1141 24.1918 15.0395 24.2299 14.9587C24.3381 14.7224 24.408 14.4674 24.4843 14.2186C24.4971 14.1688 24.4652 14.1067 24.4525 14.0507C24.4716 13.9574 24.4971 13.8641 24.5225 13.746C24.1282 13.746 23.7593 13.746 23.3777 13.746C23.3777 13.5532 23.3777 13.3853 23.3777 13.2174C23.5812 12.9002 23.8738 12.7821 24.2554 12.807C24.5861 12.8256 24.5861 12.807 24.5925 12.4773C24.5925 12.2535 24.5989 12.0296 24.5925 11.812C24.5798 11.3953 24.6751 11.4762 24.2236 11.3891C22.8498 11.1279 22.0421 11.7809 22.0103 13.149C22.0039 13.3418 22.0103 13.5407 22.0103 13.7585C21.7368 13.7585 21.4951 13.7585 21.2471 13.7585C21.2471 14.1253 21.2471 14.4611 21.2471 14.797C21.2534 15.1328 21.2534 15.1328 21.6032 15.1328C21.7368 15.1328 21.8703 15.139 22.0039 15.139C22.0039 16.675 22.0103 18.2048 22.0103 19.7409C22.0166 20.0456 22.0421 20.0767 22.3537 20.0829C22.57 20.0891 22.7926 20.0829 23.0088 20.0829C23.3523 20.0829 23.365 20.0767 23.365 19.7346ZM14.6771 17.9374C14.6835 18.4971 14.887 18.9821 15.2495 19.4113C15.9746 20.257 17.6282 20.6115 18.8048 19.5792C18.8684 19.5232 18.9384 19.4734 19.0147 19.4175C19.2818 20.0518 19.2818 20.0518 19.9814 20.0518C20.1849 20.0518 20.3884 20.0518 20.6047 20.0518C20.5983 19.9212 20.592 19.8466 20.592 19.772C20.5983 19.7222 20.6238 19.6662 20.6047 19.6289C20.3567 19.1687 20.3249 18.6712 20.3249 18.1613C20.3312 15.9785 20.3249 13.802 20.3249 11.6192C20.3249 11.5259 20.3249 11.4326 20.3249 11.3145C19.8542 11.445 19.4217 11.557 18.9829 11.6813C18.9829 12.042 18.9829 12.3903 18.9829 12.7386C18.9829 13.093 18.9829 13.4413 18.9829 13.8268C18.3342 13.5843 17.7109 13.5719 17.0749 13.6527C15.7774 13.8144 14.9378 14.5544 14.6962 15.7982C14.5563 16.5071 14.5817 17.2223 14.6771 17.9374ZM8.73679 17.0792C9.70989 17.0792 10.6766 17.0917 11.6497 17.073C13.157 17.0481 13.933 15.9412 13.9902 14.629C13.9902 14.3181 14.022 14.0009 13.9902 13.69C13.9139 12.9189 13.6341 12.2473 12.9281 11.8182C12.4829 11.5446 11.9932 11.4699 11.4716 11.4699C10.1806 11.4762 8.88943 11.4699 7.59834 11.4699C7.52201 11.4699 7.45206 11.4762 7.36301 11.4824C7.35665 11.5383 7.3503 11.5757 7.3503 11.6129C7.3503 14.3306 7.3503 17.0419 7.35665 19.7595C7.36301 20.0891 7.36301 20.0891 7.69374 20.0891C7.9227 20.0891 8.14531 20.0891 8.37427 20.0891C8.72407 20.0891 8.72407 20.0891 8.73043 19.7533C8.73043 18.8578 8.73679 17.9685 8.73679 17.0792Z" fill="#E14C3F"/>
<path d="M3.02543 8.1429C3.09539 8.06828 3.15899 7.99365 3.22895 7.92524C4.83169 6.35812 6.43443 4.791 8.03717 3.22388C8.10713 3.15547 8.16437 3.07463 8.22161 3C8.24069 3 8.25341 3 8.2725 3C8.2725 4.1629 8.27885 5.31959 8.2725 6.4825C8.26614 7.40287 7.50928 8.1429 6.56799 8.15534C6.28815 8.16155 6.01467 8.16155 5.73482 8.16778C4.83169 8.15534 3.92856 8.14912 3.02543 8.1429Z" fill="#FE7164"/>
<path d="M7.35667 19.7533C7.35667 17.0357 7.35667 14.3243 7.35031 11.6067C7.35031 11.5694 7.35667 11.5259 7.36303 11.4762C7.45207 11.4699 7.52204 11.4637 7.59836 11.4637C8.88945 11.4637 10.1806 11.4637 11.4716 11.4637C11.9868 11.4637 12.4829 11.5383 12.9281 11.812C13.6341 12.2473 13.9139 12.9189 13.9903 13.6838C14.0221 13.9948 13.9903 14.3119 13.9903 14.6228C13.9584 14.741 13.9266 14.8591 13.8948 14.9773C13.704 15.6676 13.3606 16.2646 12.6546 16.5382C12.2984 16.675 11.8914 16.7434 11.5034 16.7621C10.6766 16.7932 9.84982 16.7745 9.02302 16.7745C8.93397 16.7745 8.84493 16.7745 8.74317 16.7745C8.74317 16.8989 8.74317 16.9922 8.74317 17.0792C8.73681 17.9685 8.73681 18.864 8.73045 19.7533C8.27253 19.7533 7.81459 19.7533 7.35667 19.7533ZM12.6228 14.0009C12.6292 13.5221 12.4956 13.1054 12.0186 12.894C11.7897 12.7883 11.5162 12.7261 11.2617 12.7199C10.4667 12.695 9.6781 12.7075 8.88309 12.7075C8.83221 12.7075 8.78769 12.7199 8.73045 12.7323C8.73045 12.8318 8.73045 12.9251 8.73045 13.0122C8.73045 13.833 8.73045 14.6601 8.73045 15.481C9.64631 15.481 10.5304 15.5059 11.4144 15.4686C11.9423 15.4499 12.3812 15.2074 12.5274 14.6539C12.5974 14.4487 12.5974 14.2248 12.6228 14.0009Z" fill="#FEFDFD"/>
<path d="M14.6771 17.9374C14.5881 17.2223 14.5563 16.5071 14.7025 15.7919C14.9506 14.5482 15.7838 13.8082 17.0812 13.6465C17.7172 13.5656 18.3405 13.5781 18.9892 13.8206C18.9892 13.4351 18.9892 13.0868 18.9892 12.7323C18.9892 12.3841 18.9892 12.042 18.9892 11.6752C19.4281 11.557 19.8606 11.4388 20.3312 11.3082C20.3312 11.4264 20.3312 11.5197 20.3312 11.6129C20.3312 13.7957 20.3376 15.9723 20.3312 18.1551C20.3312 18.665 20.363 19.1625 20.611 19.6227C20.6301 19.66 20.6047 19.716 20.5983 19.7657C20.2167 19.7657 19.8415 19.772 19.4599 19.7471C19.3708 19.7409 19.25 19.66 19.2055 19.5792C19.1292 19.4362 19.0974 19.262 19.0401 19.0941C18.8048 19.2558 18.5885 19.4237 18.3532 19.5667C17.0622 20.3565 15.2623 19.716 14.7916 18.2981C14.7471 18.1924 14.7152 18.0618 14.6771 17.9374ZM18.9701 15.2945C19.0338 15.1079 18.9701 15.0022 18.7793 14.94C18.3342 14.7845 17.8763 14.7472 17.4119 14.7845C16.5342 14.8591 15.9618 15.4686 15.9809 16.333C15.9873 16.7621 15.9555 17.1911 16 17.614C16.0954 18.4723 16.725 18.9013 17.5709 18.7023C18.1243 18.5717 18.5504 18.2421 18.932 17.8442C18.9701 17.8068 18.9829 17.7384 18.9829 17.6887C18.9765 16.8927 18.9765 16.0905 18.9701 15.2945Z" fill="#FEFCFB"/>
<path d="M22.0166 19.7409C22.0166 18.2048 22.0103 16.675 22.0103 15.139C22.0103 15.0395 22.0103 14.9338 22.0103 14.828C21.7368 14.8156 21.4951 14.8032 21.2534 14.7907C21.2534 14.4549 21.2534 14.1191 21.2534 13.7522C21.5079 13.7522 21.7432 13.7522 22.0166 13.7522C22.0166 13.5283 22.0103 13.3356 22.0166 13.1428C22.0484 11.7684 22.8562 11.1155 24.2299 11.3829C24.6815 11.4699 24.5925 11.3953 24.5988 11.8057C24.6052 12.0296 24.5988 12.2473 24.5988 12.4712C24.408 12.4773 24.2172 12.4773 24.0264 12.496C23.5812 12.5396 23.3777 12.7696 23.3841 13.2112C23.3841 13.3791 23.3841 13.547 23.3841 13.7398C23.7657 13.7398 24.1409 13.7398 24.5289 13.7398C24.5034 13.8579 24.478 13.9512 24.4589 14.0445C24.4271 14.1378 24.389 14.2311 24.3572 14.3243C24.1918 14.8156 24.1918 14.8218 23.6703 14.8218C23.3523 14.8218 23.3523 14.8218 23.3777 15.139C23.3777 16.6688 23.3714 18.2048 23.3714 19.7346C22.9134 19.7409 22.4619 19.7409 22.0166 19.7409Z" fill="#FEFBFB"/>
<path d="M3.02543 8.14291C3.92856 8.14912 4.83169 8.15534 5.73482 8.16156C5.67122 8.24862 5.61398 8.3419 5.54402 8.41653C4.84441 9.10682 4.1448 9.79086 3.43883 10.4749C3.29891 10.6118 3.15263 10.7423 3.00635 10.8792C3.01271 9.97124 3.01907 9.05708 3.02543 8.14291Z" fill="#C64F45"/>
<path d="M14.6771 17.9374C14.7152 18.0618 14.7534 18.1862 14.7916 18.3105C15.2622 19.7222 17.0621 20.3689 18.3532 19.5792C18.5885 19.4362 18.8048 19.2683 19.0401 19.1065C19.091 19.2744 19.1228 19.4423 19.2054 19.5916C19.25 19.6725 19.3708 19.7533 19.4599 19.7595C19.8351 19.7782 20.2167 19.772 20.5983 19.7782C20.6047 19.8528 20.6047 19.9274 20.611 20.058C20.3948 20.058 20.1913 20.058 19.9877 20.058C19.2882 20.058 19.2882 20.058 19.021 19.4237C18.9447 19.4797 18.8747 19.5294 18.8111 19.5854C17.6282 20.6177 15.9745 20.2633 15.2559 19.4175C14.8806 18.9821 14.6835 18.4971 14.6771 17.9374Z" fill="#FD7467"/>
<path d="M8.7368 17.0792C8.7368 16.9922 8.7368 16.8989 8.7368 16.7745C8.8322 16.7745 8.92758 16.7745 9.01663 16.7745C9.84343 16.7745 10.6703 16.7994 11.4971 16.7621C11.885 16.7497 12.2921 16.6813 12.6482 16.5382C13.3542 16.2646 13.6976 15.6676 13.8884 14.9773C13.9203 14.8591 13.9521 14.741 13.9839 14.6228C13.933 15.935 13.1571 17.0419 11.6433 17.0668C10.6766 17.0855 9.70989 17.073 8.7368 17.0792Z" fill="#FD7064"/>
<path d="M7.35665 19.7533C7.81458 19.7533 8.26614 19.7533 8.72407 19.7471C8.71771 20.0829 8.71771 20.0829 8.3679 20.0829C8.13894 20.0829 7.91634 20.0829 7.68738 20.0829C7.36937 20.0829 7.36937 20.0829 7.35665 19.7533Z" fill="#FE796C"/>
<path d="M22.0166 19.7409C22.4682 19.7409 22.9134 19.7346 23.365 19.7346C23.365 20.0704 23.3586 20.0829 23.0152 20.0891C22.7989 20.0891 22.5763 20.0953 22.3601 20.0891C22.0484 20.0767 22.023 20.0518 22.0166 19.7409Z" fill="#FD776B"/>
<path d="M23.3777 13.2112C23.3713 12.7759 23.5812 12.5396 24.02 12.496C24.2109 12.4773 24.4017 12.4773 24.5925 12.4712C24.5798 12.8007 24.5798 12.8194 24.2554 12.8007C23.8738 12.7759 23.5812 12.894 23.3777 13.2112Z" fill="#FB7569"/>
<path d="M23.3713 15.139C23.3459 14.8219 23.3459 14.8219 23.6639 14.8219C24.1854 14.8219 24.1854 14.8219 24.3508 14.3243C24.3826 14.2311 24.4207 14.1378 24.4525 14.0445C24.4652 14.1004 24.5034 14.1627 24.4843 14.2124C24.408 14.4611 24.338 14.7161 24.2299 14.9524C24.1918 15.0333 24.0645 15.1079 23.9692 15.1203C23.7784 15.1577 23.5749 15.139 23.3713 15.139Z" fill="#FB6F62"/>
<path d="M21.247 14.797C21.4887 14.8094 21.7304 14.8219 22.0039 14.8343C22.0039 14.94 22.0039 15.0395 22.0039 15.1452C21.8703 15.1452 21.7368 15.139 21.6032 15.139C21.2534 15.1328 21.2534 15.1328 21.247 14.797Z" fill="#FE7B6F"/>
<path d="M12.6228 14.0009C12.5974 14.2186 12.5974 14.4487 12.5401 14.6601C12.3875 15.2074 11.955 15.4499 11.4271 15.4748C10.5431 15.5121 9.65263 15.4872 8.74315 15.4872C8.74315 14.6601 8.74315 13.8393 8.74315 13.0184C9.54449 13.0184 10.3459 13.0122 11.1473 13.0184C11.9932 13.0122 12.3302 13.2423 12.6228 14.0009Z" fill="#E14C3F"/>
<path d="M12.6228 14.0009C12.3302 13.2423 11.9932 13.0122 11.1409 13.006C10.3396 13.006 9.53817 13.006 8.7368 13.006C8.7368 12.9189 8.7368 12.8256 8.7368 12.7261C8.79404 12.7199 8.83856 12.7012 8.88944 12.7012C9.68448 12.7012 10.4731 12.6888 11.2681 12.7137C11.5225 12.7199 11.7897 12.7821 12.025 12.8878C12.4956 13.1054 12.6228 13.5283 12.6228 14.0009Z" fill="#FD7164"/>
<path d="M18.9701 15.2945C18.9765 16.0967 18.9829 16.8927 18.9829 17.6949C18.9829 17.7508 18.9638 17.8131 18.932 17.8503C18.5504 18.2421 18.1243 18.5779 17.5709 18.7086C16.7314 18.9075 16.1018 18.4784 16 17.6203C15.9491 17.1974 15.9873 16.7683 15.9809 16.3392C16.2163 15.4001 16.8268 14.9959 17.9907 15.0954C18.3151 15.1203 18.6395 15.2261 18.9701 15.2945Z" fill="#E14C40"/>
<path d="M18.9701 15.2945C18.6458 15.2261 18.3214 15.1203 17.9843 15.0893C16.8205 14.9898 16.2099 15.3877 15.9746 16.333C15.9555 15.4686 16.5279 14.8591 17.4056 14.7845C17.8763 14.741 18.3278 14.7845 18.773 14.94C18.9638 15.0022 19.0338 15.1079 18.9701 15.2945Z" fill="#FD7366"/>
</svg>
