<svg id="Layer_2" data-name="Layer 2" xmlns="http://www.w3.org/2000/svg" viewBox="0 0 32 32"><defs><style>.cls-1{fill:#fff;}.cls-2{fill:#319b5e;}.cls-3{fill:#b7b7b7;}.cls-4{opacity:0.2;}.cls-5{fill:#ff0;}.cls-6{opacity:0.25;}</style></defs><g id="png"><rect class="cls-1" x="2.24" y="2.24" width="27.52" height="27.52" rx="0.81"/><path class="cls-2" d="M29,2.48a.58.58,0,0,1,.57.57V29a.58.58,0,0,1-.57.57H3.05A.58.58,0,0,1,2.48,29V3.05a.58.58,0,0,1,.57-.57H29M29,2H3.05a1,1,0,0,0-1,1V29a1,1,0,0,0,1,1.05H29A1,1,0,0,0,30,29V3.05A1,1,0,0,0,29,2Z"/><path class="cls-1" d="M3,2.48H4.41a0,0,0,0,1,0,0V4.41a0,0,0,0,1,0,0H2.48a0,0,0,0,1,0,0V3A.56.56,0,0,1,3,2.48Z"/><rect class="cls-3" x="4.41" y="2.48" width="1.93" height="1.93"/><rect class="cls-1" x="6.34" y="2.48" width="1.93" height="1.93"/><rect class="cls-3" x="8.28" y="2.48" width="1.93" height="1.93"/><rect class="cls-1" x="10.21" y="2.48" width="1.93" height="1.93"/><rect class="cls-3" x="12.14" y="2.48" width="1.93" height="1.93"/><rect class="cls-1" x="14.07" y="2.48" width="1.93" height="1.93"/><rect class="cls-3" x="16" y="2.48" width="1.93" height="1.93"/><rect class="cls-1" x="17.93" y="2.48" width="1.93" height="1.93"/><rect class="cls-3" x="19.86" y="2.48" width="1.93" height="1.93"/><rect class="cls-1" x="21.79" y="2.48" width="1.93" height="1.93"/><rect class="cls-3" x="23.72" y="2.48" width="1.93" height="1.93"/><rect class="cls-1" x="25.66" y="2.48" width="1.93" height="1.93"/><path class="cls-3" d="M27.59,2.48H29a.5.5,0,0,1,.5.5V4.41a0,0,0,0,1,0,0H27.59a0,0,0,0,1,0,0V2.48A0,0,0,0,1,27.59,2.48Z"/><rect class="cls-3" x="2.48" y="4.41" width="1.93" height="1.93"/><rect class="cls-1" x="4.41" y="4.41" width="1.93" height="1.93"/><rect class="cls-3" x="6.34" y="4.41" width="1.93" height="1.93"/><rect class="cls-1" x="8.28" y="4.41" width="1.93" height="1.93"/><rect class="cls-3" x="10.21" y="4.41" width="1.93" height="1.93"/><rect class="cls-1" x="12.14" y="4.41" width="1.93" height="1.93"/><rect class="cls-3" x="14.07" y="4.41" width="1.93" height="1.93"/><rect class="cls-1" x="16" y="4.41" width="1.93" height="1.93"/><rect class="cls-3" x="17.93" y="4.41" width="1.93" height="1.93"/><rect class="cls-1" x="19.86" y="4.41" width="1.93" height="1.93"/><rect class="cls-3" x="21.79" y="4.41" width="1.93" height="1.93"/><rect class="cls-1" x="23.72" y="4.41" width="1.93" height="1.93"/><rect class="cls-3" x="25.66" y="4.41" width="1.93" height="1.93"/><rect class="cls-1" x="27.59" y="4.41" width="1.93" height="1.93"/><rect class="cls-1" x="2.48" y="6.34" width="1.93" height="1.93"/><rect class="cls-3" x="4.41" y="6.34" width="1.93" height="1.93"/><rect class="cls-1" x="6.34" y="6.34" width="1.93" height="1.93"/><rect class="cls-3" x="8.28" y="6.34" width="1.93" height="1.93"/><rect class="cls-1" x="10.21" y="6.34" width="1.93" height="1.93"/><rect class="cls-3" x="12.14" y="6.34" width="1.93" height="1.93"/><rect class="cls-1" x="14.07" y="6.34" width="1.93" height="1.93"/><rect class="cls-3" x="16" y="6.34" width="1.93" height="1.93"/><rect class="cls-1" x="17.93" y="6.34" width="1.93" height="1.93"/><rect class="cls-3" x="19.86" y="6.34" width="1.93" height="1.93"/><rect class="cls-1" x="21.79" y="6.34" width="1.93" height="1.93"/><rect class="cls-3" x="23.72" y="6.34" width="1.93" height="1.93"/><rect class="cls-1" x="25.66" y="6.34" width="1.93" height="1.93"/><rect class="cls-3" x="27.59" y="6.34" width="1.93" height="1.93"/><rect class="cls-3" x="2.48" y="8.28" width="1.93" height="1.93"/><rect class="cls-1" x="4.41" y="8.28" width="1.93" height="1.93"/><rect class="cls-3" x="6.34" y="8.28" width="1.93" height="1.93"/><rect class="cls-1" x="8.28" y="8.28" width="1.93" height="1.93"/><rect class="cls-3" x="10.21" y="8.28" width="1.93" height="1.93"/><rect class="cls-1" x="12.14" y="8.28" width="1.93" height="1.93"/><rect class="cls-3" x="14.07" y="8.28" width="1.93" height="1.93"/><rect class="cls-1" x="16" y="8.28" width="1.93" height="1.93"/><rect class="cls-3" x="17.93" y="8.28" width="1.93" height="1.93"/><rect class="cls-1" x="19.86" y="8.28" width="1.93" height="1.93"/><rect class="cls-3" x="21.79" y="8.28" width="1.93" height="1.93"/><rect class="cls-1" x="23.72" y="8.28" width="1.93" height="1.93"/><rect class="cls-3" x="25.66" y="8.28" width="1.93" height="1.93"/><rect class="cls-1" x="27.59" y="8.28" width="1.93" height="1.93"/><rect class="cls-1" x="2.48" y="10.21" width="1.93" height="1.93"/><rect class="cls-3" x="4.41" y="10.21" width="1.93" height="1.93"/><rect class="cls-1" x="6.34" y="10.21" width="1.93" height="1.93"/><rect class="cls-3" x="8.28" y="10.21" width="1.93" height="1.93"/><rect class="cls-1" x="10.21" y="10.21" width="1.93" height="1.93"/><rect class="cls-3" x="12.14" y="10.21" width="1.93" height="1.93"/><rect class="cls-1" x="14.07" y="10.21" width="1.93" height="1.93"/><rect class="cls-3" x="16" y="10.21" width="1.93" height="1.93"/><rect class="cls-1" x="17.93" y="10.21" width="1.93" height="1.93"/><rect class="cls-3" x="19.86" y="10.21" width="1.93" height="1.93"/><rect class="cls-1" x="21.79" y="10.21" width="1.93" height="1.93"/><rect class="cls-3" x="23.72" y="10.21" width="1.93" height="1.93"/><rect class="cls-1" x="25.66" y="10.21" width="1.93" height="1.93"/><rect class="cls-3" x="27.59" y="10.21" width="1.93" height="1.93"/><rect class="cls-3" x="2.48" y="12.14" width="1.93" height="1.93"/><rect class="cls-1" x="4.41" y="12.14" width="1.93" height="1.93"/><rect class="cls-3" x="6.34" y="12.14" width="1.93" height="1.93"/><rect class="cls-1" x="8.28" y="12.14" width="1.93" height="1.93"/><rect class="cls-3" x="10.21" y="12.14" width="1.93" height="1.93"/><rect class="cls-1" x="12.14" y="12.14" width="1.93" height="1.93"/><rect class="cls-3" x="14.07" y="12.14" width="1.93" height="1.93"/><rect class="cls-1" x="16" y="12.14" width="1.93" height="1.93"/><rect class="cls-3" x="17.93" y="12.14" width="1.93" height="1.93"/><rect class="cls-1" x="19.86" y="12.14" width="1.93" height="1.93"/><rect class="cls-3" x="21.79" y="12.14" width="1.93" height="1.93"/><rect class="cls-1" x="23.72" y="12.14" width="1.93" height="1.93"/><rect class="cls-3" x="25.66" y="12.14" width="1.93" height="1.93"/><rect class="cls-1" x="27.59" y="12.14" width="1.93" height="1.93"/><rect class="cls-1" x="2.48" y="14.07" width="1.93" height="1.93"/><rect class="cls-3" x="4.41" y="14.07" width="1.93" height="1.93"/><rect class="cls-1" x="6.34" y="14.07" width="1.93" height="1.93"/><rect class="cls-3" x="8.28" y="14.07" width="1.93" height="1.93"/><rect class="cls-1" x="10.21" y="14.07" width="1.93" height="1.93"/><rect class="cls-3" x="12.14" y="14.07" width="1.93" height="1.93"/><rect class="cls-1" x="14.07" y="14.07" width="1.93" height="1.93"/><rect class="cls-3" x="16" y="14.07" width="1.93" height="1.93"/><rect class="cls-1" x="17.93" y="14.07" width="1.93" height="1.93"/><rect class="cls-3" x="19.86" y="14.07" width="1.93" height="1.93"/><rect class="cls-1" x="21.79" y="14.07" width="1.93" height="1.93"/><rect class="cls-3" x="23.72" y="14.07" width="1.93" height="1.93"/><rect class="cls-1" x="25.66" y="14.07" width="1.93" height="1.93"/><rect class="cls-3" x="27.59" y="14.07" width="1.93" height="1.93"/><rect class="cls-3" x="2.48" y="16" width="1.93" height="1.93"/><rect class="cls-1" x="4.41" y="16" width="1.93" height="1.93"/><rect class="cls-3" x="6.34" y="16" width="1.93" height="1.93"/><rect class="cls-1" x="8.28" y="16" width="1.93" height="1.93"/><rect class="cls-3" x="10.21" y="16" width="1.93" height="1.93"/><rect class="cls-1" x="12.14" y="16" width="1.93" height="1.93"/><rect class="cls-3" x="14.07" y="16" width="1.93" height="1.93"/><rect class="cls-1" x="16" y="16" width="1.93" height="1.93"/><rect class="cls-3" x="17.93" y="16" width="1.93" height="1.93"/><rect class="cls-1" x="19.86" y="16" width="1.93" height="1.93"/><rect class="cls-3" x="21.79" y="16" width="1.93" height="1.93"/><rect class="cls-1" x="23.72" y="16" width="1.93" height="1.93"/><rect class="cls-3" x="25.66" y="16" width="1.93" height="1.93"/><rect class="cls-1" x="27.59" y="16" width="1.93" height="1.93"/><rect class="cls-1" x="2.48" y="17.93" width="1.93" height="1.93"/><rect class="cls-3" x="4.41" y="17.93" width="1.93" height="1.93"/><rect class="cls-1" x="6.34" y="17.93" width="1.93" height="1.93"/><rect class="cls-3" x="8.28" y="17.93" width="1.93" height="1.93"/><rect class="cls-1" x="10.21" y="17.93" width="1.93" height="1.93"/><rect class="cls-3" x="12.14" y="17.93" width="1.93" height="1.93"/><rect class="cls-1" x="14.07" y="17.93" width="1.93" height="1.93"/><rect class="cls-3" x="16" y="17.93" width="1.93" height="1.93"/><rect class="cls-1" x="17.93" y="17.93" width="1.93" height="1.93"/><rect class="cls-3" x="19.86" y="17.93" width="1.93" height="1.93"/><rect class="cls-1" x="21.79" y="17.93" width="1.93" height="1.93"/><rect class="cls-3" x="23.72" y="17.93" width="1.93" height="1.93"/><rect class="cls-1" x="25.66" y="17.93" width="1.93" height="1.93"/><rect class="cls-3" x="27.59" y="17.93" width="1.93" height="1.93"/><rect class="cls-3" x="2.48" y="19.86" width="1.93" height="1.93"/><rect class="cls-1" x="4.41" y="19.86" width="1.93" height="1.93"/><rect class="cls-3" x="6.34" y="19.86" width="1.93" height="1.93"/><rect class="cls-1" x="8.28" y="19.86" width="1.93" height="1.93"/><rect class="cls-3" x="10.21" y="19.86" width="1.93" height="1.93"/><rect class="cls-1" x="12.14" y="19.86" width="1.93" height="1.93"/><rect class="cls-3" x="14.07" y="19.86" width="1.93" height="1.93"/><rect class="cls-1" x="16" y="19.86" width="1.93" height="1.93"/><rect class="cls-3" x="17.93" y="19.86" width="1.93" height="1.93"/><rect class="cls-1" x="19.86" y="19.86" width="1.93" height="1.93"/><rect class="cls-3" x="21.79" y="19.86" width="1.93" height="1.93"/><rect class="cls-1" x="23.72" y="19.86" width="1.93" height="1.93"/><rect class="cls-3" x="25.66" y="19.86" width="1.93" height="1.93"/><rect class="cls-1" x="27.59" y="19.86" width="1.93" height="1.93"/><path class="cls-2" d="M29.52,20.76v8.12a.64.64,0,0,1-.64.64H3.08a.6.6,0,0,1-.6-.6V21.79L9,11.48a2.56,2.56,0,0,1,4.43,0L18,17l1.76-2.8a2.57,2.57,0,0,1,4.43,0Z"/><polygon points="2.49 19.86 2.48 19.88 2.48 19.86 2.49 19.86"/><circle class="cls-4" cx="18.59" cy="8.41" r="2.41"/><circle class="cls-5" cx="19.38" cy="7.79" r="2.41"/><path class="cls-1" d="M11.45,22.9a1.74,1.74,0,0,1-.65,1.45A3,3,0,0,1,9,24.84H8.37v2.08H7V21.08H9.06a3,3,0,0,1,1.78.46A1.59,1.59,0,0,1,11.45,22.9Zm-3.08.93h.44a1.57,1.57,0,0,0,.95-.23.74.74,0,0,0,.31-.65.77.77,0,0,0-.26-.64A1.32,1.32,0,0,0,9,22.1H8.37Z"/><path class="cls-1" d="M18.38,26.92H16.64l-2.8-4.42h0c.06.78.09,1.34.09,1.67v2.75H12.67V21.08h1.72l2.8,4.38h0c0-.76-.07-1.3-.07-1.61V21.08h1.23Z"/><path class="cls-1" d="M22.44,23.64H25v3a8,8,0,0,1-1.17.26,8.32,8.32,0,0,1-1.12.07,3,3,0,0,1-2.23-.78A3,3,0,0,1,19.71,24a2.78,2.78,0,0,1,.9-2.2A3.56,3.56,0,0,1,23.08,21a5.18,5.18,0,0,1,1.91.36l-.45,1A3.57,3.57,0,0,0,23.07,22a1.91,1.91,0,0,0-1.42.54A2,2,0,0,0,21.12,24a2.15,2.15,0,0,0,.43,1.45,1.56,1.56,0,0,0,1.25.5,5.31,5.31,0,0,0,.87-.08V24.67H22.44Z"/></g></svg>