<svg width="32" height="32" viewBox="0 0 32 32" fill="none" xmlns="http://www.w3.org/2000/svg">
<path d="M9.21094 24.7695H9.60938C9.98177 24.7695 10.2604 24.6966 10.4453 24.5508C10.6302 24.4023 10.7227 24.1875 10.7227 23.9062C10.7227 23.6224 10.6445 23.4128 10.4883 23.2773C10.3346 23.1419 10.0924 23.0742 9.76172 23.0742H9.21094V24.7695Z" fill="#0C9855"/>
<path fill-rule="evenodd" clip-rule="evenodd" d="M27 20H5V30H27V20ZM23.9648 24.5859H21.6992V25.5938H22.7812V26.7852C22.5208 26.8372 22.2643 26.8633 22.0117 26.8633C21.5273 26.8633 21.1576 26.7005 20.9023 26.375C20.6497 26.0469 20.5234 25.5729 20.5234 24.9531C20.5234 24.3594 20.681 23.8867 20.9961 23.5352C21.3112 23.1836 21.7305 23.0078 22.2539 23.0078C22.7044 23.0078 23.138 23.112 23.5547 23.3203L23.957 22.3516C23.4128 22.1172 22.8477 22 22.2617 22C21.3268 22 20.5951 22.2578 20.0664 22.7734C19.5404 23.2891 19.2773 24.0078 19.2773 24.9297C19.2773 25.8776 19.5039 26.6055 19.957 27.1133C20.4128 27.6185 21.0716 27.8711 21.9336 27.8711C22.2721 27.8711 22.6029 27.8464 22.9258 27.7969C23.2513 27.75 23.5977 27.6667 23.9648 27.5469V24.5859ZM11.9453 23.8633C11.9453 24.4779 11.7526 24.9479 11.3672 25.2734C10.9844 25.599 10.4388 25.7617 9.73047 25.7617H9.21094V27.793H8V22.082H9.82422C10.5169 22.082 11.043 22.2318 11.4023 22.5312C11.7643 22.8281 11.9453 23.2721 11.9453 23.8633ZM18.0898 27.793H16.5508L14.0664 23.4727H14.0312C14.0807 24.2357 14.1055 24.7799 14.1055 25.1055V27.793H13.0234V22.082H14.5508L17.0312 26.3594H17.0586C17.0195 25.6172 17 25.0924 17 24.7852V22.082H18.0898V27.793Z" fill="#0C9855"/>
<path fill-rule="evenodd" clip-rule="evenodd" d="M27 8L20.7143 2H5V30H27V8ZM26.4762 29.5V8.20711L20.4973 2.5H5.52381V29.5H26.4762Z" fill="black"/>
<path fill-rule="evenodd" clip-rule="evenodd" d="M26.4762 8.49609L20.1912 8.49609L20.1912 2.3251L20.7151 2.3251L20.7151 7.99609L26.4762 7.99609L26.4762 8.49609Z" fill="black"/>
<rect x="10" y="14" width="2" height="2" fill="#969696"/>
<rect x="14" y="14" width="2" height="2" fill="#969696"/>
<rect x="18" y="14" width="2" height="2" fill="#969696"/>
<rect x="22" y="14" width="2" height="2" fill="#969696"/>
<rect x="8" y="12" width="2" height="2" fill="#969696"/>
<rect x="12" y="12" width="2" height="2" fill="#969696"/>
<rect x="16" y="12" width="2" height="2" fill="#969696"/>
<rect x="20" y="12" width="2" height="2" fill="#969696"/>
<rect x="8" y="16" width="2" height="2" fill="#969696"/>
<rect x="12" y="16" width="2" height="2" fill="#969696"/>
<rect x="16" y="16" width="2" height="2" fill="#969696"/>
<rect x="20" y="16" width="2" height="2" fill="#969696"/>
<rect x="10" y="10" width="2" height="2" fill="#969696"/>
<rect x="14" y="10" width="2" height="2" fill="#969696"/>
<rect x="18" y="10" width="2" height="2" fill="#969696"/>
<rect x="22" y="10" width="2" height="2" fill="#969696"/>
</svg>
