<svg width="32" height="32" viewBox="0 0 32 32" fill="none" xmlns="http://www.w3.org/2000/svg">
<path d="M7 2C12.9854 2 17.0516 2 22 2C22.8894 2.88937 23 3 25 5C27 7 28 8 28 8V30H7V2Z" fill="white"/>
<path fill-rule="evenodd" clip-rule="evenodd" d="M28 8L22 2H7V30H28V8ZM27.5 29.5V8.20711L21.7929 2.5H7.5V29.5H27.5Z" fill="#9A9999"/>
<path fill-rule="evenodd" clip-rule="evenodd" d="M27.5 8.49609L21.5007 8.49609L21.5007 2.3251L22.0007 2.3251L22.0007 7.99609L27.5 7.99609L27.5 8.49609Z" fill="#9A9999"/>
<path d="M22.6827 11.455C22.6827 12.4439 22.3895 13.4106 21.8401 14.2329C21.2907 15.0551 20.5098 15.696 19.5961 16.0744C18.6825 16.4529 17.6772 16.5519 16.7073 16.3589C15.7374 16.166 14.8465 15.6898 14.1472 14.9906C13.4479 14.2913 12.9717 13.4004 12.7788 12.4305C12.5859 11.4606 12.6849 10.4552 13.0633 9.5416C13.4418 8.62797 14.0826 7.84708 14.9049 7.29767C15.7271 6.74826 16.6938 6.45502 17.6827 6.45502L17.6827 11.455H22.6827Z" fill="#9A9999"/>
<path d="M18.3042 5.46449C19.6303 5.46331 20.9025 5.98897 21.841 6.92582C22.7795 7.86268 23.3075 9.13398 23.3086 10.4601L18.3086 10.4645L18.3042 5.46449Z" fill="#F3B79A"/>
<line x1="25.5763" y1="19.1288" x2="12.4011" y2="19.1288" stroke="#F3B79A"/>
<line x1="25.5763" y1="21.7889" x2="12.4011" y2="21.7889" stroke="#F3B79A"/>
<line x1="25.5763" y1="24.4489" x2="12.4011" y2="24.4489" stroke="#F3B79A"/>
<line x1="25.5763" y1="27.109" x2="12.4011" y2="27.109" stroke="#F3B79A"/>
<line x1="10.6118" y1="27.109" x2="9.6118" y2="27.109" stroke="#F3B79A"/>
<path d="M4 12.1445L15 10.7148V27.0547L4 25.6562V12.1445Z" fill="#CE4525"/>
<path d="M9.43524 16.2899H7.61208V21.5766H8.74494V19.7553H9.33101C9.95598 19.7553 10.4548 19.5907 10.8283 19.2629C11.2014 18.9348 11.3887 18.505 11.3879 17.9745C11.3883 16.8514 10.7369 16.2899 9.43524 16.2899ZM9.23359 18.8521H8.74494V17.2041H9.23359C9.85326 17.2041 10.1629 17.476 10.1629 18.019C10.1629 18.5749 9.85326 18.8521 9.23359 18.8521Z" fill="white"/>
</svg>
