<svg width="32" height="32" viewBox="0 0 32 32" fill="none" xmlns="http://www.w3.org/2000/svg">
<path d="M19.1395 17.4L17.0465 2H16.8902C9.27947 2.02229 3.11524 8.20706 3.09302 15.8432V16L19.1395 17.4Z" fill="#ED6C47"/>
<path d="M17.2028 2H17.0465V16L24.0233 18.8L31 16V15.8432C30.9778 8.20706 24.8136 2.02229 17.2028 2Z" fill="#FF8F6B"/>
<path d="M31 16V16.154C30.9782 23.7918 24.8125 29.9781 17.2 30H16.893C9.28056 29.9781 3.11487 23.7918 3.09302 16.154V16H31Z" fill="#D35230"/>
<path opacity="0.1" d="M17.7442 8.88099V23.819C17.7407 24.3381 17.4272 24.8044 16.9488 25.002C16.7965 25.0666 16.6328 25.1 16.4674 25.1H6.38605C6.1907 24.876 6.00233 24.638 5.82791 24.4C4.05044 22.0209 3.09071 19.1273 3.09302 16.154V15.846C3.08894 13.1642 3.87012 10.5402 5.33953 8.29998C5.49302 8.06198 5.65348 7.82398 5.82791 7.59998H16.4674C17.1704 7.60533 17.7389 8.17574 17.7442 8.88099Z" fill="black"/>
<path opacity="0.2" d="M17.0465 9.58101V24.519C17.0465 24.6849 17.0133 24.8492 16.9488 25.002C16.7519 25.482 16.2871 25.7965 15.7698 25.8H7.02092C6.80018 25.5752 6.58838 25.3416 6.38603 25.1C6.19068 24.876 6.00232 24.638 5.82789 24.4C4.05042 22.021 3.0907 19.1273 3.09301 16.154V15.846C3.08893 13.1642 3.87011 10.5402 5.33952 8.3H15.7698C16.4727 8.30533 17.0412 8.87574 17.0465 9.58101Z" fill="black"/>
<path opacity="0.2" d="M17.0465 9.58101V23.119C17.0412 23.8243 16.4727 24.3947 15.7698 24.4H5.82791C4.05044 22.021 3.09071 19.1273 3.09302 16.154V15.846C3.08894 13.1642 3.87012 10.5402 5.33953 8.30001H15.7698C16.4727 8.30533 17.0412 8.87574 17.0465 9.58101Z" fill="black"/>
<path opacity="0.2" d="M16.3488 9.58101V23.119C16.3435 23.8243 15.775 24.3947 15.0721 24.4H5.82791C4.05044 22.021 3.09071 19.1273 3.09302 16.154V15.846C3.08894 13.1642 3.87012 10.5402 5.33953 8.30001H15.0721C15.775 8.30533 16.3435 8.87574 16.3488 9.58101Z" fill="black"/>
<path d="M2.27883 8.3H15.07C15.7763 8.3 16.3488 8.87447 16.3488 9.58309V22.4169C16.3488 23.1255 15.7763 23.7 15.07 23.7H2.27883C1.57256 23.7 1 23.1255 1 22.4169V9.58309C1 8.87447 1.57256 8.3 2.27883 8.3Z" fill="url(#paint0_linear_2_31)"/>
<path d="M8.81395 11.7223C9.64662 11.6659 10.4721 11.9086 11.1428 12.4069C11.7022 12.908 12.0011 13.6391 11.9535 14.39C11.9626 14.912 11.824 15.4258 11.5537 15.8719C11.2801 16.3103 10.8859 16.6599 10.4186 16.8785C9.88442 17.1278 9.30039 17.2509 8.71139 17.2383H7.09349V20.2553H5.43651V11.7223H8.81395ZM7.0921 15.9349H8.51815C8.97024 15.9682 9.41881 15.834 9.77885 15.5576C10.0766 15.271 10.2327 14.8668 10.2051 14.4537C10.2051 13.5134 9.66048 13.0432 8.57118 13.0432H7.09211V15.9349H7.0921Z" fill="white"/>
<defs>
<linearGradient id="paint0_linear_2_31" x1="3.6664" y1="7.29741" x2="13.7325" y2="24.6736" gradientUnits="userSpaceOnUse">
<stop stop-color="#CA4C28"/>
<stop offset="0.5" stop-color="#C5401E"/>
<stop offset="1" stop-color="#B62F14"/>
</linearGradient>
</defs>
</svg>
