<svg id="Layer_2" data-name="Layer 2" xmlns="http://www.w3.org/2000/svg" viewBox="0 0 32 32"><defs><style>.cls-1{fill:#03a9f4;}.cls-2{fill:#020f16;}.cls-3{opacity:0.25;}</style></defs><g id="psd"><path class="cls-1" d="M2,5.11A3.11,3.11,0,0,1,5.11,2H26.89A3.11,3.11,0,0,1,30,5.11V26.89A3.11,3.11,0,0,1,26.89,30H5.11A3.11,3.11,0,0,1,2,26.89Z"/><path class="cls-2" d="M12.9,12.25H11.34V15.7h1.54a1.23,1.23,0,0,0,1-.42,1.89,1.89,0,0,0,.35-1.22,2.2,2.2,0,0,0-.36-1.32A1.15,1.15,0,0,0,12.9,12.25Z"/><path class="cls-2" d="M3,4.91V27.09A1.9,1.9,0,0,0,4.91,29H27.09A1.9,1.9,0,0,0,29,27.09V4.91A1.9,1.9,0,0,0,27.09,3H4.91A1.9,1.9,0,0,0,3,4.91ZM15.45,16.68a4.09,4.09,0,0,1-3,1.05H10.81v4.34H8.32V9.74h4.2a3.86,3.86,0,0,1,2.92,1.14,4.09,4.09,0,0,1,1.09,2.94A3.8,3.8,0,0,1,15.45,16.68Zm8.07,4.81a3.7,3.7,0,0,1-2.42.75,3.85,3.85,0,0,1-1.77-.4,3,3,0,0,1-1.21-1.09,2.86,2.86,0,0,1-.44-1.52H20a1.46,1.46,0,0,0,.29.94,1.16,1.16,0,0,0,.9.31c.65,0,1-.29,1-.87a.76.76,0,0,0-.29-.56,6.34,6.34,0,0,0-1.3-.7,5.39,5.39,0,0,1-2-1.24,2.38,2.38,0,0,1-.55-1.6,2.56,2.56,0,0,1,.87-2,3.28,3.28,0,0,1,2.29-.78,3.55,3.55,0,0,1,2.41.78,2.59,2.59,0,0,1,.91,2.09H22c0-.75-.31-1.12-.94-1.12a.84.84,0,0,0-.62.24.86.86,0,0,0-.25.66.71.71,0,0,0,.27.54,6.46,6.46,0,0,0,1.28.66,5.14,5.14,0,0,1,2.07,1.21,2.63,2.63,0,0,1-.32,3.69Z"/></g></svg>