<svg id="Layer_2" data-name="Layer 2" xmlns="http://www.w3.org/2000/svg" viewBox="0 0 32 32"><defs><style>.cls-1{fill:#fff;}.cls-2,.cls-3{fill:#30b774;}.cls-3{fill-rule:evenodd;}.cls-4{fill:#41a5ee;}.cls-5{fill:#e8457c;}.cls-6{fill:#33c481;}.cls-7{opacity:0.05;}.cls-7,.cls-8{isolation:isolate;}.cls-8{opacity:0.07;}.cls-9{fill:#f8c819;}.cls-10{fill:#eaad29;}.cls-11{fill:#e6e6e6;}</style></defs><g id="rar"><rect class="cls-1" x="2.24" y="2.24" width="27.52" height="27.48" rx="0.85"/><path class="cls-2" d="M29,2.48a.57.57,0,0,1,.57.57V28.86a.62.62,0,0,1-.62.62H3.1a.62.62,0,0,1-.62-.62V3.09a.62.62,0,0,1,.61-.61H29M29,2H3.1A1.1,1.1,0,0,0,2,3.1V28.87A1.09,1.09,0,0,0,3.09,30H28.9a1.1,1.1,0,0,0,1.1-1.1V3.05A1,1,0,0,0,29,2Z"/><path class="cls-3" d="M2.05,19H30A0,0,0,0,1,30,19V29.32a.73.73,0,0,1-.78.68H2.78A.73.73,0,0,1,2,29.32V19A0,0,0,0,1,2.05,19Z"/><path class="cls-4" d="M21,8.31h-9.9a.05.05,0,0,0-.05,0V11.6a.05.05,0,0,0,.05.05H21A.05.05,0,0,0,21,11.6V8.36A.05.05,0,0,0,21,8.31Z"/><path class="cls-5" d="M21,8.31h-9.9A0,0,0,0,1,11,8.26V5.58a.6.6,0,0,1,.6-.6h8.8a.6.6,0,0,1,.6.6V8.26A0,0,0,0,1,21,8.31Z"/><path class="cls-6" d="M20.4,15H11.6a.6.6,0,0,1-.6-.6V11.7a0,0,0,0,1,.05,0H21a0,0,0,0,1,.05,0v2.68A.6.6,0,0,1,20.4,15Z"/><path class="cls-7" d="M17.9,5H14.1a0,0,0,0,0,0,0v9.9a0,0,0,0,0,0,.05h3.8a0,0,0,0,0,0-.05V5A0,0,0,0,0,17.9,5Z"/><path class="cls-8" d="M17.76,5H14.24a.05.05,0,0,0-.05,0v9.9a.05.05,0,0,0,.05.05h3.52a.05.05,0,0,0,0-.05V5A.05.05,0,0,0,17.76,5Z"/><path class="cls-9" d="M17.62,5H14.38a.05.05,0,0,0-.05,0v9.9a.05.05,0,0,0,.05.05h3.24a.05.05,0,0,0,.05-.05V5A.05.05,0,0,0,17.62,5Z"/><path class="cls-10" d="M15.76,6.66a1.76,1.76,0,0,0-1.43,1.78v6.49a.05.05,0,0,0,.05.05h3.24a.05.05,0,0,0,.05-.05V8.31A1.67,1.67,0,0,0,15.76,6.66Z"/><path class="cls-11" d="M18.22,9.7V11a1.16,1.16,0,0,1-1.16,1.16H14.94A1.16,1.16,0,0,1,13.78,11V9.7a.55.55,0,0,1,.55-.55v1.94a.56.56,0,0,0,.56.56h.83v-.84a.28.28,0,0,1,.56,0v.84h.83a.56.56,0,0,0,.56-.56V9.15A.55.55,0,0,1,18.22,9.7Z"/><path class="cls-1" d="M8.77,25.25V27.7H7.41V21.36a.05.05,0,0,1,0-.05H9.27a3.24,3.24,0,0,1,1.93.47,1.91,1.91,0,0,1,.31,2.45,2,2,0,0,1-.87.68c1,1.44,1.58,2.37,1.87,2.79H11s0,0,0,0L9.49,25.25Zm0-1.1H9.2a1.68,1.68,0,0,0,1-.22.75.75,0,0,0,.31-.67.71.71,0,0,0-.32-.65,1.84,1.84,0,0,0-1-.19H8.77Z"/><path class="cls-1" d="M17.21,27.66l-.44-1.45s0,0,0,0H14.47a.05.05,0,0,0-.05,0L14,27.66a0,0,0,0,1,0,0H12.51l2.24-6.38a.07.07,0,0,1,.05,0h1.59a0,0,0,0,1,0,0l2.25,6.38H17.26A.07.07,0,0,1,17.21,27.66ZM16.44,25Q15.8,23,15.72,22.7a3.77,3.77,0,0,1-.12-.42c-.1.37-.37,1.29-.82,2.76Z"/><path class="cls-1" d="M20.84,25.25V27.7H19.49V21.36a0,0,0,0,1,.05-.05h1.81a3.21,3.21,0,0,1,1.92.47,1.7,1.7,0,0,1,.63,1.44,1.77,1.77,0,0,1-.31,1,2,2,0,0,1-.88.68c1,1.44,1.59,2.37,1.88,2.79H23.11s0,0,0,0l-1.51-2.42Zm0-1.1h.44a1.67,1.67,0,0,0,.94-.22.75.75,0,0,0,.31-.67.7.7,0,0,0-.31-.65,1.89,1.89,0,0,0-1-.19h-.41Z"/></g></svg>