<svg width="32" height="32" viewBox="0 0 32 32" fill="none" xmlns="http://www.w3.org/2000/svg">
<path d="M28 12H4V20H28V12Z" fill="#41A5EE"/>
<path d="M28 12H4V5.33333C4 4.59667 4.59667 4 5.33333 4H26.6667C27.4033 4 28 4.59667 28 5.33333V12Z" fill="#E8457C"/>
<path d="M26.6667 28H5.33333C4.59667 28 4 27.4033 4 26.6667V20H28V26.6667C28 27.4033 27.4033 28 26.6667 28Z" fill="#33C481"/>
<path opacity="0.05" d="M20.6667 4H11.3333V28H20.6667V4Z" fill="black"/>
<path opacity="0.07" d="M20.3333 4H11.6667V28H20.3333V4Z" fill="black"/>
<path d="M20 4H12V28H20V4Z" fill="#F8C819"/>
<path d="M16 8C13.7907 8 12 9.79067 12 12V28H20V12C20 9.79067 18.2093 8 16 8Z" fill="#EAAD29"/>
<path d="M21.3333 15.3333V18.6667C21.3333 20.1333 20.1333 21.3333 18.6667 21.3333H13.3333C11.8667 21.3333 10.6667 20.1333 10.6667 18.6667V15.3333C10.6667 14.5967 11.2633 14 12 14V18.6667C12 19.4033 12.5967 20 13.3333 20H15.3333V18C15.3333 17.632 15.632 17.3333 16 17.3333C16.368 17.3333 16.6667 17.632 16.6667 18V20H18.6667C19.4033 20 20 19.4033 20 18.6667V14C20.7333 14 21.3333 14.6 21.3333 15.3333Z" fill="#E6E6E6"/>
</svg>
