<svg id="Layer_2" data-name="Layer 2" xmlns="http://www.w3.org/2000/svg" viewBox="0 0 32 32"><defs><style>.cls-1{fill:#fff;}.cls-2,.cls-3{fill:#108bc0;}.cls-3{fill-rule:evenodd;}.cls-4{fill:#717171;}</style></defs><g id="sql"><path class="cls-1" d="M3,2.24H29a.8.8,0,0,1,.8.8V28.92a.8.8,0,0,1-.8.8H3a.81.81,0,0,1-.81-.81V3A.81.81,0,0,1,3,2.24Z"/><path class="cls-2" d="M29,2.48a.57.57,0,0,1,.57.57V28.91a.57.57,0,0,1-.57.57H3.05a.57.57,0,0,1-.57-.57V3.05a.57.57,0,0,1,.57-.57H29M29,2H3.05a1,1,0,0,0-1,1V28.91a1,1,0,0,0,1,1.05H29A1,1,0,0,0,30,28.91V3.05A1,1,0,0,0,29,2Z"/><path class="cls-3" d="M2,19H30V29.32a.73.73,0,0,1-.78.68H2.78A.73.73,0,0,1,2,29.32Z"/><path class="cls-4" d="M19.84,11.59c-.48.78-2,1.35-3.84,1.35s-3.36-.57-3.84-1.35c-.11-.16-.16-.07-.16,0v1.14c0,1.1,1.79,2.24,4,2.24s4-1.14,4-2.24V11.6C20,11.52,20,11.43,19.84,11.59Zm0-2.9c-.47.68-2,1.18-3.85,1.18s-3.38-.5-3.85-1.18c-.1-.14-.15-.07-.15,0V10c0,1,1.79,1.81,4,1.81S20,11,20,10V8.69C20,8.62,20,8.55,19.85,8.69ZM16,5c-2.21,0-4,.67-4,1.5v.71c0,.88,1.79,1.59,4,1.59s4-.71,4-1.59V6.48C20,5.65,18.21,5,16,5Z"/><path class="cls-1" d="M12.06,25.11a1.4,1.4,0,0,1-.6,1.19,2.88,2.88,0,0,1-1.69.44A4.27,4.27,0,0,1,8,26.4V25.3a7.89,7.89,0,0,0,1.07.36,3.43,3.43,0,0,0,.8.1,1.26,1.26,0,0,0,.67-.15.5.5,0,0,0,.23-.44.48.48,0,0,0-.1-.29,1,1,0,0,0-.31-.25,7.14,7.14,0,0,0-.8-.38,3.87,3.87,0,0,1-.86-.46,1.89,1.89,0,0,1-.46-.52,1.34,1.34,0,0,1-.17-.68,1.39,1.39,0,0,1,.56-1.17A2.55,2.55,0,0,1,10.18,21a4,4,0,0,1,.93.1,7.45,7.45,0,0,1,.92.29l-.42.92a5.52,5.52,0,0,0-.83-.25,2.8,2.8,0,0,0-.64-.08.92.92,0,0,0-.57.16.48.48,0,0,0-.21.41.44.44,0,0,0,.09.27,1,1,0,0,0,.25.23q.18.11.84.39a3.35,3.35,0,0,1,1.2.75A1.34,1.34,0,0,1,12.06,25.11Z"/><path class="cls-1" d="M18.86,23.86a3.2,3.2,0,0,1-.39,1.65,2.31,2.31,0,0,1-1.15,1l1.5,1.5H17.13L16,26.74h-.09a3,3,0,0,1-2.2-.75,2.81,2.81,0,0,1-.77-2.14,2.77,2.77,0,0,1,.77-2.12A3.07,3.07,0,0,1,15.9,21a3,3,0,0,1,2.19.74A2.84,2.84,0,0,1,18.86,23.86Zm-4.56,0a2.16,2.16,0,0,0,.4,1.41,1.46,1.46,0,0,0,1.19.47c1.05,0,1.58-.62,1.58-1.88S16.94,22,15.9,22a1.44,1.44,0,0,0-1.19.47A2.14,2.14,0,0,0,14.3,23.86Z"/><path class="cls-1" d="M20.15,26.66V21.08h1.32v4.6H24v1Z"/></g></svg>