<svg width="32" height="32" viewBox="0 0 32 32" fill="none" xmlns="http://www.w3.org/2000/svg">
<path d="M15.5164 24.4615C15.5164 24.9962 15.6321 25.3988 15.8635 25.6694C16.0949 25.94 16.4408 26.0753 16.9011 26.0753C17.8242 26.0753 18.2858 25.5374 18.2858 24.4615C18.2858 23.3835 17.8267 22.8445 16.9086 22.8445C16.4482 22.8445 16.1011 22.9809 15.8672 23.2537C15.6333 23.5243 15.5164 23.9269 15.5164 24.4615Z" fill="#108BC0"/>
<path fill-rule="evenodd" clip-rule="evenodd" d="M28 20H6V30H28V20ZM19.4988 24.4615C19.4988 25.0245 19.3843 25.497 19.1554 25.8789C18.929 26.2586 18.5956 26.5368 18.1552 26.7136L19.4689 28H17.9872L16.9869 26.9263H16.9011C16.0651 26.9263 15.4231 26.7136 14.9752 26.2881C14.5273 25.8625 14.3034 25.2515 14.3034 24.455C14.3034 23.6585 14.5273 23.0507 14.9752 22.6318C15.4256 22.2106 16.07 22 16.9086 22C17.7471 22 18.3878 22.2117 18.8307 22.635C19.2761 23.0584 19.4988 23.6672 19.4988 24.4615ZM13.5569 25.5319C13.5569 25.964 13.379 26.3044 13.0232 26.5532C12.6699 26.802 12.1772 26.9263 11.5452 26.9263C10.9629 26.9263 10.4479 26.8303 10 26.6383V25.6956C10.3683 25.8396 10.6793 25.9411 10.9331 26C11.1894 26.0589 11.4233 26.0884 11.6348 26.0884C11.8886 26.0884 12.0826 26.0458 12.217 25.9607C12.3539 25.8756 12.4223 25.749 12.4223 25.581C12.4223 25.4872 12.3924 25.4043 12.3327 25.3322C12.273 25.258 12.1847 25.1871 12.0677 25.1195C11.9533 25.0518 11.7181 24.9438 11.3623 24.7954C11.0289 24.6579 10.7788 24.5259 10.6121 24.3993C10.4454 24.2728 10.3123 24.1255 10.2127 23.9574C10.1132 23.7894 10.0634 23.593 10.0634 23.3682C10.0634 22.9449 10.2264 22.6121 10.5524 22.3699C10.8808 22.1277 11.3337 22.0065 11.911 22.0065C12.1946 22.0065 12.4646 22.036 12.7209 22.0949C12.9796 22.1538 13.2496 22.2368 13.5308 22.3437L13.1576 23.1326C12.8664 23.0278 12.6251 22.9547 12.4335 22.9133C12.2444 22.8718 12.0578 22.8511 11.8736 22.8511C11.6547 22.8511 11.4867 22.8958 11.3698 22.9853C11.2528 23.0747 11.1943 23.1915 11.1943 23.3355C11.1943 23.425 11.218 23.5035 11.2653 23.5712C11.3125 23.6367 11.3872 23.701 11.4892 23.7643C11.5937 23.8254 11.8388 23.9367 12.2245 24.0982C12.7346 24.3121 13.0842 24.527 13.2733 24.743C13.4624 24.9569 13.5569 25.2199 13.5569 25.5319ZM20.6297 22.0753V26.8609H24V26.0229H21.7867V22.0753H20.6297Z" fill="#108BC0"/>
<path fill-rule="evenodd" clip-rule="evenodd" d="M28 8L21.7143 2H6V30H28V8ZM27.4762 29.5V8.20711L21.4973 2.5H6.52381V29.5H27.4762Z" fill="black"/>
<path fill-rule="evenodd" clip-rule="evenodd" d="M27.4762 8.4961L21.1913 8.4961L21.1913 2.3251L21.7151 2.3251L21.7151 7.9961L27.4762 7.9961L27.4762 8.4961Z" fill="black"/>
<path d="M19.7934 14.6142C19.3117 15.3886 17.7734 15.9557 15.95 15.9557C14.1266 15.9557 12.5883 15.3886 12.106 14.6142C12.0043 14.4494 11.95 14.5375 11.95 14.6182V15.7557C11.95 16.858 13.7409 18 15.95 18C18.1591 18 19.95 16.858 19.95 15.7562V14.6188C19.95 14.5375 19.8951 14.4494 19.7934 14.6142V14.6142ZM19.7997 11.7074C19.3254 12.392 17.7814 12.8949 15.95 12.8949C14.1186 12.8949 12.574 12.392 12.0997 11.7074C12.002 11.5665 11.95 11.6432 11.95 11.7062V13.0455C11.95 14.0466 13.7409 14.8574 15.95 14.8574C18.1591 14.8574 19.95 14.046 19.95 13.0455V11.7062C19.95 11.6432 19.8974 11.5665 19.7997 11.7074V11.7074ZM15.95 8C13.7409 8 11.95 8.67045 11.95 9.49602V10.2119C11.95 11.0875 13.7409 11.7977 15.95 11.7977C18.1591 11.7977 19.95 11.0875 19.95 10.2119V9.49602C19.95 8.67045 18.1591 8 15.95 8Z" fill="#075070"/>
</svg>
