<svg id="Layer_2" data-name="Layer 2" xmlns="http://www.w3.org/2000/svg" viewBox="0 0 32 32"><defs><style>.cls-1{fill:#fff;}.cls-2,.cls-3{fill:#b14b4b;}.cls-3,.cls-4{fill-rule:evenodd;}.cls-4{fill:#aaa;}.cls-5{fill:#383838;}.cls-6{opacity:0.25;}</style></defs><g id="svg"><g id="html"><path class="cls-1" d="M3,2.24H29a.8.8,0,0,1,.8.8V28.92a.8.8,0,0,1-.8.8H3a.81.81,0,0,1-.81-.81V3A.81.81,0,0,1,3,2.24Z"/><path class="cls-2" d="M29,2.48a.57.57,0,0,1,.57.57V28.91a.57.57,0,0,1-.57.57H3.05a.57.57,0,0,1-.57-.57V3.05a.57.57,0,0,1,.57-.57H29M29,2H3.05a1,1,0,0,0-1,1V28.91a1,1,0,0,0,1,1.05H29A1,1,0,0,0,30,28.91V3.05A1,1,0,0,0,29,2Z"/><path class="cls-3" d="M2,19H30V29.32a.73.73,0,0,1-.78.68H2.78A.73.73,0,0,1,2,29.32Z"/></g><path class="cls-1" d="M12.12,25.91a1.65,1.65,0,0,1-.62,1.36,2.69,2.69,0,0,1-1.74.5A4.11,4.11,0,0,1,8,27.39V26.13a7.83,7.83,0,0,0,1.09.41,3.64,3.64,0,0,0,.82.11,1.1,1.1,0,0,0,.68-.17.64.64,0,0,0,.14-.84,1.44,1.44,0,0,0-.31-.28,8.82,8.82,0,0,0-.83-.43,3.89,3.89,0,0,1-.88-.53,2,2,0,0,1-.46-.59A1.63,1.63,0,0,1,8,23a1.65,1.65,0,0,1,.58-1.34,2.39,2.39,0,0,1,1.58-.48,3.69,3.69,0,0,1,1,.12,6,6,0,0,1,.95.33l-.44,1.05a5.66,5.66,0,0,0-.84-.29,2.59,2.59,0,0,0-.66-.08.92.92,0,0,0-.59.17.59.59,0,0,0-.21.47.54.54,0,0,0,.09.31.8.8,0,0,0,.26.26c.12.08.41.23.86.45a3.38,3.38,0,0,1,1.23.86A1.65,1.65,0,0,1,12.12,25.91Z"/><path class="cls-1" d="M16.92,21.3h1.36l-2.17,6.38H14.64L12.47,21.3h1.37L15,25.1q.11.33.21.78c.07.3.11.51.13.63a10.3,10.3,0,0,1,.33-1.41Z"/><path class="cls-1" d="M21.51,24.1H24v3.31a7,7,0,0,1-1.16.28,8.05,8.05,0,0,1-1.11.08,2.78,2.78,0,0,1-2.2-.85,3.52,3.52,0,0,1-.77-2.44,3.22,3.22,0,0,1,.89-2.41,3.37,3.37,0,0,1,2.45-.86A4.74,4.74,0,0,1,24,21.6l-.45,1.08a3.22,3.22,0,0,0-1.45-.34,1.83,1.83,0,0,0-1.41.58,2.33,2.33,0,0,0-.52,1.59,2.6,2.6,0,0,0,.42,1.59,1.5,1.5,0,0,0,1.24.55,4.26,4.26,0,0,0,.86-.09V25.23H21.51Z"/><path class="cls-4" d="M16,9.41a3.41,3.41,0,0,0-2.39,1,3.33,3.33,0,0,0-1,2.35h-.53A3.82,3.82,0,0,1,13.23,10a4,4,0,0,1,5.54,0,3.82,3.82,0,0,1,1.14,2.72h-.53a3.33,3.33,0,0,0-1-2.35A3.41,3.41,0,0,0,16,9.41Z"/><path class="cls-4" d="M21.87,9.15H10.13V8.62H21.87Z"/><rect class="cls-5" x="8" y="7.83" width="2.13" height="2.1"/><rect class="cls-5" x="11.24" y="12.73" width="2.13" height="2.1"/><rect class="cls-5" x="18.62" y="12.73" width="2.13" height="2.1"/><path class="cls-5" d="M16,7.83h0a1.06,1.06,0,0,1,1.07,1.05h0a1.06,1.06,0,0,1-1.07,1h0a1.06,1.06,0,0,1-1.07-1h0A1.06,1.06,0,0,1,16,7.83Z"/><rect class="cls-5" x="21.87" y="7.83" width="2.13" height="2.1"/></g></svg>