<svg width="32" height="32" viewBox="0 0 32 32" fill="none" xmlns="http://www.w3.org/2000/svg">
<path fill-rule="evenodd" clip-rule="evenodd" d="M16.5 11.5C15.6598 11.5 14.8541 11.8338 14.26 12.4279C13.6659 13.0219 13.3321 13.8277 13.3321 14.6679H12.8321C12.8321 13.6951 13.2186 12.7622 13.9064 12.0743C14.5943 11.3864 15.5272 11 16.5 11C17.4728 11 18.4057 11.3864 19.0936 12.0743C19.7815 12.7622 20.1679 13.6951 20.1679 14.6679H19.6679C19.6679 13.8277 19.3341 13.0219 18.74 12.4279C18.1459 11.8338 17.3402 11.5 16.5 11.5Z" fill="#717171"/>
<path fill-rule="evenodd" clip-rule="evenodd" d="M28 20H6V30H28V20ZM13.7227 26.207C13.7227 26.7227 13.5365 27.1289 13.1641 27.4258C12.7943 27.7227 12.2786 27.8711 11.6172 27.8711C11.0078 27.8711 10.4688 27.7565 10 27.5273V26.4023C10.3854 26.5742 10.7109 26.6953 10.9766 26.7656C11.2448 26.8359 11.4896 26.8711 11.7109 26.8711C11.9766 26.8711 12.1797 26.8203 12.3203 26.7188C12.4635 26.6172 12.5352 26.4661 12.5352 26.2656C12.5352 26.1536 12.5039 26.0547 12.4414 25.9688C12.3789 25.8802 12.2865 25.7956 12.1641 25.7148C12.0443 25.6341 11.7982 25.5052 11.4258 25.3281C11.0768 25.1641 10.8151 25.0065 10.6406 24.8555C10.4661 24.7044 10.3268 24.5286 10.2227 24.3281C10.1185 24.1276 10.0664 23.8932 10.0664 23.625C10.0664 23.1198 10.237 22.7227 10.5781 22.4336C10.9219 22.1445 11.3958 22 12 22C12.2969 22 12.5794 22.0352 12.8477 22.1055C13.1185 22.1758 13.401 22.2747 13.6953 22.4023L13.3047 23.3438C13 23.2188 12.7474 23.1315 12.5469 23.082C12.349 23.0326 12.1536 23.0078 11.9609 23.0078C11.7318 23.0078 11.556 23.0612 11.4336 23.168C11.3112 23.2747 11.25 23.4141 11.25 23.5859C11.25 23.6927 11.2747 23.7865 11.3242 23.8672C11.3737 23.9453 11.4518 24.0221 11.5586 24.0977C11.668 24.1706 11.9245 24.3034 12.3281 24.4961C12.862 24.7513 13.2279 25.0078 13.4258 25.2656C13.6237 25.5208 13.7227 25.8346 13.7227 26.207ZM18.0156 22.082H19.2383L17.2969 27.793H15.9766L14.0391 22.082H15.2617L16.3359 25.4805C16.3958 25.681 16.457 25.9154 16.5195 26.1836C16.5846 26.4492 16.625 26.6341 16.6406 26.7383C16.6693 26.4987 16.7669 26.0794 16.9336 25.4805L18.0156 22.082ZM24.3945 24.5859H22.1289V25.5938H23.2109V26.7852C22.9505 26.8372 22.694 26.8633 22.4414 26.8633C21.957 26.8633 21.5872 26.7005 21.332 26.375C21.0794 26.0469 20.9531 25.5729 20.9531 24.9531C20.9531 24.3594 21.1107 23.8867 21.4258 23.5352C21.7409 23.1836 22.1602 23.0078 22.6836 23.0078C23.1341 23.0078 23.5677 23.112 23.9844 23.3203L24.3867 22.3516C23.8424 22.1172 23.2773 22 22.6914 22C21.7565 22 21.0247 22.2578 20.4961 22.7734C19.9701 23.2891 19.707 24.0078 19.707 24.9297C19.707 25.8776 19.9336 26.6055 20.3867 27.1133C20.8424 27.6185 21.5013 27.8711 22.3633 27.8711C22.7018 27.8711 23.0326 27.8464 23.3555 27.7969C23.681 27.75 24.0273 27.6667 24.3945 27.5469V24.5859Z" fill="#B14B4B"/>
<path fill-rule="evenodd" clip-rule="evenodd" d="M28 8L21.7143 2H6V30H28V8ZM27.4762 29.5V8.20711L21.4973 2.5H6.52381V29.5H27.4762Z" fill="black"/>
<path fill-rule="evenodd" clip-rule="evenodd" d="M27.4762 8.4961L21.1913 8.4961L21.1913 2.3251L21.7151 2.3251L21.7151 7.9961L27.4762 7.9961L27.4762 8.4961Z" fill="black"/>
<path fill-rule="evenodd" clip-rule="evenodd" d="M22 11.25H11V10.75H22V11.25Z" fill="#717171"/>
<rect x="9" y="10" width="2" height="2" fill="black"/>
<rect x="12.0391" y="14.6679" width="2" height="2" fill="black"/>
<rect x="18.9518" y="14.6679" width="2" height="2" fill="black"/>
<rect x="15.5" y="10" width="2" height="2" rx="1" fill="black"/>
<rect x="22" y="10" width="2" height="2" fill="black"/>
</svg>
