<svg id="Layer_2" data-name="Layer 2" xmlns="http://www.w3.org/2000/svg" viewBox="0 0 32 32"><defs><style>.cls-1{fill:#fff;}.cls-2,.cls-3{fill:#129bd6;}.cls-3,.cls-4{fill-rule:evenodd;}.cls-4{fill:#717171;}</style></defs><g id="txt"><path class="cls-1" d="M3,2.24H29a.8.8,0,0,1,.8.8V28.92a.8.8,0,0,1-.8.8H3a.81.81,0,0,1-.81-.81V3A.81.81,0,0,1,3,2.24Z"/><path class="cls-2" d="M29,2.48a.57.57,0,0,1,.57.57V28.91a.57.57,0,0,1-.57.57H3.05a.57.57,0,0,1-.57-.57V3.05a.57.57,0,0,1,.57-.57H29M29,2H3.05a1,1,0,0,0-1,1V28.91a1,1,0,0,0,1,1.05H29A1,1,0,0,0,30,28.91V3.05A1,1,0,0,0,29,2Z"/><path class="cls-3" d="M2,19H30V29.32a.73.73,0,0,1-.78.68H2.78A.73.73,0,0,1,2,29.32Z"/><path class="cls-1" d="M10.48,27.48H9V22.54H7V21.48h5.44v1.06h-2Z"/><path class="cls-1" d="M19.36,27.48H17.62L16,25.21l-1.68,2.27H12.64L15,24.39l-2.24-2.91h1.68L16,23.64l1.53-2.16h1.64l-2.26,3Z"/><path class="cls-1" d="M23.05,27.48H21.52V22.54h-2V21.48H25v1.06H23.05Z"/><path class="cls-4" d="M16,6.18h2.75V5H11.88v1.2h2.74V11H16Z"/><path class="cls-4" d="M5,6.18h5.5V5H5Zm0,3.6h5.5V8.58H5Zm22,3.6H5v-1.2H27ZM5,17H27v-1.2H5Z"/></g></svg>