<svg width="32" height="32" viewBox="0 0 32 32" fill="none" xmlns="http://www.w3.org/2000/svg">
<path fill-rule="evenodd" clip-rule="evenodd" d="M5 20H27V30H5V20ZM11.7073 28H10.5202V23.0588H9V22H13.2276V23.0588H11.7073V28ZM18.6154 28H17.2598L15.9579 25.7305L14.6559 28H13.3846L15.2418 24.9056L13.5033 22H14.8129L16.0191 24.1587L17.2024 22H18.4814L16.7237 24.9754L18.6154 28ZM20.2927 28H21.4798V23.0588H23V22H18.7724V23.0588H20.2927V28Z" fill="#129BD6"/>
<path fill-rule="evenodd" clip-rule="evenodd" d="M27 8L20.7143 2H5V30H27V8ZM26.4762 29.5V8.20711L20.4973 2.5H5.52381V29.5H26.4762Z" fill="black"/>
<path fill-rule="evenodd" clip-rule="evenodd" d="M26.4762 8.4961L20.1913 8.4961L20.1913 2.3251L20.7151 2.3251L20.7151 7.9961L26.4762 7.9961L26.4762 8.4961Z" fill="black"/>
<path fill-rule="evenodd" clip-rule="evenodd" d="M16 9H18V8H13V9L15 9L15 13H16L16 9Z" fill="#717171"/>
<path fill-rule="evenodd" clip-rule="evenodd" d="M8 9H12V8H8V9ZM8 12H12V11H8V12ZM24 15H8V14H24V15ZM8 18H24V17H8V18Z" fill="#717171"/>
</svg>
