<svg width="32" height="32" viewBox="0 0 32 32" fill="none" xmlns="http://www.w3.org/2000/svg">
<path fill-rule="evenodd" clip-rule="evenodd" d="M5 20H27V30H5V20ZM9.56286 28H8.45154L7.78327 25.9932L7.08178 28H6L7.19623 24.9508L6.09969 22H7.17039L7.76112 23.8919L8.34447 22H9.43363L8.35186 24.9425L9.56286 28ZM13.4691 28H12.4316V25.3776H11.0951V28H10.0576V22H11.0951V24.3762H12.4316V22H13.4691V28ZM15.0641 28H16.0868V22.9973H17.0836V22H14.0598V22.9973H15.0641V28ZM19.6976 28L18.6306 23.5718H18.6011C18.6134 23.7551 18.6232 23.9275 18.6306 24.0889C18.638 24.2503 18.6429 24.3995 18.6454 24.5363C18.6503 24.673 18.6528 24.7962 18.6528 24.9056V28H17.6854V22H19.1143L20.1111 26.1081H20.137L21.1338 22H22.5553V28H21.5658V24.8974C21.5658 24.7743 21.567 24.6457 21.5695 24.5116C21.5744 24.3748 21.5793 24.2298 21.5843 24.0766C21.5917 23.9207 21.6003 23.7551 21.6101 23.58H21.5806L20.5062 28H19.6976ZM23.5263 22V28H26V26.9986H24.5638V22H23.5263Z" fill="#D64112"/>
<path fill-rule="evenodd" clip-rule="evenodd" d="M27 8L20.7143 2H5V30H27V8ZM26.4762 29.5V8.20711L20.4973 2.5H5.52381V29.5H26.4762Z" fill="black"/>
<path fill-rule="evenodd" clip-rule="evenodd" d="M26.4762 8.4961L20.1913 8.4961L20.1913 2.3251L20.7151 2.3251L20.7151 7.9961L26.4762 7.9961L26.4762 8.4961Z" fill="black"/>
<path d="M13.3039 15.456L9.34375 13.6584V13.0716L13.3039 11.036V12.0209L10.5761 13.3219L13.3039 14.4751V15.456Z" fill="#717171"/>
<path d="M16.9928 10.2891L14.8193 16.2891H13.7146L15.8881 10.2891H16.9928Z" fill="#717171"/>
<path d="M17.3836 14.4751L20.1114 13.3219L17.3836 12.0209V11.036L21.3438 13.0716V13.6584L17.3836 15.456V14.4751Z" fill="#717171"/>
</svg>
