<svg id="Layer_2" data-name="Layer 2" xmlns="http://www.w3.org/2000/svg" viewBox="0 0 32 32"><defs><style>.cls-1{fill:#fff;}.cls-2,.cls-3{fill:#d64112;}.cls-3{fill-rule:evenodd;}.cls-4{fill:#717171;}</style></defs><g id="xhtml"><path class="cls-1" d="M3,2.26H29a.8.8,0,0,1,.8.8V28.94a.8.8,0,0,1-.8.8H3a.81.81,0,0,1-.81-.81V3.07A.81.81,0,0,1,3,2.26Z"/><path class="cls-2" d="M29,2.5a.57.57,0,0,1,.57.57V28.93a.57.57,0,0,1-.57.57H3.05a.57.57,0,0,1-.57-.57V3.07a.57.57,0,0,1,.57-.57H29M29,2H3.05a1,1,0,0,0-1,1V28.93a1,1,0,0,0,1,1.05H29A1,1,0,0,0,30,28.93V3.07A1,1,0,0,0,29,2Z"/><path class="cls-3" d="M2,19H30V29.34a.73.73,0,0,1-.78.68H2.78A.73.73,0,0,1,2,29.34Z"/><path class="cls-1" d="M8.59,27.51H7.4L6.26,25.24,5.12,27.51H4l1.63-3.09L4.1,21.51H5.25l1.06,2.16,1-2.16H8.48l-1.55,3Z"/><path class="cls-1" d="M13.24,27.51h-1V24.92H10.25v2.59h-1v-6h1v2.35H12.2V21.51h1Z"/><path class="cls-1" d="M16.38,27.51h-1V22.57H14V21.51h3.71v1.06H16.38Z"/><path class="cls-1" d="M20.55,27.51,19.37,22.8h0q.06,1.44.06,1.92v2.79h-.93v-6h1.42l1.16,4.59h0l1.24-4.59h1.42v6h-1V24.67c0-.13,0-.29,0-.46s0-.64,0-1.4h0l-1.26,4.7Z"/><path class="cls-1" d="M25,27.51v-6H26v4.95h2v1.05Z"/><path class="cls-4" d="M12.94,14.61,7,11.62v-1l5.94-3.4V8.89L8.85,11.05,12.94,13Z"/><path class="cls-4" d="M18.47,6,15.21,16H13.56L16.82,6Z"/><path class="cls-4" d="M19.06,13l4.09-1.93L19.06,8.89V7.24L25,10.64v1l-5.94,3Z"/></g></svg>