<svg id="Layer_2" data-name="Layer 2" xmlns="http://www.w3.org/2000/svg" viewBox="0 0 32 32"><defs><style>.cls-1{fill:#fff;}.cls-2{fill:#1a7343;}</style></defs><g id="xls"><g id="right"><path class="cls-1" d="M18,4.5H28.78A1.22,1.22,0,0,1,30,5.72V26.31a1.19,1.19,0,0,1-1.19,1.19H18a0,0,0,0,1,0,0V4.5A0,0,0,0,1,18,4.5Z"/><path class="cls-2" d="M29,4H16v.67H29c.28,0,.51.3.51.68v21.3c0,.38-.23.68-.51.68H16V28H29c.56,0,1-.6,1-1.35V5.35C30,4.6,29.55,4,29,4Z"/><rect class="cls-2" x="22.25" y="7.53" width="5" height="2"/><rect class="cls-2" x="16" y="7.53" width="5" height="2"/><rect class="cls-2" x="22.25" y="10.5" width="5" height="2"/><rect class="cls-2" x="16" y="10.5" width="5" height="2"/><rect class="cls-2" x="22.25" y="13.5" width="5" height="2"/><rect class="cls-2" x="16" y="13.5" width="5" height="2"/><rect class="cls-2" x="22.25" y="16.5" width="5" height="2"/><rect class="cls-2" x="16" y="16.5" width="5" height="2"/><rect class="cls-2" x="22.25" y="19.5" width="5" height="2"/><rect class="cls-2" x="16" y="19.5" width="5" height="2"/><rect class="cls-2" x="22.25" y="22.5" width="5" height="2"/><rect class="cls-2" x="16" y="22.5" width="5" height="2"/></g><g id="left"><polygon id="left-2" data-name="left" class="cls-2" points="18 30 2 28 2 4 18 2 18 30"/><path class="cls-1" d="M8.25,15.89,5.16,11h3L10,14.18,11.88,11h3l-3.13,4.89L15,21H12l-2-3.43L8,21H5Z"/></g></g></svg>