<svg width="32" height="32" viewBox="0 0 32 32" fill="none" xmlns="http://www.w3.org/2000/svg">
<path d="M9.10276 27.8769L9.06832 25.8815L7.53716 25.7013L6.006 25.5212V18.8498V12.1784L7.53716 11.9983L9.06832 11.8181L9.10106 6.97196L9.1338 2.12581H16.4766H23.8194L26.8495 5.19916L29.8796 8.27251V19.0725V29.8724H19.5084H9.13717L9.10276 27.8769Z" fill="white"/>
<path d="M17.2508 26.4525V25.3122H19.5006H21.7505V26.4525V27.5928H19.5006H17.2508V26.4525ZM22.8754 26.4525V25.3122H25.1253H27.3752V26.4525V27.5928H25.1253H22.8754V26.4525ZM17.2508 23.0317V21.8914H19.5006H21.7505V23.0317V24.1719H19.5006H17.2508V23.0317ZM22.8754 23.0317V21.8914H25.1253H27.3752V23.0317V24.1719H25.1253H22.8754V23.0317ZM17.2508 19.6109V18.4706H19.5006H21.7505V19.6109V20.7511H19.5006H17.2508V19.6109ZM22.8754 19.6109V18.4706H25.1253H27.3752V19.6109V20.7511H25.1253H22.8754V19.6109ZM17.2508 16.19V15.0498H19.5006H21.7505V16.19V17.3303H19.5006H17.2508V16.19ZM22.8754 16.19V15.0498H25.1253H27.3752V16.19V17.3303H25.1253H22.8754V16.19ZM17.2508 12.7692V11.629H19.5006H21.7505V12.7692V13.9095H19.5006H17.2508V12.7692ZM22.8754 12.7692V11.629H25.1253H27.3752V12.7692V13.9095H25.1253H22.8754V12.7692ZM17.2508 9.34842V8.20814H19.5006H21.7505V9.34842V10.4887H19.5006H17.2508V9.34842ZM22.8754 9.34842C22.8754 8.21659 22.8673 8.20814 22.8673 8.20814L25.3795 8.21763L27.3792 8.2181L27.375 8.58821V9.53844V10.4887H25.1251H22.8752L22.8754 9.34842Z" fill="#83BC9D"/>
<path d="M8.98579 25.841C8.97941 24.1236 9.07628 23.4533 9.23514 23.4533C9.39317 23.4533 9.37624 26.2343 9.37624 27.7828V29.6199H19.5006H29.625V19.1041V8.53407H28.4734L27.379 8.55217V8.21815L29.5568 8.20805L26.6894 5.29523L23.8754 2.44561V3.6165C23.8754 4.57282 23.8948 4.81035 23.8948 4.81035C23.8948 4.81035 23.5004 4.99855 23.5004 5.92766C23.5004 6.85677 23.8927 6.77004 23.8927 6.77004L23.9021 8.25191L23.5139 8.2172L23.4994 7.06468L22.894 7.06804C22.894 7.06804 22.8754 7.05961 22.8754 5.92776C22.8754 4.79594 22.8851 4.79652 22.8851 4.79652L23.4994 4.79221L23.5004 2.38008H16.4383H9.37625V7.06786C9.37625 11.1503 9.42938 13.2761 9.26608 13.2761C9.10267 13.2761 8.97766 14.327 8.9858 10.0756L9.00125 1.99999H16.408H23.8147L26.9074 5.13666L30 8.27334V19.1367V30H19.5006H9.00125L8.98579 25.841ZM11.6373 26.8626L11.6255 25.6779L12.9193 26.1211C13.4692 26.2011 14.6349 25.809 15.1076 26.2084L16.1385 26.2225L16.1259 27.2269V27.5927H13.8875H11.6493L11.6373 26.8626ZM11.6261 9.34842V8.20814H13.876H16.1258V9.34842V10.4887H13.876H11.6261V9.34842ZM11.6261 5.9276V4.78733H13.876H16.1258V5.9276V7.06787H13.876H11.6261V5.9276ZM17.2508 5.9276V4.78733H19.5006H21.7505V5.9276V7.06787H19.5006H17.2508V5.9276Z" fill="#969696"/>
<path d="M23.5182 8.55165L23.5139 8.21717L27.379 8.21812V8.55215L23.5182 8.55165ZM23.5004 5.9276C23.5004 4.99849 23.5351 4.78733 23.6879 4.78733C23.8406 4.78733 23.8754 4.99849 23.8754 5.9276C23.8754 6.85671 23.8406 7.06787 23.6879 7.06787C23.5351 7.06787 23.5004 6.85671 23.5004 5.9276Z" fill="#1F7145"/>
<path d="M23.8948 4.79226H23.4995V7.06466H23.8948V4.79226Z" fill="#5F5F5F"/>
<path d="M16.9991 11.2384H2V26.442H16.9991V11.2384Z" fill="white"/>
<path d="M2 18.8403V11.2384H9.49956H16.9991V18.8403V26.4421H9.49956H2V18.8403ZM15.8742 18.8403V12.3787H9.49956H3.12493V18.8403V25.3018H9.49956H15.8742V18.8403ZM10.937 22.6412L10.5777 22.2611H7.2263H3.87489V21.8426C3.87489 21.4761 4.05829 21.2404 5.35026 19.947L6.82563 18.4699L5.35026 16.9783C4.06802 15.682 3.87489 15.4326 3.87489 15.073V14.6593H5.78494H7.69499L8.41869 15.4006L9.14239 16.1419L9.83997 15.4006L10.5375 14.6593H12.4559H14.3743L14.3689 15.071C14.3642 15.436 14.1876 15.6411 12.8147 16.8765L11.2658 18.2701L11.5294 18.5552C11.774 18.8197 11.8997 18.8403 13.2711 18.8403H14.7492V19.236C14.7492 19.5473 14.6271 19.7408 14.1776 20.1418L13.606 20.6519L14.3651 21.4282C14.9785 22.0555 15.1242 22.2829 15.1242 22.6129V23.0213H13.2102H11.2962L10.937 22.6412ZM12.3744 22.2806C12.3744 22.1424 10.97 20.6387 8.94283 18.6064C5.61571 15.2708 5.0102 14.7772 4.99391 15.3878C4.98634 15.6712 11.8592 22.5077 12.1556 22.5116C12.286 22.5135 12.3744 22.42 12.3744 22.2806Z" fill="#1F7145"/>
</svg>
