<svg width="32" height="32" viewBox="0 0 32 32" fill="none" xmlns="http://www.w3.org/2000/svg">
<path d="M22.4742 2H9.25317C8.88963 2 8.59494 2.30575 8.59494 2.68293V29.3171C8.59494 29.6943 8.88963 30 9.25317 30H28.3418C28.7053 30 29 29.6943 29 29.3171V8.77067C29 8.58956 28.9307 8.41586 28.8072 8.28778L22.9396 2.20003C22.8162 2.07195 22.6488 2 22.4742 2Z" fill="white" stroke="#979593" stroke-width="0.5" stroke-miterlimit="10"/>
<path d="M22.4177 2V8.14634C22.4177 8.52352 22.7124 8.82927 23.076 8.82927H29" stroke="#979593" stroke-width="0.5" stroke-miterlimit="10"/>
<path d="M17.1519 20.439H13.8608V19.7561H17.1519C17.3337 19.7561 17.481 19.909 17.481 20.0976C17.481 20.2862 17.3337 20.439 17.1519 20.439ZM17.1519 18.3902H13.8608V17.7073H17.1519C17.3337 17.7073 17.481 17.8602 17.481 18.0488C17.481 18.2374 17.3337 18.3902 17.1519 18.3902ZM17.1519 16.3415H13.8608V15.6585H17.1519C17.3337 15.6585 17.481 15.8114 17.481 16C17.481 16.1886 17.3337 16.3415 17.1519 16.3415ZM17.1519 14.2927H13.8608V13.6098H17.1519C17.3337 13.6098 17.481 13.7626 17.481 13.9512C17.481 14.1398 17.3337 14.2927 17.1519 14.2927ZM17.1519 22.4878H13.8608V21.8049H17.1519C17.3337 21.8049 17.481 21.9578 17.481 22.1463C17.481 22.3349 17.3337 22.4878 17.1519 22.4878ZM26.3671 20.439H23.076C22.8942 20.439 22.7468 20.2862 22.7468 20.0976C22.7468 19.909 22.8942 19.7561 23.076 19.7561H26.3671C26.5489 19.7561 26.6962 19.909 26.6962 20.0976C26.6962 20.2862 26.5489 20.439 26.3671 20.439ZM26.3671 22.4878H23.076C22.8942 22.4878 22.7468 22.3349 22.7468 22.1463C22.7468 21.9578 22.8942 21.8049 23.076 21.8049H26.3671C26.5489 21.8049 26.6962 21.9578 26.6962 22.1463C26.6962 22.3349 26.5489 22.4878 26.3671 22.4878ZM26.3671 18.3902H23.076C22.8942 18.3902 22.7468 18.2374 22.7468 18.0488C22.7468 17.8602 22.8942 17.7073 23.076 17.7073H26.3671C26.5489 17.7073 26.6962 17.8602 26.6962 18.0488C26.6962 18.2374 26.5489 18.3902 26.3671 18.3902ZM26.3671 16.3415H23.076C22.8942 16.3415 22.7468 16.1886 22.7468 16C22.7468 15.8114 22.8942 15.6585 23.076 15.6585H26.3671C26.5489 15.6585 26.6962 15.8114 26.6962 16C26.6962 16.1886 26.5489 16.3415 26.3671 16.3415ZM26.3671 14.2927H23.076C22.8942 14.2927 22.7468 14.1398 22.7468 13.9512C22.7468 13.7626 22.8942 13.6098 23.076 13.6098H26.3671C26.5489 13.6098 26.6962 13.7626 26.6962 13.9512C26.6962 14.1398 26.5489 14.2927 26.3671 14.2927ZM21.7595 20.439H18.4684C18.2866 20.439 18.1392 20.2862 18.1392 20.0976C18.1392 19.909 18.2866 19.7561 18.4684 19.7561H21.7595C21.9413 19.7561 22.0886 19.909 22.0886 20.0976C22.0886 20.2862 21.9413 20.439 21.7595 20.439ZM21.7595 22.4878H18.4684C18.2866 22.4878 18.1392 22.3349 18.1392 22.1463C18.1392 21.9578 18.2866 21.8049 18.4684 21.8049H21.7595C21.9413 21.8049 22.0886 21.9578 22.0886 22.1463C22.0886 22.3349 21.9413 22.4878 21.7595 22.4878ZM21.7595 18.3902H18.4684C18.2866 18.3902 18.1392 18.2374 18.1392 18.0488C18.1392 17.8602 18.2866 17.7073 18.4684 17.7073H21.7595C21.9413 17.7073 22.0886 17.8602 22.0886 18.0488C22.0886 18.2374 21.9413 18.3902 21.7595 18.3902ZM21.7595 16.3415H18.4684C18.2866 16.3415 18.1392 16.1886 18.1392 16C18.1392 15.8114 18.2866 15.6585 18.4684 15.6585H21.7595C21.9413 15.6585 22.0886 15.8114 22.0886 16C22.0886 16.1886 21.9413 16.3415 21.7595 16.3415ZM21.7595 14.2927H18.4684C18.2866 14.2927 18.1392 14.1398 18.1392 13.9512C18.1392 13.7626 18.2866 13.6098 18.4684 13.6098H21.7595C21.9413 13.6098 22.0886 13.7626 22.0886 13.9512C22.0886 14.1398 21.9413 14.2927 21.7595 14.2927Z" fill="#C8C6C4"/>
<path d="M4.31646 24.878H14.8481C15.5751 24.878 16.1646 24.2665 16.1646 23.5122V12.5854C16.1646 11.831 15.5751 11.2195 14.8481 11.2195H4.31646C3.58941 11.2195 3 11.831 3 12.5854V23.5122C3 24.2665 3.58941 24.878 4.31646 24.878Z" fill="#107C41"/>
<path d="M5.9453 22.1463L8.5403 18.0373L6.16354 13.9512H8.07619L9.37368 16.5629C9.49292 16.8106 9.57487 16.9955 9.61957 17.1173H9.63629C9.72241 16.9193 9.81177 16.7268 9.90497 16.5403L11.2918 13.9512H13.0476L10.6095 18.0146L13.1093 22.1463H11.2413L9.74265 19.2775C9.67933 19.1711 9.61957 19.0433 9.56365 18.8945H9.54147C9.51543 18.9862 9.45758 19.11 9.36822 19.266L7.82455 22.1463H5.9453Z" fill="white"/>
</svg>
