<svg id="Layer_2" data-name="Layer 2" xmlns="http://www.w3.org/2000/svg" viewBox="0 0 32 32"><defs><style>.cls-1{fill:#fff;}.cls-2{fill:#1a7343;}.cls-3{opacity:0.25;}</style></defs><g id="xlsx"><g id="right"><path class="cls-1" d="M18,4.5H28.78A1.22,1.22,0,0,1,30,5.72V26.31a1.19,1.19,0,0,1-1.19,1.19H18a0,0,0,0,1,0,0V4.5A0,0,0,0,1,18,4.5Z"/><path class="cls-2" d="M29,4H16v.67H29c.28,0,.51.3.51.68v21.3c0,.38-.23.68-.51.68H16V28H29c.56,0,1-.6,1-1.35V5.35C30,4.6,29.56,4,29,4Z"/><rect class="cls-2" x="22.25" y="7.53" width="5" height="2"/><rect class="cls-2" x="16" y="7.53" width="5" height="2"/><rect class="cls-2" x="22.25" y="10.5" width="5" height="2"/><rect class="cls-2" x="16" y="10.5" width="5" height="2"/><rect class="cls-2" x="22.25" y="13.5" width="5" height="2"/><rect class="cls-2" x="16" y="13.5" width="5" height="2"/><rect class="cls-2" x="22.25" y="16.5" width="5" height="2"/><rect class="cls-2" x="16" y="16.5" width="5" height="2"/><rect class="cls-2" x="22.25" y="19.5" width="5" height="2"/><rect class="cls-2" x="16" y="19.5" width="5" height="2"/><rect class="cls-2" x="22.25" y="22.5" width="5" height="2"/><rect class="cls-2" x="16" y="22.5" width="5" height="2"/></g><g id="left"><polygon id="left-2" data-name="left" class="cls-2" points="18 30 2 28 2 4 18 2 18 30"/></g><path class="cls-1" d="M13.4,22,12,20h1L14,21.4l.94-1.4h1L14.5,22,16,24H15l-1-1.5-1,1.5H12Z"/><path class="cls-1" d="M7.26,13.89,4.16,9h3L9,12.18,10.88,9h3l-3.12,4.89L14,19H11L9,15.57,7,19H4Z"/></g></svg>