<svg id="Layer_2" data-name="Layer 2" xmlns="http://www.w3.org/2000/svg" viewBox="0 0 32 32"><defs><style>.cls-1{fill:#f2ca00;}.cls-2{fill:#bd9e00;}.cls-3,.cls-4{fill:#324561;}.cls-4{fill-rule:evenodd;}.cls-5{fill:none;stroke:#324561;}</style></defs><g id="zip"><g id="rar"><path class="cls-1" d="M3,2.26H29a.8.8,0,0,1,.8.8V28.93a.81.81,0,0,1-.81.81H3a.81.81,0,0,1-.81-.81V3.07A.81.81,0,0,1,3,2.26Z"/><path class="cls-2" d="M29,2.5a.57.57,0,0,1,.57.57V28.93a.57.57,0,0,1-.57.57H3.05a.57.57,0,0,1-.57-.57V3.07a.57.57,0,0,1,.57-.57H29M29,2H3.05a1,1,0,0,0-1,1V28.93a1,1,0,0,0,1,1.05H29A1,1,0,0,0,30,28.93V3.07A1,1,0,0,0,29,2Z"/></g><path class="cls-3" d="M11.85,19.5H6.78v-1l3.27-4.81H6.87V12.5h4.89v1L8.5,18.27h3.35Z"/><path class="cls-3" d="M12.93,19.5v-7h1.44v7Z"/><path class="cls-3" d="M20.78,14.68a2.19,2.19,0,0,1-.68,1.73,2.89,2.89,0,0,1-2,.6h-.61V19.5H16.08v-7h2.18a2.81,2.81,0,0,1,1.88.55A2,2,0,0,1,20.78,14.68Zm-3.25,1.11H18a1.57,1.57,0,0,0,1-.27,1,1,0,0,0,.33-.78,1,1,0,0,0-.28-.78,1.31,1.31,0,0,0-.87-.24h-.65Z"/><path class="cls-4" d="M28,6H24V4h4Z"/><path class="cls-4" d="M28,10H24V8h4Z"/><path class="cls-4" d="M28,14H24V12h4Z"/><path class="cls-4" d="M28,18H24V16h4Z"/><path class="cls-5" d="M27.5,23.69A1.66,1.66,0,0,1,26,25.5a1.66,1.66,0,0,1-1.5-1.81,6.36,6.36,0,0,1,.36-2.23c.27-.64.63-1,1.14-1s.87.32,1.14,1A6.36,6.36,0,0,1,27.5,23.69Z"/></g></svg>