<svg width="32" height="32" viewBox="0 0 32 32" fill="none" xmlns="http://www.w3.org/2000/svg">
<path d="M8.2725 3C13.9839 3 19.6952 3 25.4066 3C25.4384 3.01866 25.4765 3.04353 25.5083 3.04975C27.0729 3.32959 28.1477 4.194 28.7138 5.6554C28.8156 5.91659 28.8728 6.20265 28.9555 6.47006C28.9555 12.6328 28.9555 18.7956 28.9555 24.9584C28.93 25.0268 28.8982 25.089 28.8855 25.1574C28.4658 27.0852 26.8567 28.3787 24.8342 28.3787C18.932 28.3849 13.0299 28.3849 7.12769 28.3725C6.66976 28.3725 6.19276 28.2978 5.76027 28.1548C4.04305 27.5765 3 26.1026 3 24.3054C3 19.9025 3 15.5059 3 11.103C3 11.0284 3.00636 10.9537 3.00636 10.8792C3.15264 10.7423 3.29256 10.6118 3.43885 10.4749C4.13845 9.79085 4.84442 9.10058 5.54403 8.41653C5.62035 8.3419 5.67123 8.24862 5.73483 8.16155C6.01468 8.15534 6.28816 8.15534 6.568 8.14912C7.5093 8.1429 8.26615 7.40287 8.2725 6.4825C8.27887 5.31959 8.2725 4.1629 8.2725 3Z" fill="#F2CA00"/>
<path d="M3.02543 8.1429C3.09539 8.06828 3.15899 7.99365 3.22895 7.92524C4.83169 6.35812 6.43443 4.791 8.03717 3.22388C8.10713 3.15547 8.16437 3.07463 8.22161 3C8.24069 3 8.25341 3 8.27249 3C8.27249 4.1629 8.27885 5.31959 8.27249 6.4825C8.26613 7.40287 7.50928 8.1429 6.56799 8.15534C6.28815 8.16155 6.01466 8.16155 5.73482 8.16778C4.83169 8.15534 3.92856 8.14912 3.02543 8.1429Z" fill="#FFDB24"/>
<path d="M3.02543 8.1429C3.92856 8.14912 4.83169 8.15533 5.73482 8.16155C5.67122 8.24861 5.61398 8.3419 5.54402 8.41652C4.84441 9.10682 4.1448 9.79085 3.43883 10.4749C3.29891 10.6118 3.15263 10.7423 3.00635 10.8791C3.01271 9.97123 3.01907 9.05707 3.02543 8.1429Z" fill="#BD9E00"/>
<path fill-rule="evenodd" clip-rule="evenodd" d="M24 7H20V5H24V7Z" fill="#324561"/>
<path fill-rule="evenodd" clip-rule="evenodd" d="M24 11H20V9H24V11Z" fill="#324561"/>
<path fill-rule="evenodd" clip-rule="evenodd" d="M24 15H20V13H24V15Z" fill="#324561"/>
<path fill-rule="evenodd" clip-rule="evenodd" d="M24 19H20V17H24V19Z" fill="#324561"/>
<path d="M23.5 24.6923C23.5 25.941 22.6121 26.5 22 26.5C21.3879 26.5 20.5 25.941 20.5 24.6923C20.5 23.9577 20.5978 23.1084 20.8626 22.4623C21.1259 21.82 21.4913 21.5 22 21.5C22.5087 21.5 22.8741 21.82 23.1374 22.4623C23.4022 23.1084 23.5 23.9577 23.5 24.6923Z" stroke="#324561"/>
</svg>
