<svg width="506" height="438" viewBox="0 0 506 438" fill="none" xmlns="http://www.w3.org/2000/svg">
<mask id="path-1-inside-1_331_865" fill="white">
<path d="M1 62H419V377C419 390.255 408.255 401 395 401H25C11.7452 401 1 390.255 1 377V62Z"/>
</mask>
<path d="M1 62H419V377C419 390.255 408.255 401 395 401H25C11.7452 401 1 390.255 1 377V62Z" fill="#D7ECEF"/>
<path d="M1 62H419H1ZM420 377C420 390.807 408.807 402 395 402H25C11.1929 402 0 390.807 0 377H2C2 389.703 12.2975 400 25 400H395C407.703 400 418 389.703 418 377H420ZM25 402C11.1929 402 0 390.807 0 377V62H2V377C2 389.703 12.2975 400 25 400V402ZM420 62V377C420 390.807 408.807 402 395 402V400C407.703 400 418 389.703 418 377V62H420Z" fill="#D5DFE7" mask="url(#path-1-inside-1_331_865)"/>
<path d="M0 24C0 10.7452 10.7452 0 24 0H395C408.255 0 419 10.7452 419 24V62H0V24Z" fill="#1694CE"/>
<path d="M24 30.5C24 26.9101 26.9101 24 30.5 24H39.5C43.0899 24 46 26.9101 46 30.5C46 34.0899 43.0899 37 39.5 37H30.5C26.9101 37 24 34.0899 24 30.5Z" fill="#F8FAFB"/>
<path d="M59 30.5C59 26.9101 61.9101 24 65.5 24H74.5C78.0899 24 81 26.9101 81 30.5C81 34.0899 78.0899 37 74.5 37H65.5C61.9101 37 59 34.0899 59 30.5Z" fill="#F8FAFB"/>
<path d="M94 30.5C94 26.9101 96.9101 24 100.5 24H109.5C113.09 24 116 26.9101 116 30.5C116 34.0899 113.09 37 109.5 37H100.5C96.9101 37 94 34.0899 94 30.5Z" fill="#F8FAFB"/>
<path d="M365.2 38.5C357.9 38.5 350.7 38.5 343.4 38.5C338.1 38.5 335.2 36.1 335 31.7C334.8 26.1 337.3 23.1 343 23.1C358.3 22.9 373.5 23 388.8 23.1C393.3 23.1 396.9 27.1 396.8 31.4C396.7 34.9 392.8 38.5 388.7 38.5C380.9 38.6 373 38.5 365.2 38.5Z" fill="#1E4B6C"/>
<path d="M181 231.295C177.5 231.395 174 231.395 170.5 231.495C167.5 231.495 164.6 231.495 161.6 231.495C145.3 231.495 129.1 231.495 112.8 231.395C97.5 231.295 85.7 218.995 86.2 203.695C86.6 190.095 98 178.595 111.7 178.195C117.9 177.995 124.1 178.195 130.4 178.195C131.5 162.295 138.8 150.695 153.6 144.995C168.4 139.395 181.5 143.295 192.9 154.595C195.7 135.695 205.2 121.595 222 112.795C234 106.595 246.8 105.495 260 108.895C286.5 115.895 307.2 145.595 296.5 178.095C300.4 178.095 304.3 178.095 308.1 178.095C321.9 178.295 333 188.195 334.6 201.895C336.1 214.595 327.7 227.095 314.9 230.295C310 231.495 304.6 231.095 299.5 231.295C297.4 231.395 295.3 231.295 293.1 231.195C295 230.395 297.1 229.895 298.9 228.895C305.1 225.695 307.9 220.195 307.9 213.595C307.9 206.895 305.1 201.395 298.9 198.295C296.3 196.995 293.5 196.195 290.4 195.095C289.4 186.295 284.6 179.695 275.3 178.395C265.2 176.895 258.4 182.095 254.8 192.195C250.6 167.995 231.1 159.295 216.6 160.395C209 160.995 202 163.795 196.2 168.695C188 175.695 184 184.895 183.5 195.595C182 195.895 180.8 196.195 179.5 196.395C170.8 197.995 164.1 208.195 166.1 216.895C168.2 224.895 173.3 229.495 181 231.295Z" fill="#82CED9"/>
<path d="M181 231.295C173.3 229.395 168.2 224.795 166.3 216.895C164.2 208.195 170.9 197.895 179.7 196.395C181 196.195 182.2 195.895 183.7 195.595C184.2 184.895 188.2 175.695 196.4 168.695C202.2 163.695 209.1 160.995 216.8 160.395C231.3 159.195 250.8 167.995 255 192.195C258.6 182.195 265.4 176.895 275.5 178.395C284.8 179.795 289.6 186.395 290.6 195.095C293.7 196.195 296.5 196.995 299.1 198.295C305.3 201.395 308.1 206.995 308.1 213.595C308.1 220.295 305.2 225.695 299.1 228.895C297.3 229.895 295.2 230.395 293.3 231.195C283.2 231.195 273.1 231.295 263 231.295C261.8 231.295 260.6 231.395 259.4 231.395C256.4 231.395 253.5 231.395 250.5 231.395C238.7 231.395 226.8 231.395 215 231.395C212 231.395 209.1 231.395 206.1 231.395C197.7 231.395 189.3 231.395 181 231.295Z" fill="#3AACBB"/>
<path d="M135 275.695C145 275.695 154.9 275.795 164.9 275.795C171.4 275.795 174.9 279.295 174.9 285.895C174.9 299.895 174.9 313.995 174.9 327.995C174.9 334.395 171.4 337.895 164.9 337.895C156.4 337.895 147.9 337.895 139.4 337.895C133.4 337.895 127.5 337.895 121.5 337.895C112.9 337.895 104.3 337.895 95.7 337.895C89.7 337.895 86 334.295 86 328.295C86 314.095 86 299.795 86 285.595C86 279.295 89.5 275.795 95.8 275.795C105.9 275.795 115.9 275.695 126 275.695C129 275.695 132 275.695 135 275.695ZM130.5 284.695C120.5 284.695 110.5 284.695 100.5 284.695C96.5 284.695 95 286.195 95 290.195C95 301.295 95 312.395 95 323.495C95 327.495 96.5 328.995 100.5 329.095C120.5 329.095 140.4 329.095 160.4 329.095C164.6 329.095 166 327.595 166 323.395C166 312.395 166 301.395 166 290.395C166 286.195 164.6 284.695 160.4 284.695C150.4 284.695 140.4 284.695 130.5 284.695Z" fill="#19405C"/>
<path d="M252 346.795C247 344.095 245.7 339.895 245.8 334.395C246.1 321.195 245.9 307.995 245.9 294.795C245.9 288.195 249.4 284.695 256 284.695C266 284.695 275.9 284.595 285.9 284.595C288.9 284.595 291.8 284.595 294.8 284.595C304.8 284.595 314.7 284.695 324.7 284.695C331.3 284.695 334.8 288.195 334.8 294.795C334.8 308.995 334.8 323.195 334.8 337.395C334.8 342.095 332.5 345.195 328.2 346.395C327 346.595 325.9 346.795 324.7 346.895C319 346.995 313.3 346.995 307.7 346.995C296.4 346.995 285.1 346.995 273.7 346.995C266.5 346.895 259.2 346.895 252 346.795ZM290.5 293.595C280.5 293.595 270.5 293.595 260.5 293.595C256.3 293.595 254.8 294.995 254.8 299.295C254.8 310.295 254.8 321.295 254.8 332.295C254.8 336.595 256.2 337.995 260.7 337.995C280.5 337.995 300.3 337.995 320.1 337.995C324.5 337.995 325.9 336.595 325.9 332.195C325.9 321.295 325.9 310.395 325.9 299.495C325.9 294.995 324.5 293.595 319.9 293.595C310.1 293.595 300.3 293.595 290.5 293.595Z" fill="#19405C"/>
<path d="M210.4 338.295C224.207 338.295 235.4 324.237 235.4 306.895C235.4 289.554 224.207 275.495 210.4 275.495C196.593 275.495 185.4 289.554 185.4 306.895C185.4 324.237 196.593 338.295 210.4 338.295Z" fill="#19405C"/>
<path d="M294.8 284.595C291.8 284.595 288.9 284.595 285.9 284.595C285.9 279.095 285.9 273.495 285.9 267.995C285.9 264.095 284.3 262.495 280.3 262.495C274.9 262.495 269.4 262.495 264 262.495C256.1 262.395 250.4 256.695 250.4 248.895C250.4 244.595 250.4 240.195 250.5 235.895C253.4 235.895 256.3 235.895 259.2 235.895C259.2 237.595 259.3 239.195 259.3 240.895C259.2 254.595 258.5 253.795 272.2 253.695C275.2 253.695 278.1 253.695 281.1 253.695C289.1 253.795 294.8 259.395 294.8 267.495C294.8 273.195 294.8 278.895 294.8 284.595Z" fill="#A8341A"/>
<path d="M135 275.695C132 275.695 129.1 275.695 126.1 275.695C126.1 272.795 126.1 269.995 126.1 267.095C126.2 259.395 131.9 253.695 139.6 253.595C144.9 253.495 150.1 253.595 155.4 253.595C160.3 253.595 161.7 252.295 161.7 247.395C161.7 243.495 161.8 239.695 161.8 235.795C164.7 235.795 167.6 235.795 170.5 235.795C170.5 240.395 170.7 244.995 170.6 249.595C170.4 256.595 164.7 262.295 157.6 262.395C152 262.495 146.4 262.395 140.7 262.395C136.7 262.395 135.2 263.895 135.1 267.895C134.9 270.595 135 273.195 135 275.695Z" fill="#A8341A"/>
<path d="M139.3 342.395C139.3 343.795 139.3 345.095 139.3 346.895C142.3 346.895 145.2 346.895 148 346.895C153.2 346.995 156.5 350.195 157.1 355.595C139.4 355.595 121.8 355.595 104.1 355.595C104.1 350.795 107.6 347.095 112.5 346.895C115.4 346.795 118.4 346.895 121.5 346.895C121.6 345.295 121.6 343.895 121.7 342.395C127.6 342.395 133.5 342.395 139.3 342.395Z" fill="#1E4B6C"/>
<path d="M214.8 235.795C214.8 249.095 214.9 262.395 214.9 275.695C211.9 275.695 209 275.695 206 275.695C206 262.395 206.1 249.095 206.1 235.795C209 235.795 211.9 235.795 214.8 235.795Z" fill="#A8341A"/>
<path d="M206 275.695C209 275.695 211.9 275.695 214.9 275.695C217.5 275.695 220 275.795 222.6 275.795C226.7 275.795 228.2 277.295 228.2 281.395C228.2 282.495 228.1 283.595 228.1 284.695C216.3 284.695 204.5 284.695 192.8 284.695C192.4 276.595 193.1 275.795 201.1 275.795C202.7 275.795 204.4 275.795 206 275.695Z" fill="#1694CE"/>
<path d="M192.8 329.095C204.6 329.095 216.4 329.095 228.1 329.095C228.1 329.195 228.1 329.295 228.1 329.395C228.4 337.195 227.6 337.995 219.9 337.995C212.9 337.995 205.9 337.995 198.9 337.995C193.9 337.995 192.6 336.695 192.6 331.595C192.7 330.795 192.7 329.895 192.8 329.095Z" fill="#1694CE"/>
<path d="M252 346.795C259.2 346.895 266.4 346.895 273.6 346.995C274.6 348.195 275.5 349.395 276.5 350.595C278 352.295 279.4 353.995 280.9 355.695C271.1 355.695 261.2 355.795 251.4 355.795C247.9 355.795 245.9 354.095 245.9 351.295C245.9 348.595 247.8 346.995 251.1 346.895C251.5 346.895 251.8 346.795 252 346.795Z" fill="#1694CE"/>
<path d="M307.6 346.995C313.3 346.995 319 346.995 324.6 346.895C325.8 346.895 326.9 346.595 328.1 346.395C328.9 346.595 329.6 346.795 330.4 346.895C333 347.195 334.8 348.995 334.7 351.395C334.7 353.795 332.9 355.695 330.2 355.695C320 355.695 309.9 355.695 299.7 355.595C300.4 354.795 301.2 353.995 301.9 353.195C303.9 351.195 305.7 349.095 307.6 346.995Z" fill="#01A0C8"/>
<path d="M307.6 346.995C305.7 349.095 303.9 351.195 302 353.295C301.3 354.095 300.5 354.895 299.8 355.695C293.5 355.695 287.2 355.695 281 355.695C279.5 353.995 278 352.295 276.6 350.595C275.6 349.395 274.7 348.195 273.7 346.995C285 346.995 296.3 346.995 307.6 346.995Z" fill="#1174A1"/>
<path d="M139.3 342.395C133.4 342.395 127.6 342.395 121.7 342.395C121.7 340.895 121.6 339.495 121.6 337.995C127.6 337.995 133.5 337.995 139.5 337.995C139.4 339.495 139.4 340.995 139.3 342.395Z" fill="#00325A"/>
<path d="M170.4 235.795C167.5 235.795 164.6 235.795 161.7 235.795C161.7 234.395 161.6 232.895 161.6 231.495C164.6 231.495 167.5 231.495 170.5 231.495C170.5 232.995 170.4 234.395 170.4 235.795Z" fill="#D44221"/>
<path d="M214.8 235.795C211.9 235.795 209 235.795 206.1 235.795C206.1 234.395 206 232.895 206 231.495C209 231.495 211.9 231.495 214.9 231.495C214.9 232.995 214.8 234.395 214.8 235.795Z" fill="#D44221"/>
<path d="M259.2 235.795C256.3 235.795 253.4 235.795 250.5 235.795C250.5 234.395 250.4 232.895 250.4 231.495C253.4 231.495 256.3 231.495 259.3 231.495C259.3 232.995 259.2 234.395 259.2 235.795Z" fill="#D44221"/>
<path d="M130.5 284.695C140.5 284.695 150.5 284.695 160.5 284.695C164.7 284.695 166.1 286.195 166.1 290.395C166.1 301.395 166.1 312.395 166.1 323.395C166.1 327.595 164.7 329.095 160.5 329.095C140.5 329.095 120.6 329.095 100.6 329.095C96.6 329.095 95.1 327.595 95.1 323.495C95.1 312.395 95.1 301.295 95.1 290.195C95.1 286.195 96.6 284.695 100.6 284.695C110.5 284.695 120.5 284.695 130.5 284.695Z" fill="#1694CE"/>
<path d="M290.5 293.595C300.3 293.595 310.1 293.595 319.9 293.595C324.5 293.595 325.9 294.895 325.9 299.495C325.9 310.395 325.9 321.295 325.9 332.195C325.9 336.595 324.5 337.995 320.1 337.995C300.3 337.995 280.5 337.995 260.7 337.995C256.3 337.995 254.8 336.595 254.8 332.295C254.8 321.295 254.8 310.295 254.8 299.295C254.8 295.095 256.2 293.595 260.5 293.595C270.5 293.595 280.5 293.595 290.5 293.595Z" fill="#1694CE"/>
<path d="M309.683 423.591C306.401 414.79 308.128 406.852 313.05 398.914C334.724 364.487 356.138 329.801 377.725 295.288C385.41 282.95 401.298 280.275 412.178 289.507C414.251 291.233 416.064 293.562 417.532 295.892C435.492 324.624 453.366 353.357 471.327 382.089C471.672 382.693 472.104 383.21 472.536 383.814C476.076 389.682 479.703 395.463 483.243 401.33C492.223 416.084 484.366 434.29 467.528 437.655C465.801 438 463.901 438 462.088 438C419 438 375.912 438 332.738 438C322.289 438 314.691 433.427 309.942 424.108C309.942 423.936 309.855 423.763 309.683 423.591Z" fill="#D44221"/>
<rect x="390" y="318" width="15" height="75" rx="7.5" fill="#F8FAFB"/>
<rect x="390" y="404" width="15" height="15" rx="7.5" fill="#F8FAFB"/>
</svg>
