<svg width="36" height="37" viewBox="0 0 36 37" fill="none" xmlns="http://www.w3.org/2000/svg">
<path d="M33.3333 6.66675H21.7833L17.15 3.20009C16.6907 2.84946 16.1278 2.66181 15.55 2.66675H8C7.29276 2.66675 6.61448 2.9477 6.11438 3.4478C5.61428 3.9479 5.33333 4.62617 5.33333 5.33342V8.00009H2.66667C1.95942 8.00009 1.28115 8.28104 0.781048 8.78113C0.280951 9.28123 0 9.95951 0 10.6668V29.3334C0 30.0407 0.280951 30.7189 0.781048 31.219C1.28115 31.7191 1.95942 32.0001 2.66667 32.0001H28.15C28.8161 31.9957 29.4537 31.7292 29.9247 31.2581C30.3957 30.7871 30.6623 30.1495 30.6667 29.4834V26.6668H33.4833C34.1494 26.6624 34.787 26.3958 35.2581 25.9248C35.7291 25.4538 35.9956 24.8162 36 24.1501V9.33342C36 8.62617 35.719 7.9479 35.219 7.4478C34.7189 6.9477 34.0406 6.66675 33.3333 6.66675V6.66675ZM33.3333 24.0001H30.6667V14.6668C30.6667 13.9595 30.3857 13.2812 29.8856 12.7811C29.3855 12.281 28.7072 12.0001 28 12.0001H16.45L11.8167 8.53342C11.3574 8.18279 10.7944 7.99514 10.2167 8.00009H8V5.33342H15.55L20.1833 8.80009C20.6426 9.15071 21.2056 9.33836 21.7833 9.33342H33.3333V24.0001Z" fill="#1E4B6C"/>
<path d="M11.6249 17.3854C11.6249 16.7472 11.8784 16.1352 12.3297 15.6839C12.7809 15.2327 13.393 14.9792 14.0311 14.9792C14.6693 14.9792 15.2813 15.2327 15.7326 15.6839C16.1839 16.1352 16.4374 16.7472 16.4374 17.3854C16.4374 18.0236 16.1839 18.6356 15.7326 19.0869C15.2813 19.5381 14.6693 19.7917 14.0311 19.7917C13.393 19.7917 12.7809 19.5381 12.3297 19.0869C11.8784 18.6356 11.6249 18.0236 11.6249 17.3854ZM17.3124 18.6979C17.3124 18.4394 17.3633 18.1834 17.4622 17.9445C17.5612 17.7056 17.7062 17.4886 17.889 17.3058C18.0718 17.123 18.2889 16.978 18.5277 16.879C18.7666 16.7801 19.0226 16.7292 19.2811 16.7292C19.5397 16.7292 19.7957 16.7801 20.0345 16.879C20.2734 16.978 20.4904 17.123 20.6732 17.3058C20.8561 17.4886 21.0011 17.7056 21.1 17.9445C21.199 18.1834 21.2499 18.4394 21.2499 18.6979C21.2499 19.2201 21.0425 19.7208 20.6732 20.09C20.304 20.4592 19.8033 20.6667 19.2811 20.6667C18.759 20.6667 18.2582 20.4592 17.889 20.09C17.5198 19.7208 17.3124 19.2201 17.3124 18.6979ZM9.87488 24.8229C9.87488 23.7206 10.3128 22.6634 11.0922 21.884C11.8717 21.1045 12.9288 20.6667 14.0311 20.6667C15.1334 20.6667 16.1906 21.1045 16.97 21.884C17.7495 22.6634 18.1874 23.7206 18.1874 24.8229V24.8247L18.1868 24.8941C18.1856 24.9683 18.1655 25.0409 18.1284 25.1052C18.0914 25.1695 18.0386 25.2233 17.975 25.2616C16.7846 25.9785 15.4208 26.3563 14.0311 26.3542C12.5891 26.3542 11.2393 25.9552 10.0878 25.2616C10.0241 25.2234 9.97123 25.1696 9.93408 25.1053C9.89693 25.041 9.87676 24.9683 9.87546 24.8941L9.87488 24.8229ZM19.0624 24.8247L19.0618 24.9087C19.0585 25.1031 19.0121 25.2944 18.9259 25.4687C19.9442 25.5315 20.9614 25.3284 21.8775 24.8795C21.9484 24.8449 22.0086 24.7917 22.0517 24.7257C22.0948 24.6597 22.1193 24.5832 22.1225 24.5044C22.1431 24.0151 22.037 23.5288 21.8145 23.0926C21.592 22.6564 21.2606 22.285 20.8524 22.0144C20.4442 21.7439 19.973 21.5834 19.4846 21.5484C18.9961 21.5134 18.5069 21.6051 18.0643 21.8147C18.7137 22.683 19.0637 23.7386 19.0618 24.8229V24.8247H19.0624Z" fill="#94AFC2"/>
</svg>
