<svg width="70" height="58" viewBox="0 0 70 58" fill="none" xmlns="http://www.w3.org/2000/svg">
<path d="M64.1364 8.54545H41.9879L33.103 1.89773C32.2223 1.22537 31.1428 0.865516 30.0348 0.875H15.5568C14.2006 0.875 12.8999 1.41376 11.9409 2.37275C10.9819 3.33174 10.4432 4.63242 10.4432 5.98864V11.1023H5.32955C3.97333 11.1023 2.67265 11.641 1.71366 12.6C0.754668 13.559 0.215912 14.8597 0.215912 16.2159V52.0114C0.215912 53.3676 0.754668 54.6683 1.71366 55.6272C2.67265 56.5862 3.97333 57.125 5.32955 57.125H54.1967C55.4741 57.1166 56.6967 56.6055 57.6 55.7022C58.5032 54.799 59.0144 53.5764 59.0227 52.299V46.8977H64.424C65.7013 46.8894 66.924 46.3782 67.8272 45.475C68.7305 44.5717 69.2416 43.3491 69.25 42.0717V13.6591C69.25 12.3029 68.7112 11.0022 67.7523 10.0432C66.7933 9.08421 65.4926 8.54545 64.1364 8.54545ZM64.1364 41.7841H59.0227V23.8864C59.0227 22.5301 58.484 21.2295 57.525 20.2705C56.566 19.3115 55.2653 18.7727 53.9091 18.7727H31.7607L22.8757 12.125C21.995 11.4526 20.9155 11.0928 19.8075 11.1023H15.5568V5.98864H30.0348L38.9197 12.6364C39.8004 13.3087 40.88 13.6686 41.9879 13.6591H64.1364V41.7841Z" fill="#F8FBFB"/>
</svg>
