<svg width="36" height="30" viewBox="0 0 36 30" fill="none" xmlns="http://www.w3.org/2000/svg">
<path d="M33.3333 4.66675H21.7833L17.15 1.20009C16.6907 0.849461 16.1278 0.661806 15.55 0.666752H8C7.29276 0.666752 6.61448 0.947703 6.11438 1.4478C5.61428 1.9479 5.33333 2.62617 5.33333 3.33342V6.00009H2.66667C1.95942 6.00009 1.28115 6.28104 0.781048 6.78113C0.280951 7.28123 0 7.95951 0 8.66675V27.3334C0 28.0407 0.280951 28.7189 0.781048 29.219C1.28115 29.7191 1.95942 30.0001 2.66667 30.0001H28.15C28.8161 29.9957 29.4537 29.7292 29.9247 29.2581C30.3957 28.7871 30.6623 28.1495 30.6667 27.4834V24.6668H33.4833C34.1494 24.6624 34.787 24.3958 35.2581 23.9248C35.7291 23.4538 35.9956 22.8162 36 22.1501V7.33342C36 6.62617 35.719 5.9479 35.219 5.4478C34.7189 4.9477 34.0406 4.66675 33.3333 4.66675V4.66675ZM33.3333 22.0001H30.6667V12.6668C30.6667 11.9595 30.3857 11.2812 29.8856 10.7811C29.3855 10.281 28.7072 10.0001 28 10.0001H16.45L11.8167 6.53342C11.3574 6.18279 10.7944 5.99514 10.2167 6.00009H8V3.33342H15.55L20.1833 6.80009C20.6426 7.15071 21.2056 7.33836 21.7833 7.33342H33.3333V22.0001Z" fill="#1E4B6C"/>
</svg>
