<svg width="44" height="45" viewBox="0 0 44 45" fill="none" xmlns="http://www.w3.org/2000/svg">
<g clip-path="url(#clip0_14_4679)">
<path d="M41.8 2.5H11C9.78455 2.5 8.80005 3.4845 8.80005 4.7V12.4033H44V4.7C44 3.4845 43.0155 2.5 41.8 2.5Z" fill="url(#paint0_linear_14_4679)"/>
<path d="M8.80005 32.2594V39.9C8.80005 41.1155 9.78455 42.1 11 42.1H41.8C43.0155 42.1 44 41.1155 44 39.9V32.2594H8.80005Z" fill="url(#paint1_linear_14_4679)"/>
<path d="M8.80005 12.4033H44V22.3055H8.80005V12.4033Z" fill="url(#paint2_linear_14_4679)"/>
<path d="M8.80005 22.3055H44V32.2605H8.80005V22.3055Z" fill="url(#paint3_linear_14_4679)"/>
<path opacity="0.05" d="M20.1509 10.2H8.80005V36.6H20.1509C22.3872 36.6 24.2 34.7872 24.2 32.5509V14.2491C24.2 12.0128 22.3872 10.2 20.1509 10.2Z" fill="black"/>
<path opacity="0.07" d="M20.0343 35.5H8.80005V10.5663H20.0343C21.9307 10.5663 23.4674 12.103 23.4674 13.9994V32.0669C23.4663 33.9633 21.9296 35.5 20.0343 35.5Z" fill="black"/>
<path opacity="0.09" d="M19.9166 34.4H8.80005V10.9337H19.9166C21.472 10.9337 22.7326 12.1943 22.7326 13.7497V31.584C22.7337 33.1394 21.472 34.4 19.9166 34.4Z" fill="black"/>
<path d="M19.8 33.3H2.2C0.9845 33.3 0 32.3155 0 31.1V13.5C0 12.2845 0.9845 11.3 2.2 11.3H19.8C21.0155 11.3 22 12.2845 22 13.5V31.1C22 32.3155 21.0155 33.3 19.8 33.3Z" fill="url(#paint4_linear_14_4679)"/>
<path d="M15.8433 16.8L14.1427 24.7904L12.2584 16.8H9.85273L7.90903 25.0379L6.15673 16.8H4.00513L6.58353 27.8H9.17073L11.055 19.3421L12.9404 27.8H15.4165L17.9949 16.8H15.8433Z" fill="white"/>
</g>
<defs>
<linearGradient id="paint0_linear_14_4679" x1="26.4" y1="12.3626" x2="26.4" y2="2.995" gradientUnits="userSpaceOnUse">
<stop stop-color="#42A3F2"/>
<stop offset="1" stop-color="#42A4EB"/>
</linearGradient>
<linearGradient id="paint1_linear_14_4679" x1="26.4" y1="42.1" x2="26.4" y2="32.2594" gradientUnits="userSpaceOnUse">
<stop stop-color="#11408A"/>
<stop offset="1" stop-color="#103F8F"/>
</linearGradient>
<linearGradient id="paint2_linear_14_4679" x1="26.4" y1="-21.106" x2="26.4" y2="-21.1731" gradientUnits="userSpaceOnUse">
<stop stop-color="#3079D6"/>
<stop offset="1" stop-color="#297CD2"/>
</linearGradient>
<linearGradient id="paint3_linear_14_4679" x1="8.80005" y1="27.283" x2="44" y2="27.283" gradientUnits="userSpaceOnUse">
<stop stop-color="#1D59B3"/>
<stop offset="1" stop-color="#195BBC"/>
</linearGradient>
<linearGradient id="paint4_linear_14_4679" x1="0.8184" y1="12.1184" x2="21.4434" y2="32.7423" gradientUnits="userSpaceOnUse">
<stop stop-color="#256AC2"/>
<stop offset="1" stop-color="#1247AD"/>
</linearGradient>
<clipPath id="clip0_14_4679">
<rect width="44" height="39.6" fill="white" transform="translate(0 2.5)"/>
</clipPath>
</defs>
</svg>
