<svg width="64" height="64" viewBox="0 0 64 64" fill="none" xmlns="http://www.w3.org/2000/svg">
<path d="M58.4853 58.4853C60.7357 56.2348 62 53.1826 62 50C62 48.602 61.475 48.065 60.53 47.03L48.44 33.845C47.8765 33.2303 47.1911 32.7399 46.4275 32.4049C45.6639 32.07 44.8389 31.8978 44.005 31.8995C43.1712 31.9012 42.3469 32.0767 41.5846 32.4148C40.8224 32.7528 40.139 33.2461 39.578 33.863L14 62H50C53.1826 62 56.2348 60.7357 58.4853 58.4853Z" fill="#F8FBFB"/>
<path d="M62 50V14C62 10.8174 60.7357 7.76516 58.4853 5.51472C56.2348 3.26428 53.1826 2 50 2H14C10.8174 2 7.76516 3.26428 5.51472 5.51472C3.26428 7.76516 2 10.8174 2 14V50C2 53.1826 3.26428 56.2348 5.51472 58.4853C7.76516 60.7357 10.8174 62 14 62M62 50C62 53.1826 60.7357 56.2348 58.4853 58.4853C56.2348 60.7357 53.1826 62 50 62H14M62 50V50.399C62 53.4758 60.7778 56.4265 58.6022 58.6021C56.4265 60.7778 53.4758 62 50.399 62H14M62 50C62 48.602 61.475 48.065 60.53 47.03L48.44 33.845C47.8765 33.2303 47.1911 32.7399 46.4275 32.4049C45.6639 32.0699 44.8389 31.8978 44.005 31.8995C43.1712 31.9012 42.3469 32.0767 41.5846 32.4148C40.8224 32.7528 40.139 33.2461 39.578 33.863L14 62M29 21.5C29 25.6421 25.6421 29 21.5 29C17.3579 29 14 25.6421 14 21.5C14 17.3579 17.3579 14 21.5 14C25.6421 14 29 17.3579 29 21.5Z" stroke="#F8FBFB" stroke-width="4" stroke-linecap="round" stroke-linejoin="round"/>
</svg>
