<svg width="193" height="26" viewBox="0 0 193 26" fill="none" xmlns="http://www.w3.org/2000/svg">
<path d="M71.2865 0.24326C73.6712 0.24326 76.0701 0.229065 78.4548 0.24326C80.7828 0.257455 82.4294 1.40724 82.8978 3.35193C83.0256 3.87714 83.054 4.43073 83.054 4.97014C83.0824 7.31228 83.0682 9.65443 83.0824 11.9966C83.0824 14.9207 81.3932 16.7235 78.4406 16.7518C73.6854 16.8086 68.9301 16.8086 64.1748 16.7518C61.0662 16.7235 59.0221 14.58 58.9937 11.4572C58.9795 9.22859 58.9937 7.01419 58.9937 4.7856C58.9937 2.27312 60.399 0.583936 62.9257 0.356818C64.6859 0.200675 66.4744 0.257455 68.2346 0.229065C69.2566 0.229065 70.2644 0.24326 71.2865 0.24326ZM63.5219 12.1243C68.5327 12.1243 73.515 12.1243 78.5116 12.1243C78.5116 9.65443 78.5116 7.19873 78.5116 4.77141C73.4867 4.77141 68.5043 4.77141 63.5219 4.77141C63.5219 7.22711 63.5219 9.65443 63.5219 12.1243Z" fill="#F8FBFB"/>
<path d="M169.529 16.7235C169.529 11.2301 169.529 5.77932 169.529 0.285919C171.232 0.285919 172.893 0.285919 174.653 0.285919C174.653 2.259 174.653 4.23208 174.653 6.21936C178.912 6.21936 183.099 6.21936 187.343 6.21936C187.343 4.24628 187.343 2.30158 187.343 0.300114C189.089 0.300114 190.75 0.300114 192.468 0.300114C192.468 5.75093 192.468 11.2159 192.468 16.7235C190.793 16.7235 189.132 16.7235 187.4 16.7235C187.4 14.6937 187.4 12.678 187.4 10.6056C183.127 10.6056 178.94 10.6056 174.682 10.6056C174.682 12.6354 174.682 14.6653 174.682 16.7235C172.95 16.7235 171.275 16.7235 169.529 16.7235Z" fill="#F8FBFB"/>
<path d="M166.278 0.314133C165.228 1.67684 164.234 2.99696 163.198 4.28868C163.042 4.47322 162.673 4.57258 162.403 4.57258C158.755 4.58678 155.121 4.58678 151.473 4.58678C150.281 4.58678 149.173 4.82809 148.18 5.50944C146.093 6.95731 145.965 9.68272 147.924 11.3009C149.017 12.2094 150.309 12.4791 151.7 12.4791C156.313 12.4649 160.927 12.4791 165.54 12.4791C165.767 12.4791 166.008 12.4791 166.335 12.4791C166.236 12.6778 166.179 12.8198 166.094 12.9333C165.199 14.0973 164.305 15.2613 163.397 16.3969C163.24 16.5814 162.942 16.7801 162.715 16.7801C158.485 16.7659 154.241 16.8227 150.025 16.6666C147.371 16.5672 145.114 15.3748 143.325 13.3876C140.316 10.0376 140.841 5.02682 144.461 2.3298C146.377 0.910315 148.563 0.299938 150.905 0.285743C155.973 0.243158 161.026 0.257353 166.094 0.257353C166.108 0.228964 166.15 0.257353 166.278 0.314133Z" fill="#F8FBFB"/>
<path d="M55.7005 6.19091C55.7005 7.72395 55.7005 9.08665 55.7005 10.5061C49.6819 10.5061 43.7059 10.5061 37.6447 10.5061C37.6447 12.607 37.6447 14.651 37.6447 16.7235C36.2394 16.7235 34.9335 16.7235 33.5282 16.7235C33.5282 16.3118 33.5282 15.9002 33.5282 15.4743C33.5282 12.1669 33.6276 8.84534 33.514 5.53794C33.4146 2.13119 35.6858 0.754287 37.9712 0.371027C38.4822 0.285858 39.0074 0.257468 39.5184 0.257468C44.6569 0.243274 49.7813 0.257468 54.9198 0.257468C55.1753 0.257468 55.4308 0.257468 55.7147 0.257468C55.7147 1.69115 55.7147 3.05385 55.7147 4.45914C49.7103 4.45914 43.7343 4.45914 37.7015 4.45914C37.7015 5.04113 37.7015 5.56633 37.7015 6.2051C43.6775 6.19091 49.6961 6.19091 55.7005 6.19091Z" fill="#F8FBFB"/>
<path d="M12.0231 4.61529C12.0231 8.63243 12.0231 12.6496 12.0231 16.7093C10.6036 16.7093 9.22671 16.7093 7.73625 16.7093C7.73625 16.468 7.73625 16.2125 7.73625 15.9712C7.73625 12.1102 7.76464 8.26336 7.72206 4.40237C7.69367 2.51446 8.47439 1.12336 10.1636 0.385232C11.9237 -0.367094 13.6555 0.0019717 15.0324 1.32209C17.6442 3.82038 20.1851 6.40384 22.7544 8.94471C23.7906 9.98094 24.841 11.0172 25.8772 12.0392C25.9624 12.1244 26.076 12.1953 26.2605 12.3373C26.2605 8.29175 26.2605 4.35978 26.2605 0.356842C27.6658 0.356842 29.0143 0.356842 30.4054 0.356842C30.4196 0.442011 30.448 0.52718 30.448 0.612349C30.448 4.62949 30.4622 8.66082 30.448 12.678C30.4338 14.8356 29.0711 16.4254 26.9986 16.7093C25.6075 16.8938 24.3726 16.4254 23.379 15.4459C20.1709 12.3515 16.9629 9.24281 13.7691 6.11994C13.2297 5.59473 12.7612 5.01275 12.2502 4.45915C12.1792 4.50173 12.0941 4.55851 12.0231 4.61529Z" fill="#F8FBFB"/>
<path d="M95.6162 4.58697C91.9966 4.58697 88.4762 4.58697 84.8566 4.58697C84.9559 4.38825 84.9985 4.2463 85.0837 4.13274C85.9922 2.95457 86.8864 1.7622 87.8233 0.598226C87.9794 0.413693 88.2775 0.229161 88.5046 0.229161C96.6241 0.214966 104.729 0.214966 112.948 0.214966C112.835 0.413693 112.764 0.569837 112.664 0.711785C111.784 1.86157 110.918 3.01135 110.01 4.11854C109.825 4.34566 109.442 4.53019 109.144 4.54439C106.631 4.57278 104.133 4.55858 101.621 4.55858C101.365 4.55858 101.11 4.55858 100.755 4.55858C100.755 8.6325 100.755 12.6496 100.755 16.7236C98.9946 16.7236 97.3338 16.7236 95.6021 16.7236C95.6163 12.7064 95.6162 8.68928 95.6162 4.58697Z" fill="#F8FBFB"/>
<path d="M138.712 12.9476C137.704 14.2535 136.81 15.4317 135.887 16.5957C135.788 16.7092 135.561 16.7802 135.39 16.7802C128.321 16.7944 121.252 16.7944 114.027 16.7944C114.467 16.2124 114.836 15.7014 115.219 15.2188C115.801 14.4806 116.256 13.4586 117.022 13.0895C117.789 12.7205 118.867 12.976 119.818 12.976C125.809 12.976 131.785 12.976 137.775 12.976C138.016 12.9476 138.286 12.9476 138.712 12.9476Z" fill="#1E4B6C"/>
<path d="M138.669 0.328429C137.732 1.53499 136.838 2.69897 135.93 3.83455C135.816 3.9623 135.561 4.04747 135.376 4.04747C128.35 4.06167 121.323 4.04747 114.311 4.04747C114.268 4.04747 114.226 4.01908 114.084 3.9765C115.035 2.74155 115.972 1.53499 116.923 0.342624C117.008 0.24326 117.221 0.229065 117.377 0.229065C124.404 0.229065 131.43 0.229065 138.442 0.229065C138.471 0.229065 138.513 0.257455 138.669 0.328429Z" fill="#1E4B6C"/>
<path d="M113.999 10.421C114.992 9.14342 115.858 7.99364 116.767 6.87224C116.894 6.7161 117.15 6.60254 117.349 6.60254C124.418 6.58835 131.472 6.58835 138.698 6.58835C138.3 7.11356 137.974 7.5536 137.647 7.97944C137.023 8.77435 136.54 9.86735 135.717 10.279C134.893 10.6907 133.729 10.4068 132.722 10.4068C126.788 10.4068 120.855 10.4068 114.921 10.4068C114.666 10.421 114.41 10.421 113.999 10.421Z" fill="#1E4B6C"/>
<path d="M4.59912 16.7376C3.05189 16.7376 1.54724 16.7376 0 16.7376C0 11.2584 0 5.80761 0 0.300018C1.51885 0.300018 3.03769 0.300018 4.59912 0.300018C4.59912 5.75083 4.59912 11.2016 4.59912 16.7376Z" fill="#F8FBFB"/>
<path d="M83.7211 20.6696C84.6295 20.4425 85.3251 20.6412 85.9071 21.4077C86.4323 22.1033 87.0852 22.6994 87.8092 23.466C87.8092 22.4439 87.8092 21.5639 87.8092 20.6554C88.3912 20.6554 88.8738 20.6554 89.4132 20.6554C89.4132 22.3872 89.4132 24.1189 89.4132 25.8365C88.5473 26.0352 87.866 25.9217 87.284 25.1552C86.7162 24.417 86.0348 23.7783 85.2683 22.9692C85.2683 24.048 85.2683 24.928 85.2683 25.8649C84.7289 25.8649 84.2463 25.8649 83.7211 25.8649C83.7211 24.1473 83.7211 22.4297 83.7211 20.6696Z" fill="#F8FBFB"/>
<path d="M136.327 22.9977C137.236 23.6649 137.463 24.1333 137.236 24.8572C137.008 25.567 136.455 25.9077 135.433 25.9077C134.468 25.9219 133.502 25.9077 132.48 25.9077C132.48 24.1475 132.48 22.4157 132.48 20.6556C133.573 20.6556 134.681 20.5846 135.774 20.6982C136.157 20.7407 136.639 21.124 136.838 21.4789C137.136 22.0467 136.81 22.5719 136.327 22.9977ZM134.084 25.1837C134.681 24.9708 135.149 24.843 135.575 24.6301C135.66 24.5875 135.632 24.0056 135.518 23.963C135.078 23.7784 134.61 23.6933 134.084 23.5513C134.084 24.1475 134.084 24.5308 134.084 25.1837ZM134.099 22.9551C134.61 22.728 135.007 22.5861 135.348 22.359C135.433 22.3022 135.376 21.8054 135.263 21.7486C134.922 21.5924 134.51 21.5357 134.099 21.4363C134.099 21.9615 134.099 22.3306 134.099 22.9551Z" fill="#F8FBFB"/>
<path d="M16.75 20.6269C17.7578 20.6269 18.7373 20.5986 19.7309 20.6411C20.3413 20.6553 20.9091 20.8541 21.1362 21.507C21.3491 22.1316 21.0368 22.5858 20.6536 22.9265C20.9375 23.2956 21.3491 23.6079 21.4911 24.0195C21.8176 24.9848 21.1504 25.8364 20.0574 25.8932C18.9786 25.9358 17.8856 25.9074 16.75 25.9074C16.75 24.1473 16.75 22.4155 16.75 20.6269ZM18.354 23.4659C18.354 24.1473 18.354 24.5589 18.354 25.1693C18.9218 24.9848 19.3902 24.857 19.8161 24.6441C19.9013 24.6015 19.9154 24.0763 19.8303 24.0337C19.4186 23.8208 18.936 23.6788 18.354 23.4659ZM18.3682 22.9407C18.8792 22.7278 19.2767 22.6142 19.6032 22.4013C19.6883 22.3445 19.6599 21.8335 19.5464 21.7767C19.2057 21.6064 18.7941 21.5354 18.3682 21.4219C18.3682 21.9613 18.3682 22.3303 18.3682 22.9407Z" fill="#F8FBFB"/>
<path d="M27.3109 20.6271C28.3614 20.6271 29.3692 20.5846 30.377 20.6413C31.101 20.6839 31.5978 21.124 31.8107 21.8337C32.0236 22.5576 31.7539 23.1254 31.2003 23.4945C31.612 24.2752 31.9952 25.0275 32.4495 25.9076C31.9101 25.9076 31.5268 25.9644 31.1719 25.8934C30.9306 25.8366 30.6467 25.6663 30.5048 25.4534C30.2777 25.1269 30.1925 24.7011 29.9512 24.3888C29.7383 24.1191 29.3692 23.9629 29.0711 23.75C29.0143 23.7926 28.9434 23.8494 28.8866 23.892C28.8866 24.5449 28.8866 25.1837 28.8866 25.865C28.3188 25.865 27.8362 25.865 27.2968 25.865C27.3109 24.1333 27.3109 22.4015 27.3109 20.6271ZM28.9008 23.0119C29.3834 22.8557 29.795 22.7848 30.1215 22.586C30.2209 22.5293 30.1925 21.9615 30.0789 21.9047C29.7383 21.7201 29.3408 21.6776 28.9008 21.564C28.9008 22.0892 28.9008 22.4299 28.9008 23.0119Z" fill="#F8FBFB"/>
<path d="M142.871 20.6271C143.425 20.6271 143.879 20.6271 144.447 20.6271C144.447 21.5213 144.433 22.3872 144.447 23.2531C144.461 24.0906 144.844 24.559 145.497 24.6158C146.292 24.6868 146.775 24.2042 146.831 23.2389C146.86 22.8131 146.831 22.3872 146.846 21.9614C146.846 21.5355 146.846 21.1239 146.846 20.6555C147.371 20.6555 147.853 20.6555 148.393 20.6555C148.393 21.8194 148.464 22.9976 148.35 24.1616C148.308 24.6016 147.91 25.1126 147.527 25.4107C146.59 26.1773 144.731 26.2056 143.808 25.4391C143.396 25.0984 142.985 24.5165 142.914 24.0054C142.772 22.9124 142.871 21.8052 142.871 20.6271Z" fill="#F8FBFB"/>
<path d="M78.2419 25.9074C77.8586 25.9074 77.5747 25.879 77.305 25.9074C76.8082 25.9642 76.5385 25.8081 76.3682 25.3112C76.2972 25.1125 75.9565 24.9138 75.7152 24.8712C75.3462 24.8002 74.9629 24.8854 74.5938 24.8428C74.097 24.786 73.8273 24.9564 73.6428 25.439C73.5576 25.6519 73.2453 25.8223 72.9898 25.879C72.6491 25.95 72.2943 25.8932 71.8116 25.8932C72.1949 25.0415 72.5356 24.275 72.8763 23.5085C73.1744 22.8413 73.515 22.1884 73.7421 21.4928C73.9835 20.7973 74.3667 20.5418 75.119 20.556C75.772 20.5702 76.0701 20.7689 76.2972 21.3509C76.8224 22.6426 77.4044 23.8918 77.9722 25.1693C78.0716 25.3964 78.1425 25.6235 78.2419 25.9074ZM75.0623 21.9755C74.7642 22.7136 74.5371 23.2814 74.2957 23.8776C74.821 23.8776 75.261 23.8776 75.8004 23.8776C75.5591 23.2672 75.3462 22.6994 75.0623 21.9755Z" fill="#F8FBFB"/>
<path d="M100.528 20.6555C100.528 21.053 100.528 21.422 100.528 21.8763C99.9174 21.8763 99.2928 21.8763 98.6114 21.8763C98.6114 23.2532 98.6114 24.5307 98.6114 25.865C98.0578 25.865 97.5752 25.865 97.0358 25.865C97.0358 24.5591 97.0358 23.2816 97.0358 21.9331C96.3687 21.9331 95.7725 21.9331 95.1195 21.9331C95.1195 21.4788 95.1195 21.0956 95.1195 20.6555C96.9081 20.6555 98.6966 20.6555 100.528 20.6555Z" fill="#F8FBFB"/>
<path d="M170.309 21.9189C170.309 21.4362 170.309 21.053 170.309 20.6555C172.126 20.6555 173.915 20.6555 175.746 20.6555C175.746 21.0672 175.746 21.4504 175.746 21.9189C175.107 21.9189 174.511 21.9189 173.844 21.9189C173.844 23.2816 173.844 24.5591 173.844 25.8792C173.29 25.8792 172.808 25.8792 172.254 25.8792C172.254 24.5591 172.254 23.2816 172.254 21.9189C171.559 21.9189 170.962 21.9189 170.309 21.9189Z" fill="#F8FBFB"/>
<path d="M117.931 25.8792C117.349 25.8792 116.88 25.8792 116.412 25.8792C116.114 24.9566 116.667 23.9345 116.014 23.0686C115.432 22.3021 114.879 21.5214 114.311 20.7407C115.858 20.0735 116.383 21.2375 117.079 22.2737C117.775 21.2659 118.328 20.0877 119.918 20.7407C119.506 21.3227 119.109 21.9473 118.626 22.515C118.073 23.168 117.817 23.8636 117.917 24.7152C117.973 25.0843 117.931 25.4534 117.931 25.8792Z" fill="#F8FBFB"/>
<path d="M107.767 24.6157C108.633 24.6157 109.371 24.6157 110.166 24.6157C110.166 25.0558 110.166 25.439 110.166 25.8649C108.86 25.8649 107.583 25.8649 106.234 25.8649C106.234 24.1473 106.234 22.4155 106.234 20.6412C106.731 20.6412 107.214 20.6412 107.767 20.6412C107.767 21.9329 107.767 23.2246 107.767 24.6157Z" fill="#F8FBFB"/>
<path d="M163.61 24.6299C164.461 24.6299 165.214 24.6299 166.008 24.6299C166.008 25.0558 166.008 25.4532 166.008 25.8649C164.703 25.8649 163.411 25.8649 162.077 25.8649C162.077 24.1331 162.077 22.4013 162.077 20.6412C162.588 20.6412 163.056 20.6412 163.61 20.6412C163.61 21.9613 163.61 23.2388 163.61 24.6299Z" fill="#F8FBFB"/>
<path d="M56.7367 24.6442C57.6026 24.6442 58.3549 24.6442 59.1356 24.6442C59.1356 25.0558 59.1356 25.4249 59.1356 25.8507C57.8439 25.8507 56.538 25.8507 55.1895 25.8507C55.1895 24.1474 55.1895 22.444 55.1895 20.6696C55.6721 20.6696 56.1689 20.6696 56.7367 20.6696C56.7367 21.9613 56.7367 23.2531 56.7367 24.6442Z" fill="#F8FBFB"/>
<path d="M49.4832 24.6158C49.4832 25.0842 49.4832 25.4533 49.4832 25.8649C48.163 25.8649 46.8713 25.8649 45.537 25.8649C45.537 24.1473 45.537 22.444 45.537 20.6696C46.0054 20.6696 46.488 20.6696 47.07 20.6696C47.07 21.9472 47.07 23.2531 47.07 24.6158C47.9075 24.6158 48.6599 24.6158 49.4832 24.6158Z" fill="#F8FBFB"/>
<path d="M39.419 20.6696C39.419 22.4298 39.419 24.119 39.419 25.8649C38.908 25.8649 38.4254 25.8649 37.886 25.8649C37.886 24.1473 37.886 22.4156 37.886 20.6696C38.4254 20.6696 38.9222 20.6696 39.419 20.6696Z" fill="#F8FBFB"/>
<path d="M66.3751 25.8791C65.8499 25.8791 65.3815 25.8791 64.8705 25.8791C64.8705 24.1473 64.8705 22.4155 64.8705 20.6412C65.3673 20.6412 65.8499 20.6412 66.3751 20.6412C66.3751 22.3871 66.3751 24.0905 66.3751 25.8791Z" fill="#F8FBFB"/>
<path d="M154.426 20.6412C154.951 20.6412 155.433 20.6412 155.959 20.6412C155.959 22.3871 155.959 24.1047 155.959 25.8649C155.448 25.8649 154.965 25.8649 154.426 25.8649C154.426 24.1473 154.426 22.4297 154.426 20.6412Z" fill="#F8FBFB"/>
</svg>
