<svg width="44" height="45" viewBox="0 0 44 45" fill="none" xmlns="http://www.w3.org/2000/svg">
<path d="M8.9227 0.5C18.5881 0.5 28.2534 0.5 37.9188 0.5C37.9726 0.53229 38.0372 0.575342 38.091 0.586106C40.7388 1.07045 42.5577 2.56654 43.5157 5.09589C43.6879 5.54795 43.7847 6.04305 43.9247 6.50587C43.9247 17.1722 43.9247 27.8386 43.9247 38.5049C43.8816 38.6233 43.8278 38.7309 43.8063 38.8493C43.0959 42.1859 40.3728 44.4247 36.9501 44.4247C26.9618 44.4354 16.9736 44.4354 6.98532 44.4139C6.21037 44.4139 5.40313 44.2847 4.67123 44.0372C1.76517 43.0362 0 40.4853 0 37.3748C0 29.7544 0 22.1448 0 14.5245C0 14.3953 0.0107632 14.2661 0.0107632 14.137C0.258317 13.9002 0.495108 13.6742 0.742662 13.4374C1.92661 12.2534 3.12133 11.0587 4.30528 9.87476C4.43444 9.7456 4.52055 9.58415 4.62818 9.43346C5.10176 9.4227 5.56458 9.4227 6.03816 9.41194C7.63112 9.40118 8.91194 8.12035 8.9227 6.5274C8.93347 4.51468 8.9227 2.51272 8.9227 0.5ZM34.4638 29.4638C34.4638 26.816 34.4746 24.1575 34.4746 21.5098C34.819 21.5098 35.1526 21.5313 35.4863 21.4883C35.6478 21.4667 35.863 21.3376 35.9276 21.1977C36.1106 20.7887 36.229 20.3474 36.3581 19.9168C36.3797 19.8307 36.3258 19.7231 36.3043 19.6262C36.3366 19.4648 36.3797 19.3033 36.4227 19.0988C35.7554 19.0988 35.1311 19.0988 34.4853 19.0988C34.4853 18.7652 34.4853 18.4746 34.4853 18.184C34.8298 17.635 35.3249 17.4305 35.9707 17.4736C36.5303 17.5059 36.5303 17.4736 36.5411 16.9031C36.5411 16.5157 36.5519 16.1282 36.5411 15.7515C36.5196 15.0303 36.681 15.1703 35.9168 15.0196C33.592 14.5675 32.2251 15.6977 32.1712 18.0656C32.1605 18.3992 32.1712 18.7436 32.1712 19.1204C31.7084 19.1204 31.2994 19.1204 30.8797 19.1204C30.8797 19.7554 30.8797 20.3366 30.8797 20.9178C30.8904 21.499 30.8904 21.499 31.4824 21.499C31.7084 21.499 31.9344 21.5098 32.1605 21.5098C32.1605 24.1683 32.1712 26.816 32.1712 29.4746C32.182 30.002 32.2251 30.0558 32.7524 30.0665C33.1184 30.0773 33.4951 30.0665 33.8611 30.0665C34.4423 30.0665 34.4638 30.0558 34.4638 29.4638ZM19.7613 26.3532C19.772 27.3219 20.1164 28.1614 20.7299 28.9041C21.957 30.3679 24.7554 30.9814 26.7466 29.1947C26.8542 29.0978 26.9726 29.0117 27.1018 28.9149C27.5538 30.0127 27.5538 30.0127 28.7378 30.0127C29.0822 30.0127 29.4266 30.0127 29.7926 30.0127C29.7818 29.7867 29.771 29.6575 29.771 29.5284C29.7818 29.4423 29.8249 29.3454 29.7926 29.2808C29.3728 28.4843 29.319 27.6233 29.319 26.7407C29.3297 22.9628 29.319 19.1957 29.319 15.4178C29.319 15.2564 29.319 15.0949 29.319 14.8904C28.5225 15.1164 27.7906 15.3102 27.0479 15.5254C27.0479 16.1497 27.0479 16.7524 27.0479 17.3552C27.0479 17.9687 27.0479 18.5714 27.0479 19.2387C25.9501 18.819 24.8953 18.7975 23.819 18.9374C21.6233 19.2172 20.2025 20.498 19.7935 22.6507C19.5568 23.8777 19.5998 25.1155 19.7613 26.3532ZM9.70842 24.8679C11.3552 24.8679 12.9912 24.8894 14.638 24.8571C17.1888 24.8141 18.502 22.8982 18.5988 20.6272C18.5988 20.089 18.6526 19.5401 18.5988 19.002C18.4697 17.6673 17.9961 16.5049 16.8014 15.7622C16.0479 15.2887 15.2192 15.1595 14.3366 15.1595C12.1517 15.1703 9.96673 15.1595 7.7818 15.1595C7.65264 15.1595 7.53425 15.1703 7.38356 15.181C7.3728 15.2779 7.36204 15.3425 7.36204 15.407C7.36204 20.1106 7.36204 24.8033 7.3728 29.5069C7.38356 30.0773 7.38356 30.0773 7.94325 30.0773C8.33073 30.0773 8.70744 30.0773 9.09491 30.0773C9.68689 30.0773 9.68689 30.0773 9.69765 29.4961C9.69765 27.9462 9.70842 26.407 9.70842 24.8679Z" fill="#E14C3F"/>
<path d="M0.0430298 9.40117C0.161425 9.27202 0.269057 9.14286 0.387453 9.02446C3.09978 6.31213 5.81211 3.5998 8.52444 0.887476C8.64283 0.76908 8.7397 0.629159 8.83657 0.5C8.86886 0.5 8.89039 0.5 8.92268 0.5C8.92268 2.51272 8.93344 4.51468 8.92268 6.5274C8.91192 8.12035 7.63109 9.40117 6.03814 9.4227C5.56456 9.43346 5.10174 9.43346 4.62816 9.44423C3.09978 9.4227 1.57141 9.41194 0.0430298 9.40117Z" fill="#FE7164"/>
<path d="M7.37282 29.4961C7.37282 24.7926 7.37282 20.0998 7.36206 15.3963C7.36206 15.3317 7.37282 15.2564 7.38359 15.1703C7.53427 15.1595 7.65267 15.1487 7.78183 15.1487C9.96676 15.1487 12.1517 15.1487 14.3366 15.1487C15.2084 15.1487 16.048 15.2779 16.8014 15.7515C17.9961 16.5049 18.4697 17.6673 18.5989 18.9912C18.6527 19.5294 18.5989 20.0783 18.5989 20.6164C18.545 20.8209 18.4912 21.0254 18.4374 21.2299C18.1145 22.4247 17.5333 23.4579 16.3386 23.9315C15.7358 24.1683 15.047 24.2867 14.3904 24.319C12.9912 24.3728 11.592 24.3405 10.1928 24.3405C10.0421 24.3405 9.89142 24.3405 9.7192 24.3405C9.7192 24.5558 9.7192 24.7172 9.7192 24.8679C9.70844 26.407 9.70844 27.9569 9.69768 29.4961C8.92273 29.4961 8.14777 29.4961 7.37282 29.4961ZM16.2848 19.5401C16.2955 18.7113 16.0695 17.9902 15.2623 17.6243C14.8748 17.4413 14.412 17.3337 13.9814 17.3229C12.636 17.2798 11.3014 17.3014 9.95599 17.3014C9.86989 17.3014 9.79455 17.3229 9.69768 17.3444C9.69768 17.5166 9.69768 17.6781 9.69768 17.8288C9.69768 19.2495 9.69768 20.681 9.69768 22.1018C11.2476 22.1018 12.7437 22.1448 14.2398 22.0802C15.1331 22.0479 15.8758 21.6282 16.1233 20.6703C16.2417 20.3151 16.2417 19.9276 16.2848 19.5401Z" fill="#FEFDFD"/>
<path d="M19.7613 26.3532C19.6106 25.1155 19.5568 23.8777 19.8043 22.6399C20.2241 20.4873 21.6341 19.2065 23.8298 18.9266C24.9061 18.7867 25.9609 18.8082 27.0587 19.228C27.0587 18.5607 27.0587 17.9579 27.0587 17.3444C27.0587 16.7417 27.0587 16.1497 27.0587 15.5147C27.8014 15.3102 28.5333 15.1057 29.3298 14.8796C29.3298 15.0841 29.3298 15.2456 29.3298 15.407C29.3298 19.1849 29.3405 22.9521 29.3298 26.7299C29.3298 27.6125 29.3836 28.4736 29.8033 29.2701C29.8356 29.3346 29.7926 29.4315 29.7818 29.5176C29.136 29.5176 28.501 29.5284 27.8552 29.4853C27.7045 29.4746 27.5 29.3346 27.4247 29.1947C27.2955 28.9472 27.2417 28.6458 27.1448 28.3552C26.7466 28.635 26.3806 28.9256 25.9824 29.1732C23.7975 30.5401 20.7515 29.4315 19.955 26.9775C19.8797 26.7945 19.8258 26.5685 19.7613 26.3532ZM27.0264 21.7789C27.1341 21.456 27.0264 21.273 26.7035 21.1654C25.9501 20.8963 25.1752 20.8317 24.3894 20.8963C22.9041 21.0254 21.9354 22.0802 21.9677 23.5763C21.9785 24.319 21.9247 25.0616 22 25.7935C22.1615 27.2789 23.227 28.0215 24.6585 27.6771C25.5949 27.4511 26.3161 26.8806 26.9619 26.1918C27.0264 26.1272 27.048 26.0088 27.048 25.9227C27.0372 24.545 27.0372 23.1566 27.0264 21.7789Z" fill="#FEFCFB"/>
<path d="M32.182 29.4746C32.182 26.816 32.1713 24.1683 32.1713 21.5098C32.1713 21.3376 32.1713 21.1546 32.1713 20.9716C31.7084 20.9501 31.2994 20.9286 30.8904 20.907C30.8904 20.3258 30.8904 19.7446 30.8904 19.1096C31.321 19.1096 31.7192 19.1096 32.182 19.1096C32.182 18.7221 32.1713 18.3885 32.182 18.0548C32.2358 15.6761 33.6028 14.546 35.9276 15.0088C36.6918 15.1595 36.5411 15.0303 36.5519 15.7407C36.5627 16.1282 36.5519 16.5049 36.5519 16.8924C36.229 16.9031 35.9061 16.9031 35.5832 16.9354C34.8298 17.0108 34.4854 17.409 34.4961 18.1732C34.4961 18.4638 34.4961 18.7544 34.4961 19.0881C35.1419 19.0881 35.7769 19.0881 36.4335 19.0881C36.3904 19.2926 36.3474 19.454 36.3151 19.6155C36.2613 19.7769 36.1967 19.9384 36.1429 20.0998C35.863 20.9501 35.863 20.9609 34.9805 20.9609C34.4423 20.9609 34.4423 20.9609 34.4854 21.5098C34.4854 24.1575 34.4746 26.816 34.4746 29.4638C33.6996 29.4746 32.9355 29.4746 32.182 29.4746Z" fill="#FEFBFB"/>
<path d="M0.0430318 9.40118C1.57141 9.41194 3.09978 9.4227 4.62816 9.43347C4.52053 9.58415 4.42366 9.7456 4.30526 9.87476C3.12131 11.0695 1.93736 12.2534 0.74264 13.4374C0.50585 13.6742 0.258296 13.9002 0.0107422 14.137C0.0215054 12.5656 0.0322686 10.9834 0.0430318 9.40118Z" fill="#C64F45"/>
<path d="M19.7612 26.3532C19.8258 26.5685 19.8904 26.7838 19.955 26.999C20.7514 29.4423 23.7974 30.5616 25.9824 29.1947C26.3806 28.9472 26.7466 28.6566 27.1448 28.3767C27.2309 28.6673 27.2847 28.9579 27.4246 29.2162C27.5 29.3562 27.7045 29.4961 27.8552 29.5068C28.4902 29.5391 29.136 29.5284 29.7818 29.5391C29.7925 29.6683 29.7925 29.7975 29.8033 30.0235C29.4374 30.0235 29.0929 30.0235 28.7485 30.0235C27.5646 30.0235 27.5646 30.0235 27.1125 28.9256C26.9833 29.0225 26.8649 29.1086 26.7573 29.2055C24.7554 30.9922 21.9569 30.3787 20.7407 28.9149C20.1057 28.1614 19.772 27.3219 19.7612 26.3532Z" fill="#FD7467"/>
<path d="M9.70844 24.8679C9.70844 24.7172 9.70844 24.5558 9.70844 24.3405C9.86988 24.3405 10.0313 24.3405 10.182 24.3405C11.5812 24.3405 12.9805 24.3836 14.3797 24.319C15.0362 24.2975 15.7251 24.1791 16.3278 23.9315C17.5225 23.4579 18.1037 22.4247 18.4266 21.2299C18.4805 21.0254 18.5343 20.8209 18.5881 20.6164C18.502 22.8875 17.1889 24.8033 14.6272 24.8464C12.9912 24.8787 11.3552 24.8571 9.70844 24.8679Z" fill="#FD7064"/>
<path d="M7.3728 29.4961C8.14775 29.4961 8.91194 29.4961 9.68689 29.4853C9.67613 30.0665 9.67613 30.0665 9.08415 30.0665C8.69668 30.0665 8.31996 30.0665 7.93249 30.0665C7.39433 30.0665 7.39433 30.0665 7.3728 29.4961Z" fill="#FE796C"/>
<path d="M32.182 29.4746C32.9462 29.4746 33.6996 29.4638 34.4638 29.4638C34.4638 30.045 34.453 30.0665 33.8718 30.0773C33.5059 30.0773 33.1292 30.0881 32.7632 30.0773C32.2358 30.0558 32.1928 30.0127 32.182 29.4746Z" fill="#FD776B"/>
<path d="M34.4853 18.1732C34.4746 17.4198 34.8298 17.0108 35.5724 16.9354C35.8953 16.9031 36.2182 16.9031 36.5411 16.8924C36.5196 17.4628 36.5196 17.4951 35.9707 17.4628C35.3249 17.4198 34.8298 17.6243 34.4853 18.1732Z" fill="#FB7569"/>
<path d="M34.4745 21.5098C34.4315 20.9609 34.4315 20.9609 34.9696 20.9609C35.8522 20.9609 35.8522 20.9609 36.1321 20.0998C36.1859 19.9384 36.2505 19.7769 36.3043 19.6155C36.3258 19.7123 36.3904 19.82 36.3581 19.9061C36.2289 20.3366 36.1105 20.7779 35.9276 21.1869C35.863 21.3268 35.6477 21.456 35.4863 21.4775C35.1634 21.5421 34.819 21.5098 34.4745 21.5098Z" fill="#FB6F62"/>
<path d="M30.8796 20.9178C31.2886 20.9393 31.6976 20.9609 32.1605 20.9824C32.1605 21.1654 32.1605 21.3376 32.1605 21.5205C31.9344 21.5205 31.7084 21.5098 31.4824 21.5098C30.8904 21.499 30.8904 21.499 30.8796 20.9178Z" fill="#FE7B6F"/>
<path d="M16.2847 19.5401C16.2417 19.9168 16.2417 20.3151 16.1448 20.681C15.8865 21.6282 15.1546 22.0479 14.2613 22.091C12.7652 22.1556 11.2583 22.1125 9.71918 22.1125C9.71918 20.681 9.71918 19.2603 9.71918 17.8395C11.0753 17.8395 12.4315 17.8288 13.7877 17.8395C15.2192 17.8288 15.7896 18.227 16.2847 19.5401Z" fill="#E14C3F"/>
<path d="M16.2848 19.5401C15.7896 18.227 15.2192 17.8288 13.7769 17.818C12.4208 17.818 11.0646 17.818 9.70844 17.818C9.70844 17.6673 9.70844 17.5059 9.70844 17.3337C9.8053 17.3229 9.88065 17.2906 9.96675 17.2906C11.3122 17.2906 12.6468 17.2691 13.9922 17.3121C14.4227 17.3229 14.8748 17.4305 15.273 17.6135C16.0695 17.9902 16.2848 18.7221 16.2848 19.5401Z" fill="#FD7164"/>
<path d="M27.0264 21.7789C27.0372 23.1673 27.048 24.545 27.048 25.9335C27.048 26.0303 27.0157 26.138 26.9619 26.2025C26.3161 26.8806 25.5949 27.4618 24.6585 27.6879C23.2378 28.0323 22.1722 27.2896 22 25.8043C21.9139 25.0724 21.9785 24.3297 21.9677 23.5871C22.366 21.9618 23.3992 21.2622 25.3689 21.4344C25.9178 21.4775 26.4668 21.6605 27.0264 21.7789Z" fill="#E14C40"/>
<path d="M27.0264 21.7789C26.4775 21.6605 25.9286 21.4775 25.3581 21.4237C23.3885 21.2515 22.3552 21.9403 21.957 23.5763C21.9247 22.0802 22.8934 21.0254 24.3787 20.8963C25.1752 20.8209 25.9393 20.8963 26.6928 21.1654C27.0157 21.273 27.1341 21.456 27.0264 21.7789Z" fill="#FD7366"/>
</svg>
