<svg width="110" height="109" viewBox="0 0 110 109" fill="none" xmlns="http://www.w3.org/2000/svg">
<path d="M59.8118 4.95472C59.2192 4.36139 58.6125 3.75393 58.0199 3.1606C57.7941 3.07584 57.5401 3.04759 57.3708 2.90632C56.6371 2.34124 55.8328 1.95981 54.8593 2.08696C54.9157 2.62378 55.0004 3.1606 55.0145 3.71155C55.0286 9.88503 55.0145 16.0585 55.0286 22.232C55.0286 22.5428 55.1415 22.8536 55.1838 23.1502C58.7253 23.3621 61.632 24.7748 63.8613 27.572C67.0501 31.5557 66.8667 37.927 63.4662 41.6989C61.2087 44.2135 58.4149 45.4849 55.085 45.6262C55.0709 45.9228 55.0286 46.2195 55.0427 46.5162C55.0286 52.5201 55.0427 58.5241 55.0286 64.528C55.0145 64.8247 55.0004 65.1214 54.9863 65.418C55.2826 65.4322 55.5789 65.4745 55.8611 65.4745C61.7166 65.4887 67.5863 65.4887 73.4419 65.5028C73.5971 65.1214 73.7805 64.7399 73.9075 64.3302C75.4031 59.8944 76.3344 55.3455 76.7153 50.6695C76.8141 49.0449 76.9552 47.4062 76.9834 45.7674C76.9975 44.0863 76.9411 42.3911 76.7718 40.7241C76.4755 37.9411 76.2074 35.1581 75.643 32.4175C74.7682 28.1512 73.1738 24.0967 71.1138 20.2542C68.701 15.8325 65.8649 11.7215 62.4503 7.99201C62.3092 7.85075 62.3092 7.59646 62.2387 7.38456C61.6461 6.79123 61.0394 6.18377 60.4467 5.59043C60.2351 5.37853 60.0234 5.16663 59.8118 4.95472Z" fill="#378CC8"/>
<path d="M68.5742 75.2363C71.4103 77.3129 74.2463 79.3896 77.0824 81.4662C78.3241 82.3704 79.6786 82.5116 81.1037 81.9607C81.3295 81.8759 81.5552 81.7912 81.781 81.7346C82.1619 81.3532 82.557 80.9577 82.938 80.5762C83.2484 79.5591 83.6011 78.5561 83.8128 77.5248C84.617 73.7247 85.3225 69.9104 86.1691 66.1244C86.7053 63.7228 86.1973 61.6885 84.5747 59.8379C81.9926 56.8854 79.4529 53.8904 76.899 50.9097C76.8284 50.839 76.7438 50.7825 76.6732 50.7119C76.2781 55.3738 75.361 59.9368 73.8654 64.3726C73.7243 64.7682 73.5408 65.1496 73.3997 65.5452C73.2445 65.9831 73.1176 66.4493 72.9482 66.8731C71.7912 69.8115 70.2815 72.5663 68.5742 75.2363Z" fill="#4D4D4D"/>
<path d="M28.1354 81.7346C28.3047 81.7911 28.5163 81.8335 28.6716 81.9042C30.1531 82.5399 31.5358 82.3986 32.834 81.4662C35.6559 79.4037 38.492 77.327 41.2998 75.2504C41.0882 74.8972 40.8765 74.544 40.6508 74.1767C38.9435 71.4502 37.4761 68.5966 36.4461 65.531C35.0915 62.0558 34.2449 58.4676 33.6664 54.8087C33.4548 53.4666 33.2855 52.1104 33.0738 50.7684C30.3365 53.9893 27.5851 57.1961 24.8619 60.4312C23.6626 61.858 23.2252 63.5109 23.5779 65.305C24.4668 69.8963 25.4263 74.4734 26.3858 79.0505C26.4845 79.5732 26.7667 80.0535 26.9643 80.5621C27.3593 80.9577 27.7403 81.3391 28.1354 81.7346Z" fill="#4D4D4D"/>
<path d="M44.1782 97.797C44.3617 97.8394 44.5451 97.91 44.7285 97.9524C46.1959 98.4327 47.6634 97.4721 47.6916 95.9464C47.7339 92.4287 47.7339 88.9253 47.6916 85.4077C47.6775 84.1786 46.6616 83.2462 45.4622 83.2604C44.2347 83.2745 43.2611 84.1927 43.2329 85.4924C43.1906 87.6256 43.2188 89.7729 43.2188 91.9202C43.2188 92.9373 43.1623 93.9545 43.2329 94.9857C43.2893 95.7486 43.501 96.5256 43.6421 97.2884C43.8396 97.4579 44.0089 97.6275 44.1782 97.797Z" fill="#D4BF21"/>
<path d="M66.3588 97.1754C66.4576 96.3984 66.641 95.6214 66.6552 94.8444C66.6834 91.7648 66.6975 88.671 66.6693 85.5913C66.6551 83.8537 65.0466 82.78 63.5228 83.4864C62.6903 83.8678 62.2106 84.5742 62.2106 85.5065C62.1965 88.9676 62.1823 92.4287 62.2247 95.8898C62.2388 97.5427 63.7626 98.5033 65.3429 97.9382C65.4699 97.8959 65.6251 97.8535 65.7521 97.8111C65.9355 97.5992 66.1472 97.3873 66.3588 97.1754Z" fill="#D4BF21"/>
<path d="M56.9617 106.584C57.0464 105.849 57.1875 105.115 57.2016 104.394C57.2298 98.2067 57.2016 92.0191 57.2016 85.8315C57.2016 84.221 56.3691 83.331 54.8593 83.2886C54.8876 83.5146 54.9158 83.7407 54.9299 83.9526C54.9158 91.6235 54.9158 99.3086 54.9158 106.965C54.9158 107.191 54.8735 107.403 54.8735 107.629C55.325 107.516 55.7906 107.417 56.2421 107.304C56.4679 107.078 56.7218 106.824 56.9617 106.584Z" fill="#D4BF21"/>
<path d="M54.8592 107.643C54.8874 107.417 54.9156 107.191 54.9015 106.979C54.9156 99.3086 54.9156 91.6235 54.9015 83.9526C54.9015 83.7266 54.8592 83.5146 54.8309 83.2886C53.5611 83.4016 52.7286 84.2351 52.6862 85.4924C52.6439 86.6084 52.6721 87.7386 52.6862 88.8546C52.6862 94.0816 52.6862 99.3086 52.6862 104.536C52.6862 105.214 52.8415 105.906 52.9261 106.584C53.2083 106.866 53.4905 107.149 53.7727 107.432C54.1537 107.502 54.5064 107.573 54.8592 107.643Z" fill="#D44221"/>
<path d="M54.86 107.643C54.5073 107.573 54.1547 107.502 53.8021 107.432C54.1829 107.813 54.5779 108.208 54.9587 108.59C55.3818 108.166 55.805 107.742 56.2281 107.319C55.7768 107.432 55.3113 107.53 54.86 107.643Z" fill="#FEFBF7"/>
<path d="M33.1022 50.7684C33.2997 52.1246 33.4831 53.4666 33.6948 54.8087C34.2733 58.4676 35.1057 62.0699 36.4744 65.531C38.732 65.5028 40.9895 65.4745 43.2471 65.4745C47.1132 65.4745 50.9934 65.4886 54.8736 65.5028C54.9018 65.4745 54.9441 65.4604 54.9723 65.4321C54.9865 65.1355 55.0288 64.8388 55.0147 64.5421C55.0288 58.5382 55.0147 52.5342 55.0288 46.5303C55.0429 46.2336 55.057 45.937 55.0711 45.6403C55.0429 45.612 55.0006 45.5979 54.9582 45.5838C54.7748 45.5979 54.6196 45.6403 54.4362 45.6262C50.302 45.3578 47.1132 43.4365 45.1519 39.8059C42.8802 35.5819 43.2048 31.4145 46.0973 27.5578C48.2702 24.6759 51.2191 23.2491 54.8312 23.2208C54.93 23.2067 55.057 23.1926 55.1558 23.1785C55.0993 22.8677 54.9864 22.5569 55.0006 22.2602C54.9864 16.0867 55.0006 9.91326 54.9864 3.73979C54.9864 3.20297 54.8877 2.65202 54.8312 2.1152C53.5472 2.01631 52.5878 2.72265 51.7694 3.54201C49.9351 5.35026 48.0726 7.15851 46.4077 9.13628C41.8926 14.5045 38.1958 20.3531 35.8395 27.0069C34.4285 31.0189 33.5678 35.1299 33.2432 39.3538C33.0739 41.6989 32.9893 44.0722 32.9328 46.4173C32.9187 47.8441 33.0457 49.2992 33.1022 50.7684Z" fill="#2C70A0"/>
<path d="M54.9581 65.4463C54.9299 65.4745 54.8876 65.4887 54.8594 65.5169C54.8735 65.7853 54.9158 66.0537 54.9158 66.3363C54.9158 69.8115 54.9158 73.2867 54.9158 76.762C54.9158 77.0445 54.8735 77.3412 54.8594 77.6378C58.1893 77.6378 61.5051 77.652 64.8209 77.6378C66.2319 77.6378 67.3465 77.0021 68.1367 75.8155C68.2637 75.6035 68.4471 75.4199 68.5882 75.2221C70.2955 72.5521 71.8052 69.7974 72.9622 66.859C73.1457 66.421 73.2586 65.969 73.4138 65.531C67.5582 65.5169 61.6885 65.5169 55.833 65.5028C55.5508 65.5028 55.2403 65.4745 54.9581 65.4463Z" fill="#2C70A0"/>
<path d="M54.9582 45.5838C55.0005 45.5979 55.0287 45.6262 55.0711 45.6403C58.4151 45.4849 61.2088 44.2135 63.4523 41.713C66.8668 37.927 67.0362 31.5699 63.8473 27.5861C61.618 24.789 58.7114 23.3763 55.1698 23.1644C55.071 23.1785 54.9441 23.1926 54.8453 23.2067C54.8735 24.6759 54.9017 26.1451 54.9441 27.6285C54.9723 27.6567 55.0146 27.6709 55.0428 27.6991C57.3286 27.7556 59.177 28.6739 60.461 30.5527C61.9566 32.7565 62.1542 35.1581 60.8843 37.5315C59.6426 39.8483 57.6531 41.0773 54.9723 41.1056C54.9441 41.1338 54.8876 41.1621 54.8594 41.1903C54.8876 42.6595 54.9158 44.1287 54.9582 45.5838Z" fill="#737373"/>
<path d="M54.845 77.6237C54.8591 77.3271 54.9014 77.0304 54.9014 76.7479C54.9014 73.2726 54.9014 69.7974 54.9014 66.3222C54.9014 66.0396 54.8732 65.7853 54.845 65.5028C50.9648 65.4887 47.0987 65.4604 43.2185 65.4746C40.9609 65.4746 38.7034 65.5028 36.4458 65.5311C37.4899 68.5825 38.9432 71.4503 40.6505 74.1768C40.8622 74.5299 41.0879 74.8972 41.2996 75.2504C41.6382 75.6742 41.9768 76.098 42.3437 76.4936C43.021 77.2282 43.8675 77.6237 44.8411 77.6378C48.1851 77.6802 51.5151 77.652 54.845 77.6237Z" fill="#215478"/>
<path d="M54.9583 45.5838C54.93 44.1146 54.8877 42.6595 54.8595 41.1903C54.7043 41.1762 54.5773 41.1621 54.4221 41.148C50.3161 40.71 47.5365 36.9664 48.3831 32.9826C49.0463 29.8888 51.4731 27.911 54.9441 27.6285C54.9159 26.1593 54.8877 24.6901 54.8454 23.2067C51.2333 23.235 48.2843 24.6618 46.1114 27.5437C43.2189 31.4004 42.8803 35.5819 45.1661 39.7918C47.1273 43.4224 50.3161 45.3437 54.4503 45.6121C54.6196 45.6403 54.7889 45.6121 54.9583 45.5838Z" fill="#4D4D4D"/>
<path d="M54.9439 27.6285C51.4446 27.911 49.0319 29.9029 48.3828 32.9826C47.5362 36.9664 50.3159 40.71 54.4218 41.1479C54.577 41.1621 54.7181 41.1903 54.8592 41.1903C54.8874 41.1621 54.9439 41.1338 54.9721 41.1056C54.9862 40.7806 55.0003 40.4557 55.0003 40.1449C55.0144 36.0057 55.0144 31.8524 55.0285 27.7132C55.0003 27.685 54.9721 27.6567 54.9439 27.6285Z" fill="#378CC8"/>
<path d="M55.0287 27.7132C55.0146 31.8524 55.0146 36.0057 55.0005 40.1449C55.0005 40.4557 54.9723 40.7948 54.9723 41.1056C57.6391 41.0914 59.6285 39.8624 60.8843 37.5314C62.1542 35.1581 61.9566 32.7848 60.461 30.5527C59.177 28.6739 57.3145 27.7697 55.0287 27.7132Z" fill="#5FA3D3"/>
</svg>
