<svg width="160" height="40" viewBox="0 0 160 40" fill="none" xmlns="http://www.w3.org/2000/svg">
<path d="M0.721222 30.5727V18.4392C0.721222 13.5387 0.721222 8.63585 0.721222 3.73074C0.721222 3.12163 0.624567 2.5333 1.53588 2.44678C6.02339 2.02802 10.5351 1.64387 14.9984 2.65096C21.0531 4.01452 24.7605 8.60009 24.9365 14.788C25.0297 18.2004 24.5913 21.4674 22.7411 24.4298C20.3247 28.2852 16.607 30.1021 12.3197 30.5001C8.53985 30.8496 4.69785 30.5727 0.721222 30.5727ZM5.8646 6.3298V26.5548C11.0667 27.4649 15.713 26.0529 17.6875 22.6613C20.1038 18.5084 20.449 14.037 17.8221 9.95326C15.0433 5.61341 10.4764 5.82106 5.8646 6.3298Z" fill="#F8FBFB"/>
<path d="M144.021 12.0436V0.834045H149.199V30.5035H144.767C144.674 29.5691 144.58 28.6416 144.487 27.7107C144.418 27.7107 144.304 27.6795 144.277 27.7107C140.269 32.6908 133.099 32.0228 130.258 26.2398C128.187 22.0453 128.367 17.7159 130.828 13.6806C133.099 9.9602 137.918 8.55164 141.664 10.3893C142.482 10.7942 143.176 11.4414 144.021 12.0436ZM144.149 20.3495L143.987 20.3288C143.987 19.557 144.035 18.7818 143.987 18.0135C143.936 17.0379 143.579 16.1035 142.965 15.3447C142.352 14.5859 141.514 14.0417 140.572 13.7905C139.631 13.5393 138.634 13.594 137.725 13.9468C136.817 14.2995 136.043 14.9321 135.516 15.7536C133.862 18.1277 133.828 22.4226 135.457 24.8001C135.922 25.5326 136.589 26.1146 137.376 26.4757C138.164 26.8367 139.039 26.9616 139.896 26.8351C140.762 26.77 141.587 26.4395 142.26 25.8886C142.932 25.3376 143.419 24.5928 143.655 23.755C143.98 22.6717 143.99 21.4881 144.149 20.3495Z" fill="#F8FBFB"/>
<path d="M73.7468 40C73.3257 38.4634 72.946 37.0722 72.5421 35.6048L73.7261 35.0787C75.5161 34.3138 77.0326 33.0226 78.0755 31.3757C78.3611 30.9793 78.5357 30.5135 78.5812 30.0267C78.6267 29.5399 78.5415 29.0497 78.3344 28.607C76.0147 22.9348 73.7572 17.2417 71.4823 11.5522C71.3132 11.1265 71.1751 10.687 70.9818 10.1402C72.763 10.1402 74.3958 10.0986 76.0251 10.1782C76.2234 10.2356 76.4058 10.3382 76.558 10.4782C76.7101 10.6181 76.8278 10.7914 76.9019 10.9846C78.4035 15.4525 79.8498 19.9377 81.3169 24.416C81.3924 24.5771 81.4801 24.7321 81.5792 24.8797C83.0187 19.9169 84.4271 15.0683 85.8424 10.1955H91.4518C90.4507 12.9019 89.5187 15.5148 88.5245 18.1035C86.8676 22.4226 85.2728 26.7555 83.4605 31.0296C82.028 34.4004 79.9775 37.3698 76.5084 39.0171C75.6048 39.3908 74.6831 39.7188 73.7468 40Z" fill="#F8FBFB"/>
<path d="M104.935 17.2106C104.987 14.9507 104.182 13.8674 102.135 13.4556C99.7536 12.978 97.5755 13.7256 95.3662 14.7811L94.3824 11.5868C97.3028 9.34071 103.741 8.95656 106.809 10.8427C109.119 12.2651 110.006 14.5077 110.14 17.0549C110.258 19.2871 110.168 21.5297 110.168 23.7688V30.507H105.864C105.739 29.8425 105.618 29.1884 105.467 28.3544C104.671 29.2305 103.695 29.9221 102.606 30.3812C101.517 30.8402 100.341 31.0556 99.1599 31.0123C96.1981 30.9431 93.875 29.2819 93.1225 26.662C92.7437 25.3306 92.7904 23.9136 93.256 22.6102C93.7216 21.3067 94.5826 20.1821 95.7183 19.3944C98.1347 17.7505 100.896 17.3871 103.692 17.2313C104.113 17.2106 104.531 17.2106 104.935 17.2106ZM105.177 20.4984C103.03 20.6195 101 20.5987 99.2773 21.8827C98.724 22.2993 98.324 22.888 98.1397 23.5567C97.9555 24.2254 97.9974 24.9365 98.2589 25.5788C98.6973 26.7763 99.7295 27.3577 101.262 27.2781C102.259 27.2483 103.209 26.8495 103.929 26.1586C104.649 25.4677 105.089 24.5337 105.163 23.5369C105.253 22.606 105.19 21.6577 105.19 20.5018L105.177 20.4984Z" fill="#F8FBFB"/>
<path d="M68.8623 29.9775C65.331 31.0919 61.9101 31.4449 58.5065 30.1575C54.6266 28.6832 52.7384 25.6584 52.4864 21.63C51.796 10.5555 62.2588 7.8941 68.8623 10.6351C68.5655 11.874 68.2582 13.1407 67.951 14.4143C64.6027 13.4487 61.3924 13.0092 58.976 16.1723C57.2949 18.3734 57.3122 22.0557 58.8655 24.3225C60.5639 26.8005 63.1425 27.3369 68.1167 26.1948L68.8623 29.9775Z" fill="#F8FBFB"/>
<path d="M120.679 30.5416H115.539V10.2025H119.851C119.909 11.2719 119.965 12.3239 120.044 13.7567C121.666 10.9881 123.638 9.28535 126.882 9.72834V14.5735C126.63 14.5735 126.351 14.5735 126.068 14.5735C122.995 14.4143 120.89 16.1481 120.783 19.2352C120.641 22.7548 120.707 26.2848 120.679 29.8114V30.5416Z" fill="#F8FBFB"/>
<path d="M151.698 4.98703V1.24722H150.366V0.485748H153.934V1.24722H152.605V4.98703H151.698Z" fill="#F8FBFB"/>
<path d="M154.51 4.98703V0.485748H155.866L156.681 3.5562L157.486 0.485748H158.846V4.98703H158.004V1.44373L157.113 4.98703H156.24L155.352 1.44373V4.98703H154.51Z" fill="#F8FBFB"/>
<path d="M34.2856 14.2857H41.4285L42.8571 15.7143L44.2856 17.1428V27.1428H34.2856V14.2857Z" fill="#67A352"/>
<path fill-rule="evenodd" clip-rule="evenodd" d="M42.857 21.4286H34.9999V20.7143H42.857V21.4286Z" fill="#F8FBFB"/>
<path fill-rule="evenodd" clip-rule="evenodd" d="M42.857 23.5714H34.9999V22.8571H42.857V23.5714Z" fill="#F8FBFB"/>
<path fill-rule="evenodd" clip-rule="evenodd" d="M42.857 25.7143H34.9999V25H42.857V25.7143Z" fill="#F8FBFB"/>
<path d="M41.4284 17.1428V14.2857L44.2856 17.1428H41.4284Z" fill="#F8FBFB"/>
<path fill-rule="evenodd" clip-rule="evenodd" d="M38.5713 16.4286H34.9999V15.7143H38.5713V16.4286Z" fill="#F8FBFB"/>
<path d="M38.8047 31.2524C37.3523 31.2545 35.9141 30.9664 34.5741 30.4049C33.2341 29.8435 32.0191 29.02 31 27.9826C29.981 26.9451 29.1783 25.7145 28.6389 24.3625C28.0996 23.0106 27.8343 21.5645 27.8586 20.1086C27.8931 14.1491 32.8639 9.27977 38.9048 9.28669C40.3594 9.26719 41.8034 9.53832 43.1524 10.0843C44.5014 10.6302 45.7285 11.44 46.762 12.4665C47.7955 13.4929 48.6148 14.7155 49.172 16.0627C49.7293 17.41 50.0133 18.8551 50.0076 20.3136C50.0019 21.7721 49.7065 23.2148 49.1387 24.5577C48.5709 25.9005 47.742 27.1165 46.7004 28.1348C45.6589 29.153 44.4255 29.9531 43.0722 30.4884C41.719 31.0237 40.2729 31.2834 38.8185 31.2524H38.8047ZM38.853 10.6053C36.9414 10.6053 35.0726 11.1736 33.4832 12.2384C31.8937 13.3031 30.6549 14.8165 29.9233 16.5872C29.1918 18.3579 29.0004 20.3063 29.3733 22.186C29.7462 24.0657 30.6668 25.7924 32.0185 27.1476C33.3702 28.5028 35.0925 29.4257 36.9674 29.7996C38.8423 30.1735 40.7857 29.9816 42.5518 29.2481C44.3179 28.5147 45.8274 27.2727 46.8895 25.6791C47.9515 24.0856 48.5184 22.2121 48.5184 20.2955C48.5111 17.7277 47.4905 15.2672 45.6794 13.4515C43.8684 11.6358 41.4142 10.6126 38.853 10.6053Z" fill="#67A352"/>
</svg>
