<svg width="36" height="36" viewBox="0 0 36 36" fill="none" xmlns="http://www.w3.org/2000/svg">
<path d="M0.5 19.0278C0.5 18.3251 0.5 17.6133 0.5 16.9106C0.518252 16.8284 0.554755 16.7463 0.563881 16.655C0.646015 16.0071 0.709896 15.35 0.819407 14.7021C1.12969 12.9043 1.77763 11.2251 2.63546 9.62809C3.80358 7.45613 5.40062 5.64007 7.34443 4.12517C8.74983 3.03006 10.3104 2.19047 11.9804 1.56991C13.2854 1.09536 14.6178 0.74858 16.0141 0.639069C16.2696 0.693824 16.516 0.739454 16.7715 0.794209C19.9108 1.40565 22.7033 2.74715 25.0943 4.85524C26.6275 6.20588 27.9051 7.78466 28.8907 9.59159C30.1957 11.9826 30.8984 14.547 31.0262 17.2665C31.0718 18.2703 31.0079 19.2924 30.8893 20.2872C30.652 22.1671 30.1227 23.974 29.2649 25.6714C28.8086 25.4433 28.3705 25.1695 27.896 24.9961C27.175 24.7224 26.4267 24.5216 25.6875 24.2934C25.3134 24.1748 24.9301 24.0744 24.5468 23.9558C24.419 23.8645 24.2913 23.7641 24.1544 23.7003C23.187 23.2166 22.2105 22.742 21.2341 22.2675C21.1428 22.2219 21.0424 22.2036 20.9512 22.1762L20.9238 22.1854C20.9238 21.5009 20.9238 20.8073 20.9147 20.1229C21.0059 20.0408 21.0881 19.9586 21.1793 19.8674C21.6082 19.4384 22.0828 19.0369 22.4569 18.5624C23.0136 17.8414 23.3148 17.0018 23.406 16.0892C23.4334 15.7972 23.4882 15.5599 23.8897 15.5143C24.3186 15.4596 24.5559 15.0945 24.565 14.6565C24.5742 14.045 24.565 13.4336 24.565 12.8222C24.565 11.6358 24.5833 10.4586 24.565 9.27218C24.5559 8.38697 23.908 7.73903 23.0136 7.6934C22.5665 7.66602 22.4022 7.52001 22.3657 7.08196C22.2927 6.26976 21.7634 5.66745 20.9694 5.53968C20.6956 5.49405 20.4036 5.53056 20.1207 5.53056C18.4507 5.53056 16.7806 5.49405 15.1015 5.53056C13.0025 5.57619 11.4511 7.19147 11.4328 9.28131C11.4237 10.4677 11.4328 11.6449 11.4328 12.8313C11.4328 13.4245 11.4328 14.0085 11.4328 14.6017C11.4328 15.0945 11.6519 15.4322 12.1355 15.5052C12.5006 15.5599 12.5645 15.7607 12.5918 16.0527C12.7652 17.6589 13.5227 18.9183 14.8186 19.8674C14.9919 19.9951 15.065 20.1229 15.065 20.3419C15.0558 20.9534 15.065 21.5648 15.065 22.1854L15.0376 22.1762C14.9189 22.2219 14.8003 22.2492 14.6908 22.304C13.8968 22.6873 13.1029 23.0797 12.3181 23.4721C12.0169 23.6272 11.7249 23.8006 11.4328 23.9649C10.1643 24.3664 8.87759 24.695 7.63646 25.1786C6.32233 25.6897 5.54663 26.7301 5.34586 28.1354C5.2546 28.7378 5.2911 29.3583 5.26373 29.9698C4.37851 29.1028 3.65757 28.1172 3.02788 27.0677C1.732 24.914 0.90154 22.6051 0.627763 20.1046C0.591259 19.7396 0.54563 19.3837 0.5 19.0278Z" fill="#CAE1FE"/>
<path d="M30.7159 29.9607C30.1319 30.5173 29.5843 31.1105 28.9637 31.6124C26.2168 33.8392 23.0593 35.0985 19.5367 35.4271C19.4728 35.4362 19.418 35.4727 19.3633 35.491C19.1351 35.491 18.907 35.491 18.6788 35.491C19.0895 35.062 19.5002 34.624 19.9108 34.1951C20.0112 34.1951 20.1299 34.2133 20.212 34.1768C21.9277 33.4376 23.5338 32.5159 24.9392 31.2565C26.2442 30.0975 27.4123 28.8199 28.3249 27.3324C28.6535 26.8031 28.9546 26.2555 29.2649 25.7171C30.0132 26.3103 30.4878 27.086 30.6155 28.026C30.7159 28.6648 30.6885 29.3127 30.7159 29.9607Z" fill="#407093"/>
<path d="M19.9017 34.1859C19.491 34.6149 19.0804 35.0529 18.6697 35.4818C18.5328 35.4818 18.3959 35.4818 18.259 35.4818C18.3594 35.2628 18.4507 35.0347 18.5511 34.8156L18.5419 34.8065C18.5602 34.7791 18.5784 34.7518 18.6058 34.7335C19.0074 33.8209 19.418 32.9174 19.8196 32.0049C20.5679 30.1249 21.2067 28.2085 21.4531 26.1916C21.4714 26.0456 21.5079 25.8996 21.517 25.7536C21.6082 24.5125 21.5717 23.2896 20.9512 22.158C21.0424 22.1854 21.1519 22.2036 21.2341 22.2492C22.2106 22.7238 23.187 23.1983 24.1544 23.682C24.2913 23.755 24.419 23.8554 24.5468 23.9375C24.492 24.1839 24.4647 24.4486 24.3734 24.6859C24.2365 25.0235 24.054 25.3338 23.8897 25.6623C23.6616 26.1369 23.7072 26.3924 24.0631 26.7666C24.1818 26.8852 24.3095 27.0038 24.419 27.1316C24.638 27.3871 24.7476 27.67 24.6107 28.0077C24.5377 28.1902 24.4738 28.3727 24.3916 28.5461C23.5794 30.207 22.3474 31.5577 21.1246 32.9174C20.7413 33.3555 20.3124 33.7662 19.9017 34.1859Z" fill="#375E7D"/>
<path d="M11.4329 23.9467C11.7249 23.7824 12.0169 23.609 12.3181 23.4539C13.1029 23.0615 13.8968 22.669 14.6908 22.2858C14.8003 22.231 14.919 22.2036 15.0376 22.158C14.3349 23.4904 14.3258 24.8958 14.563 26.3285C14.5722 26.4563 14.563 26.5841 14.5813 26.7027C14.8916 28.5279 15.4574 30.2892 16.1509 32.0049C16.5981 33.0087 17.0544 34.0034 17.5016 35.0073C17.5746 35.1624 17.6385 35.3267 17.7115 35.4818C17.602 35.4818 17.4833 35.4818 17.3738 35.4818C17.2552 35.3723 17.1457 35.2537 17.027 35.1442C16.9814 35.0894 16.9449 35.0347 16.8993 34.9799C15.722 33.7296 14.5174 32.5068 13.3767 31.2291C12.601 30.3622 11.953 29.404 11.4785 28.3362C11.1865 27.6792 11.2321 27.4419 11.734 26.94C11.7888 26.8852 11.8435 26.8305 11.8983 26.7666C12.2633 26.3924 12.3089 26.1278 12.0808 25.6623C11.9257 25.3338 11.734 25.0235 11.5971 24.6859C11.515 24.4577 11.4967 24.2022 11.4329 23.9467Z" fill="#375E7D"/>
<path d="M17.7206 35.491C17.6476 35.3358 17.5837 35.1716 17.5107 35.0164C17.8575 34.9525 18.2043 34.8886 18.551 34.8248C18.4507 35.0438 18.3594 35.2719 18.259 35.491C18.0856 35.491 17.9031 35.491 17.7206 35.491Z" fill="#D6636F"/>
<path d="M17.0362 35.1442C17.1548 35.2537 17.2643 35.3723 17.383 35.4818C17.1092 35.4818 16.8354 35.4818 16.5616 35.4818C16.3517 35.4362 16.151 35.3906 15.9411 35.3541C16.3061 35.2902 16.6711 35.2172 17.0362 35.1442Z" fill="#467598"/>
<path d="M30.7159 29.9606C30.6885 29.3127 30.7159 28.6648 30.6247 28.0351C30.4878 27.0951 30.0223 26.3194 29.274 25.7262C29.274 25.708 29.2649 25.6897 29.2649 25.6715C30.1227 23.974 30.652 22.1671 30.8893 20.2872C31.0171 19.2925 31.081 18.2703 31.0262 17.2665C30.8984 14.5561 30.1957 11.9917 28.8907 9.59161C27.9051 7.78468 26.6275 6.20589 25.0944 4.85526C22.6942 2.74717 19.9017 1.40566 16.7715 0.794225C16.516 0.748596 16.2696 0.69384 16.0141 0.639085C17.3465 0.420063 18.6788 0.49307 20.0203 0.629959C21.5535 0.794225 23.041 1.16839 24.4647 1.74332C26.2533 2.45514 27.8778 3.44074 29.3379 4.70012C31.3091 6.39754 32.8514 8.40524 33.9282 10.778C34.6674 12.4115 35.1785 14.1181 35.3519 15.9067C35.434 16.8285 35.507 17.7684 35.4796 18.6901C35.4066 20.7709 34.9686 22.7785 34.1564 24.7132C33.4263 26.4563 32.4316 28.0442 31.2087 29.477C31.0536 29.6504 30.8711 29.7964 30.7159 29.9606Z" fill="#BDD7FA"/>
<path d="M15.065 22.1763C15.065 21.5648 15.0467 20.9534 15.065 20.3328C15.065 20.1138 14.992 19.986 14.8186 19.8583C13.5318 18.9092 12.7652 17.6407 12.5919 16.0436C12.5645 15.7516 12.5006 15.5508 12.1356 15.4961C11.661 15.4231 11.442 15.0854 11.4329 14.5926C11.4329 13.9994 11.4329 13.4154 11.4329 12.8222C11.7979 12.8222 12.1629 12.8313 12.528 12.8222C13.185 12.8039 13.6413 12.3659 13.6778 11.7088C13.687 11.5172 13.6778 11.3255 13.6778 11.1248C13.6961 10.2578 14.4079 9.70114 15.2292 9.95666C16.8445 10.4677 18.4689 10.5225 20.1116 10.1483C20.1116 11.0609 20.1207 11.9735 20.1116 12.877C20.0934 14.2093 20.1116 15.5417 20.0295 16.865C19.9565 18.0148 19.4454 19.0004 18.6423 19.8218C18.2955 20.1777 17.894 20.4971 17.5016 20.8347C18.4598 20.9169 19.3633 20.78 20.2211 20.3876C20.4493 20.2872 20.6774 20.1959 20.9056 20.0956C20.9056 20.78 20.9056 21.4736 20.9147 22.158C20.7687 22.2949 20.6135 22.4318 20.4766 22.5869C19.7466 23.4356 19.0256 24.2935 18.3047 25.1513C18.2225 25.2517 18.186 25.3795 18.1222 25.4981C18.0765 25.4981 18.0309 25.489 17.9853 25.489C17.8758 25.3247 17.7754 25.1422 17.6476 24.987C17.3465 24.6311 17.0362 24.2843 16.7259 23.9376C16.1783 23.3626 15.6217 22.7694 15.065 22.1763Z" fill="#FEDCCD"/>
<path d="M17.0362 35.1442C16.6711 35.2172 16.3061 35.2811 15.9411 35.3541C14.0702 35.1624 12.2907 34.6331 10.5933 33.8483C8.71333 32.9722 7.04329 31.7858 5.57401 30.3166C5.4645 30.2071 5.36412 30.0793 5.26373 29.9607C5.29111 29.3492 5.25461 28.7287 5.34587 28.1264C5.54664 26.721 6.32234 25.6806 7.63647 25.1696C8.86847 24.6859 10.1643 24.3574 11.4329 23.9558C11.4876 24.2022 11.515 24.4669 11.6062 24.7041C11.7431 25.0418 11.9257 25.3521 12.0899 25.6806C12.3181 26.146 12.2724 26.4107 11.9074 26.7848C11.8526 26.8396 11.7979 26.8944 11.7431 26.9582C11.2412 27.4602 11.1956 27.6974 11.4876 28.3545C11.9622 29.4222 12.6192 30.3896 13.3858 31.2474C14.5265 32.525 15.7312 33.7479 16.9084 34.9982C16.954 35.0347 16.9905 35.0894 17.0362 35.1442Z" fill="#4A80A9"/>
<path d="M20.1116 10.1574C18.4689 10.5316 16.8445 10.4768 15.2292 9.96576C14.3987 9.70111 13.6869 10.2669 13.6778 11.1339C13.6778 11.3255 13.6869 11.5172 13.6778 11.7179C13.6413 12.375 13.1941 12.813 12.5279 12.8313C12.1629 12.8404 11.7979 12.8313 11.4328 12.8313C11.4328 11.6449 11.4237 10.4677 11.4328 9.28132C11.442 7.18236 13.0025 5.56707 15.1014 5.52144C16.7715 5.48494 18.4415 5.52144 20.1207 5.52144C20.1207 6.92683 20.1207 8.33222 20.1207 9.74674C20.1207 9.86538 20.1755 9.97489 20.2028 10.0935C20.1663 10.1118 20.1389 10.13 20.1116 10.1574Z" fill="#375E7D"/>
<path d="M20.1116 10.1574C20.139 10.13 20.1664 10.1118 20.2029 10.0844C20.4128 10.0296 20.6135 9.98402 20.8234 9.92926C21.5717 9.74674 22.2471 10.2213 22.3109 10.9879C22.3383 11.2708 22.3201 11.5537 22.3474 11.8366C22.4113 12.4115 22.8494 12.7948 23.4243 12.8039C23.7985 12.8131 24.1726 12.8039 24.5468 12.8039C24.5468 13.4154 24.5559 14.0268 24.5468 14.6382C24.5468 15.0763 24.3004 15.4413 23.8715 15.4961C23.4791 15.5417 23.4243 15.7881 23.3878 16.071C23.2965 16.9836 22.9954 17.8232 22.4387 18.5441C22.0645 19.0187 21.59 19.4202 21.1611 19.8491C21.0789 19.9313 20.9877 20.0225 20.8964 20.1047C20.6683 20.1959 20.431 20.2872 20.212 20.3967C19.345 20.7891 18.4416 20.9351 17.4925 20.8439C17.8849 20.4971 18.2773 20.1868 18.6332 19.8309C19.4363 19.0095 19.9473 18.0239 20.0203 16.8741C20.1025 15.5508 20.0842 14.2184 20.1025 12.8861C20.1207 11.9826 20.1116 11.07 20.1116 10.1574Z" fill="#FECABD"/>
<path d="M29.2649 25.6623C29.2649 25.6806 29.2649 25.6988 29.274 25.7171C28.9637 26.2555 28.6535 26.7939 28.334 27.3324C27.4215 28.829 26.2533 30.0975 24.9483 31.2565C23.5429 32.5068 21.9368 33.4285 20.2211 34.1768C20.1298 34.2133 20.0203 34.1859 19.92 34.1951C20.3306 33.7753 20.7595 33.3646 21.152 32.9266C22.3748 31.5759 23.6068 30.2162 24.419 28.5552C24.5012 28.3818 24.565 28.1993 24.638 28.0168C24.7749 27.6792 24.6654 27.3963 24.4464 27.1407C24.3369 27.013 24.2091 26.9035 24.0905 26.7757C23.7255 26.4107 23.689 26.146 23.9171 25.6715C24.0722 25.3429 24.2639 25.0326 24.4008 24.695C24.492 24.4577 24.5194 24.2022 24.5742 23.9467C24.9575 24.0562 25.3316 24.1657 25.7149 24.2843C26.4541 24.5125 27.2024 24.7224 27.9234 24.987C28.3705 25.1695 28.8086 25.4342 29.2649 25.6623Z" fill="#4A80A9"/>
<path d="M24.5468 12.8131C24.1726 12.8131 23.7985 12.8131 23.4243 12.8131C22.8494 12.8039 22.4113 12.4206 22.3474 11.8457C22.3109 11.5628 22.3292 11.2799 22.3109 10.997C22.2471 10.2304 21.5717 9.75588 20.8234 9.9384C20.6135 9.99315 20.4128 10.0388 20.2029 10.0935C20.1755 9.9749 20.1207 9.86539 20.1207 9.74675C20.1116 8.34136 20.1207 6.93597 20.1207 5.52145C20.4036 5.52145 20.6957 5.48495 20.9694 5.53058C21.7634 5.65834 22.2836 6.26065 22.3657 7.07286C22.4022 7.5109 22.5665 7.66604 23.0136 7.68429C23.908 7.72992 24.5559 8.37786 24.565 9.26308C24.565 10.4494 24.5468 11.6267 24.5468 12.8131Z" fill="#2C4D66"/>
<path d="M15.065 22.1762C15.6216 22.7694 16.1783 23.3626 16.735 23.9649C17.0453 24.3026 17.3556 24.6585 17.6567 25.0144C17.7845 25.1695 17.8849 25.3429 17.9944 25.5163C17.5837 25.8631 17.173 26.2008 16.7715 26.5567C16.6072 26.7027 16.4521 26.867 16.297 27.0221C15.5213 27.2685 15.3935 27.2229 14.8824 26.5749C14.8094 26.4745 14.6725 26.4198 14.563 26.3468C14.3258 24.914 14.3349 23.5086 15.0376 22.1762C15.0376 22.1671 15.065 22.1762 15.065 22.1762Z" fill="#F2F9FD"/>
<path d="M18.1221 25.5163C18.186 25.3977 18.2225 25.2699 18.3046 25.1695C19.0256 24.3117 19.7465 23.4539 20.4766 22.6052C20.6044 22.45 20.7686 22.3223 20.9147 22.1762L20.942 22.1671C21.5626 23.2987 21.5991 24.5216 21.5078 25.7627C21.4987 25.9087 21.4713 26.0548 21.444 26.2008C21.2797 26.3833 21.1063 26.5567 20.9512 26.7392C20.6865 27.0677 20.3489 27.1864 19.9656 27.0495C19.8743 27.013 19.7739 26.9765 19.6827 26.9491C19.6097 26.867 19.5549 26.7666 19.4728 26.6936C19.0347 26.3012 18.5784 25.9087 18.1221 25.5163Z" fill="#F2F9FD"/>
<path d="M18.5511 34.8248C18.2043 34.8887 17.8575 34.9525 17.5107 35.0164C17.0635 34.0126 16.6072 33.0178 16.1601 32.014C16.2787 31.5668 16.4156 31.1288 16.5251 30.6816C16.7441 29.8055 16.9449 28.9294 17.1548 28.0533C17.7115 28.0533 18.2682 28.0533 18.8248 28.0533C18.8705 28.2632 18.8978 28.4731 18.9526 28.683C19.2446 29.7964 19.5367 30.9098 19.8287 32.014C19.4271 32.9266 19.0165 33.83 18.6149 34.7426C18.5876 34.7609 18.5693 34.7883 18.5511 34.8248Z" fill="#E18086"/>
<path d="M19.8196 32.0048C19.5275 30.8915 19.2355 29.7781 18.9435 28.6739C18.8887 28.464 18.8613 28.2541 18.8157 28.0442C19.1077 27.6791 19.3906 27.305 19.6827 26.9399C19.7739 26.9764 19.8743 27.013 19.9656 27.0403C20.3489 27.1681 20.6865 27.0586 20.9512 26.73C21.1063 26.5384 21.2797 26.365 21.444 26.1916C21.2067 28.2176 20.5679 30.1249 19.8196 32.0048Z" fill="#E2F3FD"/>
<path d="M18.5419 34.8156C18.5602 34.7882 18.5784 34.7609 18.6058 34.7426C18.5876 34.7609 18.5693 34.7882 18.5419 34.8156Z" fill="#D6636F"/>
<path d="M17.1548 28.0533C16.9449 28.9294 16.7441 29.8055 16.5251 30.6816C16.4156 31.1288 16.2787 31.5668 16.1601 32.014C15.4665 30.2983 14.9007 28.5461 14.5904 26.7118C14.5722 26.5932 14.5722 26.4654 14.5722 26.3376C14.6817 26.4107 14.8094 26.4654 14.8916 26.5658C15.4026 27.2229 15.5304 27.2685 16.3061 27.013C16.5799 27.3597 16.8719 27.7065 17.1548 28.0533Z" fill="#E2F4FD"/>
<path d="M17.1548 28.0533C16.8627 27.7065 16.5798 27.3598 16.2878 27.0221C16.443 26.867 16.5981 26.7027 16.7624 26.5567C17.1639 26.2099 17.5746 25.8631 17.9852 25.5163C18.0309 25.5163 18.0765 25.5255 18.1221 25.5255C18.5784 25.9179 19.0256 26.3103 19.4819 26.7027C19.564 26.7757 19.6188 26.867 19.6918 26.9582C19.3997 27.3233 19.1168 27.6974 18.8248 28.0625C18.2681 28.0442 17.7115 28.0442 17.1548 28.0533Z" fill="#DC646F"/>
</svg>
