<svg width="60" height="60" viewBox="0 0 60 60" fill="none" xmlns="http://www.w3.org/2000/svg">
<path d="M6.92304 18.4615H1.15381V53.0769C1.15381 54.607 1.76164 56.0744 2.84358 57.1564C3.92552 58.2383 5.39294 58.8461 6.92304 58.8461H41.5384V53.0769H6.92304V18.4615Z" fill="#F8FBFB"/>
<path d="M53.0769 1.15384H18.4615C16.9314 1.15384 15.464 1.76167 14.382 2.84361C13.3001 3.92555 12.6923 5.39297 12.6923 6.92307V41.5385C12.6923 43.0686 13.3001 44.536 14.382 45.6179C15.464 46.6999 16.9314 47.3077 18.4615 47.3077H53.0769C54.607 47.3077 56.0744 46.6999 57.1563 45.6179C58.2383 44.536 58.8461 43.0686 58.8461 41.5385V6.92307C58.8461 5.39297 58.2383 3.92555 57.1563 2.84361C56.0744 1.76167 54.607 1.15384 53.0769 1.15384ZM27.1153 35.7692V12.6923L47.3076 24.2308L27.1153 35.7692Z" fill="#F8FBFB"/>
</svg>
